<svg width="24" height="24" viewBox="0 0 24 24" fill="none" xmlns="http://www.w3.org/2000/svg">
<path d="M18.8654 0H5.1346C2.29884 0 0 2.29884 0 5.1346V18.8654C0 21.7012 2.29884 24 5.1346 24H18.8654C21.7012 24 24 21.7012 24 18.8654V5.1346C24 2.29884 21.7012 0 18.8654 0Z" fill="black"/>
<path d="M11.326 12.1393V12.7854V13.4315V14.0733H11.9678V13.4315V12.7854V12.1393V11.4932H11.326V12.1393Z" fill="white"/>
<path d="M9.39215 12.7854V12.1393V11.4932H8.74605V12.1393V12.7854V13.4315V14.0733H9.39215V13.4315V12.7854Z" fill="white"/>
<path d="M10.68 11.4934H11.3261V10.8516H10.68H10.0339H9.39209V11.4934H10.0339H10.68Z" fill="white"/>
<path d="M10.0339 14.0732H9.39209V14.7193H10.0339H10.68H11.3261V14.0732H10.68H10.0339Z" fill="white"/>
<path d="M14.548 14.0732H13.9062V14.7193H14.548H15.1941H15.8403V14.0732H15.1941H14.548Z" fill="white"/>
<path d="M15.1941 11.4934H15.8403V10.8516H15.1941H14.548H13.9062V11.4934H14.548H15.1941Z" fill="white"/>
<path d="M15.8401 12.1393V12.7854V13.4315V14.0733H16.482V13.4315V12.7854V12.1393V11.4932H15.8401V12.1393Z" fill="white"/>
<path d="M13.9063 12.7854V12.1393V11.4932H13.2602V12.1393V12.7854V13.4315V14.0733H13.9063V13.4315V12.7854Z" fill="white"/>
<path d="M19.0622 14.7186H19.7083V14.0853H20.4485V13.375H19.6997V14.0725H19.0622H18.4203V14.7186H19.0622Z" fill="white"/>
<path d="M7.38951 13.7434H6.53802V14.0728H6.16576H5.51966H4.97624V14.0215H4.87783V13.431V12.7849V12.1388V11.4927V10.8509V10.2048V9.55866V9.05376H5.50682V8.69434H3.55139V9.05376H4.23173V9.55866V10.2048V10.8509V11.4927V12.1388V12.7849V13.431V14.0215H4.22745V14.3381H3.98783V14.3895H3.78673V14.7403H4.21889V14.6933H4.22745V14.7318H4.97624V14.7189H5.51966H6.16576H6.81187H7.45797V14.0985H7.73181V14.0215H7.74465V13.2727H7.38951V13.7434Z" fill="white"/>
<path d="M20.4486 11.5278V10.8175H19.6998V10.8518H19.0623H18.4205V10.2057V9.55957H17.7744V10.2057V10.8518H17.1283V11.4936H17.7744V12.1397V12.7858V13.4319V14.0737H18.4205V13.4319V12.7858V12.1397V11.4936H19.0623H19.6998V11.5278H20.4486Z" fill="white"/>
</svg>