<svg width="24" height="24" viewBox="0 0 24 24" fill="none" xmlns="http://www.w3.org/2000/svg">
<path d="M16.8946 20.597C15.6398 19.9961 14.6485 19.0531 14.3096 18.6567C14.1967 18.9779 13.9081 19.7307 13.6571 20.1714C13.3434 20.7222 12.7787 21.4607 12.2642 21.9114C11.7497 22.362 10.0934 23.9143 8.28635 23.6139C6.4794 23.3134 5.19944 22.3996 4.59708 21.273C3.99479 20.1463 3.91948 19.0197 4.20808 17.8555C4.43901 16.9241 5.00702 15.8734 5.26217 15.4645C4.97357 15.5313 4.13283 15.5696 3.07873 15.1891C1.76115 14.7134 0.97061 13.9999 0.518873 13.086C0.0670769 12.1721 -0.0960038 10.5573 0.0545552 9.08012C0.205114 7.60301 1.10865 5.83788 3.19167 5.98814C4.85813 6.1083 6.6132 7.05635 7.28246 7.51533C7.08587 6.251 6.81063 3.38179 7.28246 2.01985C7.87224 0.317361 9.31534 -0.0456691 11.0847 0.00435683C12.854 0.0544423 13.8579 0.955743 14.5104 2.0073C15.0324 2.84852 15.1044 4.63613 15.0751 5.42483C15.5519 4.95746 16.8921 3.99769 18.4381 3.89758C20.3705 3.77237 21.2991 4.11035 22.0771 4.69877C22.8552 5.28712 23.7335 6.40126 23.9343 7.55293C24.1351 8.70459 23.859 9.43066 23.332 10.3445C22.9104 11.0756 21.8513 11.8425 21.3744 12.1346C21.663 12.3599 22.3582 12.9458 22.83 13.4866C23.4198 14.1626 23.972 15.3768 23.9845 16.8665C23.9971 18.3562 23.5453 19.0322 23.1563 19.6831C22.7673 20.3341 21.9642 21.3356 20.609 21.4483C19.2537 21.5609 18.4632 21.3481 16.8946 20.597Z" fill="#DC8898"/>
<path d="M8.31103 19.5759C7.59814 20.3936 6.87911 20.545 6.6087 20.5185C6.71955 20.4432 7.005 20.2503 7.26036 20.0804C7.57956 19.868 8.70998 18.4076 9.09565 17.8236C9.40417 17.3563 10.4034 15.7172 10.8645 14.9561L11.1304 15.1021C10.4876 16.2526 9.02386 18.7581 8.31103 19.5759Z" fill="#C57180"/>
<path d="M5.76029 10.9045C6.74126 11.0183 8.3578 11.4125 9.04348 11.5954L8.81931 11.8257C8.5556 11.758 7.94378 11.5981 7.60626 11.5006C7.18429 11.3787 5.58887 11.0807 4.46812 11.04C3.34736 10.9994 3.00452 11.0874 2.54301 11.1755C2.08156 11.2635 1.65959 11.4803 1.75194 11.3245C1.84423 11.1687 2.09472 11.0062 2.87269 10.8707C3.65061 10.7352 4.53403 10.7623 5.76029 10.9045Z" fill="#C57180"/>
<path d="M11.5984 5.90566C11.6895 6.66432 11.7882 8.54553 11.8261 9.39126H11.5225C11.5183 9.20761 11.5124 8.74544 11.5225 8.36608C11.5352 7.89197 11.2948 6.05947 11.1431 5.04708C11.0217 4.23721 10.6203 2.73615 10.4348 2.08691C10.6203 2.36452 11.0217 3.03008 11.1431 3.47088C11.2948 4.02189 11.4846 4.95738 11.5984 5.90566Z" fill="#C57180"/>
<path d="M16.5631 8.94935C15.7666 9.48127 14.8458 10.6252 14.4849 11.1308L14.2609 10.8041C14.4807 10.5241 15.0275 9.85459 15.4555 9.41597C15.9907 8.8677 16.8742 8.22609 18.2556 7.61951C19.3607 7.13421 20.6906 7.31619 21.2174 7.46785C21.0307 7.45615 20.5977 7.43986 20.3587 7.46785C20.06 7.50283 19.6991 7.52616 18.9649 7.68946C18.2307 7.85282 17.5587 8.2844 16.5631 8.94935Z" fill="#C57180"/>
<path d="M17.3128 15.226C16.4679 14.6667 14.2305 13.866 13.2174 13.5355L13.4363 13.2178C13.7454 13.3194 14.4718 13.5635 14.9045 13.7262C15.4454 13.9295 16.4756 14.4888 16.862 14.6922C17.2484 14.8955 18.562 15.709 18.9484 15.9505C19.3347 16.192 20.6999 17.1834 20.9703 17.4122C21.2407 17.641 21.2536 17.9841 21.1763 18.0731C21.0991 18.1621 20.8415 17.8189 20.5067 17.4757C20.1718 17.1325 18.3688 15.925 17.3128 15.226Z" fill="#C57180"/>
<path d="M11.6522 14.957C13.285 14.957 14.6087 13.6333 14.6087 12.0005C14.6087 10.3676 13.285 9.04395 11.6522 9.04395C10.0193 9.04395 8.69565 10.3676 8.69565 12.0005C8.69565 13.6333 10.0193 14.957 11.6522 14.957Z" fill="#FBECB3"/>
</svg>