<svg width="24" height="24" viewBox="0 0 24 24" fill="none" xmlns="http://www.w3.org/2000/svg">
<g clip-path="url(#clip0_929_668)">
<path d="M23.2766 11.9191C23.2766 18.1922 18.1912 23.2775 11.918 23.2775C5.64494 23.2775 0.55957 18.1922 0.55957 11.9191C0.55957 5.64592 5.64494 0.560547 11.918 0.560547C18.1912 0.560547 23.2766 5.64592 23.2766 11.9191Z" stroke="#31C77F" stroke-width="1.20825"/>
<mask id="mask0_929_668" style="mask-type:alpha" maskUnits="userSpaceOnUse" x="-1" y="-1" width="26" height="26">
<path d="M22.3102 11.9193C22.3102 17.6585 17.6575 22.3111 11.9182 22.3111C6.17895 22.3111 1.52637 17.6585 1.52637 11.9193C1.52637 6.17996 6.17895 1.52734 11.9182 1.52734C17.6575 1.52734 22.3102 6.17996 22.3102 11.9193Z" fill="#31C77F" stroke="#31C77F" stroke-width="4.0275"/>
</mask>
<g mask="url(#mask0_929_668)">
<path d="M6.86914 22.7838C6.95712 21.926 8.03307 20.3346 7.98651 19.4769C7.9813 19.3322 7.98651 19.1875 8.00715 19.0429C8.09513 18.4383 8.06928 17.8338 8.02272 17.2344C8.00201 16.9864 8.02272 16.7436 8.06407 16.4955C8.15204 15.9634 8.20375 15.4363 8.14169 14.8938C8.08477 14.3822 8.14683 13.8707 8.25031 13.3695C8.33822 12.9458 8.32793 12.5221 8.26066 12.0984C8.24516 12.0054 8.2296 11.9072 8.24516 11.8194C8.30201 11.5042 8.33307 11.1839 8.34343 10.8273C8.64864 11.096 8.97449 11.1115 9.32112 11.034C9.60562 10.972 9.77629 10.786 9.89012 10.5328C9.92633 10.4501 9.94183 10.3468 10.0815 10.3778C10.1488 10.3933 10.2263 10.3829 10.2367 10.29C10.247 10.2021 10.1798 10.1763 10.1074 10.1608C9.67803 10.0626 9.24349 9.95924 8.81417 9.86625C8.67449 9.83526 8.52967 9.79905 8.38999 9.78356C8.2658 9.76806 8.23995 9.71121 8.25031 9.59752C8.31236 9.07055 8.41069 8.5538 8.62279 8.06296C8.82967 7.58755 9.09346 7.13807 9.47108 6.77121C9.51764 6.72472 9.57456 6.67302 9.54349 6.59553C9.5125 6.51798 9.45044 6.49734 9.37796 6.52319C9.30041 6.54904 9.26935 6.50769 9.23314 6.45599C9.16073 6.34237 9.08311 6.22867 9.01591 6.10981C8.78832 5.73779 8.5141 5.40194 8.23995 5.06091C8.18304 4.98857 8.11063 4.92657 8.03307 4.86973C7.80027 4.70439 7.59332 4.7974 7.56747 5.08675C7.54683 5.27276 7.56233 5.46394 7.6296 5.63962C7.87268 6.25453 8.05892 6.89519 8.41069 7.46358C8.4986 7.60826 8.37449 7.67539 8.32793 7.77873C8.23995 7.71674 8.19339 7.6289 8.15204 7.55142C7.67095 6.70401 7.26747 5.82563 7.09673 4.85423C7.05024 4.60105 7.05024 4.34269 7.06052 4.08951C7.07609 3.81049 7.2002 3.73815 7.46921 3.80533C7.6658 3.85699 7.81577 3.98101 7.96066 4.11534C8.45204 4.57004 8.87108 5.08158 9.31591 5.57762C9.43488 5.71195 9.55385 5.8463 9.66768 5.98064C9.74009 6.06331 9.80736 6.14082 9.81771 6.26481C9.828 6.40435 9.92633 6.4457 10.0557 6.394C10.0866 6.38365 10.1177 6.36815 10.1488 6.34751C10.366 6.19768 10.6092 6.14598 10.8677 6.10465C11.5764 5.97547 12.2748 6.02714 12.9731 6.17183C13.0818 6.19768 13.1749 6.25453 13.2732 6.3113C13.4853 6.44049 13.5628 6.4095 13.6249 6.17183C13.6404 6.10465 13.6818 6.04781 13.7283 5.99614C14.3026 5.35543 14.8354 4.67855 15.4664 4.08951C15.6061 3.96034 15.7458 3.83633 15.932 3.77949C16.2372 3.68131 16.3665 3.77432 16.3872 4.08951C16.4234 4.68888 16.2786 5.25726 16.0872 5.8153C15.8958 6.37336 15.632 6.9004 15.3527 7.41709C15.2905 7.53078 15.213 7.6289 15.1354 7.75809C14.8819 7.38088 14.8819 7.38609 15.0733 7.02438C15.3112 6.58003 15.5544 6.14598 15.7199 5.66545C15.7871 5.46394 15.844 5.25726 15.8389 5.04024C15.8337 4.9059 15.8078 4.78706 15.6734 4.71989C15.544 4.65788 15.4406 4.71472 15.3475 4.79223C15.2337 4.8904 15.1147 4.99374 15.0112 5.10741C14.6543 5.49494 14.2611 5.85663 14.0336 6.34237C13.9922 6.43535 13.8318 6.4767 13.8939 6.61617C13.9353 6.70922 14.0336 6.766 14.0956 6.84355C14.4629 7.2879 14.7577 7.77359 14.9388 8.32127C15.0526 8.66749 15.1302 9.0292 15.1768 9.39085C15.1975 9.57688 15.1975 9.57688 15.006 9.62858C14.5354 9.75256 14.0698 9.87661 13.599 10.0006C13.5577 10.0109 13.5162 10.0161 13.4749 10.0367C13.3766 10.0833 13.3663 10.1711 13.4594 10.2279C13.5215 10.2641 13.5577 10.2847 13.5784 10.3674C13.6559 10.6982 13.868 10.91 14.2043 10.9565C14.5405 11.0082 14.8561 10.9513 15.0526 10.631C15.0629 10.6103 15.0682 10.6 15.1044 10.6206C15.094 11.003 15.125 11.3905 15.1975 11.7729C15.213 11.8452 15.2026 11.9279 15.1923 12.0002C15.094 12.4859 15.1147 12.9664 15.213 13.447C15.3165 13.9792 15.3475 14.5114 15.2854 15.0487C15.2388 15.4415 15.275 15.8342 15.3475 16.2165C15.4302 16.6505 15.4509 17.0794 15.4044 17.5134C15.3578 17.9578 15.3733 18.397 15.4199 18.8414C15.4509 19.1204 16.6666 20.2829 16.6511 20.5672C16.8838 20.9702 17.1839 21.7401 17.4735 22.1121L16.8699 23.0262L12.3771 23.8166L8.34343 23.4422L6.86914 22.7838Z" fill="white"/>
<path d="M34.8478 12.9981C34.6047 12.8121 34.3253 12.6777 34.0512 12.5383C33.1821 12.0991 32.2924 11.7167 31.4027 11.3344C30.5854 10.983 29.8611 10.5025 29.2559 9.84622C29.1628 9.7481 29.0594 9.65505 28.9559 9.56721C28.8266 9.45358 28.6818 9.44323 28.5265 9.52071C28.3093 9.62919 28.092 9.74289 27.8851 9.87207C27.5902 10.0529 27.0936 10.3216 26.7781 10.4663C25.1383 11.231 23.4416 11.851 21.7449 12.4711C20.2397 13.024 18.7809 13.6802 17.3687 14.4345C16.8463 14.7136 16.3703 15.0598 15.9255 15.4421C15.8531 15.5041 15.7807 15.5765 15.7082 15.6333C15.703 15.6282 15.6979 15.6282 15.6927 15.623C15.672 15.6849 15.6254 15.7418 15.5634 15.7676C15.5375 15.871 15.4599 15.9588 15.3203 15.9588C15.3099 15.9588 15.2996 15.9588 15.2892 15.9588C15.2789 16.5686 15.2996 17.1782 15.3668 17.788C15.3927 18.0101 15.3358 18.16 15.1806 18.3254C14.415 19.1417 13.5511 19.8289 12.6666 20.5006C12.6407 20.5213 12.6045 20.5368 12.5838 20.5626C12.501 20.6867 12.4079 20.6763 12.2838 20.6143C12.0562 20.5006 11.8285 20.5626 11.6268 20.6815C11.513 20.7487 11.4303 20.7435 11.3268 20.6918C10.8095 20.4283 10.2974 20.1648 9.82152 19.8238C9.18004 19.3691 8.53862 18.9195 7.97476 18.3718C7.90756 18.3098 7.861 18.2427 7.83515 18.1755C7.82479 18.1703 7.80923 18.1652 7.79894 18.16C7.79373 18.16 7.79373 18.16 7.78859 18.1548C7.67476 18.1083 7.861 17.9481 7.73682 17.9274C7.71096 17.9378 7.69026 17.9429 7.6644 17.9533C7.63341 17.9843 7.40061 18.0205 7.24022 18.16C7.22987 18.1703 7.21437 18.1807 7.19887 18.191C6.72299 18.5682 6.60395 19.1107 6.88331 19.6481C6.93501 19.7462 6.91951 19.8134 6.87816 19.9013C6.66086 20.3456 6.68157 20.7745 6.99714 21.1672C7.0799 21.2757 7.15746 21.3893 7.27128 21.472L7.52994 21.6528C7.6799 21.7355 7.8972 21.8182 8.01096 21.8492C8.49206 21.9784 8.9783 22.0611 9.4749 22.0818C9.70255 22.092 9.93528 22.0559 10.1629 22.0353C10.6026 21.9939 11.0474 21.9577 11.482 21.8957C11.6475 21.8699 11.8027 21.9164 11.9579 21.9216C12.0975 21.9267 12.2424 21.9422 12.3562 21.8699C12.5786 21.7355 12.8269 21.7304 13.0649 21.7097C13.5925 21.6632 14.1098 21.5444 14.6116 21.3842C15.1237 21.224 15.6358 21.069 16.1272 20.8417C16.6186 20.6143 17.048 20.325 17.2963 19.8238C17.3221 19.7773 17.348 19.7462 17.3894 19.7204C17.767 19.4931 18.3826 19.3794 18.7188 19.2399C19.2413 18.9505 19.7586 18.6611 20.2862 18.3821C21.0311 17.9895 21.7811 17.6019 22.5881 17.3384C23.9538 16.8837 25.3659 16.6564 26.7884 16.4807C27.3109 16.4135 27.8385 16.3722 28.3558 16.243C29.2508 16.0157 30.1146 15.7057 30.9888 15.4266C31.2785 15.3337 31.5733 15.2406 31.8527 15.1166C32.7269 14.7343 33.5649 14.2744 34.4029 13.8249C34.5581 13.7422 34.7081 13.6388 34.8529 13.5304C35.1013 13.334 35.0961 13.1893 34.8478 12.9981Z" fill="#231F20"/>
<path d="M16.6773 4.01749C16.6566 3.6248 16.3876 3.41294 15.9996 3.49045C15.8238 3.52662 15.6582 3.58862 15.5083 3.69713C15.141 3.96582 14.8306 4.29651 14.5357 4.63753C14.1891 5.03539 13.8374 5.43325 13.5012 5.84144C13.3977 5.96545 13.3046 5.97062 13.1753 5.91379C12.9735 5.82078 12.7614 5.74844 12.539 5.73294C11.7631 5.6761 10.9871 5.65027 10.2422 5.93962C10.0871 6.00163 9.99916 5.97062 9.89569 5.84661C9.56462 5.44875 9.22321 5.05606 8.87665 4.66337C8.57143 4.31718 8.26108 3.98132 7.88346 3.71264C7.70243 3.58346 7.50583 3.52145 7.2886 3.51112C7.01438 3.50078 6.83335 3.63513 6.76609 3.90381C6.74545 3.98648 6.74023 4.07432 6.74023 4.157C6.74023 4.62719 6.82821 5.08706 6.92133 5.54693C7.0558 6.21346 7.36101 6.81798 7.62481 7.43286C7.72828 7.67574 7.86796 7.90306 8.04899 8.09423C8.11626 8.16658 8.13175 8.22863 8.1059 8.32162C8.06449 8.4663 8.02828 8.61613 7.99207 8.76596C7.84725 9.3085 7.79548 9.86139 7.87825 10.4143C7.92481 10.7088 7.91452 10.9878 7.88346 11.2771C7.84725 11.5923 7.8369 11.9023 7.90931 12.2176C7.99729 12.5896 7.97658 12.9616 7.88346 13.3336C7.78519 13.7263 7.73342 14.119 7.75413 14.522C7.77998 14.9509 7.72828 15.3746 7.71271 15.7983C7.70757 16.0463 7.71271 16.2943 7.65587 16.5372C7.58346 16.8472 7.5886 17.1624 7.63516 17.4775C7.72307 18.0924 7.66622 17.7928 7.69207 18.1648C7.80583 18.1648 7.94037 18.5213 8.05934 18.5161C8.05413 18.2268 8.02314 17.5293 7.99729 17.2399C7.97658 16.9919 7.99729 16.749 8.03863 16.501C8.12654 15.9688 8.17831 15.4417 8.11626 14.8992C8.05934 14.3877 8.1214 13.8762 8.22487 13.375C8.31278 12.9513 8.30243 12.5276 8.23523 12.1039C8.21966 12.0109 8.20417 11.9127 8.21966 11.8249C8.27658 11.5096 8.30764 11.1893 8.31799 10.8328C8.62314 11.1015 8.94906 11.117 9.29562 11.0394C9.58012 10.9775 9.75086 10.7914 9.86462 10.5383C9.9009 10.4556 9.91639 10.3522 10.0561 10.3833C10.1233 10.3988 10.2009 10.3884 10.2113 10.2954C10.2216 10.2076 10.1543 10.1818 10.0819 10.1663C9.6526 10.0681 9.21806 9.96472 8.78867 9.87174C8.64906 9.84075 8.50417 9.80454 8.36455 9.78904C8.24037 9.77355 8.21452 9.7167 8.22487 9.60301C8.28693 9.07597 8.38519 8.55928 8.59729 8.06845C8.80423 7.59304 9.06803 7.14356 9.44565 6.7767C9.49221 6.73014 9.54913 6.67851 9.51806 6.60102C9.48707 6.52347 9.42494 6.50283 9.35253 6.52868C9.27498 6.55446 9.24391 6.51318 9.20771 6.46148C9.1353 6.34779 9.05767 6.23417 8.99047 6.1153C8.76282 5.74327 8.48867 5.40741 8.21452 5.06639C8.15761 4.99405 8.08519 4.93205 8.00757 4.87522C7.77484 4.70987 7.56789 4.80287 7.54204 5.09222C7.52133 5.27824 7.5369 5.46942 7.6041 5.6451C7.84725 6.25995 8.03349 6.90068 8.38519 7.46907C8.47317 7.61375 8.34899 7.68088 8.30243 7.78422C8.21452 7.72223 8.16796 7.63439 8.12654 7.55691C7.64551 6.7095 7.24204 5.83111 7.0713 4.85971C7.02474 4.60653 7.02474 4.34818 7.03509 4.09499C7.05059 3.81597 7.17477 3.74364 7.44378 3.81081C7.6403 3.86248 7.79034 3.98648 7.93516 4.12083C8.42661 4.57553 8.84558 5.08706 9.29047 5.58309C9.40945 5.71744 9.52842 5.85178 9.64225 5.98612C9.71466 6.06879 9.78186 6.1463 9.79221 6.2703C9.80257 6.40984 9.9009 6.45113 10.0302 6.39949C10.0612 6.38914 10.0923 6.37364 10.1233 6.353C10.3406 6.20317 10.5837 6.15147 10.8423 6.11013C11.551 5.98095 12.2493 6.03263 12.9477 6.17732C13.0563 6.2031 13.1494 6.25995 13.2477 6.31679C13.4598 6.44598 13.5374 6.41499 13.5994 6.17732C13.615 6.11013 13.6563 6.05329 13.7029 6.00163C14.2771 5.36091 14.8099 4.68403 15.441 4.09499C15.5807 3.96582 15.7203 3.84181 15.9065 3.78497C16.2117 3.6868 16.3411 3.77981 16.3618 4.09499C16.398 4.69437 16.2531 5.26274 16.0618 5.82078C15.8703 6.37878 15.6065 6.90582 15.3272 7.42258C15.2651 7.5362 15.1875 7.63439 15.1099 7.76358C14.8565 7.38637 14.8565 7.39158 15.0479 7.02987C15.2858 6.58553 15.5289 6.15147 15.6944 5.67093C15.7617 5.46942 15.8186 5.26274 15.8135 5.04573C15.8083 4.91138 15.7824 4.79254 15.6479 4.72537C15.5186 4.66337 15.4151 4.7202 15.322 4.79771C15.2082 4.89588 15.0892 4.99922 14.9858 5.1129C14.6288 5.50042 14.2357 5.86211 14.0081 6.34779C13.9667 6.44084 13.8064 6.48219 13.8684 6.62166C13.9099 6.71465 14.0081 6.77149 14.0702 6.84905C14.4374 7.29339 14.7323 7.77908 14.9133 8.32676C15.0272 8.67298 15.1048 9.03469 15.1513 9.39634C15.172 9.58237 15.172 9.58237 14.9806 9.63401C14.5099 9.75805 14.0443 9.88203 13.5736 10.0061C13.5322 10.0164 13.4908 10.0216 13.4495 10.0422C13.3511 10.0887 13.3408 10.1765 13.4339 10.2334C13.496 10.2696 13.5322 10.2902 13.5529 10.3729C13.6305 10.7036 13.8426 10.9155 14.1788 10.962C14.5151 11.0137 14.8306 10.9568 15.0272 10.6365C15.0375 10.6157 15.0427 10.6055 15.0789 10.6261C15.0686 11.0085 15.0996 11.396 15.172 11.7784C15.1875 11.8507 15.1772 11.9333 15.1668 12.0057C15.0686 12.4914 15.0892 12.9719 15.1875 13.4525C15.291 13.9847 15.322 14.5168 15.26 15.0542C15.2134 15.4469 15.2496 15.8397 15.322 16.222C15.4048 16.656 15.4255 17.0849 15.3789 17.5189C15.3634 17.6636 15.3531 17.8083 15.3531 17.953C15.4721 17.9581 15.591 17.9632 15.71 17.9684C15.7151 17.8961 15.7203 17.8186 15.7307 17.7463C15.7772 17.3329 15.8341 16.9247 15.7566 16.501C15.6427 15.8809 15.6582 15.2454 15.6479 14.615C15.6427 14.1603 15.6324 13.716 15.5186 13.2717C15.4306 12.9306 15.4048 12.5792 15.4824 12.2331C15.5703 11.8507 15.56 11.4735 15.5083 11.0911C15.4824 10.9155 15.4461 10.7346 15.4927 10.559C15.5807 10.2127 15.5703 9.86653 15.5548 9.51517C15.5341 9.10182 15.4203 8.70911 15.3169 8.31647C15.2858 8.19764 15.291 8.11494 15.3841 8.02196C15.503 7.90306 15.6014 7.75844 15.6738 7.6034C16.1083 6.71986 16.4962 5.82595 16.6101 4.83905C16.6514 4.5807 16.6928 4.30167 16.6773 4.01749Z" fill="#231F20"/>
<path d="M34.5383 13.3172C34.171 13.5136 33.8451 13.6945 33.514 13.8649C32.9554 14.1543 32.3864 14.4282 31.8121 14.6865C31.5173 14.8208 31.2121 14.9242 30.9017 15.0172C30.1672 15.2445 29.4378 15.477 28.7085 15.6992C28.0308 15.9059 27.3221 15.9782 26.6238 16.0661C25.734 16.1746 24.8495 16.2986 23.9805 16.5105C23.2201 16.6964 22.4596 16.8876 21.7303 17.1821C21.1664 17.4095 20.6336 17.6937 20.1008 17.9727C19.4956 18.2879 18.9059 18.6289 18.3213 18.9803C18.0937 19.1198 17.8351 19.1818 17.5868 19.2697C17.504 19.2955 17.442 19.2852 17.411 19.187C17.323 18.9234 17.1316 18.7426 16.8833 18.6238C16.7902 18.5773 16.7747 18.5152 16.7798 18.4171C16.7902 18.2724 16.785 18.1277 16.7333 17.9882C16.6712 17.8125 16.5574 17.6989 16.3815 17.6472C16.216 17.5956 16.0504 17.5542 15.8798 17.5748C15.7659 17.5903 15.7246 17.549 15.7194 17.4457C15.7142 17.363 15.7039 17.2752 15.6987 17.1925C15.6884 16.9703 15.7142 16.743 15.6728 16.5311C15.6263 16.2727 15.7091 16.1074 15.9005 15.937C16.547 15.3531 17.2816 14.919 18.0575 14.5367C19.7181 13.7151 21.4458 13.0589 23.1839 12.4337C24.7098 11.886 26.1996 11.2556 27.6532 10.5426C27.9894 10.3772 28.3101 10.1809 28.6308 9.98968C28.7292 9.93284 28.7912 9.93284 28.8636 10.031C29.4585 10.8061 30.2655 11.2918 31.1397 11.6741C32.1018 12.0926 33.0485 12.5422 33.9848 13.002C34.1606 13.0847 34.3314 13.1984 34.5383 13.3172Z" fill="#31C77F"/>
<path d="M7.19922 20.0346C7.28199 20.0707 7.3389 20.0914 7.3906 20.1121C7.48372 20.1482 7.58205 20.1534 7.64411 20.0604C7.71138 19.9622 7.64925 19.8847 7.57684 19.8175C7.49408 19.7452 7.41131 19.6729 7.32855 19.5954C6.99234 19.2854 7.13716 18.7221 7.45273 18.5258C7.53028 18.4793 7.5872 18.4586 7.64925 18.5361C7.66482 18.5568 7.68546 18.5723 7.70103 18.5929C8.3528 19.3266 9.1701 19.8589 9.9874 20.3807C10.3599 20.6185 10.7426 20.8458 11.1565 21.0111C11.26 21.0524 11.3065 21.1041 11.2858 21.2178C11.2651 21.3108 11.2703 21.4038 11.3065 21.4968C11.3427 21.595 11.2909 21.6208 11.2082 21.626C11.0737 21.6415 10.9392 21.6622 10.7996 21.6622C10.2823 21.6725 9.76496 21.781 9.24772 21.7345C8.72007 21.6828 8.20797 21.5691 7.72688 21.3315C7.55613 21.2488 7.40617 21.1403 7.29234 20.9853C7.06989 20.6959 7.06475 20.3859 7.19922 20.0346Z" fill="#31C77F"/>
<path d="M13.1465 21.3383C13.0689 21.328 12.9654 21.4106 12.893 21.3435C12.8413 21.2918 12.8361 21.1884 12.805 21.1109C12.7948 21.08 12.7792 21.0438 12.7585 21.018C12.6861 20.9301 12.7378 20.8836 12.8102 20.8371C13.2603 20.5581 13.6586 20.2119 14.0879 19.9019C14.6104 19.5143 15.0708 19.0596 15.5053 18.5791C15.645 18.4293 15.7484 18.2484 15.7381 18.0314C15.7329 17.9436 15.7743 17.9074 15.8622 17.9177C15.945 17.9281 16.0329 17.9384 16.1157 17.9591C16.3743 18.0211 16.4829 18.2381 16.3692 18.481C16.3226 18.5791 16.2606 18.6721 16.2088 18.7703C16.1726 18.8426 16.1571 18.915 16.2295 18.977C16.2968 19.0338 16.3692 19.0235 16.4416 18.9873C16.4467 18.9822 16.4571 18.9822 16.4623 18.977C16.5244 18.9459 16.5606 18.8478 16.6226 18.8685C16.7157 18.8995 16.8037 18.9615 16.8813 19.0235C17.0675 19.1733 17.1348 19.349 17.0675 19.535C16.9899 19.7417 16.8658 19.9277 16.7002 20.0827C16.3743 20.3876 15.9864 20.5788 15.5777 20.7235C14.8949 20.9611 14.2121 21.1936 13.4931 21.3125C13.3844 21.328 13.2706 21.3383 13.1465 21.3383Z" fill="#31C77F"/>
<path d="M8.59439 7.32444C8.34095 7.07641 8.19613 6.78704 8.08744 6.48738C7.95297 6.12051 7.82365 5.75365 7.73574 5.37129C7.71503 5.28862 7.70989 5.20594 7.70468 5.1181C7.70468 5.06127 7.69432 4.9941 7.76159 4.9631C7.82886 4.93726 7.88056 4.97859 7.92191 5.01993C8.13921 5.21111 8.32545 5.43329 8.47542 5.68131C8.65651 5.97583 8.83754 6.27036 9.02893 6.56487C9.10134 6.67856 9.10134 6.76119 8.99272 6.83874C8.82719 6.95758 8.73928 7.14354 8.59439 7.32444Z" fill="#FEFEFE"/>
<path d="M14.7465 7.1907C14.6276 6.97889 14.4465 6.82899 14.2706 6.66888C14.1827 6.58618 14.1879 6.52933 14.2448 6.43114C14.4931 6.02297 14.8034 5.66127 15.119 5.29958C15.2121 5.19107 15.2949 5.06707 15.4139 4.9844C15.5432 4.89656 15.6207 4.93272 15.6414 5.08774C15.6467 5.12907 15.6467 5.17558 15.6363 5.21691C15.5587 5.53727 15.4914 5.86796 15.3259 6.15731C15.1604 6.43635 15.0155 6.72051 14.8707 7.00988C14.8396 7.07187 14.8241 7.14421 14.7465 7.1907Z" fill="#FEFEFE"/>
<path d="M12.036 21.6064C12.0101 21.6013 11.9636 21.6013 11.9222 21.5961C11.7411 21.5703 11.6325 21.4825 11.6118 21.3429C11.5912 21.2034 11.7049 21.0174 11.855 20.9606C12.1343 20.8469 12.3929 20.9296 12.5119 21.1672C12.5895 21.3171 12.5688 21.3946 12.4395 21.498C12.3412 21.5702 12.2015 21.6116 12.036 21.6064Z" fill="#31C77F"/>
<path d="M8.86024 10.4349C8.74127 10.4401 8.6585 10.3729 8.6585 10.2644C8.65336 10.1508 8.71541 10.0784 8.81375 10.0784C8.93272 10.0732 9.01027 10.1404 9.01548 10.2541C9.01548 10.3678 8.96892 10.4298 8.86024 10.4349Z" fill="#E7EBEB"/>
<path d="M14.3275 10.2636C14.3017 10.3463 14.2861 10.4341 14.1879 10.4548C14.0947 10.4755 14.0068 10.3876 14.0068 10.2894C14.012 10.1861 14.074 10.1344 14.1672 10.1293C14.2499 10.1241 14.312 10.1757 14.3275 10.2636Z" fill="#EFF2F2"/>
<path d="M11.8855 10.6314C12.0149 10.4763 12.1804 10.4091 12.377 10.4143C12.6873 10.4195 12.9149 10.621 12.9408 10.931C12.9511 11.0809 12.9615 11.241 12.9046 11.3857C12.8529 11.5149 12.8684 11.5873 12.9926 11.6802C13.246 11.8818 13.3753 12.1504 13.3546 12.4863C13.3443 12.6206 13.3133 12.7498 13.2201 12.8377C13.096 12.9513 13.0288 13.1012 12.9667 13.2407C12.8218 13.5559 12.558 13.6954 12.2477 13.7471C11.901 13.7988 11.57 13.7109 11.2751 13.5197C11.1199 13.4215 11.0113 13.2769 10.9596 13.1012C10.9338 13.0133 10.8976 12.9565 10.8199 12.9049C10.5251 12.7033 10.4475 12.3675 10.6233 12.0575C10.6803 11.9541 10.7475 11.8456 10.8354 11.7732C10.97 11.6699 10.9803 11.5665 10.9338 11.4219C10.8716 11.2255 10.9131 11.0344 10.9803 10.8483C11.1148 10.4712 11.4251 10.3626 11.7718 10.5642C11.8028 10.5797 11.839 10.6055 11.8855 10.6314Z" fill="#030202"/>
<path d="M12.671 12.833C12.4744 12.8175 12.2882 12.6987 12.1485 12.4972C11.9519 12.2078 11.9519 12.2078 11.7709 12.5075C11.6312 12.7348 11.4191 12.8485 11.1502 12.833C10.7932 12.8072 10.6225 12.4662 10.8191 12.1613C10.8915 12.0476 10.9949 11.9546 11.1036 11.8719C11.2743 11.7428 11.2847 11.717 11.2122 11.5051C11.1657 11.3656 11.1243 11.2313 11.1346 11.0814C11.1605 10.7559 11.414 10.6215 11.6933 10.7766C11.7398 10.8023 11.776 10.8386 11.8175 10.8644C11.9209 10.9264 12.0088 10.9315 12.0709 10.8076C12.1485 10.6577 12.283 10.6525 12.4227 10.668C12.5778 10.6835 12.6658 10.7766 12.7227 10.916C12.7537 10.9935 12.7486 11.0659 12.7175 11.1382C12.6762 11.2415 12.6296 11.3397 12.5882 11.4431C12.4899 11.655 12.5003 11.7015 12.7175 11.7944C12.8985 11.8719 13.0382 11.9856 13.1159 12.1716C13.2555 12.492 13.0589 12.8227 12.671 12.833Z" fill="white"/>
<path d="M11.208 13.0604C11.5804 13.0191 11.6011 13.0088 11.9891 12.6367C12.196 12.9054 12.4546 13.0708 12.8064 13.0449C12.7029 13.3549 12.4753 13.51 12.1287 13.5203C11.746 13.5255 11.3011 13.4273 11.208 13.0604Z" fill="#FDFDFD"/>
<path d="M11.5195 11.0859C11.535 11.0963 11.5764 11.1015 11.5919 11.1221C11.6591 11.21 11.7161 11.3082 11.7264 11.4218C11.7316 11.4735 11.7057 11.52 11.6488 11.5407C11.6023 11.5562 11.566 11.5355 11.535 11.5045C11.4523 11.4167 11.3902 11.3133 11.4057 11.1841C11.4108 11.1325 11.4419 11.0963 11.5195 11.0859Z" fill="#0E0D0D"/>
<path d="M12.1353 11.3087C12.1507 11.2673 12.1715 11.1899 12.2077 11.1227C12.2335 11.0659 12.2801 11.0245 12.3525 11.0555C12.4042 11.0814 12.4249 11.1279 12.4145 11.1795C12.399 11.2518 12.3732 11.3242 12.3473 11.3965C12.3214 11.4637 12.2749 11.5154 12.1921 11.4844C12.1197 11.4637 12.1197 11.3965 12.1353 11.3087Z" fill="#191717"/>
<path d="M7.11163 21.0938L6.63574 22.3959L6.95645 22.556C6.95645 22.556 7.40134 21.4761 7.45304 21.3728C7.4996 21.2643 7.11163 21.0938 7.11163 21.0938Z" fill="#231F20"/>
<path d="M16.6194 20.2464L16.4229 20.4583C16.4229 20.4583 17.2402 22.37 17.4833 22.3752C17.7264 22.3752 17.5712 21.9877 17.5712 21.9877C17.5712 21.9877 16.8574 20.4945 16.7332 20.2309C16.6402 20.0191 16.6194 20.2464 16.6194 20.2464Z" fill="#231F20"/>
</g>
</g>
<defs>
<clipPath id="clip0_929_668">
<rect width="24" height="24" fill="white"/>
</clipPath>
</defs>
</svg>