<svg width="24" height="24" viewBox="0 0 24 24" fill="none" xmlns="http://www.w3.org/2000/svg">
<path d="M12 24C18.6274 24 24 18.6274 24 12C24 5.37258 18.6274 0 12 0C5.37257 0 0 5.37258 0 12C0 18.6274 5.37257 24 12 24Z" fill="#341CBA"/>
<path d="M20.25 11.8862V11.8922C20.2476 11.9521 20.2317 12.0106 20.2035 12.0632C20.1001 12.2545 17.6249 16.75 12.1257 16.75C6.62662 16.75 4.14996 12.2545 4.04731 12.0632C4.01884 12.0107 4.00265 11.9521 4 11.8922V11.8585L4.00076 11.8412C4.00505 11.7919 4.01858 11.7437 4.04065 11.6995L4.04211 11.6965L4.04655 11.6875C4.14996 11.4955 6.62585 7 12.125 7C17.6242 7 20.1001 11.4962 20.2028 11.6875L20.2072 11.6965L20.2094 11.7002C20.2311 11.7443 20.2444 11.7921 20.2485 11.8412V11.8757L20.25 11.8862ZM19.4301 11.875C19.0143 11.2195 17.4513 9.03022 14.6179 8.14975C15.5301 8.79869 16.1719 9.7692 16.418 10.8722C16.6122 10.9172 16.7518 11.0942 16.7555 11.2997C16.7592 11.5052 16.6263 11.6867 16.4328 11.7392C16.2392 11.7917 16.0376 11.7017 15.9416 11.5217C15.8951 11.4341 15.8785 11.3333 15.8944 11.235C15.9103 11.1368 15.9578 11.0467 16.0295 10.9787C15.6645 9.31149 14.3143 8.02375 12.6509 7.79949C12.6384 7.79793 12.626 7.79516 12.614 7.79124C12.288 7.77349 11.9613 7.77349 11.6353 7.79124C11.6233 7.79516 11.6109 7.79793 11.5984 7.79949C10.9502 7.88807 10.3336 8.138 9.80349 8.52698C9.77767 8.5456 9.74785 8.55778 9.71651 8.56251C9.6852 8.5672 9.6532 8.56433 9.62316 8.55407C9.59313 8.54385 9.56589 8.52655 9.54371 8.5036C9.52153 8.48062 9.50498 8.45265 9.49545 8.42196C9.48255 8.3804 9.4828 8.33575 9.49618 8.29429C9.50956 8.25287 9.53542 8.21673 9.57007 8.19098C9.58793 8.17782 9.60589 8.16484 9.624 8.152C6.79502 9.03473 5.23502 11.2195 4.81989 11.875C5.23131 12.5252 6.76989 14.68 9.55458 15.5762C8.63611 14.8953 8.00858 13.8839 7.80029 12.7487C7.61269 12.6775 7.49745 12.484 7.51964 12.2792C7.54178 12.0745 7.69691 11.9117 7.89484 11.8855C8.0928 11.8592 8.28338 11.9755 8.35575 12.1682C8.39073 12.2613 8.39433 12.3636 8.36596 12.4589C8.33764 12.5544 8.27898 12.6375 8.19916 12.6955C8.51676 14.353 9.78575 15.6407 11.3989 15.943C11.8827 15.9834 12.3688 15.9834 12.8526 15.943C13.4544 15.8281 14.022 15.5735 14.5108 15.199C14.5389 15.1768 14.5724 15.1627 14.6077 15.158C14.6431 15.1534 14.679 15.1585 14.7117 15.1727C14.7446 15.1875 14.7731 15.2109 14.7943 15.2404C14.8155 15.2698 14.8287 15.3045 14.8325 15.3408C14.8364 15.3771 14.8309 15.4137 14.8164 15.4472C14.802 15.4806 14.7791 15.5096 14.7501 15.5312L14.6859 15.58C17.4764 14.6852 19.018 12.526 19.4301 11.875ZM15.6852 11.8877C15.6852 13.9105 14.0883 15.5567 12.125 15.5567C10.1617 15.5567 8.5648 13.9105 8.5648 11.8877C8.5648 9.86498 10.1617 8.21949 12.125 8.21949C14.0883 8.21949 15.6852 9.86422 15.6852 11.8877ZM15.2834 11.8877C15.2834 10.0937 13.8667 8.63349 12.125 8.63349C10.3833 8.63349 8.96585 10.093 8.96585 11.8885C8.96585 13.684 10.3833 15.142 12.125 15.142C13.8667 15.142 15.2834 13.6825 15.2834 11.8877ZM13.2891 10.8805C13.2891 11.2735 13.0978 11.6395 12.7795 11.8555L13.0971 13.8257C13.1044 13.8607 13.1037 13.8968 13.0952 13.9315C13.0868 13.9661 13.0707 13.9983 13.0481 14.0257C13.0255 14.0531 12.9971 14.0749 12.9651 14.0895C12.933 14.1041 12.898 14.1111 12.8629 14.11H11.4447C11.4096 14.1111 11.3746 14.104 11.3425 14.0895C11.3104 14.0748 11.282 14.0531 11.2594 14.0257C11.2368 13.9983 11.2206 13.9661 11.212 13.9315C11.2034 13.8969 11.2027 13.8607 11.2099 13.8257L11.526 11.8555C11.0739 11.5472 10.8967 10.9517 11.1028 10.435C11.3088 9.91822 11.8414 9.62422 12.3732 9.73222C12.9057 9.84098 13.2891 10.3217 13.2891 10.8805ZM16.5 12.4127C16.3968 13.3523 16.0068 14.2355 15.3846 14.9387C15.3612 14.966 15.3309 14.9864 15.2971 14.9978C15.2633 15.0092 15.2271 15.0111 15.1922 15.0035C15.1573 14.9958 15.1252 14.9788 15.099 14.9542C15.0728 14.9296 15.0536 14.8984 15.0434 14.8637C15.0326 14.8288 15.031 14.7915 15.0388 14.7557C15.0465 14.72 15.0634 14.6868 15.0877 14.6597C15.6529 14.0208 16.0073 13.2183 16.1011 12.3647C16.1071 12.3108 16.1337 12.2615 16.1754 12.2275C16.2171 12.1935 16.2703 12.1776 16.3234 12.1832C16.4342 12.1967 16.5125 12.2995 16.5 12.4127ZM9.20964 8.76175C9.24844 8.79975 9.27095 8.85171 9.27233 8.90644C9.27371 8.96116 9.25385 9.01425 9.21702 9.05422C8.6504 9.67004 8.28353 10.4475 8.16593 11.2817C8.15807 11.3355 8.12956 11.3839 8.08665 11.4164C8.04375 11.4488 7.98993 11.4627 7.93695 11.455C7.884 11.4463 7.83658 11.4168 7.80491 11.3729C7.77327 11.3289 7.75993 11.2741 7.76782 11.2202C7.89756 10.3025 8.30156 9.4472 8.92524 8.76996C8.94331 8.75033 8.96505 8.73451 8.9892 8.72349C9.01335 8.71244 9.03942 8.7064 9.06589 8.70571C9.09236 8.70498 9.11869 8.70967 9.14338 8.71942C9.16807 8.72916 9.19058 8.74382 9.20964 8.76247V8.76175Z" fill="white"/>
</svg>