<svg width="24" height="24" viewBox="0 0 24 24" fill="none" xmlns="http://www.w3.org/2000/svg">
<path d="M11.9996 23.6125C18.4132 23.6125 23.6125 18.4132 23.6125 11.9996C23.6125 5.58599 18.4132 0.386719 11.9996 0.386719C5.58599 0.386719 0.386719 5.58599 0.386719 11.9996C0.386719 18.4132 5.58599 23.6125 11.9996 23.6125Z" fill="#F2E3EE"/>
<path d="M12 24C18.6274 24 24 18.6274 24 12C24 5.37258 18.6274 0 12 0C5.37258 0 0 5.37258 0 12C0 18.6274 5.37258 24 12 24Z" fill="#D9327C"/>
<path fill-rule="evenodd" clip-rule="evenodd" d="M11.5356 6.32927C11.4388 6.40669 11.3227 6.54219 11.2453 6.79379C11.1679 7.04541 10.7421 8.28411 10.2001 9.83251H13.8195C13.2775 8.28411 12.8517 7.04541 12.7743 6.79379C12.6969 6.54219 12.5808 6.40669 12.484 6.32927C12.3872 6.25185 12.2517 6.19379 12.0001 6.19379C11.7485 6.19379 11.6324 6.25185 11.5356 6.32927ZM6.19368 9.83251H8.65174C9.25174 8.07121 9.77432 6.60025 9.85174 6.32927C10.0066 5.86477 10.2582 5.45831 10.6453 5.16799C11.0324 4.87767 11.4969 4.74219 11.9808 4.74219C12.4646 4.74219 12.9292 4.85831 13.3163 5.16799C13.7033 5.45831 13.955 5.86477 14.1098 6.32927C14.2066 6.60025 14.7098 8.05185 15.3098 9.83251H17.8066C18.213 9.83251 18.5421 10.1615 18.5421 10.568C18.5421 10.9744 18.213 11.3035 17.8066 11.3035H15.8517H14.3227H9.6969H8.16786H6.19368C5.78722 11.3035 5.47754 10.9744 5.47754 10.568C5.47754 10.1615 5.80658 9.83251 6.19368 9.83251ZM6.19368 12.7357C5.78722 12.7357 5.47754 13.0648 5.47754 13.4712C5.47754 13.8777 5.80658 14.2067 6.19368 14.2067H7.16142L6.77432 15.3293L6.38722 16.4518L6.23238 16.8777C6.0969 17.2648 6.3098 17.6712 6.67754 17.8067C7.06464 17.9422 7.47108 17.7293 7.60658 17.3615L7.76142 16.9357L8.1485 15.8131C8.30334 15.3486 8.4969 14.8067 8.7098 14.2067H15.3292C15.5227 14.7873 15.7163 15.3486 15.8904 15.8131L16.2775 16.9357L16.4324 17.3615C16.5679 17.7486 16.9743 17.9422 17.3614 17.8067C17.7485 17.6712 17.9421 17.2648 17.8066 16.8777L17.6517 16.4518L17.2646 15.3293L16.8775 14.2067H17.8453C18.2517 14.2067 18.5808 13.8777 18.5808 13.4712C18.5808 13.0648 18.2517 12.7357 17.8453 12.7357H16.3743H14.8453H9.23238H7.70334H6.19368ZM17.0904 17.0906L17.7679 16.8583C17.7679 16.8583 17.7679 16.8583 17.0904 17.0906ZM17.0904 17.0906C16.413 17.3228 16.413 17.3228 16.413 17.3228L17.0904 17.0906ZM6.92916 17.0906L7.60658 17.3228C7.60658 17.3228 7.60658 17.3228 6.92916 17.0906ZM6.92916 17.0906C6.25174 16.8583 6.25174 16.8583 6.25174 16.8583L6.92916 17.0906Z" fill="white"/>
</svg>