<svg width="21" height="21" viewBox="0 0 21 21" fill="none" xmlns="http://www.w3.org/2000/svg">
<path d="M2.01197 20C1.9992 19.7499 1.99494 19.4999 2.00771 19.2498C2.09285 19.2248 2.17798 19.2082 2.26737 19.1956C2.52278 19.154 2.77819 19.0915 3.02508 19.0206C3.09318 18.9998 3.1613 18.9748 3.2294 18.9498C3.55717 18.8247 3.84664 18.6163 4.06799 18.3496C4.22123 18.1621 4.35319 17.9579 4.46812 17.7453C4.62988 17.4536 4.77036 17.1493 4.89807 16.8409C5.15345 16.2158 5.40886 15.5948 5.66002 14.9697C6.52841 12.8192 7.39678 10.6687 8.26517 8.51818C9.0867 6.47187 9.89551 4.42556 10.6873 2.36675C10.7043 2.32507 10.7213 2.2834 10.7383 2.24172C11.0321 2.16254 11.3173 2.07919 11.6152 2C11.6323 2.04168 11.6493 2.07918 11.6621 2.11669C11.9983 3.03357 12.3346 3.95045 12.6667 4.87149C13.8117 8.00138 14.9568 11.1271 16.1317 14.2445C16.4552 15.0947 16.7787 15.9491 17.1065 16.7992C17.2342 17.1452 17.3874 17.4869 17.5619 17.812C17.6386 17.9537 17.7194 18.087 17.8088 18.2204C18.0813 18.6372 18.5027 18.9331 18.9922 19.0581C19.2561 19.1248 19.52 19.179 19.7925 19.2123L19.984 19.2415C20.0096 19.3248 19.9968 19.404 19.9968 19.4832C19.9968 19.5624 19.9968 19.6541 19.9968 19.7374C20.0011 19.8208 19.9968 19.9 19.9926 19.9833C19.967 19.9875 19.9457 19.9917 19.9202 19.9958C19.8904 19.9958 19.8606 19.9958 19.8308 19.9958H13.186C13.1775 19.9833 13.1732 19.9667 13.169 19.95C13.169 19.7249 13.169 19.4999 13.169 19.2748C13.169 19.2665 13.1732 19.254 13.1775 19.2456C13.2328 19.229 13.2882 19.2206 13.3477 19.2123C13.6244 19.1748 13.8969 19.1248 14.1693 19.0539C14.2757 19.0248 14.3864 18.9873 14.4886 18.9456C14.5396 18.9247 14.5907 18.8997 14.6418 18.8706C14.91 18.7247 15.0164 18.4955 14.9908 18.2037C14.9781 18.0704 14.9568 17.9412 14.9185 17.812C14.8632 17.6119 14.7908 17.4161 14.7227 17.2244C13.3265 13.411 11.9473 9.59341 10.5808 5.76755C10.5681 5.72586 10.5595 5.68002 10.517 5.6425C10.5042 5.65085 10.4829 5.65919 10.4744 5.66751C10.4617 5.68836 10.4531 5.7092 10.4489 5.73003C9.78056 7.60964 9.06969 9.47674 8.36305 11.3397C7.83948 12.7192 7.3159 14.1028 6.83062 15.4948C6.63483 16.0532 6.44751 16.6159 6.26447 17.1785C6.19213 17.3952 6.14104 17.6161 6.10697 17.837C6.08143 17.987 6.07718 18.1371 6.09421 18.2913C6.1155 18.4871 6.22192 18.6663 6.38792 18.783C6.49434 18.8581 6.61354 18.9164 6.74124 18.9581C6.94132 19.0289 7.14562 19.0789 7.3542 19.1123C7.58407 19.154 7.81394 19.1873 8.04806 19.2206C8.06509 19.2248 8.07785 19.2248 8.09914 19.229C8.10339 19.2456 8.10767 19.2623 8.11192 19.279C8.11192 19.4957 8.11192 19.7166 8.11192 19.9333C8.11192 19.9458 8.10767 19.9583 8.10339 19.9708C8.08213 19.975 8.06084 19.9792 8.03955 19.9792C8.00976 19.9792 7.97997 19.9792 7.95015 19.9792L2.01197 20Z" fill="black"/>
</svg>