<svg width="24" height="24" viewBox="0 0 24 24" fill="none" xmlns="http://www.w3.org/2000/svg">
<path fill-rule="evenodd" clip-rule="evenodd" d="M13.6755 3.27L19.5984 6.285C20.4574 6.735 21 7.59 21 8.58V9.975H18.8298V8.58C18.8298 8.445 18.7394 8.31 18.6037 8.22L12.6809 5.205C12.5904 5.16 12.4548 5.16 12.3191 5.205L6.39628 8.22C6.26064 8.265 6.17021 8.4 6.17021 8.58V9.975H4V8.58C4 7.635 4.54255 6.735 5.40159 6.285L11.3245 3.27C12.0479 2.91 12.9069 2.91 13.6755 3.27ZM14.3538 11.91C14.3538 10.875 13.4947 10.065 12.5001 10.065C11.4602 10.065 10.6463 10.875 10.6463 11.91C10.6463 12.945 11.5054 13.755 12.5001 13.755C13.4947 13.755 14.3538 12.945 14.3538 11.91ZM18.5585 15.78C18.6941 15.735 18.7846 15.6 18.7846 15.42V14.025H20.9548V15.42C20.9548 16.365 20.4122 17.265 19.5532 17.715L13.6303 20.73C13.2686 20.91 12.8617 21 12.4548 21C12.0479 21 11.641 20.91 11.2793 20.73L5.40159 17.715C4.54255 17.265 4 16.41 4 15.42V14.025H6.17021V15.42C6.17021 15.555 6.26064 15.69 6.39628 15.78L11.4149 18.3V15.78C9.69681 15.285 8.47606 13.755 8.47606 11.91C8.47606 9.705 10.2846 7.86 12.5452 7.86C14.7606 7.86 16.6144 9.66 16.6144 11.91C16.6144 13.755 15.3484 15.33 13.6755 15.78V18.3L18.5585 15.78Z" fill="#245AE5" fill-opacity="0.9"/>
</svg>