<svg width="24" height="24" viewBox="0 0 24 24" fill="none" xmlns="http://www.w3.org/2000/svg">
<path d="M12 24C18.6274 24 24 18.6274 24 12C24 5.37258 18.6274 0 12 0C5.37257 0 0 5.37258 0 12C0 18.6274 5.37257 24 12 24Z" fill="url(#paint0_linear)" fill-opacity="0.05"/>
<path d="M20.9965 9.81853C21.0697 8.01677 19.9977 6.8208 18.7857 6L18 11.4288C18.1622 11.4024 18.3274 11.4173 18.4843 11.4726C18.6411 11.5279 18.786 11.6223 18.9089 11.7493C19.0498 11.9116 19.134 12.1297 19.1451 12.361C19.1562 12.5923 19.0933 12.8202 18.9689 13C19.728 12.8515 20.9099 11.9955 20.9965 9.81853Z" fill="url(#paint1_linear)"/>
<path fill-rule="evenodd" clip-rule="evenodd" d="M9.80292 4.09758L8.80825 3.05131C10.3145 2.85908 14.2897 3.10307 18.137 5.61334C18.1722 5.83736 18.1722 6.06587 18.137 6.28989L18.4603 6.45996C18.7187 6.90608 18.8889 7.40141 18.9609 7.91693C19.0329 8.43241 19.0052 8.95768 18.8795 9.46191C18.5456 10.852 17.9736 11.4657 17.7178 11.5914C17.2027 11.5914 16.3253 11.9019 16.0411 13.2772C15.7569 14.6525 15.2098 14.952 14.9753 14.9298L9.29136 15L5.53996 12.7005L5 7.94246L6.06575 6.46366L7.96985 4.84436L9.3269 4.26765L9.80292 4.09758ZM16.5206 6.0459C16.3602 6.22293 16.173 6.37156 15.9665 6.48585C14.5064 6.16051 13.9771 5.37673 13.9771 5.37673C15.2187 5.33816 16.4469 5.65256 17.5296 6.2862C17.1999 6.17854 16.8625 6.09817 16.5206 6.0459Z" fill="url(#paint2_linear)"/>
<path fill-rule="evenodd" clip-rule="evenodd" d="M16.1266 12.8279C15.1049 13.347 13.9845 13.6125 12.8508 13.6044C9.46428 13.6044 6.72217 11.3566 6.72217 8.58771C6.72217 6.5385 8.2191 4.78 10.3638 4C6.28248 4.24818 3 7.712 3 11.9877C3 16.9229 7.1652 21 12.2937 21C14.0759 20.9844 15.8221 20.4674 17.3523 19.5022C18.8826 18.5369 20.1417 17.1583 21 15.5083C18.7009 16.0542 15.9856 15.0154 16.1266 12.8279Z" fill="url(#paint3_linear)"/>
<defs>
<linearGradient id="paint0_linear" x1="12" y1="8.39625" x2="12" y2="24.315" gradientUnits="userSpaceOnUse">
<stop stop-color="#01E8F8"/>
<stop offset="1" stop-color="#01E8F8" stop-opacity="0"/>
</linearGradient>
<linearGradient id="paint1_linear" x1="19.2985" y1="7.58683" x2="19.9483" y2="14.202" gradientUnits="userSpaceOnUse">
<stop stop-color="#01E8F7"/>
<stop offset="1" stop-color="#00C2FF"/>
</linearGradient>
<linearGradient id="paint2_linear" x1="9.07467" y1="4.58556" x2="15.2691" y2="14.0341" gradientUnits="userSpaceOnUse">
<stop stop-color="#01E8F7"/>
<stop offset="1" stop-color="#00B3EC"/>
</linearGradient>
<linearGradient id="paint3_linear" x1="554.339" y1="662.921" x2="577.946" y2="-54.9138" gradientUnits="userSpaceOnUse">
<stop stop-color="#01E8F7"/>
<stop offset="1" stop-color="#00C2FF"/>
</linearGradient>
</defs>
</svg>