<svg width="24" height="24" viewBox="0 0 24 24" fill="none" xmlns="http://www.w3.org/2000/svg">
<path d="M11.9976 0C18.6227 0 23.9952 5.37306 23.9952 11.9988C23.9952 18.6245 18.6227 23.9976 11.9976 23.9976C5.37253 23.9976 0 18.6245 0 11.9988C0 5.37306 5.37253 0 11.9976 0Z" fill="#0055D5"/>
<path d="M6.52667 7.93834C6.52667 7.93834 5.23573 6.90644 5.14694 9.45499C5.05816 11.43 5.06056 15.2648 5.97478 17.0766C6.3611 17.7582 6.877 17.5494 7.83681 16.8702C8.67184 16.2535 11.6928 13.4698 12.9718 12.2483C14.2507 11.0268 16.8446 7.52318 17.3845 9.90374C17.5981 10.9044 17.862 11.754 17.6604 13.9737C17.5981 14.6577 17.3053 15.176 15.9712 14.2497C14.9634 13.6018 14.006 12.9058 14.006 12.9058C14.006 12.9058 13.8212 12.5747 13.3845 13.1122C13.0414 13.5418 12.8686 13.6474 13.4181 13.9737C13.97 14.3001 16.7606 16.2247 17.8308 16.5247C18.7138 16.7815 19.2177 16.7767 19.2441 15.0416C19.2393 13.6642 19.1601 9.72136 18.6586 8.04153C18.2795 6.99524 17.7228 6.52008 16.5207 7.69597C15.3185 8.87185 11.5273 12.5483 9.45408 14.2137C8.07916 15.2456 7.49127 16.1767 6.97298 14.4561C6.60825 13.153 6.13555 9.09742 7.62805 9.87015C8.56146 10.3165 9.02697 10.3141 8.66224 10.5949C8.29751 10.8732 7.24892 11.8356 7.24892 11.8356C7.24892 11.8356 6.92499 12.0971 7.07616 12.6635C7.22733 13.0594 7.22733 13.2562 8.04076 12.4907C8.8542 11.7252 9.45408 11.1468 9.45408 11.1468C9.45408 11.1468 9.58366 10.9428 9.96998 11.3196C10.3563 11.6964 10.4187 11.802 10.4187 11.802C10.4187 11.802 10.5219 12.0827 10.9346 11.5956C11.3497 11.1084 11.616 10.8109 10.8314 10.3549C10.0492 9.89415 6.52667 7.93834 6.52667 7.93834Z" fill="white"/>
</svg>