<svg width="24" height="24" viewBox="0 0 24 24" fill="none" xmlns="http://www.w3.org/2000/svg">
<path d="M11.9248 20.9546C5.33837 20.9546 0 19.0516 0 16.5018C0 15.1714 1.45404 13.9727 3.78134 13.1283C5.59787 14.294 8.64601 14.8913 12.1019 14.8913C15.4755 14.8913 18.4577 14.1622 20.2907 13.0459C22.4862 13.8821 23.8496 15.0478 23.8496 16.3329C23.8496 18.8868 18.5113 20.9546 11.9248 20.9546Z" fill="#1E1E1E"/>
<path d="M11.9948 14.3187C7.00241 14.3187 2.95333 12.7534 2.95333 10.8215C2.95333 9.75056 4.20142 8.79081 6.15799 8.15234C7.55437 8.88143 9.64688 9.34689 11.9948 9.34689C14.3427 9.34689 16.4352 8.88143 17.8316 8.15234C19.7922 8.79493 21.0362 9.75056 21.0362 10.8215C21.0403 12.7534 16.9913 14.3187 11.9948 14.3187Z" fill="#1E1E1E"/>
<path d="M11.962 8.76676C8.10244 8.76676 4.97191 7.47335 4.97191 5.88338C4.97191 4.2934 8.10244 3 11.962 3C15.8216 3 18.9522 4.2934 18.9522 5.88338C18.9522 7.47335 15.8216 8.76676 11.962 8.76676Z" fill="#1E1E1E"/>
</svg>