<svg width="24" height="24" viewBox="0 0 24 24" fill="none" xmlns="http://www.w3.org/2000/svg">
<path d="M11.9999 23.9998C18.6273 23.9998 23.9998 18.6273 23.9998 11.9999C23.9998 5.37254 18.6273 0 11.9999 0C5.37254 0 0 5.37254 0 11.9999C0 18.6273 5.37254 23.9998 11.9999 23.9998Z" fill="#FAF4E6"/>
<path d="M15.9077 13.2374C16.2313 13.3503 16.542 13.4907 16.8329 13.6733C17.4083 14.0348 17.8716 14.4968 18.1347 15.1354C18.342 15.6387 18.3778 16.1618 18.2942 16.6952C18.1697 17.4898 17.8307 18.199 17.4051 18.8695C16.9821 19.5363 16.527 20.1814 16.0195 20.7875C15.827 21.0173 15.6262 21.2398 15.3835 21.4197C15.3123 21.4724 15.2375 21.519 15.1522 21.5457C15.0085 21.5906 14.9057 21.5428 14.8501 21.4022C14.8172 21.3194 14.8035 21.2324 14.7995 21.1437C14.7827 20.7717 14.8499 20.4091 14.9183 20.0461C15.0279 19.4657 15.1267 18.8839 15.1878 18.2959C15.2204 17.9818 15.2459 17.6668 15.2421 17.3514C15.236 16.8532 15.1747 16.364 14.9371 15.9142C14.8297 15.7107 14.7066 15.5171 14.5412 15.3541C14.474 15.3119 14.4344 15.2428 14.3797 15.1889C14.1245 14.9376 13.8863 14.6685 13.612 14.4374C13.4445 14.2963 13.2639 14.1713 13.0707 14.0658C12.8896 13.9417 12.6953 13.8397 12.5015 13.7382C12.0351 13.4936 11.5537 13.2806 11.0666 13.0807C11.0493 13.0735 11.0317 13.067 11.0152 13.0584C10.9659 13.0327 10.955 13.0053 11.0125 12.9756C11.2274 12.9296 11.4463 12.914 11.6637 12.8883C12.2466 12.8192 12.8321 12.8178 13.4175 12.8254C13.5266 12.8268 13.636 12.8388 13.7453 12.8464C13.8414 12.8755 13.9412 12.8607 14.0392 12.8704C14.6434 12.9296 15.2392 13.0331 15.8249 13.1938C15.8556 13.2022 15.8877 13.209 15.9077 13.2381V13.2374Z" fill="#FEC928"/>
<path d="M13.7544 12.8694C13.3432 12.8466 12.9315 12.8426 12.5201 12.8552C12.206 12.8647 11.8925 12.8904 11.5796 12.9267C11.3839 12.9494 11.1888 12.9781 10.9929 12.9989C10.9809 13.0052 10.9693 13.0071 10.959 12.9958C10.9756 12.9715 10.9769 12.9437 10.9771 12.9157C11.0953 12.7908 11.1897 12.6479 11.2857 12.5066C11.698 11.9005 12.0347 11.2537 12.3119 10.5756C12.3522 10.4772 12.3718 10.3702 12.4373 10.2825C12.5148 10.115 12.5593 9.93638 12.614 9.76131C12.7423 9.35155 12.8335 8.93295 12.9039 8.5097C12.9519 8.22066 12.9787 7.92951 13.0029 7.63752C13.0307 7.30403 13.0438 6.97032 13.0284 6.63683C13.0162 6.3737 12.9941 6.11078 12.9739 5.84786C12.9549 5.60348 12.9279 5.35994 12.902 5.11662C12.8468 4.59773 12.8211 4.07779 12.8434 3.55722C12.8567 3.24816 12.8978 2.93847 13.0798 2.6724C13.1603 2.55484 13.2658 2.46615 13.4192 2.45898C13.4563 2.48237 13.4824 2.51544 13.506 2.55189C13.9263 3.19802 14.2775 3.87913 14.5419 4.60384C14.8088 5.33572 14.9961 6.08676 15.085 6.8614C15.1198 7.16435 15.1387 7.46793 15.149 7.77277C15.1853 8.84172 15.034 9.88413 14.729 10.9065C14.5394 11.5423 14.2781 12.148 13.9705 12.7347C13.9619 12.7514 13.9507 12.7668 13.9436 12.784C13.9067 12.871 13.8414 12.893 13.755 12.8689L13.7544 12.8694Z" fill="#FEE98B"/>
<path d="M13.7536 12.8693C13.8545 12.8922 13.896 12.8256 13.9333 12.7513C14.0879 12.4431 14.2453 12.1363 14.3763 11.8169C14.5802 11.3198 14.7465 10.8106 14.8684 10.2875C14.9512 9.93248 15.0163 9.57434 15.0572 9.21177C15.0922 8.90208 15.1059 8.59113 15.1263 8.28039C15.143 8.02548 15.128 7.77288 15.1156 7.52113C15.0859 6.91755 14.9999 6.3203 14.8556 5.73168C14.7064 5.12347 14.508 4.53337 14.2508 3.96266C14.0175 3.44525 13.7435 2.95101 13.4234 2.48227C13.4192 2.47616 13.4197 2.46689 13.418 2.45909C13.6036 2.41738 13.7837 2.44687 13.9613 2.50291C14.2415 2.5914 14.4789 2.75298 14.7062 2.93416C15.211 3.33633 15.5053 3.88893 15.7939 4.44552C16.1632 5.15823 16.4348 5.90759 16.6185 6.68876C16.7133 7.09157 16.7822 7.49816 16.8262 7.90982C16.8669 8.29029 16.8909 8.67119 16.8846 9.05314C16.8772 9.49892 16.8443 9.94281 16.7799 10.3848C16.6634 11.1843 16.4504 11.9562 16.1464 12.7035C16.0729 12.884 15.9964 13.0637 15.9073 13.2375C15.6722 13.1817 15.4379 13.1212 15.2015 13.0711C14.9186 13.011 14.6327 12.9672 14.3453 12.9316C14.1608 12.9089 13.9763 12.8844 13.7898 12.8827C13.7776 12.8827 13.7656 12.8739 13.7534 12.8693H13.7536Z" fill="#FED670"/>
<path d="M10.9588 12.9941C10.9702 12.9952 10.9813 12.9962 10.9927 12.9973C10.9765 13.0257 11.0005 13.0253 11.0169 13.0323C11.262 13.137 11.5076 13.24 11.7511 13.3481C12.1049 13.505 12.4516 13.6765 12.7887 13.867C12.8652 13.9101 12.9404 13.9559 13.0171 13.9993C13.0432 14.014 13.0681 14.0285 13.0815 14.0566C13.0908 14.0966 13.0636 14.1219 13.0428 14.1486C12.6522 14.6504 12.2136 15.1068 11.7355 15.5258C11.0839 16.0971 10.3672 16.5722 9.5888 16.951C8.65341 17.406 7.67084 17.7109 6.63939 17.8571C6.25512 17.9117 5.87001 17.9487 5.48174 17.9527C5.39389 17.9536 5.30646 17.9725 5.21777 17.9673C5.18322 17.9654 5.14761 17.9694 5.11728 17.9473C5.05997 17.8628 5.05681 17.7663 5.05471 17.6694C5.02858 17.5253 5.04965 17.3843 5.08273 17.244C5.09073 17.2097 5.10379 17.1783 5.12886 17.1528C5.23462 16.9055 5.39895 16.707 5.62289 16.5577C5.70126 16.5054 5.78427 16.4652 5.87507 16.4393C6.89409 16.1479 7.8398 15.7006 8.7164 15.1055C9.3204 14.6955 9.86688 14.219 10.3664 13.6881C10.575 13.4665 10.7692 13.2322 10.9588 12.9941Z" fill="#FED44F"/>
<path d="M5.12815 17.9414C5.49872 17.9332 5.86888 17.9203 6.2384 17.8824C6.73242 17.8316 7.2195 17.7455 7.69962 17.6214C8.29287 17.468 8.86674 17.2605 9.42334 17.0026C10.0905 16.6934 10.7101 16.3072 11.2935 15.8618C11.73 15.5288 12.1267 15.1508 12.5015 14.7505C12.7073 14.5306 12.903 14.3008 13.0808 14.0568C13.1339 14.0539 13.1691 14.092 13.2089 14.1162C13.6724 14.397 14.0248 14.803 14.4013 15.1812C14.4521 15.2321 14.5125 15.281 14.5408 15.3529C13.925 16.0769 13.2234 16.7041 12.4284 17.2259C11.3476 17.9353 10.1725 18.4141 8.90487 18.668C8.28171 18.7927 7.65243 18.8616 7.01704 18.8551C6.66332 18.8515 6.31297 18.807 5.974 18.6979C5.65294 18.5947 5.37253 18.4337 5.19262 18.1342C5.13953 18.0804 5.09866 18.0225 5.12794 17.9412L5.12815 17.9414Z" fill="#FEB200"/>
<path d="M12.4363 10.2812C12.3883 10.4592 12.3152 10.6279 12.2425 10.7965C11.98 11.4062 11.6665 11.9887 11.2911 12.5368C11.2083 12.6578 11.1192 12.7745 11.0328 12.8931C11.0189 12.9123 11.006 12.9367 10.9761 12.9144C10.7711 12.3245 10.4383 11.8115 10.0342 11.3409C9.70873 10.9616 9.3291 10.6397 8.95326 10.3136C8.43184 9.8613 7.91085 9.40794 7.43262 8.90907C7.29189 8.76223 7.15727 8.6097 7.04773 8.43716C7.00454 8.36911 6.96893 8.29748 6.95229 8.21785C6.93143 8.11862 6.96472 8.04405 7.05552 7.99812C7.14822 7.95114 7.24934 7.93913 7.35109 7.93555C7.72757 7.92228 8.09793 7.97874 8.46745 8.03836C9.59159 8.21996 10.5655 8.73105 11.4611 9.41152C11.8089 9.67591 12.1304 9.97001 12.4363 10.2814V10.2812Z" fill="#FEC928"/>
<path d="M5.12902 17.942C5.13176 18.0126 5.17622 18.0693 5.1937 18.135C4.92762 18.1561 4.66154 18.1765 4.39546 18.1982C4.18163 18.2157 4.03964 18.1502 3.96485 17.9941C3.92566 17.9125 3.91955 17.8249 3.92609 17.736C3.94947 17.7063 3.98212 17.696 4.01773 17.6943C4.26253 17.6823 4.50607 17.6553 4.75087 17.6439C4.82797 17.6403 4.90424 17.6222 4.98198 17.6281C5.01884 17.6311 5.05845 17.629 5.07699 17.6719C5.08415 17.764 5.09342 17.8557 5.12945 17.942H5.12902Z" fill="#7D551F"/>
<path d="M5.07649 17.6723C5.04847 17.6509 5.01561 17.6538 4.9838 17.6561C4.78218 17.6709 4.58078 17.6892 4.37917 17.7016C4.22769 17.7109 4.07601 17.7151 3.92559 17.7364C3.92032 17.6597 3.9022 17.5841 3.91927 17.5059C3.95319 17.3506 4.07664 17.2331 4.23443 17.2202C4.53232 17.1962 4.83043 17.176 5.12832 17.1543C5.10936 17.2636 5.08028 17.3707 5.0708 17.4827C5.06533 17.5476 5.08049 17.6091 5.07607 17.6723H5.07649Z" fill="#AB752C"/>
</svg>