<svg width="24" height="24" viewBox="0 0 24 24" fill="none" xmlns="http://www.w3.org/2000/svg">
<path d="M20.322 3.96904L16.5697 2H7.31889L3.75232 4.00619L0 8.94737L12 22.582L24 8.94737L20.322 3.96904ZM22.774 8.72446L18.0929 11.1022L16.5697 6.4582L20.0248 4.78638L22.774 8.72446ZM7.6161 2.74303H16.2724L19.2074 4.26625L16.2353 5.67802H7.57895L4.97833 4.30341L7.6161 2.74303ZM4.01238 4.78638L7.05882 6.4582L5.98142 11.1022L1.04025 8.613L4.01238 4.78638ZM2.00619 10.0248L5.83282 11.9938L10.5139 20.0557L2.00619 10.0248ZM11.9628 21.0588L6.65015 11.8452L7.95046 6.4582H15.8638L17.2755 11.6966L11.9628 21.0588ZM13.3003 20.0186L18.0557 12.031L22.031 10.0248L13.3003 20.0186Z" fill="black"/>
<path d="M15.3808 12.7004C15.1787 12.186 14.7955 11.7632 14.3034 11.5115C14.4534 11.4599 14.5907 11.3769 14.706 11.2679C14.8213 11.159 14.912 11.0268 14.9721 10.88C15.0465 10.657 15.0465 10.4713 15.0093 10.2484C15.0093 10.2484 14.9721 9.91401 14.8607 9.6168C14.6378 9.13383 13.8947 8.688 12.8545 8.57655V7.3877H11.9257V8.57655H11.2198V7.3877H10.2539V8.57655H8.73066V9.35673C8.89726 9.37634 9.05728 9.43329 9.1988 9.52335C9.34032 9.6134 9.45969 9.73425 9.548 9.87686C9.69661 10.0998 9.69661 10.2855 9.73376 10.397L9.80806 13.3691C9.80806 13.7406 9.65946 14.075 9.36224 14.2608C8.99073 14.4837 8.61921 14.3722 8.5449 14.3722V15.2267H10.2167V16.4899H11.2198V15.3753H11.9257L11.9629 16.4899H12.8917V15.2639H13.7833C14.123 15.2671 14.4571 15.1772 14.7492 15.0038C15.4551 14.5208 15.678 13.4806 15.3808 12.7004ZM11.2941 9.7654H12.483C12.9288 9.7654 13.3003 10.0998 13.3003 10.5456C13.3003 10.9914 12.966 11.3629 12.5201 11.3629H11.2941V9.7654ZM12.7802 14.1493H11.3684V12.4032H12.7802C13.226 12.4403 13.5975 12.8118 13.6347 13.2205C13.6718 13.7035 13.3003 14.1122 12.7802 14.1493Z" fill="#FCC339"/>
</svg>