<svg width="24" height="24" viewBox="0 0 24 24" fill="none" xmlns="http://www.w3.org/2000/svg">
<path d="M11.3507 23.93C17.5882 23.93 22.6448 18.8735 22.6448 12.6359C22.6448 6.39835 17.5882 1.3418 11.3507 1.3418C5.11311 1.3418 0.0565548 6.39835 0.0565548 12.6359C0.0565548 18.8735 5.11311 23.93 11.3507 23.93Z" fill="#8DC351"/>
<path d="M15.0211 8.75461C14.4564 7.34286 13.1152 7.27225 11.4917 7.55461L10.927 5.57812L9.72699 5.93106L10.2917 7.83698C10.0094 7.90755 9.65642 8.04873 9.30348 8.11931L8.73875 6.14286L7.53875 6.49579L8.10348 8.47225C7.82111 8.54286 7.60936 8.61343 7.32699 8.684L5.70348 9.24873L6.05642 10.5193C6.05642 10.5193 6.97405 10.237 6.90348 10.237C7.39757 10.0958 7.60936 10.3076 7.75054 10.5899L8.38581 12.8487C8.38581 12.8487 8.45642 12.8487 8.52699 12.8487L8.38581 12.9193L9.30348 16.0958C9.30348 16.237 9.30348 16.5193 8.95054 16.6605L8.10348 16.9429L8.24463 18.4252L9.7976 18.0017C10.0799 17.9311 10.3623 17.8605 10.6446 17.7899L11.2094 19.7664L12.4094 19.4134L11.8446 17.4369C12.1976 17.3664 12.4799 17.2958 12.8329 17.1546L13.3976 19.1311L14.5976 18.7781L14.0329 16.8017C16.0094 16.0958 17.2799 15.1781 16.927 13.2017C16.6446 11.6487 15.727 11.1546 14.4564 11.2252C15.1623 10.5193 15.4446 9.81343 15.0211 8.75461ZM14.5976 13.5546C15.0211 15.0369 12.4094 15.6017 11.5623 15.884L10.7858 13.2017C11.6329 12.9899 14.1035 12.0017 14.5976 13.5546ZM12.9035 9.95461C13.327 11.2958 11.1387 11.7899 10.4329 12.0017L9.72699 9.60167C10.4329 9.38992 12.5505 8.54286 12.9035 9.95461Z" fill="white"/>
</svg>