<svg width="24" height="24" viewBox="0 0 24 24" fill="none" xmlns="http://www.w3.org/2000/svg">
<path d="M24 0H0V24H24V0Z" fill="#FF27D6"/>
<path d="M12.8844 4.6709V7.6247L16.3422 11.0819H19.3962V4.6709H12.8844Z" fill="black"/>
<path d="M16.275 12.9189L12.8844 16.3095V19.3299H22.035V12.9189H16.275Z" fill="black"/>
<path d="M11.1156 4.6709V7.6247L7.6578 11.0819H4.60379V4.6709H11.1156Z" fill="black"/>
<path d="M7.725 12.9189L11.1156 16.3095V19.3299H1.965V12.9189H7.725Z" fill="black"/>
<path d="M14.694 13.5025L12.1098 15.2198V12.1615L14.694 10.4443V13.5025Z" fill="black"/>
<path d="M9.33 13.5025L11.9142 15.2198V12.1615L9.33 10.4443V13.5025Z" fill="black"/>
<path d="M9.5868 10.308L12.0192 11.9352L14.4618 10.3206L12.03 8.69336L9.5868 10.308Z" fill="black"/>
</svg>