<svg width="24" height="24" viewBox="0 0 24 24" fill="none" xmlns="http://www.w3.org/2000/svg">
<g clip-path="url(#clip0)">
<path d="M22.4398 13.0623C22.1129 13.0625 21.7944 13.1669 21.5292 13.3607C21.264 13.5545 21.0654 13.828 20.9616 14.1424L19.5528 13.788L20.9123 7.98728C21.0412 8.0224 21.1741 8.04034 21.3075 8.04068C21.5123 8.04079 21.7151 7.99995 21.9044 7.92049C22.0936 7.84102 22.2655 7.7245 22.4103 7.57757C22.5551 7.43064 22.67 7.25619 22.7483 7.0642C22.8267 6.87221 22.8669 6.66645 22.8668 6.45866C22.8669 6.25084 22.8266 6.04502 22.7483 5.85298C22.67 5.66094 22.5552 5.48644 22.4104 5.33945C22.2656 5.19245 22.0937 5.07586 21.9045 4.9963C21.7152 4.91675 21.5124 4.8758 21.3075 4.8758C21.0155 4.87598 20.7295 4.95935 20.4819 5.11644C20.2343 5.27352 20.0351 5.49801 19.9071 5.76431L13.9067 4.31793L14.195 3.11486C14.3207 3.14824 14.4502 3.16534 14.5802 3.16574C14.785 3.16574 14.9878 3.12478 15.177 3.04523C15.3663 2.96567 15.5382 2.84908 15.683 2.70209C15.8278 2.55509 15.9426 2.38059 16.0209 2.18855C16.0992 1.99651 16.1395 1.79069 16.1394 1.58287C16.1395 1.37504 16.0992 1.16922 16.0209 0.977184C15.9426 0.785145 15.8278 0.610644 15.683 0.46365C15.5382 0.316655 15.3663 0.200065 15.177 0.120508C14.9878 0.0409503 14.785 -2.98432e-08 14.5802 0C14.1664 0 13.7696 0.166762 13.477 0.463608C13.1845 0.760455 13.0201 1.16306 13.0201 1.58287C13.0203 1.82558 13.0757 2.06497 13.1822 2.28232L10.9704 3.60914L8.0107 2.89529C8.0187 2.8306 8.02288 2.7655 8.02323 2.70031C8.02323 2.28175 7.85977 1.88025 7.56862 1.58374C7.27748 1.28722 6.88238 1.11984 6.46986 1.11827C6.05611 1.11827 5.65931 1.28503 5.36674 1.58187C5.07417 1.87872 4.90981 2.28133 4.90981 2.70113C4.91005 2.99762 4.99242 3.28807 5.14756 3.53933C5.3027 3.79058 5.52435 3.99251 5.78719 4.12208L5.07775 7.1471L2.83335 8.49427C2.68966 8.28706 2.49895 8.11795 2.27732 8.00123C2.05568 7.88451 1.80963 7.82361 1.55992 7.82366C1.14631 7.82366 0.749621 7.99029 0.457077 8.28695C0.164533 8.58362 4.60604e-05 8.98602 -0.000175476 9.40568C-0.000175476 9.82548 0.164183 10.2281 0.456751 10.5249C0.749318 10.8218 1.14616 10.9885 1.55992 10.9885C1.88834 10.9883 2.20831 10.883 2.4743 10.6875C2.74029 10.4921 2.93875 10.2165 3.04143 9.89996L4.35415 10.2298L2.99965 16.0076C2.91871 15.9941 2.83684 15.987 2.7548 15.9864C2.54997 15.9864 2.34716 16.0274 2.15793 16.1069C1.9687 16.1865 1.79676 16.3031 1.65196 16.4501C1.50717 16.5971 1.39232 16.7716 1.31401 16.9636C1.2357 17.1557 1.19546 17.3615 1.19557 17.5693C1.19546 17.7771 1.23573 17.9829 1.31405 18.1748C1.39237 18.3668 1.5072 18.5413 1.652 18.6882C1.79681 18.8351 1.96875 18.9517 2.15797 19.0311C2.3472 19.1106 2.55001 19.1514 2.7548 19.1513C3.0513 19.1511 3.34161 19.0652 3.59171 18.9037C3.84181 18.7421 4.04134 18.5116 4.16695 18.2391L9.98186 19.6422L9.68524 20.8809C9.56889 20.8527 9.44973 20.8382 9.33011 20.8376C8.91636 20.8376 8.51955 21.0044 8.22698 21.3013C7.93442 21.5981 7.77006 22.0007 7.77006 22.4205C7.77006 22.8403 7.93442 23.2429 8.22698 23.5398C8.51955 23.8366 8.91636 24.0034 9.33011 24.0034C9.53494 24.0034 9.73775 23.9624 9.92698 23.8829C10.1162 23.8033 10.2882 23.6867 10.433 23.5397C10.5777 23.3927 10.6926 23.2182 10.7709 23.0262C10.8492 22.8342 10.8895 22.6283 10.8893 22.4205C10.8898 22.2601 10.8658 22.1005 10.8183 21.9474L13.2841 20.4383L15.9129 21.0725C15.9059 21.1333 15.9023 21.1944 15.9021 21.2556C15.902 21.4634 15.9422 21.6693 16.0205 21.8613C16.0988 22.0533 16.2137 22.2278 16.3585 22.3748C16.5033 22.5218 16.6752 22.6384 16.8644 22.718C17.0537 22.7975 17.2565 22.8385 17.4613 22.8385C17.8751 22.8385 18.2719 22.6717 18.5644 22.3749C18.857 22.078 19.0214 21.6754 19.0214 21.2556C19.0213 20.9579 18.9384 20.6662 18.7821 20.4143C18.6259 20.1623 18.4027 19.9602 18.1381 19.8313L18.7841 17.0725L21.1939 15.5973C21.3387 15.794 21.5266 15.9537 21.7429 16.0638C21.9592 16.1739 22.1978 16.2313 22.4398 16.2315C22.8536 16.2315 23.2504 16.0647 23.5429 15.7678C23.8355 15.471 23.9999 15.0684 23.9999 14.6486C24.0003 14.4404 23.9603 14.2342 23.8821 14.0418C23.8039 13.8494 23.689 13.6745 23.5441 13.5271C23.3992 13.3798 23.2271 13.2629 23.0376 13.1831C22.8481 13.1034 22.6449 13.0623 22.4398 13.0623ZM19.3097 13.727L14.7523 12.5799C14.7926 12.383 14.8131 12.1824 14.8133 11.9813C14.8139 11.5319 14.7109 11.0886 14.5125 10.6867L20.0341 7.37092C20.1971 7.60261 20.4184 7.78561 20.675 7.9008L19.3097 13.727ZM11.9564 9.08605C11.4813 9.08524 11.0136 9.20535 10.596 9.43536L8.24469 5.53962L11.0105 3.88046L13.6008 4.50614L12.492 9.13777C12.3165 9.10427 12.1383 9.08751 11.9598 9.08774L11.9564 9.08605ZM10.3821 9.56675C9.81387 9.94799 9.39889 10.523 9.21228 11.1878L4.65163 10.0407L5.29167 7.31072L8.02824 5.66849L10.3821 9.56675ZM11.9564 14.8766C12.4488 14.8774 12.933 14.748 13.361 14.5011L15.8285 18.5833L13.244 20.1653L10.286 19.4523L11.3957 14.8215C11.5815 14.8588 11.7704 14.8773 11.9598 14.8766H11.9564ZM13.5741 14.368C14.1051 13.9964 14.4969 13.4539 14.6863 12.8283L19.2487 13.9762L18.5618 16.908L16.0391 18.4519L13.5741 14.368ZM19.8102 6.00507C19.7664 6.15275 19.7441 6.30615 19.7441 6.46036C19.7444 6.70059 19.7991 6.93755 19.9038 7.15302L14.3888 10.4663C14.0142 9.85003 13.4263 9.39799 12.7402 9.19881L13.849 4.56633L19.8102 6.00507ZM13.3109 2.50276C13.4748 2.73621 13.698 2.9202 13.9568 3.03517L13.6627 4.26028L11.323 3.69562L13.3109 2.50276ZM10.6587 3.79738L8.11348 5.32345L7.32635 4.01949C7.63227 3.81282 7.85656 3.50332 7.95974 3.14541L10.6587 3.79738ZM6.01612 4.22128C6.16154 4.26492 6.31239 4.28717 6.46403 4.2874C6.68575 4.2875 6.90489 4.23922 7.1066 4.14582L7.89789 5.45739L5.37522 6.9682L6.01612 4.22128ZM3.09573 9.65408C3.10909 9.57253 3.11607 9.49004 3.11662 9.40737C3.11634 9.16741 3.06173 8.93073 2.95701 8.71556L4.9917 7.49554L4.40678 9.98389L3.09573 9.65408ZM4.59393 10.2933L9.15381 11.4404C9.11954 11.6204 9.10218 11.8032 9.10199 11.9864C9.10336 12.4865 9.23295 12.9777 9.47801 13.4116L4.04663 16.6749C3.85282 16.3867 3.57092 16.1713 3.24445 16.0619L4.59393 10.2933ZM4.25219 18.0008C4.29112 17.861 4.31107 17.7164 4.31151 17.571C4.3115 17.3403 4.2613 17.1125 4.16447 16.9038L9.61004 13.6337C9.98038 14.1773 10.523 14.5758 11.1475 14.763L10.0379 19.3964L4.25219 18.0008ZM10.7189 21.7117C10.5507 21.3721 10.2678 21.1052 9.92172 20.9597L10.2225 19.7024L12.9332 20.3561L10.7189 21.7117ZM13.5875 20.2526L15.9556 18.8037L16.6291 19.9186C16.3038 20.1269 16.0658 20.4496 15.9606 20.8249L13.5875 20.2526ZM17.8991 19.7397C17.7559 19.6968 17.6073 19.6748 17.458 19.6744C17.2493 19.6745 17.0428 19.7169 16.8505 19.7991L16.1703 18.6723L18.4799 17.2582L17.8991 19.7397ZM18.8626 16.7274L19.4918 14.0407L20.899 14.3942C20.8848 14.4783 20.8772 14.5633 20.8764 14.6486C20.8763 14.9044 20.9376 15.1564 21.0552 15.3828L18.8626 16.7274Z" fill="url(#paint0_linear)"/>
</g>
<defs>
<linearGradient id="paint0_linear" x1="11.9998" y1="0" x2="11.9998" y2="24.0034" gradientUnits="userSpaceOnUse">
<stop stop-color="#F90CFF"/>
<stop offset="1" stop-color="#22DAFF"/>
</linearGradient>
<clipPath id="clip0">
<rect width="24" height="24" fill="white"/>
</clipPath>
</defs>
</svg>