<svg width="24" height="24" viewBox="0 0 24 24" fill="none" xmlns="http://www.w3.org/2000/svg">
<g clip-path="url(#clip0_1681_957)">
<path d="M9.41699 4.98402C9.41699 4.98402 9.94736 1.55521 12.0325 0C13.7926 1.35492 14.2946 3.46344 14.7895 5.39004C15.2844 7.31663 10.0179 7.28116 10.0179 7.28116L9.41699 4.9836V4.98402Z" fill="#4A9725"/>
<path d="M19.2238 2.29748C19.2238 2.29748 16.5373 2.22696 14.6641 3.60525C12.7909 4.98353 10.9883 7.63453 10.9883 7.63453L16.9971 8.48286C16.9971 8.48286 19.4712 4.41811 19.2238 2.29748Z" fill="#89C213"/>
<path d="M4.60822 2.29748C4.60822 2.29748 7.29468 2.22696 9.16786 3.60525C11.041 4.98395 12.8437 7.63453 12.8437 7.63453L6.83484 8.48286C6.83484 8.48286 4.36077 4.41811 4.60822 2.29748Z" fill="#89C213"/>
<path d="M3 11.2747L6.25188 6.32617H18.2696L21.0266 11.2747L14.5228 23.9993H9.36231L3 11.2747Z" fill="#850E82"/>
</g>
<defs>
<clipPath id="clip0_1681_957">
<rect width="24" height="24" fill="white"/>
</clipPath>
</defs>
</svg>