<svg width="24" height="24" viewBox="0 0 24 24" fill="none" xmlns="http://www.w3.org/2000/svg">
<path d="M11.9996 23.0518C10.5072 23.0518 9.05984 22.7599 7.69784 22.1837C6.38198 21.6271 5.1999 20.8301 4.18446 19.8147C3.16923 18.7994 2.37204 17.6173 1.81545 16.3013C1.23947 14.9393 0.947266 13.492 0.947266 11.9996C0.947266 10.5072 1.23926 9.05984 1.81545 7.69784C2.37204 6.38198 3.16902 5.1999 4.18446 4.18446C5.19969 3.16923 6.38177 2.37204 7.69784 1.81545C9.05984 1.23947 10.5072 0.947266 11.9996 0.947266C13.492 0.947266 14.9393 1.23926 16.3013 1.81545C17.6171 2.37204 18.7992 3.16902 19.8147 4.18446C20.8299 5.19969 21.6271 6.38177 22.1837 7.69784C22.7596 9.05984 23.0518 10.5072 23.0518 11.9996C23.0518 13.492 22.7599 14.9393 22.1837 16.3013C21.6271 17.6171 20.8301 18.7992 19.8147 19.8147C18.7994 20.8299 17.6173 21.6271 16.3013 22.1837C14.9393 22.7596 13.492 23.0518 11.9996 23.0518Z" fill="black"/>
<path d="M11.9999 1.89605C13.3648 1.89605 14.6879 2.16297 15.9323 2.68923C17.1352 3.19801 18.216 3.92693 19.1446 4.85536C20.0731 5.78401 20.802 6.86476 21.3108 8.0677C21.837 9.31214 22.1039 10.6352 22.1039 12.0001C22.1039 13.3651 21.837 14.6881 21.3108 15.9325C20.802 17.1355 20.0731 18.2162 19.1446 19.1448C18.216 20.0735 17.1352 20.8022 15.9323 21.311C14.6879 21.8372 13.3648 22.1042 11.9999 22.1042C10.6349 22.1042 9.31193 21.8372 8.06748 21.311C6.86455 20.8022 5.7838 20.0733 4.85515 19.1448C3.92672 18.2162 3.19779 17.1355 2.68902 15.9325C2.16276 14.6881 1.89584 13.3651 1.89584 12.0001C1.89584 10.6352 2.16276 9.31214 2.68902 8.0677C3.19779 6.86476 3.92672 5.78401 4.85515 4.85536C5.7838 3.92672 6.86455 3.19801 8.06748 2.68923C9.31193 2.16297 10.6349 1.89605 11.9999 1.89605ZM11.9999 0C5.37256 0 0 5.37256 0 11.9999C0 18.6272 5.37256 23.9998 11.9999 23.9998C18.6272 23.9998 23.9998 18.6272 23.9998 11.9999C23.9998 5.37256 18.6274 0 11.9999 0V0Z" fill="#F3BA2F"/>
<path d="M13.565 12.1827L10.0257 8.53532L6.48644 12.1827L4.44629 10.2028L10.0257 4.45312L15.6052 10.2028L13.565 12.1827Z" fill="#F3BA2F"/>
<path d="M13.975 18.9774L8.39551 13.2277L10.4357 11.248L13.975 14.8952L17.5142 11.248L19.5544 13.2277L13.975 18.9774Z" fill="#F3BA2F"/>
</svg>