<svg width="24" height="24" viewBox="0 0 24 24" fill="none" xmlns="http://www.w3.org/2000/svg">
<path d="M12 24C18.6274 24 24 18.6274 24 12C24 5.37258 18.6274 0 12 0C5.37258 0 0 5.37258 0 12C0 18.6274 5.37258 24 12 24Z" fill="#000D17"/>
<path d="M14.308 13.6595C13.8683 14.4929 12.9968 15.0614 11.9918 15.0614C10.5449 15.0614 9.37192 13.8838 9.37192 12.4312C9.37192 10.9786 10.5449 9.80098 11.9918 9.80098C12.9968 9.80098 13.8683 10.3694 14.308 11.2029H17.0354C16.4882 8.91306 14.4409 7.20898 11.9918 7.20898C9.12442 7.20898 6.8 9.54256 6.8 12.421C6.8 15.2995 9.12442 17.6329 11.9918 17.6329C14.4334 17.6329 16.4757 15.9389 17.0302 13.6595H14.308Z" fill="#FFB0C2"/>
<path d="M16.0966 9.24209C16.6821 8.76261 17.0561 8.03245 17.0561 7.21471C17.0561 5.77039 15.8898 4.59961 14.4511 4.59961C13.0123 4.59961 11.846 5.77039 11.846 7.21471V7.21669C11.8944 7.21537 11.9428 7.21461 11.9915 7.21461C13.6637 7.21461 15.1486 8.00915 16.0966 9.24209Z" fill="#CC91F0"/>
<path d="M14.4529 9.83266C15.077 9.83254 15.6499 9.61228 16.0985 9.24482C15.1506 8.01196 13.6658 7.21756 11.9935 7.21778C11.9448 7.21772 11.8964 7.21846 11.8482 7.21982C11.849 8.6632 13.0148 9.83278 14.4529 9.83266Z" fill="#CC66B8"/>
</svg>