<svg width="24" height="24" viewBox="0 0 24 24" fill="none" xmlns="http://www.w3.org/2000/svg">
<path d="M12 24C18.6274 24 24 18.6274 24 12C24 5.37258 18.6274 0 12 0C5.37257 0 0 5.37258 0 12C0 18.6274 5.37257 24 12 24Z" fill="black"/>
<path fill-rule="evenodd" clip-rule="evenodd" d="M12.48 15.8996V18.5451C12.48 18.9067 12.2037 19.1995 11.8628 19.1995C11.7464 19.1995 11.6341 19.1675 11.5348 19.1034L6.35136 15.7394C5.98442 15.5014 5.75999 15.0758 5.75999 14.6181V12.0687C5.75999 11.7667 5.99309 11.5195 6.27781 11.5195C6.36844 11.5195 6.45926 11.547 6.53682 11.5974L11.9664 14.9522C12.2859 15.1489 12.48 15.5106 12.48 15.8996Z" fill="#01D494"/>
<path fill-rule="evenodd" clip-rule="evenodd" d="M15.36 12.3274V18.0194C15.36 18.1894 15.2824 18.3449 15.1529 18.4226L13.9608 19.1754C13.9479 19.1851 13.9306 19.1948 13.9133 19.1997V16.038C13.9133 15.63 13.7233 15.2511 13.4081 15.0375L8.64 11.8272V8.26248C8.64 7.94187 8.87322 7.67969 9.15812 7.67969C9.24881 7.67969 9.33969 7.70873 9.4173 7.75738L14.8463 11.3222C15.1658 11.531 15.36 11.9147 15.36 12.3274Z" fill="#01D494"/>
<path fill-rule="evenodd" clip-rule="evenodd" d="M18.24 16.2342C18.24 16.3969 18.1463 16.5456 17.9934 16.6246L16.706 17.2798V11.7401C16.706 11.345 16.489 10.9873 16.1338 10.7827L10.56 7.63641V4.39716C10.56 4.29956 10.5894 4.20199 10.6388 4.11839C10.8066 3.85344 11.1667 3.7605 11.4478 3.91392L17.653 7.31111C18.0182 7.51092 18.24 7.8781 18.24 8.27315V16.2342Z" fill="#01D494"/>
</svg>