<svg width="24" height="24" viewBox="0 0 24 24" fill="none" xmlns="http://www.w3.org/2000/svg">
<path d="M19.2619 14.8089L18.9338 14.6208C18.4597 15.5254 17.747 16.283 16.8731 16.8115C15.9992 17.34 14.9972 17.6193 13.9759 17.6191C12.4911 17.6191 11.067 17.0293 10.017 15.9793C8.96709 14.9294 8.37723 13.5053 8.37723 12.0205C8.37723 10.5356 8.96709 9.11155 10.017 8.06159C11.067 7.01164 12.4911 6.42178 13.9759 6.42178C14.9671 6.42162 15.9406 6.68475 16.7967 7.18429C17.6529 7.68383 18.361 8.40185 18.8485 9.26486L19.2586 9.02646L21.5888 7.67492C20.8226 6.332 19.7148 5.21566 18.3777 4.43921C17.0407 3.66276 15.5221 3.25382 13.9759 3.25391C12.8246 3.25391 11.6845 3.48072 10.6209 3.92135C9.55718 4.36198 8.59072 5.0078 7.77666 5.82196C6.96259 6.63613 6.31688 7.60267 5.87638 8.66641C5.43588 9.73014 5.20924 10.8702 5.20938 12.0216C5.20938 14.3466 6.133 16.5764 7.77704 18.2204C9.42109 19.8645 11.6509 20.7881 13.9759 20.7881C15.5524 20.7885 17.0999 20.3638 18.4552 19.5586C19.8106 18.7534 20.9238 17.5976 21.6774 16.2129L19.2619 14.8089Z" fill="#1A1A1F"/>
<path d="M14.0383 0H14C10.8174 0 7.76516 1.26428 5.51472 3.51472C3.26428 5.76515 2 8.8174 2 12C2 15.1826 3.26428 18.2348 5.51472 20.4853C7.76516 22.7357 10.8174 24 14 24H14.0383V0Z" fill="url(#paint0_radial_4401_196521)"/>
<path d="M14.0383 17.6185H13.9792C12.4944 17.6185 11.0703 17.0286 10.0203 15.9787C8.97039 14.9287 8.38053 13.5047 8.38053 12.0198C8.38053 10.5349 8.97039 9.1109 10.0203 8.06095C11.0703 7.01099 12.4944 6.42113 13.9792 6.42113H14.0383V3.25H13.9792C12.8279 3.25 11.6878 3.47679 10.6242 3.91742C9.56048 4.35804 8.59401 5.00386 7.77995 5.81803C6.96589 6.63219 6.32017 7.59874 5.87968 8.66247C5.43918 9.72621 5.21253 10.8663 5.21268 12.0176C5.21268 13.1689 5.43943 14.3088 5.87999 15.3724C6.32055 16.436 6.96629 17.4025 7.78034 18.2165C8.59439 19.0305 9.5608 19.6763 10.6244 20.1168C11.688 20.5574 12.828 20.7842 13.9792 20.7842H14.0383V17.6185Z" fill="#1A1A1F" fill-opacity="0.7"/>
<defs>
<radialGradient id="paint0_radial_4401_196521" cx="0" cy="0" r="1" gradientUnits="userSpaceOnUse" gradientTransform="translate(13.52 11.52) rotate(-180) scale(11.52)">
<stop offset="0.572285" stop-color="#439CFD"/>
<stop offset="1" stop-color="#79EFB4"/>
</radialGradient>
</defs>
</svg>