<svg width="24" height="24" viewBox="0 0 24 24" fill="none" xmlns="http://www.w3.org/2000/svg">
<path fill-rule="evenodd" clip-rule="evenodd" d="M12 0C5.376 0 0 5.376 0 12C0 18.624 5.376 24 12 24C18.624 24 24 18.624 24 12C24 5.376 18.624 0 12 0Z" fill="black"/>
<path fill-rule="evenodd" clip-rule="evenodd" d="M12.3523 4.65287C12.4731 4.67615 12.573 4.76059 12.6161 4.87575L14.2787 9.31952H17.0731C17.2204 9.31952 17.3522 9.41099 17.4038 9.54897L19.1521 14.2303C19.1926 14.3386 19.1774 14.46 19.1114 14.555C19.0455 14.65 18.9372 14.7067 18.8215 14.7067H15.9331L14.2347 16.5583L11.7542 19.2691C11.6713 19.3597 11.5472 19.4007 11.4266 19.3773C11.306 19.3539 11.2063 19.2695 11.1633 19.1544L9.50066 14.7067H6.74828C6.60098 14.7067 6.46917 14.6152 6.41764 14.4772L4.66931 9.79594C4.62884 9.68758 4.64404 9.56626 4.70999 9.47123C4.77594 9.3762 4.88427 9.31952 4.99995 9.31952H7.87206L12.0246 4.76173C12.1075 4.67084 12.2316 4.6296 12.3523 4.65287ZM14.185 10.0254L12.3097 12.0726L13.0298 14.0008H18.3129L16.8282 10.0254H14.185ZM12.0324 11.3302L11.3672 9.54897C11.3156 9.41099 11.1838 9.31952 11.0365 9.31952H8.82698L12.1574 5.66413L13.6263 9.59025L12.0324 11.3302ZM11.4972 11.9146L9.58606 14.0008H6.99322L5.50851 10.0254H10.7916L11.4972 11.9146ZM10.1506 14.4295L11.7744 12.6569L12.4542 14.4772C12.5058 14.6152 12.6376 14.7067 12.7849 14.7067H14.9753L13.7195 16.0758L13.7141 16.0815L11.6226 18.3673L10.1506 14.4295Z" fill="white"/>
</svg>