<svg width="24" height="24" viewBox="0 0 24 24" fill="none" xmlns="http://www.w3.org/2000/svg">
<g clip-path="url(#clip0)">
<path d="M11.9359 21.1466C6.9499 21.1466 2.90468 17.0391 2.90468 11.9764C2.90468 6.91376 6.9499 2.80628 11.9359 2.80628C16.0164 2.80628 19.4736 5.56449 20.579 9.33761H23.4013C22.2253 4.01227 17.5333 0.0361328 11.9359 0.0361328C5.4447 0.0361328 0.176498 5.38539 0.176498 11.9764C0.176498 18.5675 5.4447 23.9167 11.9359 23.9167C17.5216 23.9167 22.2018 19.9645 23.4013 14.663H20.5673C19.4384 18.4123 16.0046 21.1466 11.9359 21.1466Z" fill="#2FA73F"/>
<path d="M14.57 10.376C14.57 11.4507 13.9468 12.37 13.0414 12.7999V16.3939H10.7953V12.776C9.91336 12.3462 9.30186 11.4268 9.30186 10.3641C9.30186 8.88349 10.4778 7.68945 11.936 7.68945C13.3824 7.70138 14.57 8.89542 14.57 10.376Z" fill="#2FA73F"/>
</g>
<defs>
<clipPath id="clip0">
<rect width="23.6364" height="24" fill="white"/>
</clipPath>
</defs>
</svg>