<svg width="24" height="24" viewBox="0 0 24 24" fill="none" xmlns="http://www.w3.org/2000/svg">
<path fill-rule="evenodd" clip-rule="evenodd" d="M0.871857 10.168L4.78098 3.44789L8.1507 1.47556L15.9571 1.45703L19.3929 3.44215L23.279 10.1794V14.1013L19.2933 20.822L15.9938 22.7756L8.17201 22.7494L4.78409 20.8462L0.90219 14.1613L0.871857 10.168Z" fill="black" fill-opacity="0.01"/>
<path fill-rule="evenodd" clip-rule="evenodd" d="M15.9555 0.797853C16.0717 0.797578 16.1859 0.828052 16.2865 0.886183L19.7223 2.8713C19.8224 2.92914 19.9056 3.01232 19.9633 3.11247L23.8495 9.84976C23.9072 9.94982 23.9376 10.0633 23.9376 10.1788V14.1007C23.9376 14.2189 23.9058 14.3349 23.8455 14.4366L19.8598 21.1573C19.8034 21.2523 19.724 21.3317 19.6289 21.388L16.3293 23.3417C16.2271 23.4022 16.1104 23.4339 15.9916 23.4335L8.16979 23.4072C8.05757 23.4069 7.94731 23.3778 7.84947 23.3229L4.46155 21.4197C4.35896 21.362 4.27369 21.278 4.2146 21.1762L0.332707 14.4914C0.275228 14.3924 0.24454 14.2802 0.24367 14.1657L0.213337 10.1724C0.21244 10.0543 0.243277 9.93825 0.302622 9.83623L4.21175 3.11612C4.26884 3.01797 4.35033 2.93626 4.44832 2.8789L7.81804 0.906575C7.9185 0.847778 8.03274 0.816656 8.14913 0.81638L15.9555 0.797853ZM8.32998 2.13303L5.26312 3.92809L1.53174 10.3426L1.55938 13.981L5.26331 20.3594L8.34534 22.0908L15.8145 22.1159L18.8129 20.3405L22.6205 13.9201V10.3551L18.9106 3.92342L15.7812 2.11534L8.32998 2.13303Z" fill="black"/>
<path fill-rule="evenodd" clip-rule="evenodd" d="M0.902176 14.1606L2.90685 10.6394L2.81256 6.83105L6.6957 6.86091L6.72292 10.7568L2.90685 10.6394L4.78814 14.1596L2.83041 17.4811L6.16439 19.2376L8.17199 22.7487" fill="black" fill-opacity="0.01"/>
<path fill-rule="evenodd" clip-rule="evenodd" d="M2.34296 6.36972C2.46799 6.24253 2.63928 6.1715 2.81763 6.17287L6.70077 6.20273C7.06069 6.20549 7.35172 6.49672 7.35423 6.85664L7.38145 10.7526C7.3827 10.9315 7.31106 11.1033 7.18302 11.2283C7.05497 11.3534 6.88156 11.4209 6.70267 11.4154L4.02403 11.333L5.36895 13.8495C5.4772 14.0521 5.4721 14.2964 5.35547 14.4943L3.74847 17.2208L6.47135 18.6553C6.58211 18.7136 6.67394 18.8023 6.73608 18.911L8.74368 22.4221L7.60032 23.0759L5.68787 19.7312L2.52347 18.0641C2.36413 17.9801 2.24612 17.8346 2.19692 17.6613C2.14773 17.4881 2.17164 17.3022 2.26309 17.1471L4.03303 14.1441L2.88864 12.0028L1.47448 14.4868L0.329895 13.8351L2.244 10.473L2.15423 6.84769C2.14982 6.66938 2.21792 6.49691 2.34296 6.36972ZM3.54978 10.0007L3.48774 7.49513L6.04172 7.51477L6.05963 10.0779L3.54978 10.0007Z" fill="black"/>
<path fill-rule="evenodd" clip-rule="evenodd" d="M6.16443 19.2376L8.21962 16.1167L4.78815 14.1596L8.70779 14.0899L6.72293 10.7568" fill="black" fill-opacity="0.01"/>
<path fill-rule="evenodd" clip-rule="evenodd" d="M7.28873 10.4199L9.27359 13.753C9.39371 13.9547 9.39736 14.2051 9.28317 14.4102C9.16898 14.6153 8.95422 14.7442 8.71949 14.7483L7.19704 14.7754L8.54588 15.5447C8.70395 15.6349 8.81766 15.7864 8.86004 15.9634C8.90242 16.1404 8.86969 16.327 8.7696 16.479L6.71441 19.5998L5.61443 18.8754L7.28347 16.3409L4.46188 14.7316C4.2043 14.5847 4.07668 14.2838 4.15012 13.9965C4.22356 13.7092 4.47996 13.5064 4.77643 13.5012L7.56123 13.4517L6.15711 11.0938L7.28873 10.4199Z" fill="black"/>
<path fill-rule="evenodd" clip-rule="evenodd" d="M8.70778 14.0899L8.646 10.12L6.69571 6.8609L8.885 3.39062L4.78098 3.44717" fill="black" fill-opacity="0.01"/>
<path fill-rule="evenodd" clip-rule="evenodd" d="M9.45945 3.06897C9.57754 3.27965 9.57082 3.53807 9.44196 3.74233L7.46859 6.87034L9.21108 9.78216C9.27045 9.88137 9.30265 9.99447 9.30445 10.1101L9.36623 14.08L8.04932 14.1005L7.99028 10.307L6.13062 7.19939C6.00315 6.98639 6.00629 6.71981 6.13874 6.50986L7.6804 4.06615L4.79004 4.10598L4.7719 2.78903L8.87592 2.73248C9.11742 2.72916 9.34136 2.85829 9.45945 3.06897Z" fill="black"/>
<path fill-rule="evenodd" clip-rule="evenodd" d="M8.88501 3.39134L12.0699 1.46627L13.9771 4.80125L18.0091 5.03829L15.957 1.45703" fill="black" fill-opacity="0.01"/>
<path fill-rule="evenodd" clip-rule="evenodd" d="M12.2353 0.828718C12.407 0.873268 12.5535 0.985227 12.6416 1.13924L14.3717 4.16466L16.8325 4.30933L15.3857 1.78432L16.5284 1.12951L18.5805 4.71077C18.7007 4.92058 18.6963 5.1794 18.5689 5.38496C18.4416 5.59052 18.2119 5.70977 17.9705 5.69558L13.9384 5.45853C13.7163 5.44548 13.5159 5.32117 13.4054 5.12805L11.8332 2.37874L9.22566 3.95481L8.54436 2.82764L11.7292 0.902572C11.8811 0.810797 12.0635 0.784169 12.2353 0.828718Z" fill="black"/>
<path fill-rule="evenodd" clip-rule="evenodd" d="M18.0091 5.03809L21.2949 6.73933L19.3175 10.1028L15.9551 8.17971L18.0091 5.03809Z" fill="black" fill-opacity="0.01"/>
<path fill-rule="evenodd" clip-rule="evenodd" d="M17.4579 4.67715C17.6429 4.39432 18.0118 4.29735 18.3119 4.45272L21.5977 6.15397C21.7582 6.2371 21.8776 6.38257 21.9277 6.55628C21.9778 6.73 21.9542 6.91666 21.8626 7.07252L19.8852 10.436C19.7025 10.7469 19.3036 10.8529 18.9906 10.6739L15.6281 8.7508C15.4706 8.66071 15.3573 8.50962 15.3148 8.3332C15.2724 8.15677 15.3046 7.97065 15.4039 7.81878L17.4579 4.67715ZM18.2347 5.89589L16.8888 7.95451L19.0796 9.20752L20.375 7.00406L18.2347 5.89589Z" fill="black"/>
<path fill-rule="evenodd" clip-rule="evenodd" d="M15.9551 8.17921L12.0783 8.21266L13.9771 4.80053L10.6316 6.78615L8.88501 3.39062" fill="black" fill-opacity="0.01"/>
<path fill-rule="evenodd" clip-rule="evenodd" d="M10.8972 5.86318L9.4706 3.08984L8.29939 3.6923L10.046 7.08782C10.1291 7.24929 10.2751 7.3693 10.4496 7.41948C10.6241 7.46967 10.8116 7.44557 10.9677 7.3529L12.2155 6.61233L11.5029 7.89289C11.3889 8.09774 11.3924 8.34774 11.5121 8.54931C11.6318 8.75089 11.8496 8.87364 12.084 8.87162L15.9608 8.83816L15.9494 7.52114L13.2038 7.54483L14.5525 5.12119C14.6972 4.86115 14.6495 4.53637 14.4362 4.32888C14.2228 4.1214 13.8969 4.08278 13.6409 4.23468L10.8972 5.86318Z" fill="black"/>
<path fill-rule="evenodd" clip-rule="evenodd" d="M10.6316 6.78613L8.646 10.12L12.0783 8.21264L15.48 10.1956L19.3175 10.1023L21.1434 13.7285L23.279 10.1787" fill="black" fill-opacity="0.01"/>
<path fill-rule="evenodd" clip-rule="evenodd" d="M8.08022 9.78305L10.0658 6.44922L11.1974 7.12318L10.4624 8.35732L11.7585 7.63707C11.9616 7.52419 12.2092 7.52674 12.41 7.64378L15.6505 9.53281L19.3015 9.44401C19.556 9.43782 19.7912 9.57884 19.9057 9.80618L21.1947 12.366L22.7147 9.83929L23.8433 10.5183L21.7077 14.068C21.5841 14.2736 21.3584 14.3956 21.1187 14.3866C20.879 14.3776 20.6632 14.2389 20.5553 14.0247L18.9168 10.7708L15.496 10.854C15.3741 10.857 15.2538 10.826 15.1484 10.7646L12.0706 8.97042L8.96588 10.6957C8.70565 10.8403 8.38076 10.7923 8.17342 10.5787C7.96609 10.365 7.92788 10.0388 8.08022 9.78305Z" fill="black"/>
<path fill-rule="evenodd" clip-rule="evenodd" d="M21.1434 13.7293L21.285 17.4638L17.3536 17.4543L17.3924 13.5479L21.1434 13.7293Z" fill="black" fill-opacity="0.01"/>
<path fill-rule="evenodd" clip-rule="evenodd" d="M16.9405 13.0682C17.0707 12.9453 17.2454 12.8808 17.4242 12.8894L21.1753 13.0709C21.5166 13.0874 21.7886 13.3622 21.8015 13.7037L21.943 17.4383C21.9498 17.6174 21.8833 17.7915 21.7588 17.9205C21.6343 18.0495 21.4626 18.1222 21.2834 18.1217L17.352 18.1122C17.1765 18.1118 17.0084 18.0413 16.8851 17.9164C16.7618 17.7916 16.6934 17.6226 16.6951 17.4471L16.7339 13.5407C16.7357 13.3616 16.8103 13.1911 16.9405 13.0682ZM18.0441 14.238L18.0187 16.7967L20.6009 16.803L20.5082 14.3572L18.0441 14.238Z" fill="black"/>
<path fill-rule="evenodd" clip-rule="evenodd" d="M17.3924 13.5477L15.48 10.1963L15.3869 14.0983L17.3536 17.4541L15.1921 20.8079L19.2933 20.8219" fill="black" fill-opacity="0.01"/>
<path fill-rule="evenodd" clip-rule="evenodd" d="M15.3188 9.55721C15.6056 9.4848 15.9054 9.61245 16.052 9.86933L17.9644 13.2208L16.8204 13.8735L16.0819 12.5791L16.0497 13.9263L17.9218 17.1206C18.0474 17.3348 18.0417 17.6015 17.9072 17.8103L16.3973 20.1529L19.2956 20.1628L19.2911 21.4799L15.1898 21.4658C14.9492 21.465 14.7281 21.333 14.6133 21.1215C14.4985 20.91 14.5082 20.6528 14.6385 20.4505L16.5807 17.4371L14.8187 14.4307C14.7568 14.3251 14.7256 14.2044 14.7285 14.082L14.8217 10.18C14.8287 9.88431 15.0321 9.62961 15.3188 9.55721Z" fill="black"/>
<path fill-rule="evenodd" clip-rule="evenodd" d="M15.1921 20.8074L12.0769 22.762L10.1867 19.402L13.3297 17.4678L15.1921 20.8074Z" fill="black" fill-opacity="0.01"/>
<path fill-rule="evenodd" clip-rule="evenodd" d="M13.4959 16.8309C13.6697 16.8762 13.8174 16.9905 13.9048 17.1474L15.7672 20.487C15.9379 20.7931 15.839 21.1793 15.5421 21.3656L12.4269 23.3202C12.2743 23.4159 12.0892 23.4449 11.9146 23.4006C11.7401 23.3562 11.5913 23.2422 11.503 23.0852L9.61274 19.7252C9.43935 19.417 9.54036 19.0268 9.84154 18.8415L12.9845 16.9073C13.1375 16.8132 13.3222 16.7856 13.4959 16.8309ZM11.0711 19.6313L12.3121 21.8373L14.3123 20.5823L13.0894 18.3893L11.0711 19.6313Z" fill="black"/>
<path fill-rule="evenodd" clip-rule="evenodd" d="M13.3297 17.4675L15.3869 14.0977L12.0581 16.0166L10.1867 19.4018L6.16443 19.2376" fill="black" fill-opacity="0.01"/>
<path fill-rule="evenodd" clip-rule="evenodd" d="M15.8583 13.6382C16.0685 13.8537 16.1058 14.1842 15.9489 14.4411L13.8918 17.811L12.7676 17.1248L13.4804 15.9572L12.5458 16.496L10.763 19.7207C10.6424 19.9389 10.4089 20.0703 10.1598 20.0601L6.13756 19.8959L6.19128 18.5799L9.80716 18.7275L11.4818 15.6984C11.5398 15.5934 11.6253 15.5063 11.7292 15.4465L15.058 13.5275C15.3187 13.3772 15.6482 13.4228 15.8583 13.6382Z" fill="black"/>
<path fill-rule="evenodd" clip-rule="evenodd" d="M8.21959 16.1167L12.0581 16.0166L8.70775 14.0898" fill="black" fill-opacity="0.01"/>
<path fill-rule="evenodd" clip-rule="evenodd" d="M9.03606 13.5195L12.3864 15.4463C12.6422 15.5934 12.7689 15.8927 12.6965 16.1787C12.6241 16.4648 12.3703 16.6678 12.0753 16.6754L8.23677 16.7756L8.20242 15.4589L9.69867 15.4199L8.37946 14.6613L9.03606 13.5195Z" fill="black"/>
</svg>