<svg width="24" height="24" viewBox="0 0 24 24" fill="none" xmlns="http://www.w3.org/2000/svg">
<path d="M12 0C18.628 0 24 5.37305 24 12C24 18.628 18.628 24 12 24C5.37305 24 0 18.6275 0 12C0 5.37305 5.37305 0 12 0Z" fill="#F5AC37"/>
<path d="M12.442 12.8415H17.0018C17.099 12.8415 17.1449 12.8415 17.1519 12.7141C17.1891 12.2502 17.1891 11.7836 17.1519 11.3192C17.1519 11.2291 17.1071 11.1918 17.0093 11.1918H7.93453C7.82221 11.1918 7.79197 11.2291 7.79197 11.3344V12.6692C7.79197 12.8415 7.79197 12.8415 7.97179 12.8415H12.442ZM16.6427 9.63172C16.6556 9.5977 16.6556 9.56044 16.6427 9.52696C16.5665 9.36117 16.4763 9.20295 16.3716 9.05445C16.2139 8.80065 16.0281 8.56683 15.8164 8.35676C15.7165 8.22986 15.601 8.11592 15.4714 8.01926C14.8223 7.46683 14.0506 7.07587 13.2212 6.87931C12.8027 6.78535 12.375 6.74053 11.9462 6.74431H7.91887C7.80655 6.74431 7.79143 6.78913 7.79143 6.88687V9.5491C7.79143 9.66142 7.79143 9.69166 7.93399 9.69166H16.5887C16.5887 9.69166 16.6637 9.67654 16.6788 9.63172H16.6421H16.6427ZM16.6427 14.4016C16.5152 14.3875 16.3867 14.3875 16.2593 14.4016H7.94209C7.82977 14.4016 7.79197 14.4016 7.79197 14.5517V17.1545C7.79197 17.2744 7.79197 17.3047 7.94209 17.3047H11.7821C11.9657 17.3187 12.1493 17.3057 12.3291 17.2674C12.8864 17.2274 13.4345 17.1065 13.9572 16.9072C14.1473 16.8413 14.3309 16.7555 14.5042 16.6523H14.5566C15.4568 16.1841 16.188 15.4487 16.6491 14.5458C16.6491 14.5458 16.7015 14.4324 16.6427 14.4027V14.4016ZM6.28481 18.6541V18.6093V16.8618V16.2695V14.5069C6.28481 14.4091 6.28481 14.3946 6.16493 14.3946H4.53735C4.44717 14.3946 4.40991 14.3946 4.40991 14.2747V12.8496H6.14981C6.24701 12.8496 6.28481 12.8496 6.28481 12.7222V11.3122C6.28481 11.222 6.28481 11.1999 6.16493 11.1999H4.53735C4.44717 11.1999 4.40991 11.1999 4.40991 11.08V9.76024C4.40991 9.67762 4.40991 9.65548 4.52979 9.65548H6.14225C6.25457 9.65548 6.28481 9.65548 6.28481 9.51292V5.47043C6.28481 5.35055 6.28481 5.32031 6.43493 5.32031H12.0596C12.4679 5.33651 12.8734 5.38133 13.2746 5.45531C14.1014 5.60814 14.8957 5.90352 15.622 6.32526C16.1037 6.60877 16.5471 6.95113 16.9418 7.34533C17.2388 7.65368 17.5067 7.9874 17.7443 8.34272C17.9802 8.70291 18.1763 9.08793 18.3302 9.49023C18.3491 9.595 18.4495 9.66574 18.5543 9.64792H19.8967C20.069 9.64792 20.069 9.64792 20.0765 9.81316V11.0433C20.0765 11.1632 20.0317 11.1934 19.9113 11.1934H18.8761C18.7714 11.1934 18.7411 11.1934 18.7487 11.3284C18.7897 11.7853 18.7897 12.2437 18.7487 12.7006C18.7487 12.828 18.7487 12.8431 18.8918 12.8431H20.076C20.1284 12.9106 20.076 12.9781 20.076 13.0462C20.0836 13.1331 20.0836 13.2211 20.076 13.3081V14.2158C20.076 14.3433 20.0387 14.3811 19.9259 14.3811H18.5084C18.4096 14.3622 18.3134 14.4253 18.2908 14.5236C17.9532 15.4011 17.4132 16.1879 16.7156 16.8186C16.4607 17.0482 16.1928 17.2642 15.9131 17.4634C15.6129 17.6362 15.3207 17.816 15.0129 17.9586C14.4465 18.2135 13.8524 18.4014 13.2428 18.5207C12.6639 18.6244 12.0769 18.6714 11.4878 18.6633H6.28265V18.6557L6.28481 18.6541Z" fill="#FEFEFD"/>
</svg>