<svg width="24" height="24" viewBox="0 0 24 24" fill="none" xmlns="http://www.w3.org/2000/svg">
<path d="M11.9923 24C18.622 24 23.9922 18.6297 23.9922 12C23.9922 5.37026 18.622 0 11.9923 0C5.36252 0 0 5.37026 0 12C0 18.6297 5.37026 24 11.9923 24Z" fill="#008CE3"/>
<path d="M13.8236 6.74609H9.11013L8.72377 8.92511L12.9736 8.93283C15.0676 8.93283 15.6858 9.69007 15.6703 10.9496C15.6626 11.5986 15.3844 12.6882 15.2608 13.0436C14.9363 13.9863 14.2795 15.0681 11.7914 15.0603H7.65745L7.26337 17.2471H11.9614C13.6149 17.2471 14.3258 17.0539 15.0676 16.7062C16.7212 15.9412 17.7102 14.3108 18.1043 12.1782C18.6993 9.00237 17.9652 6.74609 13.8236 6.74609Z" fill="white"/>
<path d="M7.08564 10.9023C5.84932 10.9023 5.6716 11.7059 5.5557 12.1927C5.40116 12.8264 5.3548 13.0891 5.3548 13.0891H10.1764C11.4127 13.0891 11.5905 12.2855 11.7064 11.7987C11.8609 11.1651 11.9073 10.9023 11.9073 10.9023H7.08564Z" fill="white"/>
</svg>