<svg width="24" height="24" viewBox="0 0 24 24" fill="none" xmlns="http://www.w3.org/2000/svg">
<g clip-path="url(#clip0_1679_1101)">
<path fill-rule="evenodd" clip-rule="evenodd" d="M18.7966 9.35802C17.9947 9.41602 16.8208 9.90133 16.0925 10.4761C16.051 10.5088 15.9661 10.574 15.9038 10.621C15.6149 10.8389 15.5287 10.9097 15.3871 11.0458C15.3034 11.1262 15.1336 11.289 15.0097 11.4077C14.5783 11.8209 14.0328 12.4266 13.8512 12.6939C13.7877 12.7875 13.7502 12.839 13.5591 13.0955C13.4939 13.1831 13.3977 13.3143 13.3453 13.3871C13.2929 13.46 13.2133 13.5691 13.1683 13.6296C13.1233 13.6902 13.0865 13.746 13.0865 13.7537C13.0865 13.7675 12.9613 13.9395 12.9341 13.963C12.9262 13.9698 12.8812 14.0313 12.8342 14.0997C12.7872 14.1681 12.7079 14.2687 12.6581 14.3233C12.6083 14.378 12.536 14.4771 12.4975 14.5434C12.4589 14.6097 12.4087 14.6829 12.386 14.706C12.1269 14.9687 12.1048 15.0871 12.2789 15.2802C12.3221 15.328 12.4195 15.458 12.4956 15.5689C12.5717 15.6799 12.6604 15.7973 12.6928 15.8299C12.7252 15.8624 12.7727 15.9226 12.7984 15.9636C12.824 16.0047 12.9196 16.1333 13.0107 16.2494C13.1018 16.3656 13.2099 16.511 13.2509 16.5725C13.292 16.634 13.3404 16.6999 13.3586 16.7188C13.3768 16.7378 13.4863 16.8775 13.602 17.0294C14.0876 17.6671 14.4346 18.1212 14.5772 18.3057C14.6221 18.3637 14.6983 18.4674 14.7468 18.5361C14.7952 18.6048 14.8772 18.708 14.9291 18.7653C14.981 18.8225 15.0234 18.8774 15.0234 18.8873C15.0234 18.8971 15.0376 18.9199 15.0549 18.9381C15.1221 19.0087 15.3181 19.25 15.4014 19.3646C15.4494 19.4308 15.5454 19.5538 15.6146 19.638C15.6837 19.7221 15.7906 19.858 15.852 19.9401C15.9135 20.022 15.9909 20.1171 16.0241 20.1513C16.0573 20.1855 16.1509 20.2973 16.2321 20.3998C16.3133 20.5023 16.4139 20.6254 16.4557 20.6732C16.4975 20.721 16.5911 20.8329 16.6638 20.9217C16.7365 21.0105 16.8019 21.0888 16.8093 21.0957C16.8167 21.1025 16.8735 21.1694 16.9355 21.2442C17.3302 21.7204 17.9608 22.2841 18.1032 22.2879C18.1161 22.2883 18.1728 22.3104 18.229 22.3369C18.2852 22.3634 18.3992 22.4017 18.4822 22.4218C18.5652 22.4419 18.684 22.4772 18.7463 22.5002C18.8735 22.5471 19.2686 22.5435 19.3289 22.4949C19.3475 22.48 19.4588 22.4422 19.5763 22.4111C19.8908 22.3277 20.1061 22.1912 20.5929 21.7667C20.6635 21.7052 20.7768 21.6101 20.8448 21.5555C21.1888 21.2788 21.6851 20.6862 22.385 19.7164C22.7696 19.1835 22.8213 19.1094 22.8213 19.091C22.8213 19.0818 22.8368 19.0565 22.8556 19.0349C22.8743 19.0133 22.9234 18.9341 22.9645 18.859C23.0057 18.7838 23.093 18.6449 23.1585 18.5503C23.2921 18.3577 23.4827 17.9782 23.5964 17.6784C23.6977 17.4117 23.8023 17.0896 23.8025 17.0443C23.8026 17.024 23.8197 16.9752 23.8406 16.9357C23.8613 16.8963 23.8903 16.7581 23.905 16.6285C23.9196 16.499 23.9441 16.3635 23.9595 16.3274C23.9997 16.233 24.0162 15.0818 23.9798 14.9074C23.9641 14.8322 23.9361 14.6524 23.9175 14.5076C23.8989 14.3629 23.861 14.1728 23.8331 14.0851C23.8054 13.9975 23.7431 13.7971 23.6947 13.6399C23.4695 12.9088 23.1714 12.3273 22.7694 11.835C22.6898 11.7375 22.5759 11.5866 22.5162 11.4994C22.4565 11.4123 22.3954 11.3299 22.3804 11.3162C22.3506 11.2891 22.2542 11.165 22.117 10.9771C21.5673 10.224 21.4579 10.0031 20.9527 9.74593C20.3331 9.43054 19.4696 9.30942 18.7966 9.35802ZM-1 24.8732V24.9727H-0.894268H-0.788536L-0.886791 24.8732C-0.940837 24.8186 -0.98839 24.7738 -0.992523 24.7738C-0.996655 24.7738 -1 24.8186 -1 24.8732Z" fill="url(#paint0_linear_1679_1101)"/>
<path fill-rule="evenodd" clip-rule="evenodd" d="M9.99003 1.77292C10.5016 1.39018 10.9781 1.1743 11.6499 1.0209C11.7693 0.993665 12.4652 0.992812 12.6058 1.01972C13.293 1.15146 13.9491 1.43922 14.5333 1.86514C14.7372 2.01381 15.6952 2.96123 15.8489 3.16615C15.9085 3.24577 15.9649 3.31095 15.974 3.31095C15.9831 3.31095 16.1148 3.46021 16.2665 3.64275C16.4183 3.82522 16.5884 4.02627 16.6444 4.08954C16.7005 4.15282 16.7851 4.25554 16.8325 4.31783C16.9201 4.43316 17.4242 5.06394 17.5567 5.22403C17.5968 5.27253 17.9821 5.75392 18.413 6.29386C18.7757 6.74854 19.1171 7.17628 19.251 7.34406L19.3032 7.40951C19.362 7.48315 19.5006 7.6546 19.6113 7.79054C19.722 7.92647 19.8861 8.13074 19.976 8.24449C20.2653 8.61042 20.758 9.23529 20.8565 9.36119C20.891 9.40536 20.9873 9.52469 21.0703 9.62636C21.1533 9.72804 21.2438 9.84225 21.2715 9.88005C21.2989 9.91745 21.434 10.0745 21.5731 10.2307L21.5717 10.2315C21.2102 9.97547 20.344 9.70269 19.8503 9.61927C18.7042 9.42558 17.2851 9.84907 16.2154 10.704C16.174 10.7372 16.089 10.8032 16.0268 10.8508C15.7378 11.0715 15.6517 11.1432 15.51 11.2811C15.4263 11.3626 15.2565 11.5274 15.1326 11.6476C14.7013 12.0661 14.1557 12.6796 13.9741 12.9505C13.9106 13.0452 13.8732 13.0974 13.682 13.3572C13.6168 13.4459 13.5206 13.5788 13.4682 13.6526C13.4158 13.7264 13.3362 13.8369 13.2913 13.8982C13.2463 13.9596 13.2095 14.0161 13.2095 14.0238C13.2095 14.0378 13.0843 14.2121 13.057 14.2359C13.0491 14.2428 13.0042 14.3051 12.9571 14.3743C12.9101 14.4436 12.8309 14.5455 12.781 14.6009C12.7312 14.6563 12.6589 14.7566 12.6204 14.8237C12.5818 14.8909 12.5317 14.965 12.5089 14.9885C12.3024 15.279 12.3069 15.2738 12.316 15.2632C12.3252 15.2524 12.3392 15.2362 12.1419 15.5185C12.1096 15.5452 11.9737 15.7248 11.6876 16.1187C11.6279 16.2009 11.3411 16.5858 11.1468 16.8446C10.9236 17.1419 10.6379 17.5258 10.5446 17.6539C10.497 17.7192 10.4008 17.8427 10.3308 17.9282C10.2608 18.0138 10.147 18.161 10.078 18.2555C10.009 18.3499 9.89584 18.4963 9.82651 18.5808C9.75718 18.6654 9.64948 18.806 9.58723 18.8934C9.52499 18.9807 9.46215 19.0645 9.44759 19.0795C9.4331 19.0945 9.37328 19.1719 9.31477 19.2516C9.2562 19.3312 9.20379 19.3963 9.19822 19.3963C9.1918 19.3963 9.21467 19.3577 9.25221 19.3017C9.23747 19.3224 9.22326 19.3424 9.2099 19.3614C9.11997 19.4888 8.97849 19.6787 8.89546 19.7835C8.70485 20.0241 8.5761 20.1915 8.42038 20.4012C8.35276 20.4922 8.23673 20.6311 8.16255 20.7096C8.08836 20.7882 8.02763 20.8645 8.02763 20.8791C8.02763 20.8937 7.93908 21.0051 7.83086 21.1264C7.72263 21.2478 7.58784 21.4103 7.53137 21.4876C7.4749 21.5648 7.38786 21.6666 7.33794 21.7137C7.28803 21.7607 7.14262 21.922 7.01485 22.0718C6.20835 23.0176 4.92651 23.23 4.07836 22.5583C3.98844 22.4871 3.8526 22.3823 3.77651 22.3256C3.56013 22.1642 2.76491 21.3643 2.64875 21.1913C2.59123 21.1057 2.53272 21.0284 2.51862 21.0198C2.48812 21.0009 2.24806 20.6835 2.06847 20.4247C1.99776 20.3228 1.89958 20.1829 1.85025 20.1136C1.53483 19.6712 1.46537 19.5666 1.22334 19.1698C1.19566 19.1245 1.11 18.9898 1.03299 18.8705C0.381877 17.8621 0.0668455 16.2 0.292411 14.9631C0.397946 14.3844 0.640959 13.5023 0.721701 13.4051C0.738951 13.3843 0.822907 13.2257 0.908306 13.0527C0.938043 12.9924 0.967644 12.9339 0.994342 12.8824C0.965259 12.9383 0.932559 13.0027 0.899577 13.0693C0.809391 13.2515 0.720843 13.4094 0.70274 13.4202C0.677554 13.4355 0.676308 13.4316 0.697493 13.4038C0.712645 13.3837 0.77994 13.2485 0.84704 13.1031C1.02794 12.7113 1.23875 12.3751 1.6258 11.8613C1.94804 11.4336 2.00648 11.3551 2.16298 11.1396C2.28384 10.9732 2.51347 10.6579 2.7175 10.3802C2.84097 10.2261 3.14385 9.81596 3.11004 9.85583C3.27671 9.66384 3.71269 9.12889 3.8827 8.90776C3.93419 8.84081 4.0474 8.69713 4.13424 8.5885C4.22108 8.47986 4.33744 8.33113 4.3928 8.25794C4.49479 8.12299 4.62564 7.95719 4.81028 7.7287C4.86623 7.65952 4.95805 7.54059 5.01433 7.46445C5.07061 7.38831 5.14059 7.30226 5.16978 7.27318C5.19903 7.24417 5.2908 7.13258 5.37383 7.02513C5.56464 6.7782 6.34943 5.8256 6.58122 5.55957C6.63658 5.49603 6.72546 5.38609 6.77872 5.3152C6.83197 5.24431 6.90255 5.158 6.93554 5.12334C7.00422 5.05127 7.30705 4.69216 7.52258 4.42725C7.60312 4.3282 7.69423 4.22056 7.72492 4.18806C7.75569 4.15557 7.88568 4.00434 8.01378 3.85193C8.14195 3.69959 8.2671 3.55794 8.29195 3.53733C8.31681 3.51665 8.42523 3.39214 8.5328 3.2606C8.64037 3.12906 8.7703 2.98177 8.82147 2.93333C8.87263 2.88489 8.94333 2.8056 8.97868 2.75709C9.0896 2.60488 9.79312 1.92021 9.99003 1.77292ZM2.82578 10.2332C2.96477 10.0449 3.077 9.89482 3.11004 9.85583L3.06142 9.92051C2.94701 10.0727 2.87662 10.1663 2.82578 10.2332ZM2.82578 10.2332C2.75733 10.3231 2.7243 10.3645 2.66698 10.4348C2.66351 10.4452 2.68384 10.4222 2.7175 10.3802C2.75472 10.3296 2.79108 10.2802 2.82578 10.2332ZM12.1849 15.5128C12.1673 15.5072 12.1531 15.5092 12.1419 15.5185C12.1459 15.5231 12.1528 15.5288 12.162 15.5357L12.1849 15.5128ZM9.42985 19.0558C9.43893 19.0441 9.44791 19.0326 9.45671 19.0214C9.50354 18.9623 9.5626 18.8789 9.60347 18.8151C9.57257 18.8613 9.53325 18.9169 9.49548 18.9672C9.47741 18.9913 9.45488 19.0217 9.42985 19.0558ZM9.65607 18.7302C9.70317 18.6586 9.78485 18.5487 9.85668 18.4614C9.94309 18.3562 10.0139 18.2628 10.0148 18.2526C10.0135 18.2633 9.94176 18.3573 9.85426 18.4631C9.76655 18.5693 9.67774 18.6889 9.65607 18.7302ZM-0.850122 25.1869C-0.863457 25.1757 -0.872417 25.1685 -0.874711 25.1671C-0.880614 25.1637 -0.874448 25.1609 -0.861068 25.1609C-0.847622 25.1609 -0.797642 25.2034 -0.749958 25.2553L-0.663247 25.3497L-0.762472 25.2626L-0.751265 25.274C-0.704367 25.3225 -0.671638 25.3622 -0.678525 25.3622C-0.685477 25.3622 -0.729489 25.3225 -0.776451 25.274C-0.819109 25.23 -0.850023 25.1933 -0.850122 25.1869Z" fill="url(#paint1_linear_1679_1101)"/>
</g>
<defs>
<linearGradient id="paint0_linear_1679_1101" x1="14.625" y1="10.1471" x2="22.8238" y2="21.0467" gradientUnits="userSpaceOnUse">
<stop stop-color="#44259F"/>
<stop offset="1" stop-color="#7C1F96"/>
</linearGradient>
<linearGradient id="paint1_linear_1679_1101" x1="15.6662" y1="3.09758" x2="0.562024" y2="22.3684" gradientUnits="userSpaceOnUse">
<stop stop-color="#897AFE"/>
<stop offset="0.456418" stop-color="#C052D2"/>
<stop offset="1" stop-color="#FBA261"/>
</linearGradient>
<clipPath id="clip0_1679_1101">
<rect width="24" height="24" fill="white"/>
</clipPath>
</defs>
</svg>