<svg width="24" height="24" viewBox="0 0 24 24" fill="none" xmlns="http://www.w3.org/2000/svg">
<path d="M12 24C18.6274 24 24 18.6274 24 12C24 5.37258 18.6274 0 12 0C5.37258 0 0 5.37258 0 12C0 18.6274 5.37258 24 12 24Z" fill="#FFF706"/>
<path fill-rule="evenodd" clip-rule="evenodd" d="M12.0012 5.03507C11.8574 5.08648 11.7144 5.24947 11.6238 5.4653C11.5746 5.58238 11.4978 5.94005 11.4964 6.05796C11.4957 6.12091 11.4905 6.1262 11.463 6.09205C11.4452 6.06978 11.3793 6.01156 11.3167 5.96269C11.227 5.89267 11.1703 5.87086 11.049 5.85987C10.9102 5.84725 10.8867 5.85298 10.8097 5.91775C10.699 6.01086 10.6599 6.15723 10.6776 6.41267C10.6917 6.61806 10.7645 6.84356 10.8598 6.9774C10.8894 7.0189 10.907 7.06328 10.8991 7.07608C10.8912 7.08888 10.8094 7.11385 10.7173 7.13159C9.51263 7.36345 8.47061 8.08085 7.79826 9.14119C7.6248 9.41479 7.39708 9.85688 7.32042 10.0688C7.17781 10.4633 7.11117 10.6592 7.07545 10.7894C6.90331 11.4163 6.77726 12.1901 6.76679 12.6842L6.76028 12.9911L7.47465 12.9982L8.18901 13.0053L8.21524 12.9364C8.2296 12.8985 8.24139 12.7947 8.24139 12.7058C8.24139 12.198 8.49079 11.1634 8.7415 10.6309C8.90292 10.288 9.16818 9.89128 9.39976 9.64631C9.71291 9.31507 10.2289 8.99893 10.6966 8.8518C11.0912 8.7277 11.3385 8.69615 11.9109 8.69702C12.3783 8.69772 12.5209 8.70763 12.7701 8.75671C13.0902 8.81977 13.3957 8.9133 13.6322 9.02067C13.713 9.05733 13.803 9.09817 13.8324 9.11142C13.8617 9.12471 13.9218 9.15928 13.9658 9.18825C14.0098 9.21723 14.0639 9.24919 14.0859 9.25935C14.2965 9.35615 14.8367 9.87107 15.0392 10.1679C15.1719 10.3625 15.3758 10.7388 15.4336 10.8961C15.6631 11.5196 15.7422 11.9174 15.7839 12.6575C15.7939 12.8338 15.8139 12.9728 15.8309 12.9843C15.8473 12.9951 16.1728 13.0012 16.5545 12.9976L17.2484 12.9911L17.2571 12.6842C17.2702 12.2251 17.1873 11.4524 17.0864 11.0939C17.0654 11.0192 17.0482 10.9412 17.0482 10.9204C17.0482 10.8576 16.8484 10.2586 16.7419 10.0021C16.3846 9.1414 15.7824 8.38662 15.0466 7.87719C14.8859 7.76585 14.7923 7.70874 14.5342 7.56443C14.3013 7.43424 13.6517 7.18881 13.4323 7.14815C13.3737 7.13726 13.3173 7.12318 13.307 7.11681C13.2966 7.11041 13.319 7.04377 13.3567 6.96871C13.5569 6.57013 13.5421 6.03187 13.3271 5.891C13.22 5.82078 13.0232 5.84954 12.8902 5.95486C12.8318 6.00116 12.7776 6.03907 12.7698 6.03907C12.7621 6.03907 12.7475 5.95799 12.7374 5.85893C12.7154 5.64446 12.5979 5.34422 12.48 5.20112C12.3986 5.10248 12.2222 4.99879 12.1377 5.00001C12.1157 5.00036 12.0543 5.01611 12.0012 5.03507ZM10.8309 10.582C10.7946 10.6011 10.7376 10.6573 10.7041 10.707C10.6473 10.7913 10.6432 10.8246 10.6432 11.2087C10.6432 11.6282 10.6537 11.6823 10.7567 11.7954C10.8793 11.9301 11.1042 11.8948 11.1991 11.7259C11.2515 11.6326 11.257 11.584 11.257 11.2181C11.257 10.7956 11.2415 10.7226 11.1296 10.6214C11.0598 10.5582 10.9129 10.5388 10.8309 10.582ZM13.0305 10.5867C12.8736 10.655 12.8583 10.7112 12.8583 11.218C12.8583 11.6336 12.8632 11.682 12.9121 11.7507C12.9852 11.8533 13.1228 11.8973 13.2448 11.857C13.4256 11.7973 13.4454 11.7343 13.4454 11.218C13.4454 10.7171 13.432 10.6651 13.2826 10.5878C13.1916 10.5407 13.1366 10.5405 13.0305 10.5867ZM6.01746 13.6627C5.99524 13.685 5.99371 16.5072 6.01586 16.565C6.03002 16.6018 6.11277 16.6072 6.66842 16.6072C7.48873 16.6072 7.66331 16.573 8.00901 16.3447C8.4135 16.0775 8.64171 15.638 8.64171 15.1261C8.64171 14.4372 8.22494 13.8885 7.54936 13.6879C7.43249 13.6532 7.27183 13.6449 6.71983 13.6449C6.34334 13.6449 6.02724 13.6529 6.01746 13.6627ZM9.94939 13.6939C9.76327 13.7504 9.54376 13.8631 9.44932 13.9507C9.40908 13.988 9.36776 14.0185 9.35746 14.0185C9.31792 14.0185 9.08828 14.3472 9.01691 14.5059C8.88519 14.7988 8.8536 15.108 8.92213 15.4339C8.9832 15.7242 9.10633 15.9496 9.32226 16.1666C9.8607 16.7076 10.6885 16.7522 11.3101 16.2739C11.3984 16.206 11.4706 16.142 11.4706 16.1316C11.4706 16.1213 11.5014 16.0797 11.539 16.0392C11.6241 15.9474 11.7448 15.7061 11.8014 15.5148C11.8278 15.4255 11.8441 15.2719 11.8439 15.1145C11.8433 14.6872 11.7046 14.3536 11.4048 14.0586C11.2244 13.881 11.0519 13.7776 10.8024 13.698C10.5903 13.6302 10.1656 13.6282 9.94939 13.6939ZM12.2242 15.1194L12.2311 16.5939L12.8449 16.6023C13.239 16.6077 13.5256 16.5993 13.6455 16.5788C14.3438 16.4592 14.8638 15.8252 14.8589 15.0993C14.8553 14.5848 14.5638 14.0872 14.1112 13.8236C13.8345 13.6623 13.7198 13.6449 12.9346 13.6449H12.2173L12.2242 15.1194ZM16.0955 13.6981C15.7542 13.8195 15.5463 13.9623 15.364 14.2007C15.0888 14.5606 14.9929 14.9873 15.0869 15.4339C15.3117 16.5027 16.5764 16.9602 17.4531 16.2898C17.6953 16.1046 17.8379 15.8948 17.9571 15.5487C18.0296 15.3379 18.0283 14.9233 17.9545 14.6877C17.8021 14.2015 17.4194 13.8254 16.9373 13.6879C16.725 13.6274 16.2792 13.6328 16.0955 13.6981ZM7.43879 14.3644C7.86717 14.583 8.00526 15.2431 7.70832 15.6526C7.54282 15.8808 7.38752 15.9449 7.02519 15.9343L6.76032 15.9267L6.75322 15.1194L6.74619 14.3121H7.04119C7.2816 14.3121 7.35517 14.3218 7.43879 14.3644ZM10.6581 14.3755C10.9165 14.4958 11.0806 14.7859 11.08 15.1213C11.0795 15.3767 11.0074 15.5535 10.8325 15.7282C10.7005 15.8601 10.6645 15.8809 10.5194 15.9094C10.1833 15.9754 9.90359 15.8376 9.74153 15.5263C9.68014 15.4085 9.67207 15.3618 9.67225 15.126C9.67242 14.9053 9.68282 14.8372 9.73239 14.7318C9.90397 14.3672 10.3071 14.212 10.6581 14.3755ZM13.6551 14.3635C13.7871 14.4309 13.9335 14.5952 14.0052 14.7565C14.0821 14.9298 14.0872 15.2626 14.016 15.4631C13.9522 15.6426 13.7413 15.8615 13.5876 15.9075C13.528 15.9254 13.3636 15.94 13.2222 15.94H12.965V15.126V14.3121H13.2597C13.498 14.3121 13.5736 14.3219 13.6551 14.3635ZM16.8214 14.3757C16.9921 14.4564 17.0811 14.5527 17.1697 14.7524C17.2232 14.8731 17.2412 14.9586 17.243 15.0993C17.2464 15.3787 17.18 15.5469 16.9945 15.7287C16.864 15.8566 16.8202 15.8824 16.6852 15.9108C16.3574 15.9797 16.0694 15.8377 15.9055 15.5263C15.8429 15.4074 15.8353 15.364 15.8363 15.1261C15.8373 14.9069 15.8481 14.8364 15.8973 14.7318C16.0694 14.365 16.4713 14.2102 16.8214 14.3757Z" fill="black"/>
</svg>