<svg width="24" height="24" viewBox="0 0 24 24" fill="none" xmlns="http://www.w3.org/2000/svg">
<path d="M12 24C18.6274 24 24 18.6274 24 12C24 5.37258 18.6274 0 12 0C5.37258 0 0 5.37258 0 12C0 18.6274 5.37258 24 12 24Z" fill="#988430"/>
<path d="M12 23.616C18.4151 23.616 23.6156 18.4155 23.6156 12.0004C23.6156 5.58526 18.4151 0.384766 12 0.384766C5.58486 0.384766 0.384369 5.58526 0.384369 12.0004C0.384369 18.4155 5.58486 23.616 12 23.616Z" fill="#7A6A2A"/>
<path d="M12 23.3707C18.28 23.3707 23.3709 18.2798 23.3709 11.9998C23.3709 5.71982 18.28 0.628906 12 0.628906C5.72004 0.628906 0.62912 5.71982 0.62912 11.9998C0.62912 18.2798 5.72004 23.3707 12 23.3707Z" fill="#BA9F33"/>
<path fill-rule="evenodd" clip-rule="evenodd" d="M5.24658 10.7185C5.17862 10.6564 5.1068 10.5942 5.04076 10.5321C4.97472 10.47 4.90688 10.4078 4.8389 10.3457L4.63692 10.1537C4.6039 10.1207 4.56896 10.0917 4.53592 10.0585C4.5029 10.0294 4.46412 9.99642 4.4311 9.96724C4.16306 9.7129 3.8935 9.45856 3.62918 9.2041C3.90296 9.4546 4.171 9.7033 4.4448 9.9575L4.5399 10.0527C4.57292 10.0856 4.60786 10.1148 4.64088 10.1478L4.84274 10.3342C4.91072 10.3963 4.97676 10.4585 5.04472 10.5262C5.1127 10.5939 5.17874 10.6563 5.24672 10.7182L5.24658 10.7185ZM1.68934 10.6801C1.68934 10.6801 2.66406 10.7809 3.13984 10.8489C3.58054 10.9111 4.95922 11.1227 4.95922 11.1227L1.68934 10.6801ZM1.68934 10.6801C1.96313 10.7034 2.23692 10.7324 2.51072 10.7616C2.65048 10.7752 2.7845 10.7907 2.91852 10.8042L3.12422 10.8277C3.19218 10.8373 3.25824 10.847 3.3262 10.8567L4.14182 10.9868L4.5495 11.0547C4.68352 11.078 4.81752 11.1034 4.9573 11.1267C4.82328 11.1131 4.68352 11.0936 4.5495 11.0742L4.14182 11.0159L3.3262 10.8956C3.25824 10.8859 3.19218 10.8722 3.12422 10.8626L2.9184 10.8389C2.78438 10.8253 2.6446 10.8059 2.51058 10.7903C2.2368 10.7574 1.963 10.7223 1.68921 10.6797L1.68934 10.6801ZM4.8622 11.3766C4.8622 11.3766 3.82144 11.6408 3.46994 11.7418C3.12434 11.8369 2.07768 12.1554 2.07768 12.1554L4.86208 11.3768L4.8622 11.3766Z" fill="#CFB66C"/>
<path fill-rule="evenodd" clip-rule="evenodd" d="M4.86209 11.377C4.63105 11.4449 4.40129 11.511 4.16691 11.5732L3.47175 11.7596C3.24071 11.8275 3.01095 11.8936 2.78055 11.9615L2.43495 12.0566C2.32039 12.0897 2.20391 12.1187 2.08551 12.1519C2.19995 12.1135 2.31655 12.0742 2.43111 12.0412L2.77671 11.9306C3.00775 11.8586 3.23751 11.7907 3.46791 11.7189C3.70279 11.6606 3.93395 11.5984 4.16883 11.5421C4.39207 11.4858 4.62707 11.4296 4.86209 11.3771V11.377ZM2.22337 12.7965C2.33779 12.7537 3.65825 12.1383 3.96505 11.9946C4.11867 11.9226 4.56513 11.7642 4.56513 11.7642L2.22337 12.7965Z" fill="#CFB66C"/>
<path fill-rule="evenodd" clip-rule="evenodd" d="M2.22338 12.7957C2.32424 12.7573 2.41946 12.7104 2.5165 12.6657L2.80386 12.5317L3.38062 12.254C3.57262 12.1628 3.75924 12.062 3.95726 11.9763C4.05826 11.9337 4.15924 11.8987 4.2601 11.8657L4.4137 11.8172C4.46606 11.8036 4.5147 11.788 4.5673 11.7744C4.3753 11.8657 4.1732 11.9434 3.98094 12.0326C3.78894 12.1278 3.59258 12.2055 3.39444 12.2909L2.80808 12.5491C2.61122 12.6288 2.41922 12.7142 2.22324 12.7957H2.22338ZM2.35138 13.3333C2.35138 13.3333 3.5474 12.6324 3.95906 12.4071C4.1746 12.2868 4.8717 11.9411 4.8717 11.9411L2.35138 13.3333Z" fill="#CFB66C"/>
<path fill-rule="evenodd" clip-rule="evenodd" d="M2.3515 13.3336C2.55336 13.2093 2.75918 13.0831 2.96502 12.955L3.27222 12.7685C3.37704 12.7064 3.47804 12.6481 3.58492 12.5861C3.68974 12.5239 3.79074 12.4618 3.8975 12.4035C3.94832 12.3722 4.00156 12.3449 4.05672 12.322L4.2198 12.2405C4.43534 12.1356 4.6509 12.0288 4.8781 11.9375C4.67228 12.0677 4.46056 12.1784 4.24898 12.2928C4.14414 12.3511 4.03726 12.4035 3.93244 12.4618C3.8276 12.52 3.72662 12.5822 3.61974 12.6385C3.5149 12.7006 3.4139 12.7589 3.30716 12.8152L2.99062 12.988L2.35176 13.3336H2.3515ZM4.8621 12.0947C4.8621 12.0947 4.11842 12.6656 3.87766 12.8481C3.63688 13.0306 2.92814 13.5433 2.92814 13.5433L4.8621 12.0947Z" fill="#CFB66C"/>
<path fill-rule="evenodd" clip-rule="evenodd" d="M9.13008 16.6988L8.74954 15.9784L8.97086 15.0774L10.5495 14.4678L9.8776 13.0892L10.2096 11.6969L10.833 10.4502L12.7593 10.1474L14.1747 8.79785L17.2311 9.02889L17.831 12.2969L16.6757 16.4114L16.0175 18.5416L13.3495 18.6426L12.1107 17.7844L10.6602 17.1784L9.13008 16.6988Z" fill="#E2CC85"/>
<path fill-rule="evenodd" clip-rule="evenodd" d="M13.8098 16.676C13.8098 16.676 13.4408 16.8449 12.8114 16.806C12.6292 16.5614 11.3536 16.4469 11.3536 16.4469C11.3536 16.4469 11.1944 16.3983 10.9128 16.5148C10.6294 16.63 10.3613 16.6158 10.1108 16.6779C9.86034 16.74 9.61164 16.4138 9.41964 16.3459C9.22764 16.2741 8.97304 16.1013 8.97304 16.1013L8.43544 16.0488L7.3559 15.5925L5.64082 13.8838L5.17478 14.6134L5.03104 15.5163L5.54956 16.5863L6.94566 17.8581L9.66796 18.5493L11.2815 18.0739L13.3029 17.2195L13.8098 16.6759V16.676Z" fill="#F1D789"/>
<path fill-rule="evenodd" clip-rule="evenodd" d="M4.13785 10.6368L4.48345 9.59027L4.89523 8.91443L6.22131 8.80371L5.82323 9.96493L4.71463 11.9378L5.17479 13.6989L4.35929 14.1066L4.10867 13.7222L3.90681 12.8407L3.89325 11.8504L4.13785 10.6368Z" fill="#F4ECB4"/>
<path fill-rule="evenodd" clip-rule="evenodd" d="M5.62522 16.604L5.37088 16.2487C5.37088 16.2487 5.30292 16.0797 5.34184 15.9321C5.38024 15.7826 5.37472 15.7729 5.3554 15.7166C5.33608 15.6602 5.17288 15.4661 5.1826 15.299C5.1922 15.1301 5.16904 15.0738 5.2932 14.9399C5.42324 14.8098 5.38446 14.5845 5.38446 14.5845L5.55342 14.6894L5.59182 14.6311C5.59182 14.6311 5.6539 14.6796 5.6539 14.7554C5.66746 14.6506 5.61114 14.1651 5.73928 14.0545C5.8674 13.9439 6.0946 14.5729 6.0946 14.5729L5.95482 13.6602L5.59552 12.7244L4.95668 11.87L4.91828 10.9282V10.8467C4.91828 10.8467 4.62504 11.2972 4.5435 11.6531C4.48526 11.8977 4.62504 12.1948 4.59598 12.5463C4.57256 12.8958 4.5435 12.8686 4.62888 13.0071C4.71424 13.1456 4.92212 13.4304 4.84058 13.6362C4.76878 13.813 4.52404 13.6887 4.52404 13.6887C4.52404 13.6887 4.47552 13.8323 4.40948 13.8848C4.38618 13.7994 4.36096 13.745 4.31438 13.6928C4.3104 13.7258 4.3008 13.7705 4.3008 13.7705C4.3008 13.7705 4.25806 13.6364 4.2153 13.4675C4.1572 13.2423 4.09498 12.9452 4.03866 12.786C4.01536 12.8773 3.95712 13.1549 3.95712 13.1549L3.99016 13.5822L4.14938 14.1685L4.30298 14.5525L4.45248 15.0224L4.5824 15.3381L4.68724 15.5788L4.7785 16.1207L5.2192 16.5866L5.45422 16.6915L5.62496 16.6041L5.62522 16.604Z" fill="#F3E19D"/>
<path fill-rule="evenodd" clip-rule="evenodd" d="M4.36889 9.78278C4.36889 9.78278 4.05235 10.3204 3.96121 10.8623C3.87007 11.4043 3.78841 11.977 3.84601 12.7148C3.90425 13.4586 4.01497 13.9148 4.10431 14.241C4.25791 14.7828 4.65574 15.5363 4.65574 15.5363L4.6693 15.5071C4.60244 15.3803 4.54906 15.2469 4.51007 15.109C4.45759 14.9032 4.43814 14.6586 4.38962 14.5478C4.34686 14.4372 4.27507 14.342 4.24013 14.2061C4.20711 14.076 4.20173 13.8702 4.10035 13.7169C4.05759 13.6547 4.00511 13.4916 3.98963 13.3285C3.97017 13.0838 3.99935 12.81 3.97607 12.5848C3.93331 12.21 3.90425 11.9557 3.94303 11.7595C3.98183 11.5633 4.18393 11.0062 4.30823 10.5635C4.38975 10.2799 4.34111 10.0411 4.49063 9.79444C4.64012 9.54982 4.7315 9.33428 4.7644 9.18476C4.8028 9.04884 4.36839 9.78278 4.36839 9.78278H4.36889Z" fill="#F2E8B0"/>
<path fill-rule="evenodd" clip-rule="evenodd" d="M5.86996 9.56738C5.86996 9.56738 5.7069 9.61602 5.6292 9.70138C5.5515 9.78292 5.51848 9.8509 5.41364 9.98874C5.30882 10.1266 5.30292 10.2392 5.21742 10.412C5.13204 10.581 4.94362 10.8353 4.92034 10.9266C4.89704 11.0179 4.85826 11.445 4.80974 11.647C4.76698 11.849 4.85826 12.0975 4.85826 12.0975L4.96884 12.0741C4.96884 12.0741 4.96884 12.2179 5.07956 12.315C5.19016 12.4101 5.20962 11.9926 5.20962 11.9926L5.62318 10.5965L6.24642 10.1732L6.31438 9.83144L5.8697 9.56738H5.86996Z" fill="#F5EEC0"/>
<path fill-rule="evenodd" clip-rule="evenodd" d="M6.17281 10.2005C6.17281 10.2005 5.87957 10.2198 5.73595 10.3248C5.67771 10.3674 5.65441 10.4023 5.59233 10.4548C5.47777 10.5499 5.36117 10.6374 5.30497 10.762C5.24277 10.8862 5.17479 11.0746 5.12821 11.4299C5.10875 11.5794 5.10875 11.7173 5.09517 11.8377C5.07573 12.0008 5.04667 12.1309 5.06215 12.2217C5.08161 12.4081 5.27387 12.5053 5.29255 12.7168L5.69063 12.515L6.06541 11.0372L6.86156 10.538L6.41101 10.0332L6.17229 10.1996L6.17281 10.2005Z" fill="#E6DB9D"/>
<path fill-rule="evenodd" clip-rule="evenodd" d="M4.07271 20.1506C4.07437 20.136 4.07603 20.1214 4.07769 20.1064C4.13581 19.6073 4.14567 19.2289 4.18829 18.992C4.25037 18.6561 4.29311 18.5312 4.28339 18.4055C4.26983 18.2036 4.25433 18.056 4.27379 17.9007C4.30285 17.6948 4.50483 17.4502 4.49907 17.2813C4.49511 17.1472 4.42713 17.06 4.36889 16.9784C4.31065 16.8969 4.26407 16.8289 4.26407 16.8289C4.26407 16.8289 4.66215 16.5551 4.65831 15.4521C4.66643 15.4544 4.67425 15.4577 4.68159 15.4619L4.87769 16.0191L5.01171 16.1821L5.52627 17.1414L6.18841 17.7842L7.16697 18.4424L7.78061 19.1101L7.84269 20.8908L7.04077 21.9316L6.90943 22.1694C5.86607 21.6456 4.90931 20.9646 4.07257 20.1506H4.07271Z" fill="#E5CB7A"/>
<path fill-rule="evenodd" clip-rule="evenodd" d="M6.52234 21.8546C6.52234 21.8546 6.53592 21.6332 6.71844 21.4894C6.74762 21.538 6.76696 21.5848 6.7612 21.6196C6.79422 21.5614 7.02526 21.1886 7.54762 21.0914C8.07 20.9964 8.1962 20.6158 8.1962 20.6158L9.3048 19.608L10.5728 18.441L12.1145 17.8992L12.835 17.7224C12.835 17.7224 12.8486 17.7749 12.8215 17.8914C12.9554 17.8818 13.2525 17.8138 13.5612 17.705C13.6855 17.6565 13.8021 17.6371 13.8642 17.7012C13.9554 17.7866 13.969 17.9886 13.9748 18.1089C14.1243 18.0759 14.2971 17.9322 14.4356 17.9458C14.657 17.9691 14.8531 18.2293 15.0784 18.2293C15.3755 18.2293 15.5094 18.0468 15.7172 17.9031C15.8415 17.8177 16.0201 17.7111 16.1211 17.639C16.3618 17.4622 18.9094 16.6836 18.9094 16.6836L19.8026 16.7418L19.9463 17.7011L19.8695 20.2086C19.8601 20.2176 19.8506 20.2272 19.841 20.2362L15.7798 22.3574L10.1504 23.2204C8.88936 23.0142 7.67246 22.5958 6.55152 21.9824L6.52272 21.8544L6.52234 21.8546Z" fill="#D8C173"/>
<path fill-rule="evenodd" clip-rule="evenodd" d="M4.41406 20.4697C4.49406 20.3023 4.566 20.1625 4.57868 20.1123C4.58866 20.2133 4.60696 20.4345 4.64382 20.6699C4.56642 20.6041 4.48984 20.5373 4.41406 20.4695V20.4697Z" fill="#F1D789"/>
<path fill-rule="evenodd" clip-rule="evenodd" d="M8.52635 22.8292L9.25441 22.6268L9.31649 22.6462C9.31649 22.6462 9.34951 22.6658 9.34951 22.7316C9.44077 22.6792 9.51847 22.6888 9.57479 22.654C9.60385 22.7162 9.63291 22.922 9.76117 22.9472C9.89505 22.9764 10.0388 22.889 10.1845 22.7784C10.3281 22.6638 10.4917 22.52 10.6154 22.4618C10.6609 22.5454 10.7011 22.6316 10.7359 22.72C10.899 22.59 11.1825 22.0618 11.5863 22.0714C11.703 21.7956 11.898 21.56 12.1472 21.3938C12.522 21.1394 12.7569 21.12 13.0501 21.1432C13.1666 20.992 13.3101 20.8636 13.4734 20.7646C13.5219 20.7842 13.656 20.8656 13.823 20.788C13.992 20.7104 14.1822 20.4094 14.4327 20.3706C14.5676 20.352 14.7049 20.3808 14.821 20.452C14.821 20.452 15.5506 19.7277 16.054 19.487C16.0346 19.4287 15.9958 19.2093 16.586 18.7238C16.619 18.753 16.5957 18.8346 16.619 18.839C16.6286 18.839 16.7726 18.777 16.9549 18.6371C17.1802 18.4682 17.45 18.2915 17.6131 18.2429C17.9203 18.1517 18.2462 18.338 18.2462 18.338C18.2739 18.3186 18.3048 18.3041 18.3374 18.2953C18.415 18.2817 18.4713 18.272 18.5141 18.2569C18.5102 18.3579 18.5665 18.5307 18.5141 18.6802C18.5749 18.7144 18.6393 18.7417 18.7061 18.7617C18.6732 18.8335 18.6012 19.0161 18.4809 19.1035C18.5818 19.152 18.5953 19.2083 18.7391 19.2571C18.6809 19.3386 18.5855 19.4785 18.543 19.5643C18.5002 19.6556 18.3468 20.0342 18.2788 20.1778C18.207 20.3216 18.11 20.5856 18.0633 20.6386C18.0165 20.6916 17.8477 20.9162 17.7177 21.0268C17.8329 20.984 18.3041 20.8404 18.5041 20.786C18.4446 20.8734 18.1429 21.321 17.8528 21.7514C15.0434 23.4352 11.6453 23.8286 8.52545 22.8312L8.52635 22.8292Z" fill="#E0CD81"/>
<path fill-rule="evenodd" clip-rule="evenodd" d="M6.22083 10.1472C6.22083 10.1472 6.05199 10.1472 6.01897 10.1704C5.98595 10.1937 6.18793 10.2424 6.25001 10.2657C6.31209 10.289 6.44611 10.3957 6.48105 10.4812C6.51407 10.5628 7.69461 11.0384 7.69461 11.0384L8.52955 10.9957L8.81743 10.598L8.26985 10.1184L8.65385 8.98633L8.14517 9.06787L6.92187 9.79747L6.30825 10.0325L6.22083 10.1472Z" fill="#DFC57C"/>
<path fill-rule="evenodd" clip-rule="evenodd" d="M8.05438 10.5223C8.07894 10.5621 8.12284 10.5857 8.16958 10.5844C8.34238 10.5844 8.50148 10.6271 8.56752 10.7144C8.67824 10.8543 8.98506 11.3009 8.98506 11.3009L9.71902 11.565L9.76638 10.7007L8.96446 10.1436L8.05182 10.4794V10.5222H8.05386L8.05438 10.5223Z" fill="#E5CC7C"/>
<path fill-rule="evenodd" clip-rule="evenodd" d="M7.91043 10.8428C7.91043 10.8428 8.04431 10.8525 8.21327 10.7903C8.38223 10.7281 8.65987 10.5942 8.78031 10.6467C8.94915 10.7185 8.91419 10.9438 9.09685 11.1459C9.20745 11.2702 9.40943 11.2663 9.52399 11.4004C9.63855 11.5344 10.0327 11.4722 10.0327 11.4722L10.1822 12.2786L9.58223 13.0476L9.38601 14.0029H8.57475L7.83363 13.7088L7.46857 12.8256L7.65109 11.9325L7.91043 10.8428Z" fill="#D2C281"/>
<path fill-rule="evenodd" clip-rule="evenodd" d="M9.47966 10.8812C9.49978 10.8874 9.52068 10.8906 9.54174 10.8909C9.51844 10.9104 9.4698 10.953 9.48926 11.0637C9.5087 11.1744 9.57078 11.3142 9.51844 11.3996C9.56022 11.4453 9.5914 11.4996 9.6097 11.5588C9.64272 11.654 9.65246 11.7413 9.86788 11.755C9.83678 11.7742 9.80812 11.797 9.7825 11.823C9.7825 11.823 9.932 11.953 10.0078 12.0734C10.0853 12.07 10.2912 12.006 10.2912 12.006L10.3339 12.0352L10.4252 11.9968C10.4252 11.9968 10.3398 11.9638 10.4019 11.7561C10.4601 11.5735 10.5126 11.5833 10.5171 11.5697C10.5216 11.5561 10.5598 11.3639 10.5598 11.2862C10.5889 11.1853 10.6122 10.8785 10.6122 10.8785L10.5501 10.2009L10.2007 9.98914L9.91652 9.71484L9.64848 10.2197L9.47198 10.3957L9.4584 10.8325L9.47966 10.8812Z" fill="#E2C270"/>
<path fill-rule="evenodd" clip-rule="evenodd" d="M10.3204 10.3149C10.3204 10.3149 10.3825 10.4915 10.4059 10.6275C10.4141 10.601 10.4187 10.5736 10.4195 10.5459C10.4195 10.5459 10.468 10.814 10.4776 10.9247C10.497 10.9207 10.516 10.915 10.5203 10.9343C10.5247 10.9536 10.569 11.1693 10.5587 11.2896C10.6396 11.1562 10.7515 11.0443 10.8849 10.9635C10.9626 10.9148 11.0538 10.8625 11.1491 10.8585C11.2986 10.8547 11.4072 10.9537 11.5859 10.9537C12.0169 10.9537 12.4073 10.6372 12.6947 10.5402C12.9062 10.4682 13.0888 10.4159 13.2169 10.2993C13.2791 10.2469 13.3898 10.1304 13.4907 9.95753C13.6247 9.72713 13.7645 9.52655 13.9044 9.50133C13.8411 9.51297 13.7767 9.51751 13.7124 9.51489C13.7124 9.51489 13.7551 9.47215 13.8276 9.41391C13.9 9.35567 13.9868 9.28385 14.111 9.28385C14.3324 9.28385 14.443 9.31675 14.5673 9.31675C14.6916 9.31291 14.7634 9.28385 14.7634 9.28385C14.7634 9.28385 14.8936 9.37513 15.1867 9.37513C15.4799 9.37897 15.676 9.40417 15.8295 9.41787C15.983 9.43157 16.4974 9.37513 16.645 9.37947C16.7412 9.38319 16.8357 9.40631 16.9228 9.44745L16.447 8.06505L14.7379 6.57129L13.7204 7.29167L12.1553 8.85673L10.6408 9.41787L10.3242 9.77321V10.3149H10.3204Z" fill="#CCB360"/>
<path fill-rule="evenodd" clip-rule="evenodd" d="M13.7185 9.52194C13.7185 9.52194 13.7613 9.4793 13.833 9.42106C13.9046 9.36282 13.9923 9.2909 14.1165 9.2909C14.3378 9.2909 14.4485 9.32392 14.5728 9.32392C14.6971 9.32008 14.7689 9.2909 14.7689 9.2909C14.7689 9.2909 14.8992 9.38202 15.1922 9.38202C15.4854 9.38586 15.6815 9.41108 15.835 9.42466C15.9885 9.43822 16.5029 9.38202 16.6505 9.38626C16.7467 9.38988 16.8411 9.413 16.9281 9.45422L16.7126 8.83086L16.4622 8.35522L15.7476 7.57262C15.7476 7.57262 14.89 7.06778 14.8835 7.06394C14.8796 7.0601 14.5864 6.98242 14.5864 6.98242L13.8097 7.4523L13.1049 9.27566L13.0913 9.65966L13.5475 9.87522C13.6621 9.68322 13.7884 9.52962 13.9068 9.51016C13.7999 9.5218 13.7184 9.5218 13.7184 9.5218L13.7185 9.52194Z" fill="#D5B457"/>
<path fill-rule="evenodd" clip-rule="evenodd" d="M13.7088 9.65275C13.6408 9.65659 13.5847 9.64303 13.569 9.59451C13.5108 9.43145 13.4642 9.40815 13.4154 9.40815C13.3667 9.40815 13.3009 9.51299 13.2618 9.52259C13.2228 9.53219 13.1765 9.40227 13.1765 9.40227L13.1337 9.38281C13.1337 9.38281 12.8832 9.54587 12.7066 9.73813C12.5299 9.93039 12.2405 10.2567 12.1105 10.3148C11.9804 10.3729 11.5337 10.3925 11.3809 10.4255C11.228 10.4585 11.0586 10.5692 11.0353 10.5945C11.012 10.6197 11.1034 10.6468 11.1169 10.672C11.1305 10.6953 10.9673 10.6856 10.9537 10.7104C10.9441 10.7299 10.9921 10.8405 11.0159 10.8968C11.0576 10.8761 11.1033 10.8648 11.1498 10.8638C11.2993 10.8599 11.4081 10.959 11.5867 10.959C12.0178 10.959 12.4081 10.6425 12.6954 10.5453C12.9071 10.4735 13.0897 10.421 13.2178 10.3045C13.2799 10.2522 13.3906 10.1356 13.4916 9.96277C13.5653 9.84437 13.6373 9.73365 13.7092 9.65211L13.7088 9.65275Z" fill="#D2B257"/>
<path fill-rule="evenodd" clip-rule="evenodd" d="M7.5264 19.2617C7.5264 19.2617 7.488 19.118 7.13216 18.7472C7.03118 18.6424 6.9691 18.5552 6.90112 18.4929C6.73216 18.3335 6.6331 18.2909 6.51278 18.1996C6.2487 18.0035 5.96134 18.0035 5.74004 17.7627C5.51872 17.522 5.2608 17.0619 5.0816 16.5918C4.90496 16.1219 4.85632 15.9724 4.85632 15.9588C4.85632 15.9453 4.90496 15.854 4.96704 15.8676C5.02912 15.8811 5.02912 16.0015 5.04474 16.0306C5.07566 16.0783 5.11074 16.1231 5.14958 16.1645C5.24084 16.2695 5.37088 16.3949 5.43694 16.5821C5.42336 16.4228 5.36896 16.2462 5.36896 16.2462C5.36896 16.2462 5.71072 16.4617 6.00192 16.6869C6.29518 16.9122 6.4155 16.9899 6.50112 17.1335C6.58676 17.2771 6.78848 17.6559 6.88512 17.7666C6.98176 17.8773 8.30592 18.2947 8.30592 18.2947L8.93582 18.7643L9.24852 19.4498L9.00378 19.8338L8.5339 19.9348L7.77076 19.593L7.5264 19.2616V19.2617Z" fill="#D2B159"/>
<path fill-rule="evenodd" clip-rule="evenodd" d="M5.83102 16.9006C5.83102 16.9006 5.99024 17.155 6.3786 17.3958C6.72816 17.6075 7.2815 17.7997 7.77482 17.9143C8.05822 17.9822 8.34174 18.0346 8.59606 18.0386C9.2815 18.0482 9.75332 17.8522 10.3379 17.7881C10.6544 17.755 11.0428 17.7298 11.4466 17.6345C11.965 17.5102 12.2718 17.3703 12.6894 17.1737C12.9922 17.0339 13.27 16.9291 13.4951 16.795C13.8117 16.6087 14.0427 16.4009 14.3108 16.3389C14.2777 16.4301 14.2428 16.5932 13.9787 16.7622C14.1185 16.7582 14.3108 16.7486 14.3108 16.7486C14.3108 16.7486 14.1244 16.8592 13.7962 17.1078C13.5942 17.2614 13.3263 17.5213 13.0525 17.6941C12.8757 17.8048 12.6835 17.8861 12.5573 17.9524C12.2501 18.1214 12.1262 18.2068 11.9243 18.4132C11.9961 18.4094 12.002 18.4132 12.002 18.4132C12.002 18.4132 11.7476 18.4462 11.5652 18.5433C11.5268 18.5433 11.4602 18.5297 11.3437 18.5627C11.2525 18.5918 11.132 18.658 11.0078 18.6928C10.8311 18.7453 10.773 18.722 10.773 18.722L10.802 18.7802C10.802 18.7802 10.5716 18.7762 10.4948 18.784C10.5084 18.7879 10.5045 18.7938 10.5045 18.7938C10.4911 18.796 10.4781 18.8006 10.4661 18.8073C10.4292 18.8313 10.3885 18.849 10.3458 18.8597C10.3225 18.8635 10.3031 18.8635 10.2739 18.8694C10.2836 18.8927 10.3594 19.023 10.3943 19.0998C10.3653 19.1193 9.9283 19.4494 9.9283 19.4494C9.94184 19.4707 9.95292 19.4935 9.96132 19.5174C9.97488 19.56 9.98078 19.6222 9.99434 19.6512C10.0272 19.7095 10.0467 19.7192 10.0467 19.7192C10.0467 19.7192 9.99434 19.7289 9.90294 19.7522C9.82538 19.7717 9.73014 19.8046 9.59574 19.824C9.55452 19.8294 9.51302 19.8327 9.47146 19.8338C9.49092 19.8765 9.5763 20.0396 9.41898 20.2278C9.26166 20.4162 9.21316 20.4436 9.16464 20.5638C9.14022 20.5454 9.11422 20.5292 9.08694 20.5152C9.0346 20.492 8.96266 20.4572 8.93744 20.4104C8.92274 20.4726 8.90328 20.5336 8.8792 20.593C8.8307 20.723 8.75888 20.8512 8.74532 20.9482C8.69284 20.89 8.59582 20.7754 8.4618 20.7988C8.32778 20.822 8.22102 21.0046 8.19774 21.057C8.19774 21.024 8.17444 20.9988 8.16868 21.0376C8.1647 21.0804 8.09098 21.5268 7.67934 21.888C7.6755 21.7968 7.6755 21.5948 7.66576 21.5288C7.62736 21.5672 7.58038 21.624 7.3007 21.7444C7.02692 21.8648 7.0703 21.9852 7.0703 21.9852C7.0703 21.9852 7.04702 21.7932 7.1946 21.591C7.3441 21.389 7.43536 21.2938 7.43536 21.2784C7.43294 21.2626 7.42622 21.2478 7.4159 21.2356C7.39646 21.2162 7.35766 21.1928 7.35766 21.1774C7.38096 21.1678 7.612 21.057 7.59844 20.8278C7.58486 20.6222 7.49758 20.5152 7.43536 20.4396C7.42576 20.4298 7.52676 20.358 7.51306 20.3348C7.50334 20.3212 7.37918 20.2298 7.36356 20.1812C7.36722 20.1522 7.37374 20.1236 7.38302 20.0958C7.39658 20.053 7.4063 20.0238 7.40246 19.9948C7.39274 19.9463 7.34026 19.8123 7.32478 19.7987C7.33834 19.8025 7.43536 19.7987 7.43536 19.7987C7.43536 19.7987 7.3578 19.6744 7.3441 19.6162C7.3304 19.5579 7.30134 19.4045 7.28586 19.3754C7.31888 19.3792 7.40042 19.385 7.40042 19.3754C7.40438 19.3462 7.32862 19.2977 7.36202 19.2602C7.38532 19.264 7.42998 19.2835 7.47262 19.3379C7.44932 19.2757 7.41054 19.1554 7.32886 19.1069C7.36726 19.0933 7.49782 19.0582 7.61238 19.1262C7.72694 19.1942 7.76598 19.2893 7.76598 19.2893C7.76598 19.2893 7.83396 19.3417 7.93892 19.4194C8.05924 19.5145 8.21258 19.6498 8.45732 19.7456C8.5098 19.7748 8.64368 19.7748 8.74084 19.7553C8.78314 19.7452 8.8237 19.7289 8.86116 19.7068C8.87468 19.6988 8.88902 19.6923 8.9039 19.6873C8.88304 19.6454 8.85902 19.6052 8.8321 19.5669C8.86512 19.5669 8.9039 19.5709 8.9039 19.5709C8.9039 19.5709 8.9272 19.5184 8.82238 19.4173C8.84566 19.394 8.87486 19.3789 8.87486 19.3396C8.84182 19.3357 8.78358 19.2872 8.77002 19.2678C8.78934 19.2542 8.81854 19.2095 8.85156 19.1959C8.82238 19.1726 8.75056 19.0755 8.71754 19.0659C8.74908 19.0542 8.77962 19.0399 8.8088 19.0231C8.8088 19.0231 8.64574 18.9804 8.59326 18.9454C8.54078 18.907 8.4632 18.8406 8.41662 18.8212C8.36798 18.8017 8.2826 18.7921 8.24766 18.7532C8.28054 18.7629 8.33302 18.7532 8.37194 18.7532C8.401 18.7532 8.4147 18.757 8.4243 18.757C8.42046 18.7435 8.42046 18.7143 8.49622 18.7047C8.53268 18.6992 8.56804 18.688 8.60106 18.6717C8.60106 18.6717 8.52912 18.6678 8.44746 18.5901C8.3658 18.5124 8.29796 18.4503 8.25136 18.4406C8.20286 18.4309 8.11158 18.4736 8.05526 18.4697C7.97758 18.4601 7.94454 18.4212 7.94454 18.4212C7.94454 18.4212 7.68638 18.4445 7.11358 18.095C6.61834 17.792 6.40278 17.5241 6.40278 17.5241C6.35644 17.5073 6.31164 17.4865 6.2689 17.4619C6.08254 17.3649 5.82422 17.1629 5.83204 16.8987L5.83102 16.9006Z" fill="#C2A44D"/>
<path fill-rule="evenodd" clip-rule="evenodd" d="M12.9747 5.24671C13.0196 5.26131 13.0596 5.28823 13.0899 5.32441C13.1812 5.42925 13.2394 5.62725 13.0317 5.83897C13.1132 5.86803 13.1469 5.87737 13.218 5.86803C13.1462 5.95353 12.9832 6.13605 12.9734 6.29529C12.9637 6.42533 13.0452 6.46425 13.0452 6.46425C13.0452 6.46425 12.921 6.60787 12.9152 6.84825C12.9739 6.78205 13.0381 6.72099 13.1072 6.66573C13.2509 6.55117 13.449 6.42111 13.583 6.33957C13.5812 6.37375 13.5858 6.40797 13.5965 6.44045C13.5965 6.44045 13.8469 6.23461 14.0573 6.32601C14.1524 6.36877 14.1097 6.50265 14.1097 6.50265C14.1097 6.50265 14.2399 6.45413 14.3311 6.54541C14.4224 6.63667 14.5514 6.87205 14.6176 6.96333C14.6467 7.00607 14.7224 7.08761 14.8 7.21381C14.906 7.39051 14.9944 7.57713 15.0642 7.77101C15.068 7.67001 15.0932 7.51283 15.3807 7.61177C15.6681 7.71277 15.9942 7.92447 16.268 8.34137C16.5418 8.75827 16.6097 9.22893 16.7475 9.40813C16.8873 9.58093 17.031 9.86829 17.0408 9.98873C17.0505 10.1092 16.998 10.4974 17.2854 11.5479C17.3669 11.2218 17.4912 10.4974 17.4912 10.4974L17.5592 9.85855L17.6369 7.88185L15.5727 6.16703L13.9592 4.99609L12.9087 5.09709L12.9746 5.24659L12.9747 5.24671Z" fill="#CAA13E"/>
<path fill-rule="evenodd" clip-rule="evenodd" d="M16.8097 8.18816C16.8097 8.18816 16.7805 7.99616 16.2952 7.66976C15.8096 7.34746 15.431 7.34746 15.0816 7.07368C14.8135 6.85812 14.534 6.36288 14.352 6.19982C14.1752 6.03866 14.1461 5.57262 14.1461 5.57262L14.7423 5.07342L15.6288 3.792L16.3782 2.9668L16.7374 3.466L17.2366 4.05236L17.5142 5.22906L17.6152 6.95144L16.8088 8.1883L16.8097 8.18816Z" fill="#B59544"/>
<path fill-rule="evenodd" clip-rule="evenodd" d="M17.4098 10.2525C17.4245 9.99126 17.3922 9.72954 17.3146 9.47972C17.1866 9.08164 16.9069 8.37482 16.777 8.11012C16.7245 7.81688 16.7634 7.79358 16.8197 7.76056C16.876 7.72752 17.0877 7.60696 17.2037 7.18392C17.3197 6.76088 17.6795 6.74704 17.6795 6.74704L17.9008 6.58398L18.2368 7.42468L18.5299 8.18398L18.6212 8.76458L18.6891 9.25968L18.5299 10.3063L17.7436 11.017L17.4097 10.2525H17.4098Z" fill="#C89D3A"/>
<path fill-rule="evenodd" clip-rule="evenodd" d="M6.43698 21.9188V21.8972C6.45332 21.887 6.46776 21.874 6.47962 21.8588C6.49318 21.8394 6.50304 21.8162 6.51264 21.8104C6.5321 21.8006 6.62336 21.772 6.67186 21.7812C6.72038 21.7904 6.84864 21.8432 6.9166 21.8394C7.05638 21.8356 7.21946 21.7286 7.47776 21.7774C7.8661 21.8492 7.95738 22.1132 8.18266 22.2626C8.33626 22.3676 8.49522 22.321 8.51852 22.321H8.57088C8.5806 22.321 8.65242 22.2394 8.69132 22.2434C8.76902 22.2472 8.7767 22.3114 8.82522 22.3152C8.93978 22.3288 9.16122 22.257 9.27194 22.2862C9.33856 22.307 9.39078 22.3592 9.4117 22.4258C9.435 22.4976 9.41554 22.5888 9.35922 22.6414C9.2389 22.752 9.12434 22.8568 9.10106 22.9486C9.13068 22.9712 9.15914 22.9952 9.1863 23.0208C8.22556 22.776 7.30118 22.4058 6.43698 21.92V21.9188Z" fill="#CEB052"/>
<path fill-rule="evenodd" clip-rule="evenodd" d="M16.7767 18.0393C16.7767 18.0393 17.0796 17.6355 17.1845 17.4354C17.2893 17.2292 16.8525 14.618 16.8525 14.618L17.7302 11.7424L17.7068 10.8064C17.7068 10.8064 17.7495 9.94233 17.8505 9.56755C17.9709 9.78309 18.3457 10.0433 18.4273 10.1812C18.4657 9.91699 18.5961 9.35981 18.5768 8.76562C18.6486 8.87621 18.8214 9.98893 18.8214 9.98893L18.9942 10.7384L19.2195 11.5345L19.47 12.3753L19.6195 12.956L19.7048 13.0957L19.7768 13.3403L19.8447 13.6045L20.0408 14.2239L20.156 14.7326L20.2474 15.655C20.2672 15.7256 20.2814 15.7977 20.29 15.8705C20.2938 15.9715 20.2764 16.0297 20.2764 16.0473C20.2764 16.0648 20.3096 16.2686 20.296 16.4221C20.2764 16.5757 20.2764 16.6959 20.156 16.8061C20.0356 16.9163 19.9599 17.575 19.9599 17.575L19.7444 17.4313C19.7444 17.4313 19.7871 17.2351 19.6861 17.0566C19.5852 16.878 19.3891 16.841 19.2783 16.8702C19.1677 16.8935 18.9464 16.9283 18.8745 16.9905C18.8065 17.0526 18.6396 17.2448 18.4861 17.3323C18.2941 17.4475 17.9813 17.4566 17.8144 17.4953C17.6454 17.5337 17.4591 17.6489 17.2629 17.7827C17.109 17.8823 16.9466 17.968 16.7775 18.0387L16.7767 18.0393Z" fill="#CCA847"/>
<path fill-rule="evenodd" clip-rule="evenodd" d="M16.7767 22.282C16.7767 22.282 16.7895 22.2904 16.8142 22.304C18.1937 21.6576 19.4298 20.7414 20.4494 19.6096C20.4382 19.2166 20.4238 18.8138 20.408 18.6645C20.375 18.348 20.3984 18.0257 20.3886 17.8393C20.3788 17.6529 20.274 16.8937 20.2256 16.6976C20.173 16.5015 20.072 16.4043 20.0566 16.4043C20.043 16.4083 19.9613 16.7733 19.9613 16.8651C19.9613 16.9569 19.9419 17.1778 19.9419 17.2341C19.9283 17.2302 19.9226 17.1957 19.9226 17.1817C19.9031 17.2302 19.8798 17.3157 19.8701 17.3254C19.8604 17.3351 19.8837 17.2439 19.8701 17.2244C19.8565 17.2049 19.8317 17.2147 19.8371 17.1662C19.8394 17.1374 19.8439 17.1088 19.8506 17.0808C19.8506 17.0808 19.7924 17.1662 19.7498 17.3836C19.707 17.5992 19.707 17.6051 19.6915 17.6244C19.678 17.6478 19.6003 17.7254 19.5963 17.7546C19.5925 17.8069 19.6682 17.8594 19.674 17.8885C19.6778 17.9371 19.606 18.1623 19.5827 18.2725C19.5594 18.3827 19.5692 18.5986 19.5443 18.7093C19.5249 18.8103 19.5059 18.8686 19.4395 18.9112C19.488 18.9209 19.5346 18.9345 19.5346 18.9345C19.5346 18.9345 19.6026 19.2218 19.4298 19.4666C19.3677 19.552 19.3522 19.5909 19.2861 19.6686C19.156 19.8122 19.055 19.9758 19.0453 20.0822C19.0385 20.0508 19.034 20.019 19.0317 19.9869C19.0317 19.9869 18.8298 20.222 18.7443 20.356C18.6337 20.5288 18.4803 20.519 18.4371 20.5618C18.394 20.6044 18.3846 20.682 18.3987 20.7442C18.3603 20.7538 18.2881 20.7676 18.2395 20.917C18.2162 20.9946 18.158 21.0706 18.0667 21.1228C17.9754 21.1752 17.8647 21.1908 17.8084 21.2044C17.8569 21.218 17.8764 21.218 17.8997 21.2334C17.8706 21.282 17.7366 21.3578 17.5871 21.455C17.4376 21.5462 17.3656 21.68 17.3288 21.7676C17.2904 21.849 17.2337 21.9016 17.1424 21.9112C17.1808 21.9346 17.2376 21.9888 17.2667 22.0064C17.2239 22.016 17.1515 22.016 17.0221 22.1268C16.8861 22.2394 16.8396 22.2724 16.7773 22.2822L16.7767 22.282Z" fill="#C39D3C"/>
<path fill-rule="evenodd" clip-rule="evenodd" d="M14.0749 23.182C14.1492 23.1298 14.2297 23.0872 14.3146 23.0548C14.6175 22.9344 14.9378 22.9112 15.064 22.8724C15.1845 22.834 15.2796 22.781 15.4291 22.752C15.4251 22.786 15.4218 22.818 15.4182 22.8482C14.9775 22.9868 14.5286 23.0982 14.0742 23.182H14.0749Z" fill="#D2BA6B"/>
<path fill-rule="evenodd" clip-rule="evenodd" d="M19.6608 15.2158C19.6608 15.2158 19.5987 15.5517 19.488 15.7634C19.3773 15.9751 19.2576 16.2682 19.2576 16.2682C19.2584 16.2022 19.2662 16.1364 19.2809 16.072C19.1411 16.1535 18.8013 16.3498 18.7049 16.4371C18.6137 16.5186 18.4602 16.6623 18.4214 16.7303C18.5127 16.4624 18.6078 16.2216 18.6234 16.1109C18.4836 16.2119 17.8311 16.7498 17.4914 17.1051L16.4331 17.9614C16.3109 18.0273 16.1852 18.0862 16.0563 18.1378C15.8739 18.2154 15.6584 18.2814 15.4992 18.3436C15.5419 18.2291 15.6098 18.1279 15.705 18.0309C15.806 17.9358 16.1088 17.6076 16.1554 17.4549C16.1982 17.2957 16.2079 17.2006 16.1516 17.0666C16.0991 17.0801 15.9788 17.086 15.8972 17.1093C15.8157 17.1326 15.7283 17.2199 15.7283 17.2199C15.7283 17.2199 15.7904 16.8646 15.9244 16.5287C15.8234 16.5325 15.6506 16.5616 15.6506 16.5616C15.6506 16.5616 15.8914 16.1578 16.3034 15.8763C16.1772 15.9031 16.0537 15.9414 15.9345 15.9907C15.6937 16.0917 15.4297 16.2412 15.2336 16.3228C15.3442 16.1692 16.1209 15.0607 16.5831 14.0276C17.0439 12.9965 17.216 12.7325 17.317 12.1791C17.3694 11.9053 17.3554 11.5007 17.3694 11.1384C17.3829 10.7791 17.4276 10.4568 17.3986 10.2412C17.5189 10.3907 17.9694 10.8121 17.9849 11.7539C17.9985 12.6956 17.5539 13.9676 17.082 14.6529C17.1972 14.6859 17.4957 14.7248 17.8024 14.192C18.1091 13.6593 18.1054 13.5106 18.2161 13.2892C18.2297 13.3999 18.2257 13.4387 18.2257 13.4387C18.2257 13.4387 18.6724 12.897 18.884 12.2154C18.9267 12.5086 19.053 12.7669 18.8548 13.3047C18.6782 13.7901 18.4471 13.9087 18.4471 13.9087C18.4471 13.9087 18.5617 13.8892 18.7305 13.7882C18.7597 13.86 18.7539 13.9418 18.8025 13.9708C18.851 13.9997 18.917 14.0484 18.9267 14.095C18.9791 14.0173 19.0606 13.9183 19.086 13.8445C19.0665 13.9981 19.053 14.6698 19.1244 15.0115C19.274 14.998 19.4274 14.9882 19.5322 14.7183C19.4604 14.9825 19.4604 15.1416 19.5089 15.3668C19.5885 15.3126 19.6603 15.2154 19.6603 15.2154L19.6608 15.2158Z" fill="#C0993A"/>
<path fill-rule="evenodd" clip-rule="evenodd" d="M14.6155 4.51256C14.6155 4.51256 14.466 4.57464 14.2117 4.57464C13.9904 4.57464 14.0525 4.48926 13.7069 4.48926C13.1749 4.48926 11.3166 4.79646 10.9903 4.7921C10.7786 4.78826 11.7048 4.88336 11.7048 4.88336L14.0719 4.9164L14.5476 4.878L14.7243 4.51832L14.6155 4.51256Z" fill="#A88F33"/>
<path fill-rule="evenodd" clip-rule="evenodd" d="M8.47769 9.13943C8.47769 9.13943 8.17471 9.37047 8.04659 9.54725C7.91845 9.72401 7.85049 9.84037 7.70483 9.98411C7.73901 9.98541 7.77317 9.98083 7.80581 9.97053C7.80581 9.97053 7.80581 10.0089 7.78251 10.0191C7.82329 10.0145 7.86395 10.0286 7.89311 10.0575C7.85035 10.0808 7.73387 10.1974 7.82515 10.3352C7.89311 10.4401 8.03685 10.4497 8.03685 10.4497C8.03685 10.4497 8.00383 10.5449 8.14169 10.5352C8.43877 10.5216 8.77081 10.3914 8.92415 10.4244C9.07775 10.4628 9.16505 10.4769 9.27371 10.6653C9.38891 10.8517 9.48927 10.8809 9.48927 10.8809C9.48927 10.8809 9.55725 10.708 9.54175 10.4498C9.59749 10.3106 9.62837 10.1628 9.63301 10.0129L9.53203 9.26923L9.09131 8.71191L8.52045 9.02845L8.47769 9.13905V9.13943Z" fill="#E3C571"/>
<path fill-rule="evenodd" clip-rule="evenodd" d="M9.01938 9.02881C9.01938 9.02881 9.06214 9.12979 9.24082 9.13939C9.22136 9.18215 9.22136 9.18803 9.22726 9.22093C9.2311 9.25395 9.23686 9.30247 9.23686 9.30247C9.25652 9.29295 9.27432 9.27993 9.28934 9.26407C9.29906 9.30681 9.2796 9.37465 9.28934 9.42329C9.29534 9.45287 9.3051 9.48157 9.3184 9.50867C9.32122 9.50203 9.32448 9.49557 9.32812 9.48935C9.33196 9.47961 9.36652 9.59417 9.46214 9.68135C9.46206 9.66795 9.46536 9.65473 9.47174 9.64295C9.4732 9.66729 9.48126 9.69079 9.49504 9.71091C9.48788 9.70751 9.48134 9.70291 9.4757 9.69735C9.4757 9.69735 9.4853 10.0045 9.53778 10.1634C9.54656 10.1531 9.55436 10.1421 9.56108 10.1304C9.56108 10.1208 9.55724 10.2159 9.54752 10.284C9.53394 10.3519 9.54368 10.447 9.54368 10.447C9.57868 10.4195 9.61716 10.3966 9.6581 10.3791C9.71634 10.3556 9.8117 10.2838 9.86982 10.1246C9.90352 10.0344 9.92952 9.94155 9.94752 9.84697C9.96628 9.88313 9.97924 9.92199 9.98592 9.96217C9.98988 10.0107 10.0811 9.98547 10.0811 9.98547L10.1006 9.77377L10.2158 9.29415L10.3206 8.99705L10.8255 8.21075L11.7376 7.50829L12.5338 7.69081L13.2055 6.77817L12.0482 6.08301L10.9531 6.19757L9.95916 7.57421L9.16312 8.82285L9.01938 9.02867V9.02881Z" fill="#D8B65B"/>
<path fill-rule="evenodd" clip-rule="evenodd" d="M14.7553 7.03688C14.7553 7.03688 14.6874 7.05046 14.4913 7.15208C14.2952 7.25372 14.1592 7.28598 14.0835 7.43548C14.0077 7.58498 14.0019 7.70352 14.0019 7.70352C14.0019 7.70352 14.1359 7.64528 14.2136 7.62582C14.2952 7.60648 14.3864 7.61224 14.3767 7.64528C14.3674 7.66792 14.3544 7.68888 14.3383 7.70736C14.3383 7.70736 14.4919 7.70352 14.4878 7.77928C14.4837 7.85506 14.4588 7.93852 14.4297 7.97538C14.4005 8.01378 14.2802 8.07062 14.2666 8.11528C14.2336 8.20656 14.2802 8.2104 14.2627 8.28412C14.2491 8.35606 14.1851 8.49584 13.9753 8.74044C13.7597 8.98518 13.6681 9.15798 13.6681 9.15798C13.6681 9.15798 13.5633 8.96188 13.5089 8.79292C13.4705 8.81224 13.2643 8.9268 13.2643 8.9268L12.7866 7.2628L12.7962 7.15208C12.7962 7.15208 12.8389 7.09974 12.8486 7.00258C12.7768 6.97928 12.7671 6.95984 12.6719 6.8687C12.5766 6.77756 12.4991 6.66672 12.34 6.59094C12.3167 6.54818 12.2875 6.49008 12.171 6.46664C12.0545 6.44322 11.9846 6.42402 11.9846 6.42402C11.9846 6.42402 12.0467 6.4006 12.0759 6.35208C12.004 6.36182 11.9459 6.38512 11.7885 6.38128C11.6293 6.3773 11.6118 6.37154 11.5245 6.38512C11.4372 6.39868 11.3325 6.4376 11.2934 6.30358C11.2507 6.27056 11.1594 6.29974 11.0817 6.41416C11.004 6.5286 10.9769 6.62 10.8274 6.66466C10.8169 6.73056 10.7938 6.79384 10.7594 6.85104C10.7167 6.92296 10.6487 6.99478 10.5574 7.10152C10.4137 7.27048 10.437 7.54812 10.2079 7.75984C9.97684 7.97142 10.2463 7.17334 10.2463 7.17334L10.6152 6.29014L11.6657 5.26294L13.2968 5.15234L13.456 5.99714L14.2522 6.27094L14.7551 7.03792L14.7553 7.03688Z" fill="#D3AE4D"/>
<path fill-rule="evenodd" clip-rule="evenodd" d="M15.0136 7.22311L14.3282 6.23483L13.8486 5.86581C13.8486 5.86581 13.5068 5.23681 13.4835 5.21735C13.4641 5.20379 13.1418 5.16885 12.9359 5.15527L12.9743 5.25039C13.0193 5.26497 13.0592 5.29189 13.0895 5.32807C13.1808 5.43291 13.239 5.63093 13.0313 5.84263C13.1128 5.87169 13.1465 5.88103 13.2177 5.87169C13.1459 5.95719 12.9828 6.13973 12.9731 6.29895C12.9633 6.42901 13.0449 6.46779 13.0449 6.46779C13.0449 6.46779 12.9206 6.61153 12.9148 6.85179C12.9735 6.78561 13.0377 6.72453 13.1068 6.66927C13.2506 6.55407 13.4486 6.42453 13.5826 6.34299C13.5808 6.37721 13.5854 6.41147 13.5962 6.44399C13.5962 6.44399 13.8465 6.23815 14.057 6.32943C14.1521 6.37217 14.1093 6.50619 14.1093 6.50619C14.1093 6.50619 14.2395 6.45767 14.3308 6.54895C14.422 6.64021 14.5521 6.87509 14.6181 6.96647C14.6472 7.00923 14.7229 7.09077 14.8005 7.21686C14.9065 7.39358 14.995 7.58024 15.0647 7.77416C15.0685 7.69648 15.0842 7.58779 15.2183 7.58779L15.0144 7.22273L15.0136 7.22311Z" fill="#CAA13E"/>
<path fill-rule="evenodd" clip-rule="evenodd" d="M4.7379 10.0314C4.7379 10.0314 4.68938 9.91099 4.7379 9.67611C4.78642 9.44123 4.86218 9.3305 4.8874 8.9849C4.91262 8.6393 5.1379 8.20818 5.1379 8.20818L5.76114 7.9248L6.20196 8.04512L6.33202 8.63546L5.7747 8.94266C5.7747 8.94266 5.74564 9.0727 5.58834 9.17754C5.43102 9.28236 5.21354 9.36391 5.1612 9.47079C5.1299 9.53623 5.10706 9.60538 5.09322 9.6766C5.09322 9.6766 4.934 9.64358 4.8389 9.74843C4.7379 9.8553 4.74174 9.9504 4.7379 10.0319V10.0314Z" fill="#F4EFC8"/>
<path fill-rule="evenodd" clip-rule="evenodd" d="M5.99614 9.87386C5.99614 9.87386 5.94366 9.90688 5.90488 9.98906C5.86648 9.92698 5.7747 9.55796 5.77086 9.22592C5.76702 8.8939 5.74718 8.8116 5.82398 8.69716C5.90078 8.58272 6.20196 8.46216 6.15922 8.25608C6.11646 8.05998 5.93778 7.97844 5.71838 8.03476C5.56478 8.07316 5.45048 8.39982 5.29124 8.56288C5.1708 8.68718 5.02718 8.66772 4.9884 8.73568C4.93592 8.82696 4.98444 8.91822 4.96894 8.97646C4.96498 8.99592 4.91646 9.10074 4.82904 9.22696C4.6524 9.48128 4.3534 9.84058 4.31448 10.1629C4.32804 9.98036 4.31844 9.97652 4.36696 9.77454L4.33778 9.72602L4.52978 9.0969L4.65406 8.5785L4.93182 7.7104L5.42104 6.82312L5.89682 6.29102L6.39192 6.32404L6.45017 7.06772L6.73369 8.46394L7.32979 9.1979L6.37438 9.84084L5.99576 9.87386H5.99614Z" fill="#EBCC73"/>
<path fill-rule="evenodd" clip-rule="evenodd" d="M6.29327 10.1379C6.29327 10.1379 6.21173 10.1574 6.18255 10.1419C6.15337 10.1264 6.12443 10.1089 6.13403 10.0894C6.14363 10.07 6.19611 10.0371 6.19611 10.0214C6.19835 9.99211 6.17687 9.96631 6.14761 9.96321C6.10293 9.95745 6.08937 9.98651 6.08937 9.98651C6.08937 9.98651 6.04661 9.95361 6.01179 9.94811C6.03239 9.94559 6.05313 9.94425 6.07387 9.94413C6.02021 9.91983 5.96329 9.90349 5.90491 9.89563C5.95343 9.86657 6.04867 9.78107 6.11075 9.78107C6.17283 9.78107 6.21173 9.77147 6.20201 9.73845C6.19227 9.70541 6.14377 9.65691 6.09141 9.63745C6.11075 9.61415 6.12443 9.57921 6.07785 9.48385C6.02921 9.38875 6.04867 9.32461 6.06427 9.30145C6.07785 9.27227 6.12635 9.21991 6.14965 9.18689C6.17295 9.15387 6.19241 9.10919 6.23119 9.08589C6.25065 9.07233 6.31273 9.04749 6.37493 9.02381C6.44291 9.00053 6.49923 8.97133 6.53801 9.00053C6.58075 9.02957 6.56131 9.06849 6.56131 9.06849C6.56131 9.06849 6.69531 9.01985 6.81563 9.08205C6.93609 9.14017 7.22933 9.17717 7.22933 9.17717L7.33443 9.38887L6.63925 9.98497L6.35189 10.1287L6.29365 10.1383L6.29327 10.1379Z" fill="#E5C66B"/>
<path fill-rule="evenodd" clip-rule="evenodd" d="M7.25825 9.16359C7.25825 9.16359 7.04269 9.30735 6.99417 9.35969C7.02323 9.36367 7.07175 9.38311 7.05229 9.41217C7.02899 9.44123 6.88921 9.54223 6.81153 9.63745C6.72999 9.73255 6.65229 9.85301 6.62515 9.91125C6.59609 9.96359 6.37465 10.1171 6.29901 10.1364C6.45825 10.1364 6.77863 9.94031 6.89895 9.94031C6.89511 9.99855 6.93197 10.0646 6.99993 10.0703C7.06791 10.0761 7.26401 10.1131 7.52807 9.95003C7.79213 9.79079 7.70483 9.67227 7.81543 9.59471C8.02713 9.45479 8.11251 9.33051 8.22899 9.25295C8.34547 9.17537 8.40577 9.15771 8.40577 9.15771C8.40577 9.15771 8.40961 9.09947 8.44417 9.10535C8.46345 9.10757 8.47991 9.12029 8.48691 9.13839C8.48691 9.13839 8.68889 8.99463 8.94771 8.95585C8.94167 8.95315 8.93685 8.94833 8.93415 8.94229C8.93415 8.94229 8.95347 8.93255 8.95745 8.92283C8.95745 8.92283 8.97101 8.90337 8.98073 8.91311C8.99047 8.92283 9.00403 8.99463 9.02349 9.02383C9.06625 9.00437 9.14777 8.82183 9.14777 8.82183L9.34401 8.26069V7.74805L9.19041 7.77723L8.03841 8.26645L7.33927 8.99079L7.25773 9.16359H7.25825Z" fill="#E6BD62"/>
<path fill-rule="evenodd" clip-rule="evenodd" d="M10.5747 6.64862C10.637 6.6335 10.6968 6.60926 10.752 6.57668C10.7287 6.63888 10.7287 6.70686 10.6277 6.85444C10.5267 7.00202 10.5229 7.0234 10.4413 7.17674C10.3598 7.33598 10.3501 7.5651 10.2724 7.66596C10.3072 7.64904 10.3446 7.63792 10.383 7.63306C10.383 7.63306 10.3054 7.70102 10.2724 7.77284C10.2393 7.84464 10.1811 7.99414 10.0375 8.08554C9.89389 8.17694 9.71123 8.23504 9.51513 8.4506C9.31891 8.66218 9.11705 8.93022 9.01593 9.0266C9.06841 8.93534 9.14023 8.7528 9.15967 8.63248C9.17913 8.51216 9.15571 8.3683 9.18873 8.20918C9.22175 8.05008 9.22175 7.9354 9.38073 7.65764C9.53971 7.37988 9.81183 6.41488 9.81183 6.41488L10.3982 6.22852L10.575 6.64798L10.5747 6.64862Z" fill="#B6933F"/>
<path fill-rule="evenodd" clip-rule="evenodd" d="M10.1514 6.2932C10.1514 6.2932 9.97479 6.54754 9.92627 6.77282C9.87777 6.9981 9.92231 6.97864 9.89325 7.08936C9.87587 7.15688 9.87587 7.22768 9.89325 7.29518C9.95443 7.19664 10.0382 7.11406 10.1376 7.0543C10.3047 6.95342 10.4406 6.8815 10.5216 6.79612C10.6031 6.70486 10.6711 6.55534 10.8478 6.44078C10.7759 6.43106 10.675 6.39804 10.6558 6.40238C10.7277 6.32086 10.9431 6.19656 11.1606 6.04706C11.3761 5.89346 11.3626 5.8315 11.7121 5.67816C11.5976 5.69762 11.5432 5.66844 11.4479 5.67816C11.4863 5.59662 11.6207 5.55772 11.7551 5.42382C11.8895 5.28994 11.6698 5.0918 11.6698 5.0918L10.6458 5.71118L10.1507 6.29372L10.1514 6.2932Z" fill="#C49937"/>
<path fill-rule="evenodd" clip-rule="evenodd" d="M7.3728 5.83077L7.3961 5.64439L7.68934 5.17451L7.99616 4.34929V3.22109L7.97286 2.56869L8.02138 2.14141L8.05824 2.00561L8.09716 1.95312L8.34752 2.08316L8.69326 2.55307L8.72628 3.45995L8.39028 4.89099L7.43104 5.93765L7.3728 5.83077Z" fill="#DFC068"/>
<path fill-rule="evenodd" clip-rule="evenodd" d="M8.13593 1.9013C8.13593 1.9013 7.98233 1.90527 7.94957 2.54411C7.91679 3.18297 7.90093 3.51883 7.87763 3.83537C7.85433 4.15193 7.80007 4.34405 7.77279 4.53055C7.74553 4.71705 7.73005 4.97125 7.64275 5.12665C7.60435 5.19845 7.52231 5.42373 7.33005 5.59269C7.11449 5.77905 6.79245 5.90923 6.74367 5.91897C6.65817 5.93829 6.22515 5.98105 6.04851 6.07819C5.98643 6.11121 5.87955 6.15001 5.76115 6.26073C5.52615 6.47231 5.21357 6.85093 4.98829 7.30725C4.64269 7.98885 4.29709 9.91307 4.29709 9.91307L4.37479 9.78303C4.37479 9.78303 4.38451 9.61023 4.55731 9.30725C4.72627 9.00441 4.67775 8.66457 4.91263 8.08395C5.00391 7.86265 5.11847 7.57529 5.25823 7.33055C5.47967 6.93247 5.74759 6.59071 6.01753 6.40433C6.45823 6.10149 6.94375 6.03545 6.94375 6.03545L7.46611 5.68985C7.46611 5.68985 7.55737 5.51321 7.67783 5.31121C7.84665 5.02783 8.06183 4.71129 8.10879 4.25113C8.18073 3.56953 8.00781 3.12293 8.01753 2.71909C8.02727 2.31525 8.03111 2.01817 8.11277 1.94623C8.19443 1.87429 8.13607 1.90155 8.13607 1.90155L8.13593 1.9013Z" fill="#A88F33"/>
<path fill-rule="evenodd" clip-rule="evenodd" d="M8.13592 4.94946C8.13592 4.94946 8.36632 4.38242 8.4718 3.8795C8.49126 3.77852 8.53004 3.67764 8.53976 3.59612C8.58828 3.12034 8.60184 2.92424 8.53976 2.66402C8.49126 2.47202 8.30488 2.29896 8.20774 2.16482C8.11264 2.02492 8.06796 1.97282 8.08742 1.94338C8.10688 1.91394 8.18252 1.86581 8.25624 1.87157C8.41462 1.87618 8.56418 1.94558 8.66994 2.06356C8.81944 2.23636 8.93784 2.82286 8.93784 2.82286L9.0624 3.59676L9.37894 4.57148L8.13618 4.95022L8.13592 4.94946Z" fill="#C99E3D"/>
<path fill-rule="evenodd" clip-rule="evenodd" d="M10.3009 4.3591C10.3009 4.3591 10.2582 4.37844 10.1806 4.3591C10.1873 4.42374 10.1573 4.4867 10.1029 4.52218C10.0214 4.48916 9.2581 4.5552 9.2581 4.5552C9.2581 4.5552 8.90278 4.493 8.79206 4.0231C8.71448 3.7104 8.8503 3.27942 8.80562 2.9959C8.73766 2.57838 8.64256 2.4967 8.63282 2.36678C8.6231 2.23686 8.61336 2.20372 8.61336 2.12218C8.57062 2.11246 8.5454 2.09888 8.50278 2.09888C8.49304 2.06048 8.51238 2.02694 8.46976 1.95898C8.49304 1.96871 8.65228 1.98817 8.83864 2.1648C8.99224 2.30854 8.99224 2.3609 9.01542 2.39008C9.04448 2.41914 9.27948 2.62048 9.38048 2.82118C9.48146 3.0219 9.67756 3.6619 9.72224 3.76672C9.7358 3.80948 9.76498 3.85222 9.83744 3.94926C9.95008 4.08916 10.1151 4.32046 10.3014 4.35886L10.3009 4.3591Z" fill="#B58634"/>
<path fill-rule="evenodd" clip-rule="evenodd" d="M9.04282 2.40039C9.16046 2.59041 9.26612 2.78757 9.35924 2.99073C9.4738 3.24891 9.54176 3.46061 9.68552 3.63341C9.60782 3.40827 9.46996 2.96551 9.38842 2.80819C9.29716 2.64179 9.1108 2.46259 9.04282 2.40051V2.40039Z" fill="#A88F33"/>
<path fill-rule="evenodd" clip-rule="evenodd" d="M7.72238 5.59194C7.72238 5.59194 7.52628 5.64044 7.16124 5.8327C7.04078 5.89478 6.92636 5.94714 6.81564 5.99578C6.52802 6.12582 6.21954 6.24602 5.9748 6.31232C5.99426 6.33562 6.00386 6.34522 6.00386 6.34522C6.00386 6.34522 6.00386 6.44044 6.05634 6.49472C6.02728 6.5239 5.6388 6.78796 5.75348 7.67142C5.83106 7.64236 5.92232 7.60346 5.93588 7.60346C5.95932 7.60742 5.96508 7.67142 5.99412 7.67142C6.02318 7.67142 6.11842 7.63302 6.2194 7.50246C6.21556 7.55494 6.15732 8.08308 6.4699 8.4384C6.52814 8.37044 6.67572 8.14516 6.67572 8.14516L6.67956 8.07334C6.67956 8.07334 6.69314 7.82284 6.7748 7.59372C6.85646 7.3646 7.01556 7.19564 7.01556 7.19564L7.84642 6.00922L7.72212 5.5918L7.72238 5.59194Z" fill="#E6C367"/>
<path fill-rule="evenodd" clip-rule="evenodd" d="M6.94567 7.33474C6.90763 7.36162 6.86573 7.38256 6.82139 7.39682C6.80783 7.34832 6.78837 7.18128 6.90293 7.0182C7.03695 6.82198 7.33007 6.56764 7.41159 6.3654C7.46407 6.23522 7.44079 5.90908 7.90683 5.49154C8.37287 5.074 8.55527 4.9304 8.55527 4.9304L9.30869 4.55176L10.2349 4.91682L9.77473 6.72034L9.41749 7.56514L7.99669 7.29724L6.94555 7.33474H6.94567Z" fill="#DCBA5A"/>
<path fill-rule="evenodd" clip-rule="evenodd" d="M7.48798 6.84444L7.66476 6.62312V6.4658C7.66476 6.4658 7.86086 6.41332 8.07244 6.19778C8.28402 5.98222 8.57726 5.56866 8.83558 5.59388C9.09388 5.62306 9.1191 6.15502 9.12882 6.30466C9.13854 6.45428 9.17158 6.79388 9.22392 6.97652C9.28216 7.15906 8.5948 7.85026 8.5948 7.85026L8.12798 8.20558L7.48798 6.84444Z" fill="#E9CE77"/>
<path fill-rule="evenodd" clip-rule="evenodd" d="M8.03494 8.68694C8.03494 8.68694 8.17868 8.46166 8.07334 8.41314C8.13542 8.27336 8.24998 8.12578 8.24998 8.12578C8.24998 8.12578 8.33152 7.92392 8.59558 7.67534C8.85964 7.42676 9.02284 7.26164 9.0656 7.09474C9.09194 6.98596 9.10628 6.87462 9.10834 6.7627C9.1369 6.78602 9.16744 6.8068 9.1996 6.82478C9.24236 6.84424 9.44422 7.01116 9.41516 7.34716C9.3861 7.68316 9.26156 7.82292 9.26156 7.82292C9.26156 7.82292 9.14124 7.94324 9.05586 8.00546C8.96448 8.06754 8.93158 8.13934 8.7781 8.14524C8.79388 8.1327 8.8116 8.12284 8.83058 8.11604C8.83058 8.11604 8.67136 8.09672 8.58584 8.17428C8.50034 8.25186 8.31858 8.49084 8.22732 8.56278C8.13606 8.621 8.03532 8.68706 8.03532 8.68706L8.03494 8.68694Z" fill="#CDAE50"/>
<path fill-rule="evenodd" clip-rule="evenodd" d="M14.4913 4.91038C14.2619 4.82678 14.0208 4.77962 13.7768 4.77062C13.369 4.75704 12.7729 4.78034 12.1884 4.78418C11.5593 4.78802 10.9884 4.56864 10.1962 4.52984C10.0662 4.45214 9.73541 4.11232 8.70297 4.8327C8.76505 4.82886 9.45253 4.67346 9.69125 4.9726C9.93203 5.26968 9.86405 5.77452 9.83117 5.89484C9.76895 6.16288 9.56697 6.55314 9.48557 6.82694C9.40415 7.10072 9.42335 7.2446 9.36511 7.4366C9.30687 7.6286 9.17875 7.72397 9.25439 7.94529C9.35539 7.88321 9.40799 7.8832 9.57669 7.50456C9.74541 7.12594 9.71071 6.856 9.99039 6.5356C10.2642 6.2133 10.72 5.77246 10.8933 5.66176C11.0666 5.55104 12.4428 4.83654 13.8837 5.51814C14.2312 5.48128 14.4914 4.91026 14.4914 4.91026L14.4913 4.91038Z" fill="#D2A83E"/>
<path fill-rule="evenodd" clip-rule="evenodd" d="M9.28346 4.64642C9.28202 4.63184 9.2788 4.61748 9.27386 4.60368C9.26038 4.57528 9.24268 4.54908 9.22138 4.52598C9.22138 4.52598 8.87962 4.4639 8.70682 4.48322C8.40384 4.51624 8.13004 4.89104 8.00192 5.08328C7.87378 5.27554 7.71456 5.5725 7.54176 5.72598C7.54364 5.71102 7.5402 5.69588 7.53202 5.68322C7.53202 5.68322 7.54176 5.6968 7.52242 5.71624C7.5031 5.7357 7.50298 5.7453 7.5127 5.75464L7.54188 5.7837C7.55148 5.7837 7.81952 5.66326 8.18458 5.3229C8.57292 4.96758 8.87002 4.7853 9.0254 4.72284C9.10828 4.68762 9.1949 4.66198 9.28358 4.64642H9.28346Z" fill="#C29637"/>
<path fill-rule="evenodd" clip-rule="evenodd" d="M15.9127 3.18652C15.9127 3.18652 15.8505 3.2641 15.7728 3.3496C15.6 3.53212 15.3747 3.73782 15.1824 3.94954C15 4.15152 14.7942 4.30882 14.563 4.5729C14.3319 4.83696 14.0638 5.13008 13.996 5.21558C13.9339 5.30108 13.8854 5.44086 13.8854 5.51266C13.8524 5.48938 13.8136 5.46416 13.8136 5.46416C13.8299 5.49464 13.8495 5.5233 13.8718 5.54966C13.9204 5.61762 13.996 5.70326 14.0349 5.75548C14.0827 5.82196 14.1169 5.89716 14.1358 5.9768C14.1591 5.98064 14.3086 6.00982 14.4951 5.703C14.6816 5.39618 14.9261 5.06032 14.9261 5.06032L15.3144 4.48354L15.5591 3.99434L15.8663 3.44674L15.9131 3.18652H15.9127Z" fill="#AC8132"/>
<path fill-rule="evenodd" clip-rule="evenodd" d="M16.3108 2.79395C16.3108 2.79395 16.0758 2.98595 15.9845 3.10115C15.8932 3.21634 15.6773 3.51868 15.6773 3.51868L15.755 3.50894L16.1492 3.15951L16.3028 2.88573L16.3106 2.79445L16.3108 2.79395Z" fill="#A88F33"/>
<path fill-rule="evenodd" clip-rule="evenodd" d="M16.2388 18.2256C16.2388 18.2256 16.235 18.0664 16.3243 17.9713C16.4156 17.8761 16.6466 17.7363 16.8719 17.212C17.0972 16.6877 17.1223 16.5693 17.1223 16.5693C17.1223 16.5693 16.7185 16.9149 16.4695 16.9964C16.5277 16.876 16.5608 16.7906 16.5899 16.7284C16.5569 16.6993 16.4171 16.6663 16.4036 16.6508C16.4811 16.5731 16.5239 16.3828 16.6812 16.2566C16.8832 16.103 17.2521 15.8391 17.5388 15.6038C17.8255 15.3685 18.3892 14.8213 18.4612 14.6621C18.5039 14.7242 18.5135 14.763 18.5135 14.763C18.5135 14.763 18.2301 15.132 18.0826 15.3669C17.9524 15.5689 17.9621 15.6834 17.9621 15.6834L18.2301 15.5682C18.2301 15.5682 18.3077 15.8556 17.9563 16.2926C18.1099 16.2343 18.1719 16.2693 18.2592 16.2206C18.1154 16.312 17.9174 16.4363 17.7311 16.778C17.5485 17.1197 17.3 17.5178 16.8806 17.7662C16.4728 18.0284 16.2378 18.2245 16.2378 18.2245L16.2388 18.2256Z" fill="#A67A2E"/>
<path fill-rule="evenodd" clip-rule="evenodd" d="M15.1864 5.11315C15.1864 5.11315 15.0272 5.44505 15.0039 5.70335C15.0001 5.76557 14.9844 5.81407 14.9844 5.88589C14.9806 6.11693 14.998 6.37523 14.946 6.49555C14.9266 6.44703 14.9169 6.41401 14.8974 6.39469C14.8684 6.47621 14.8159 6.73055 14.7731 6.82565C14.7538 6.76357 14.711 6.54803 14.715 6.29369C14.719 6.03935 14.7246 5.99071 14.7246 5.93837C14.715 6.01593 14.6625 6.12089 14.6431 6.18297C14.614 6.13061 14.581 6.06265 14.5421 6.00633C14.5188 6.04473 14.4897 6.10143 14.4645 6.13061C14.4605 6.10733 14.4509 6.04511 14.4451 5.95781C14.4412 5.85683 14.4353 5.72677 14.4412 5.69951C14.4508 5.64717 14.5325 5.44133 14.7053 5.25293C14.9111 5.02765 15.1228 4.59475 15.1849 4.46073C15.247 4.32671 15.511 3.76953 15.511 3.76953H15.713L15.4198 4.43743C15.4198 4.43743 15.2431 4.80249 15.1519 4.93663C15.0606 5.07077 14.8684 5.45517 14.7828 5.60467C14.8449 5.52313 14.8974 5.48037 14.9596 5.40269C15.0198 5.34829 15.1867 5.11341 15.1867 5.11341L15.1864 5.11315Z" fill="#8C6228"/>
<path fill-rule="evenodd" clip-rule="evenodd" d="M16.3146 2.76855C16.2816 2.87011 16.2295 2.96439 16.161 3.04631C16.0406 3.19005 15.7823 3.38219 15.6562 3.53553C15.541 3.68503 15.3106 4.09285 15.4153 4.57629C15.4537 4.47147 15.526 4.26373 15.7183 4.02871C15.9105 3.79371 16.1164 3.52389 16.2175 3.31421C16.3183 3.10251 16.3319 2.93559 16.3319 2.93559L16.3703 2.88709L16.347 2.77637L16.314 2.76855H16.3146Z" fill="#CBA94C"/>
<path fill-rule="evenodd" clip-rule="evenodd" d="M20.2466 15.6481C20.2466 15.6481 20.169 15.4365 20.1456 15.2443C20.1224 15.052 20.184 15.0139 20.1126 14.7939C20.0698 14.6598 19.9923 14.6787 19.9729 14.6598C19.9534 14.641 19.9399 14.4385 19.9437 14.3278C19.9475 14.2171 19.9399 14.0735 19.9204 14.0113C19.8913 13.988 19.8719 13.9685 19.8291 13.8249C19.7806 13.6811 19.7573 13.6093 19.734 13.5667C19.7107 13.5241 19.6426 13.4852 19.6426 13.4424C19.6426 13.3569 19.7203 13.3124 19.7203 13.2888C19.7165 13.2403 19.6583 13.2792 19.6426 13.2655C19.6233 13.2422 19.6913 13.1025 19.6661 13.083C19.6563 13.0734 19.5884 13.1549 19.5708 13.1316C19.5514 13.1082 19.5281 12.8772 19.4931 12.7238C19.4602 12.5743 19.4252 12.4657 19.4213 12.421C19.4175 12.3782 19.1533 11.6248 19.0893 11.4423C19.0377 11.2881 18.9943 11.1312 18.9592 10.9724C18.9398 10.8811 18.9262 10.6947 18.9165 10.7141C18.9068 10.7336 18.9127 10.8287 18.897 10.8248C18.8835 10.8209 18.835 10.489 18.8195 10.4365C18.8059 10.384 18.7242 10.2061 18.7043 10.0773C18.6848 9.94713 18.6422 9.60729 18.613 9.37625C18.5838 9.14521 18.5703 9.05009 18.5703 8.99225C18.575 8.85073 18.5672 8.70907 18.547 8.56895C18.5086 8.32421 18.4318 8.02713 18.3644 7.85445C18.2344 7.52817 17.8887 6.69323 17.8268 6.48549C17.8268 6.43301 17.8948 6.46219 17.8948 6.46219C17.8948 6.46219 18.0636 6.88549 18.1879 7.21163C18.3084 7.53791 18.4229 7.82527 18.4521 7.85445C18.4754 7.88351 18.6579 8.20389 18.7395 8.72817C18.821 9.25247 18.8501 9.73593 18.8987 10.0582C18.922 10.2118 18.9415 10.3748 18.99 10.5379C19.0423 10.7146 19.1239 10.8971 19.2307 11.1767C19.322 11.4117 19.39 11.6078 19.4268 11.7768C19.4696 11.9923 19.4696 12.1554 19.4948 12.2623C19.5182 12.3535 19.553 12.5359 19.6347 12.7999C19.7164 13.0638 19.8366 13.4038 19.9181 13.6154C20.0774 14.0387 20.1484 14.3921 20.1726 14.5805C20.1938 14.7747 20.2658 15.4465 20.2462 15.6484L20.2466 15.6481Z" fill="#A88F33"/>
<path fill-rule="evenodd" clip-rule="evenodd" d="M16.3243 2.74576L16.3146 2.76906C16.3146 2.76906 16.3437 2.7788 16.3379 2.8177C16.3383 2.87094 16.3351 2.92414 16.3282 2.97694C16.3186 3.0449 16.2991 3.09726 16.2953 3.14C16.2953 3.23128 16.3089 3.3361 16.1801 3.59632C16.1417 3.66814 16.118 3.73022 16.0986 3.77296C16.05 3.8778 16.0403 3.89342 15.9976 3.94192C16.0655 3.90352 16.3103 3.74992 16.4344 3.77296C16.349 3.82148 16.2189 3.91672 16.1373 4.041C16.1568 4.04484 16.2383 4.06046 16.3677 4.041C16.5833 4.00798 16.8241 3.93028 17.0356 3.94576C17.2668 3.95934 17.1755 3.66814 17.1755 3.66814L16.9088 3.08176L16.404 2.72656L16.3243 2.7459V2.74576Z" fill="#BE9C44"/>
<path fill-rule="evenodd" clip-rule="evenodd" d="M17.6408 7.13824C17.6408 7.13824 17.4155 6.91296 17.3243 6.13984C17.233 5.36314 17.2525 4.21984 17.2525 4.21984L17.0699 3.77324C17.0699 3.77324 17.0315 3.47616 16.9359 3.36556C16.8403 3.25498 16.6525 3.06848 16.567 2.97722C16.4815 2.88596 16.3845 2.76166 16.3263 2.74219C16.3553 2.69369 16.4855 2.4199 16.9844 2.41606C17.4834 2.41222 17.6372 2.68986 17.6893 2.79084C17.7414 2.89184 17.9767 3.32844 18.064 4.16044C18.1455 4.99142 18.1495 5.05364 18.1359 5.341C18.1262 5.50022 18.0737 5.86912 17.9823 6.26324C17.8989 6.59732 17.8076 6.97018 17.6406 7.139L17.6408 7.13824Z" fill="#A17C34"/>
<path fill-rule="evenodd" clip-rule="evenodd" d="M16.9344 7.80017C17.0095 7.80559 17.0845 7.78867 17.1499 7.75153C17.2218 7.74769 17.482 7.78071 17.6819 7.52637C17.6955 7.58449 17.7306 7.74193 17.6392 7.88171C17.6878 7.83307 17.7596 7.81373 17.7693 7.80017C17.7732 7.87197 17.8411 8.09329 17.5538 8.63115C17.6314 8.54577 17.7226 8.54961 17.8042 8.53989C17.8081 8.64087 17.8624 8.98059 17.7188 9.16325C17.6237 9.28753 17.4683 9.24861 17.4683 9.24861C17.4706 9.22149 17.4706 9.19421 17.4683 9.16709C17.4644 9.11461 17.445 9.06225 17.4587 9.02731C17.3836 8.99301 17.3152 8.94563 17.2567 8.88741C17.0877 8.72817 16.8683 8.45643 16.8529 8.25445C16.8334 8.02917 17.0354 7.98065 17.0354 7.98065C17.0185 7.96551 17.004 7.94781 16.9926 7.92817C16.9829 7.89527 16.9732 7.84279 16.9344 7.80017Z" fill="#8C6228"/>
<path fill-rule="evenodd" clip-rule="evenodd" d="M15.4368 5.35733C15.4368 5.35733 15.4271 5.34377 15.3747 5.40585C15.3844 5.34377 15.3942 5.28539 15.398 5.22907C15.4228 5.17693 15.4548 5.12859 15.4932 5.08547C15.4641 5.14357 15.4446 5.19605 15.4446 5.19605C15.4446 5.19605 15.5165 5.06203 15.6214 4.98051C15.6932 4.92227 15.7844 4.89513 15.8232 4.84073C15.866 4.78249 15.8562 4.77275 15.866 4.76303C15.866 4.76303 15.9612 4.70095 16.1069 4.51829C16.1262 4.49499 16.1554 4.46979 16.1748 4.44649C16.2077 4.43291 16.2854 4.39797 16.3767 4.35125C16.4719 4.29891 16.5787 4.22709 16.6447 4.19765C16.7748 4.13941 16.9128 4.14531 16.9768 4.05391C17.0253 4.04035 17.0776 3.89467 17.068 3.77051C17.1398 3.79957 17.5087 4.02869 17.6351 4.52969C17.7263 4.88501 17.5631 5.43259 17.4952 5.69679C17.4272 5.96099 17.4176 6.15695 17.3224 6.27727C17.2019 6.43663 16.8137 6.66127 16.7185 6.77251C16.6369 6.86377 16.3923 7.09481 16.4019 7.26171C16.4116 7.38601 16.565 7.45371 16.5981 7.47727C16.6313 7.50083 16.631 7.52975 16.6932 7.51567C16.7554 7.50159 16.7786 7.47291 16.804 7.47291C16.833 7.47675 16.833 7.48265 16.8466 7.48265C16.8564 7.48235 16.8662 7.48103 16.8758 7.47867C16.8758 7.47867 16.866 7.65545 16.4525 7.70907C16.4233 7.71305 16.3942 7.72265 16.3572 7.72853C16.4059 7.70523 16.4349 7.70523 16.4874 7.63343C16.4292 7.62371 16.2621 7.61397 16.2194 7.60041C16.2329 7.57711 16.2776 7.51491 16.3145 7.48585C16.3475 7.45679 16.3106 7.44745 16.2816 7.46255C16.2316 7.49659 16.1836 7.53351 16.1378 7.57315C16.0893 7.61589 16.0466 7.67413 15.9689 7.72675C15.9456 7.64905 15.9494 7.50147 16.0408 7.39471C16.0174 7.39855 15.9727 7.46651 15.9301 7.45295C15.9224 7.38213 15.927 7.31051 15.9437 7.24123C15.967 7.15381 16.0932 7.00047 16.0932 7.00047L16.7028 5.91107L16.8329 5.08585L15.4368 5.35707V5.35733Z" fill="#92723A"/>
<path fill-rule="evenodd" clip-rule="evenodd" d="M15.4039 5.40373C15.4039 5.40373 15.3709 5.42703 15.4369 5.47169C15.4272 5.48527 15.4039 5.53377 15.3747 5.56681C15.3418 5.60521 15.3067 5.62901 15.2932 5.66203C15.2641 5.73001 15.2408 5.77659 15.2408 5.80577C15.2408 5.83497 15.2311 6.02133 15.1496 6.14165C15.1204 6.18441 15.0874 6.25621 15.0641 6.30473C15.0155 6.39009 14.9728 6.45833 14.9631 6.49673C14.9437 6.56469 14.9302 6.75105 14.9302 6.75105C14.9302 6.75105 14.9729 6.69857 14.9884 6.67925C14.965 6.72777 14.9398 6.78011 14.9029 6.81903C14.9262 6.79957 14.9942 6.75105 15.1087 6.65007C15.268 6.51617 15.5165 6.29089 15.8195 6.11247C15.7281 6.14549 15.6506 6.14549 15.5885 6.15521C15.637 6.10671 16.0738 5.59407 16.303 5.54555C16.3169 5.52791 16.3238 5.50577 16.3224 5.48335L16.1262 5.46401L15.7281 5.54939L15.67 5.24219L15.4039 5.40335V5.40373Z" fill="#B18E3E"/>
<path fill-rule="evenodd" clip-rule="evenodd" d="M16.037 7.15105C16.037 7.15105 15.9845 7.20341 15.936 7.33359C15.8987 7.29459 15.8666 7.25081 15.8408 7.20341C15.769 7.08309 15.6584 6.92961 15.4001 7.01705C15.3962 6.93551 15.3903 6.89275 15.4001 6.83451C15.4428 6.82491 15.5729 6.72009 15.7029 6.56661C15.7943 6.46177 15.8797 6.34133 15.9379 6.18799C15.9763 6.15881 16.0428 6.11029 16.1299 6.05397C16.2542 5.96859 16.4037 5.85199 16.427 5.72193C16.3688 5.74523 16.2445 5.80347 16.058 5.79387C16.1299 5.76085 16.2405 5.72591 16.2269 5.58217C16.2561 5.56271 16.2794 5.54913 16.2794 5.54913C16.2575 5.54183 16.2345 5.53855 16.2115 5.53941C16.2075 5.52585 16.2017 5.50651 16.1687 5.51611C16.1357 5.52571 16.1303 5.52585 16.126 5.53941C16.1124 5.54337 16.0677 5.53941 16.0347 5.56283C16.0017 5.58625 15.9104 5.66369 15.8755 5.67727C15.889 5.65397 15.9084 5.61915 15.9084 5.61915C15.9084 5.61915 15.8132 5.62875 15.7453 5.65755C15.621 5.70031 15.4774 5.77801 15.3317 5.85365C15.3453 5.83035 15.3512 5.81525 15.3608 5.81089C15.3704 5.80655 15.3938 5.80129 15.3938 5.79733C15.3938 5.79337 15.3842 5.75893 15.39 5.74497C15.4335 5.65273 15.4849 5.56437 15.5436 5.48091C15.6115 5.38953 15.6251 5.25947 15.6251 5.25947L15.9222 5.10997L16.7571 4.91797L17.2989 4.95099L17.231 5.32577L16.911 5.98011L16.6372 6.57621L16.3245 6.94139L16.0371 7.15105H16.037Z" fill="#543E26"/>
<path fill-rule="evenodd" clip-rule="evenodd" d="M17.3903 5.52989C17.3903 5.52989 17.0641 5.93373 16.9728 5.99595C17.031 5.87165 17.3903 5.13181 17.5204 4.92599C17.4913 4.90269 17.4524 4.90269 17.5437 4.54199C17.4661 4.72439 17.4389 4.81963 17.3749 4.86813C17.3109 4.91665 17.3029 4.90115 17.2597 4.90115C17.2678 4.88639 17.2712 4.86943 17.2693 4.85265C17.2693 4.85265 16.9955 4.81963 16.8085 4.81963C16.6214 4.81963 16.2513 4.92061 16.0453 5.00215C15.8822 5.07011 15.791 5.07011 15.7327 5.11275C15.6745 5.16125 15.6415 5.21373 15.6123 5.22731C15.589 5.24087 15.4784 5.27581 15.4531 5.31267C15.4298 5.35107 15.391 5.39421 15.391 5.40395C15.391 5.41367 15.3813 5.42737 15.4104 5.41751C15.42 5.41367 15.492 5.37475 15.5735 5.32625C15.6841 5.26417 15.8181 5.19235 15.9153 5.14961C16.1929 5.03889 16.2803 5.05835 16.4045 5.03505C16.5345 5.01175 16.721 4.95735 16.8452 4.95735C16.9695 4.95351 17.2045 4.95735 17.2589 4.96707C17.2356 4.98653 17.2161 5.00983 17.2259 5.09137C17.2259 5.11467 17.2064 5.13987 17.1875 5.19619C17.1294 5.35543 17.0186 5.61949 16.9571 5.75351C16.8717 5.93591 16.7747 6.08939 16.7267 6.18449C16.6787 6.27959 16.5731 6.53009 16.4685 6.66411C16.3639 6.79811 16.3093 6.87965 16.2765 6.90883C16.2437 6.93803 16.0085 7.11069 16.026 7.17291C16.0687 7.15933 16.3387 7.05771 16.5347 6.83703C16.7306 6.61635 16.7697 6.48171 16.923 6.36125C17.0764 6.24081 17.1968 6.03895 17.2686 5.87203C17.3288 5.71665 17.3152 5.66813 17.3909 5.53027L17.3903 5.52989Z" fill="#806031"/>
<path fill-rule="evenodd" clip-rule="evenodd" d="M10.3593 8.54385C10.3593 8.54385 10.3166 8.72049 10.2194 8.80791C10.1243 8.89343 9.95533 8.96715 9.93601 9.11089C9.91271 9.25451 10.105 9.32645 10.105 9.32645C10.105 9.32645 10 9.49925 10 9.62929C10 9.76331 9.99617 9.78853 10.0097 9.91665C9.99433 9.92657 9.98123 9.93965 9.97133 9.95505C9.97133 9.95505 9.98093 10.0793 10.0762 10.1569C10.1714 10.2345 10.2528 10.2812 10.3013 10.2617C10.3087 10.2776 10.3152 10.2938 10.3208 10.3104C10.3208 10.3104 10.3927 10.1278 10.4412 9.96863C10.4897 9.80555 10.5325 9.82871 10.5518 9.60933C10.5711 9.38993 10.7822 9.01323 10.7822 9.01323L10.9262 8.69131L10.6913 8.50879L10.3593 8.54373V8.54385Z" fill="#B6903C"/>
<path fill-rule="evenodd" clip-rule="evenodd" d="M10.7962 8.86035C10.7477 8.91007 10.703 8.96329 10.6624 9.01957C10.6003 9.10509 10.5518 9.18265 10.4605 9.21581C10.3693 9.24895 10.311 9.24869 10.3168 9.34009C10.3226 9.43149 10.4081 9.47013 10.4566 9.51673C10.5091 9.56525 10.5518 9.64677 10.5285 9.73817C10.5576 9.72461 10.61 9.70899 10.6586 9.60415C10.7071 9.49933 11.0464 8.86047 11.0464 8.86047H10.7962V8.86035Z" fill="#685026"/>
<path fill-rule="evenodd" clip-rule="evenodd" d="M12.1344 7.38651C12.1344 7.38651 12.1635 7.30893 12.1344 7.25262C12.1052 7.19438 11.9286 7.17491 11.8412 7.10887C11.7499 7.04091 11.6392 6.99368 11.5479 7.0235C11.5615 6.99048 11.6159 6.91854 11.5712 6.90306C11.5284 6.88948 11.3693 6.9613 11.3266 6.99432C11.2838 7.02734 11.1867 7.06612 11.1674 7.08956C11.148 7.11298 11.1149 7.15752 11.0954 7.13806C11.076 7.1245 11.0664 7.08955 11.0333 7.10887C11.0003 7.12819 10.8413 7.25837 10.812 7.33415C10.7827 7.40993 10.7168 7.57889 10.5188 7.77101C10.3208 7.96315 10.2353 8.08755 10.2935 8.15937C10.3517 8.23117 10.379 8.17884 10.3887 8.24092C10.3962 8.30185 10.3929 8.36363 10.379 8.42343C10.3557 8.52443 10.3169 8.61953 10.3693 8.63899C10.5033 8.68173 10.6335 8.60059 10.6625 8.62541C10.7208 8.67777 10.6295 8.86619 10.7674 8.90305C10.9073 8.94145 11.0451 8.87003 11.0451 8.87003L11.5538 8.59623L12.0431 8.33805L12.2935 7.84283L12.1592 7.42926L12.1336 7.38651H12.1344Z" fill="#D4B968"/>
<path fill-rule="evenodd" clip-rule="evenodd" d="M11.6544 8.56878C11.6544 8.56878 11.5689 8.43874 11.6738 8.32404C11.7788 8.20936 11.9282 8.16098 11.9864 8.08916C11.9753 8.07548 11.9605 8.06538 11.9437 8.0601C11.9823 7.99094 12.0413 7.9353 12.1126 7.90074C12.0836 7.8717 12.0447 7.8484 12.002 7.8484C11.9068 7.8484 11.8484 7.90664 11.7611 7.90664C11.6758 7.90664 11.666 7.86388 11.666 7.86388C11.666 7.86388 11.8098 7.85032 11.7961 7.78618C11.7825 7.71822 11.7577 7.71822 11.7577 7.71822C11.7577 7.71822 12.0353 7.60302 12.0838 7.54158C12.1323 7.48014 12.1266 7.40756 12.1363 7.3785C12.1692 7.3785 12.3615 7.27752 12.4392 7.32026C12.5169 7.36302 12.4625 7.4795 12.4625 7.4795C12.4625 7.4795 12.6976 7.30274 12.8174 7.12942C12.9222 7.13914 12.971 7.05762 13.0478 7.05762C13.143 7.05762 13.2925 7.18766 13.3216 7.4653C13.341 7.62452 13.3701 7.71578 13.341 7.99738C13.3275 8.15662 13.3313 8.49658 13.3794 8.6653C13.4123 8.7993 13.49 8.78574 13.49 8.78574C13.4781 8.82658 13.4545 8.86302 13.4221 8.89058C13.3696 8.93908 13.3638 9.06734 13.3696 9.11586C13.3773 9.15132 13.3871 9.18632 13.3988 9.22068C13.3988 9.22068 13.3367 9.2925 13.3211 9.34114C13.3075 9.38964 13.2435 9.42266 13.1968 9.42266C13.1501 9.42266 13.1735 9.4187 13.1114 9.42266C13.0493 9.42664 13.0299 9.43624 12.991 9.42266C12.9521 9.4091 12.923 9.39348 12.9386 9.26906C12.9522 9.14478 12.459 8.8555 12.459 8.8555L11.6526 8.56814L11.6544 8.56878Z" fill="#CCA849"/>
<path fill-rule="evenodd" clip-rule="evenodd" d="M10.7282 9.79624C10.7282 9.79624 10.9049 10.0313 11.6311 10.0313C11.9767 10.0313 12.0972 9.99824 12.1687 9.97878C12.2464 9.95932 12.5376 9.84488 12.8309 9.49916C13.0949 9.18658 13.0367 9.05846 13.0367 9.05846L12.8831 9.03516L12.3839 9.10312L10.9068 9.73224L10.7276 9.79624H10.7282Z" fill="#585136"/>
<path fill-rule="evenodd" clip-rule="evenodd" d="M11.2699 9.85398C11.2699 9.85398 10.6408 9.99388 10.6408 9.5958C10.6408 9.20744 11.0291 8.79964 11.1263 8.72782C11.2273 8.6559 11.468 8.57422 11.468 8.57422H12.0486L12.1592 8.86748L12.1107 9.50044L11.2699 9.85384V9.85398Z" fill="#252211"/>
<path fill-rule="evenodd" clip-rule="evenodd" d="M11.8505 8.69286C11.8505 8.69286 11.7302 8.58214 11.4564 8.73126C11.1826 8.88038 10.9611 9.19206 10.9476 9.47508C10.934 9.72544 11.1534 9.91194 11.4952 9.92166C11.7495 9.93126 11.903 9.90222 11.9807 9.88326C11.9612 9.85998 11.8602 9.73376 11.8602 9.73376L11.8506 8.693L11.8505 8.69286Z" fill="#C3B378"/>
<path fill-rule="evenodd" clip-rule="evenodd" d="M11.7321 8.75485C11.7321 8.75485 11.703 8.73155 11.6169 8.77815C11.5451 8.81655 11.4402 8.91805 11.3587 8.98985C11.3062 9.03261 11.2732 9.05193 11.2435 9.08497C11.1231 9.22871 11.0221 9.46371 11.0804 9.58019C11.1388 9.69667 11.3309 9.83069 11.8203 9.73943L11.7307 8.75497L11.7321 8.75485Z" fill="#E6D89C"/>
<path fill-rule="evenodd" clip-rule="evenodd" d="M11.5729 8.99563C11.5729 8.99563 11.4952 9.11607 11.4952 9.30833C11.4952 9.50443 11.6059 9.81701 12.0137 9.84029C12.3263 9.85975 12.536 9.38987 12.7632 9.20733C12.936 9.06757 13.0408 9.06359 13.0408 9.06359C13.0408 9.06359 12.8641 8.87159 12.3923 8.62289C11.9263 8.37239 11.4039 8.33937 11.1204 8.72389C11.2544 8.71415 11.6874 8.60343 11.6874 8.60343L11.8992 8.67141L11.5729 8.99575V8.99563Z" fill="#252211"/>
<path fill-rule="evenodd" clip-rule="evenodd" d="M12.1825 9.25078C12.169 9.22172 12.1592 9.1828 12.2156 9.1732C12.2719 9.1636 12.2971 9.16924 12.3166 9.2116C12.336 9.25398 12.355 9.2893 12.3262 9.30684C12.2971 9.32232 12.2213 9.30684 12.1824 9.25052L12.1825 9.25078ZM12.0913 8.97698C12.0913 8.97698 12.0718 8.99054 12.0816 8.96342C12.0854 8.93052 12.1107 8.87213 12.1728 8.88584C12.2349 8.89954 12.2215 8.96738 12.2112 8.98684C12.201 9.0063 12.1491 9.03918 12.1102 9.02524C12.1002 9.02268 12.092 9.0155 12.0882 9.00592C12.0843 8.99634 12.0853 8.98548 12.0908 8.97672L12.0913 8.97698Z" fill="#6F674D"/>
<path fill-rule="evenodd" clip-rule="evenodd" d="M6.83521 9.10083C6.83521 9.10083 6.98881 9.21603 7.16725 9.21155C7.34389 9.20757 7.57109 9.02517 7.67591 8.90857C7.73799 8.84059 7.79111 8.76879 7.84871 8.71247C7.89734 8.66395 7.93025 8.64067 7.95355 8.60763C7.98656 8.56923 8.02151 8.49705 8.03905 8.47363C7.99631 8.50665 7.93422 8.56501 7.87008 8.60379C7.808 8.64219 7.67399 8.71439 7.61959 8.73385C7.56725 8.75331 7.02351 9.04105 7.02351 9.04105L6.83521 9.10083Z" fill="#AC924C"/>
<path fill-rule="evenodd" clip-rule="evenodd" d="M7.06995 7.66613C7.06995 7.66613 7.15533 7.60789 7.32045 7.57091C7.47969 7.53251 7.80007 7.50293 7.80007 7.50293L8.06413 7.61813L8.16897 8.01621L7.97697 8.42991L7.73235 8.58351L7.45459 8.13693L7.07059 7.66691L7.06995 7.66613Z" fill="#9F8E57"/>
<path fill-rule="evenodd" clip-rule="evenodd" d="M6.72437 8.02175L6.63297 8.08997C6.63297 8.08997 6.65639 8.04721 6.67573 7.91717C6.69505 7.78713 6.79617 7.47057 6.94375 7.28805C7.09133 7.10553 7.08749 7.11525 7.08749 7.11525C7.06003 7.11023 7.03171 7.11727 7.00981 7.13457C7.02925 7.09157 7.15355 6.93797 7.27783 6.86117C7.40213 6.78437 7.45063 6.76017 7.58069 6.82277C7.71073 6.88537 7.74375 6.91787 7.83899 6.91403C7.93421 6.91019 8.01563 6.80921 8.01563 6.80921C8.01563 6.80921 8.03509 6.87129 7.96327 7.01503C7.89147 7.15877 7.60795 7.45189 7.60795 7.45189L7.01761 7.85573L6.72437 8.02213V8.02175Z" fill="#EAC970"/>
<path fill-rule="evenodd" clip-rule="evenodd" d="M7.16108 7.61724C7.16108 7.61724 7.58834 7.67548 7.7184 7.55516C7.72224 7.56872 7.73786 7.56872 7.73786 7.57846C7.7368 7.58578 7.73338 7.59258 7.72812 7.59778C7.74226 7.59552 7.75656 7.59424 7.77088 7.59394C7.78798 7.59904 7.80556 7.6023 7.82336 7.60368C7.83768 7.60336 7.85196 7.60204 7.8661 7.5997C7.86338 7.6192 7.85284 7.63676 7.83692 7.64834C7.85638 7.64834 7.87532 7.65218 7.87532 7.66768C7.87532 7.68316 7.87916 7.72988 7.85586 7.7396C7.83656 7.74494 7.81602 7.74354 7.79762 7.73564C7.79916 7.7724 7.80916 7.80832 7.82682 7.8406C7.86522 7.9124 7.94714 7.9942 8.05722 7.97064C8.05722 7.97064 8.11532 8.11042 7.87072 8.42108C7.83782 8.46384 7.80274 8.52208 7.76012 8.57058C7.74328 8.6073 7.7304 8.6457 7.72172 8.68514C7.72172 8.68514 8.13542 8.52592 8.25382 8.16278C8.37426 7.79772 8.39756 7.43856 8.37426 7.10268C8.3703 7.00744 8.35482 6.9396 8.33152 6.89096C8.27328 6.77052 8.11008 6.78998 8.04416 6.85794C7.94892 6.95318 7.7897 7.18998 7.56838 7.35304C7.3431 7.51612 7.3335 7.54504 7.16058 7.61724H7.16108Z" fill="#D7BC6B"/>
<path fill-rule="evenodd" clip-rule="evenodd" d="M6.64857 8.14157C6.64857 8.14157 6.56705 8.19007 6.52429 8.37197C6.48153 8.55833 6.56269 8.78553 6.60967 8.85733C6.65665 8.92915 6.76327 9.12537 6.98445 9.13509C7.03919 9.13481 7.09333 9.12357 7.14369 9.10207C7.22089 9.06667 7.29333 9.02163 7.35923 8.96805C7.45447 8.89625 7.53203 8.83417 7.52231 8.82829C7.49901 8.81855 6.93593 8.35251 6.93593 8.35251L6.72423 8.11621L6.64845 8.14181L6.64857 8.14157Z" fill="#585136"/>
<path fill-rule="evenodd" clip-rule="evenodd" d="M7.18083 8.9146C7.18083 8.9146 7.29539 8.905 7.36335 8.86226C7.43131 8.8195 6.96527 8.35742 6.96527 8.35742L6.99829 8.85662L7.18083 8.9146Z" fill="#453A25"/>
<path fill-rule="evenodd" clip-rule="evenodd" d="M6.68544 8.10704C6.68544 8.10704 6.6272 8.21776 6.6272 8.24694C6.61746 8.34204 6.64664 8.64106 6.66994 8.73616C6.69324 8.83714 6.81944 8.9905 6.98264 8.9905C7.08352 8.9905 7.22342 8.92842 7.22342 8.91292C7.22342 8.89346 7.07968 8.87452 7.04088 8.8022C7.0176 8.7638 7.00786 8.66832 7.00248 8.5718C6.99864 8.50972 6.99864 8.44176 7.02194 8.4182C7.07442 8.35996 7.08402 8.19292 7.08402 8.19292L7.2704 7.84668H7.02528L6.73202 8.02922L6.68544 8.10704Z" fill="#84754B"/>
<path fill-rule="evenodd" clip-rule="evenodd" d="M6.61362 8.21373C6.61362 8.21373 6.80562 7.95939 6.97868 7.90103C7.15174 7.84267 7.22918 7.87773 7.22918 7.87773L7.12818 8.13603L6.98444 8.29527L6.99416 8.37681C6.99416 8.37681 6.97074 8.59235 7.11448 8.74187C7.25824 8.89137 7.36498 8.88561 7.4272 8.88561C7.4894 8.88561 7.66796 8.83313 7.75922 8.61757C7.84076 8.41571 7.90872 8.15677 7.74566 7.89719C7.5863 7.63889 7.30482 7.62891 7.25042 7.62891C7.19602 7.62891 6.76888 7.65027 6.61362 8.21335V8.21373Z" fill="#252211"/>
<path fill-rule="evenodd" clip-rule="evenodd" d="M11.5437 9.07784C11.4719 9.0448 11.5398 8.84296 11.6117 8.78074C11.6835 8.71854 11.7747 8.64685 11.9341 8.63699C11.9922 8.63315 12.0485 8.67002 12.0389 8.70894C12.0254 8.78074 11.9244 8.88174 11.8331 8.95354C11.7069 9.05262 11.6252 9.1147 11.5437 9.07784Z" fill="#F7F7E7"/>
<path fill-rule="evenodd" clip-rule="evenodd" d="M7.66016 7.9768C7.71264 7.97296 7.7806 8.0152 7.79416 8.07204C7.80774 8.13412 7.76114 8.2584 7.66016 8.2584C7.57862 8.2584 7.53586 8.15742 7.53586 8.12836C7.53678 8.10446 7.54346 8.08116 7.55532 8.0604C7.55916 8.0545 7.56888 7.98654 7.66016 7.9768Z" fill="#F8F6DE"/>
<path fill-rule="evenodd" clip-rule="evenodd" d="M6.90293 8.02148C6.90293 8.02148 6.76891 8.08356 6.70683 8.21348C6.66247 8.30942 6.64905 8.41678 6.66843 8.52068C6.67817 8.5692 6.72667 8.68952 6.75969 8.73228C6.79273 8.77502 6.83739 8.8042 6.87041 8.80024C6.90345 8.79628 6.97129 8.70898 6.97129 8.65662C6.97129 8.60428 6.97525 8.38284 7.03925 8.26238C7.09557 8.14206 6.90331 8.02162 6.90331 8.02162L6.90293 8.02148Z" fill="#D4C38B"/>
<path fill-rule="evenodd" clip-rule="evenodd" d="M6.92236 8.01193C6.89906 8.02549 6.86028 8.04495 6.86988 8.07017C6.8796 8.09347 6.96114 8.10857 6.99032 8.16541C7.02336 8.22365 7.02336 8.28573 7.01362 8.31491C7.03898 8.30285 7.062 8.28639 7.0816 8.26627C7.12434 8.21775 7.1767 8.15183 7.22136 8.15183C7.25056 8.15183 7.2796 8.16541 7.30688 8.16541C7.34961 8.16541 7.39223 8.15183 7.39813 8.10717C7.40773 8.04893 7.31659 7.99645 7.26411 8.00617C7.27383 7.96777 7.28742 7.91107 7.24466 7.87215C7.20192 7.83325 7.06802 7.90133 7.03884 7.92079C7.00966 7.94025 6.92236 8.01205 6.92236 8.01205V8.01193Z" fill="#E2D59D"/>
<path fill-rule="evenodd" clip-rule="evenodd" d="M10.0078 12.0917L10.2952 12.0068L10.3767 12.0651C10.3767 12.0651 10.4348 12.1894 10.5262 12.2049C10.497 12.2669 10.4212 12.3201 10.4252 12.3641C10.4292 12.4081 10.468 12.4418 10.468 12.4418C10.468 12.4418 10.2097 12.8689 10.7185 13.2994C10.598 13.3479 10.4447 13.4146 10.3631 13.453C10.4212 13.4666 10.5455 13.4914 10.598 13.5385C10.6505 13.5856 10.6505 13.6006 10.699 13.6298C10.7475 13.6589 10.7766 13.6977 10.767 13.7151C10.7339 13.6957 10.6232 13.6376 10.6039 13.6918C10.5846 13.7461 10.1243 13.7249 10.1243 13.7249L9.34757 13.8744C9.34757 13.8744 9.37663 13.7967 9.29509 13.7249C9.19999 13.6395 9.08351 13.7287 8.95921 13.6336C8.79615 13.5093 8.79026 13.3656 8.73792 13.3113C8.79026 13.2783 8.89713 13.2298 9.15147 13.1961C9.14175 13.1766 9.10873 13.1184 9.12817 13.066C9.15147 12.9981 9.2485 12.9553 9.21946 12.874C9.2622 12.8643 9.28153 12.8643 9.38841 12.7303C9.4894 12.5963 9.55148 12.5672 9.62918 12.5575C9.70688 12.5478 9.75345 12.5575 9.89721 12.4235C9.99807 12.3284 9.96518 12.2468 9.96518 12.2468C9.96518 12.2468 10.0311 12.2255 10.0079 12.0915L10.0078 12.0917Z" fill="#CBAC5A"/>
<path fill-rule="evenodd" clip-rule="evenodd" d="M9.15928 12.1347C9.16312 12.1152 9.17874 12.1055 9.28358 12.1152C9.3884 12.1249 10.0525 12.0531 10.2331 12.0434C10.4156 12.0298 11.0583 12.0394 11.371 12.1055C11.6837 12.1715 12.0001 12.2492 12.1535 12.288C12.3071 12.3308 12.3554 12.3461 12.3496 12.3656C12.3457 12.385 12.3112 12.404 12.2913 12.3986C12.272 12.3948 11.7632 12.2394 11.606 12.2066C11.4488 12.1738 10.905 12.0862 10.6076 12.0914C10.33 12.0954 10.2193 12.0876 9.98438 12.1147C9.74936 12.1439 9.36102 12.1827 9.24454 12.1672C9.12934 12.1536 9.15314 12.1536 9.15904 12.1342L9.15928 12.1347Z" fill="#D6BC6F"/>
<path fill-rule="evenodd" clip-rule="evenodd" d="M10.7223 13.6559C10.7223 13.6559 11.1204 13.8715 11.2641 14.1355C11.369 14.3316 11.202 14.4288 11.202 14.4288C11.202 14.4288 11.4273 14.4288 11.3981 14.5531C11.3846 14.6307 11.0098 14.8403 10.7593 14.951C10.505 15.0618 10.5147 15.056 10.3904 15.0753C10.2699 15.0948 9.93984 15.0369 9.87185 15.1336C9.80389 15.2302 9.83346 15.3298 9.85242 15.3453C9.87186 15.3588 10.0292 15.3783 10.0292 15.3783C10.0292 15.3783 9.99616 15.4696 9.67002 15.4793C9.34386 15.489 9.26219 15.5122 9.24273 15.5473C9.22329 15.5802 9.30482 15.5608 9.45446 15.5857C9.60396 15.609 9.81362 15.6241 9.81362 15.6241C9.81362 15.6241 9.74566 15.6823 9.56902 15.7289C9.36703 15.7812 9.0505 15.8299 8.95537 15.8881C9.0039 15.9211 9.07583 15.9697 9.10897 15.9735C9.02745 15.993 8.91276 16.0357 8.89344 16.0512C8.92249 16.0707 8.96139 16.0939 8.96139 16.0939C8.96139 16.0939 8.79819 16.29 8.70309 16.3387C8.60799 16.3873 8.06041 16.6415 7.87199 16.593C7.40209 16.4687 7.34385 15.9542 7.22929 15.9154C7.05649 15.8571 6.97497 15.9735 6.82149 15.892C6.88945 15.8435 6.92645 15.8144 6.99825 15.7814C6.92057 15.743 6.51865 15.4881 6.51865 15.4881C6.47661 15.3965 6.42995 15.3071 6.37887 15.2202C6.30117 15.0862 6.18687 14.9075 6.10111 14.7502C5.91473 14.4046 5.90501 14.2454 5.73605 14.0493C5.76523 14.0109 5.86609 14.0163 5.86609 14.0163L7.28177 14.4823L9.792 14.555L10.4448 13.623L10.7224 13.6561L10.7223 13.6559Z" fill="#DFC677"/>
<path fill-rule="evenodd" clip-rule="evenodd" d="M7.00391 15.0776C7.01907 15.0945 7.03673 15.1089 7.05627 15.1204C7.10491 15.1534 7.17671 15.1923 7.22523 15.2504C7.24469 15.2213 7.29319 15.1689 7.37883 15.2504C7.46447 15.3319 7.57083 15.2738 7.63701 15.2932C7.70497 15.3166 7.70881 15.3262 7.70881 15.3262C7.70881 15.3262 7.74721 15.2932 7.83311 15.2582C7.88559 15.2388 7.94767 15.2252 8.01563 15.2059C8.07771 15.1923 8.14567 15.1728 8.19239 15.1728C8.23515 15.2019 8.38849 15.3648 9.00405 15.1243C9.58465 14.899 9.71855 14.8738 9.81569 14.9086C9.82543 14.8853 9.83515 14.8407 9.98465 14.8466C9.98465 14.7845 9.86037 14.5728 9.86037 14.5728L9.17493 14.3379H8.80001L7.67579 14.5437L7.05281 14.8992L7.00431 15.0784L7.00391 15.0776Z" fill="#C4A859"/>
<path fill-rule="evenodd" clip-rule="evenodd" d="M6.62912 14.6839C6.62912 14.6839 6.6427 14.7888 6.79808 14.8995C6.95168 15.0101 6.99994 15.0761 6.99994 15.0761C6.99994 15.0761 7.02912 15.0377 7.05242 14.9986C7.07572 14.9558 7.09518 14.9073 7.13396 14.8937C7.21166 14.8607 7.3883 14.9228 7.4272 14.9131C7.46022 14.9035 7.4505 14.8355 7.48544 14.8355C7.56698 14.8315 7.61934 14.8878 7.64852 14.8878C7.6777 14.8878 7.74938 14.884 7.7591 14.8685C7.76884 14.853 7.77268 14.6918 7.8834 14.6141C8.00384 14.5287 8.15144 14.5655 8.1906 14.585C8.1906 14.6141 8.19444 14.686 8.27214 14.6898C8.34984 14.6937 8.3575 14.6801 8.42574 14.7034C8.49396 14.7267 8.57524 14.6996 8.6121 14.814C8.64512 14.8044 8.72282 14.7947 8.70336 14.6839C8.74176 14.6549 8.7753 14.6354 8.85696 14.5209C8.87642 14.4918 8.90932 14.4588 8.93466 14.416C9.00264 14.416 9.08416 14.4025 9.19284 14.4976C9.15982 14.5209 9.14036 14.536 9.13076 14.5597C9.15918 14.5878 9.18514 14.6183 9.20832 14.6509C9.2375 14.6893 9.25696 14.7364 9.29382 14.7462C9.37536 14.7694 9.50938 14.7364 9.65888 14.7462C9.80264 14.7559 9.92294 14.8082 9.97542 14.8413C9.99488 14.8317 9.99488 14.8277 10.0434 14.8374C10.0919 14.8471 10.1288 14.851 10.0764 14.7889C10.1055 14.8025 10.1385 14.8317 10.1677 14.8025C10.1969 14.7733 10.22 14.7307 10.3016 14.7209C10.3831 14.7112 10.4123 14.7248 10.4453 14.6394C10.4881 14.5346 10.3405 14.5346 10.3405 14.5346C10.3405 14.5346 10.4085 14.4724 10.4842 14.3908C10.5755 14.3054 10.6803 14.1947 10.7055 14.0588C10.7483 13.8083 10.5037 13.7754 10.5037 13.7754L9.31726 14.1405L7.86676 14.0685L6.6299 14.6841L6.62912 14.6839Z" fill="#927D49"/>
<path fill-rule="evenodd" clip-rule="evenodd" d="M5.56314 11.2568C5.56314 11.2568 5.52474 11.3053 5.50106 11.4198C5.47738 11.5344 5.48748 11.5208 5.46804 11.6024C5.44858 11.6839 5.2096 12.4956 5.2992 12.7694C5.3888 13.0431 5.54394 13.1441 5.64096 13.3654C5.66042 13.414 5.67936 13.4431 5.68948 13.4859C5.7225 13.6295 5.69344 13.7402 5.73222 13.884C5.7458 13.9325 5.78086 13.9888 5.83322 14.047C5.94842 14.1674 6.1362 14.2819 6.21722 14.3635C6.33164 14.4839 6.49484 14.7286 6.7026 14.7518C6.81332 14.7654 6.97062 14.7188 7.10068 14.6412C7.21588 14.5693 7.28704 14.4684 7.40788 14.4108C7.49324 14.3681 7.58452 14.3526 7.66604 14.3331C7.835 14.3001 7.98848 14.2947 8.07974 14.3137C8.21952 14.3429 8.54964 14.4438 8.73254 14.4438C8.87548 14.4415 9.0176 14.422 9.15584 14.3856C9.43348 14.3041 9.76934 14.1642 9.99078 14.1021C10.1208 14.0637 10.2257 14.0536 10.3325 14.0303C10.5151 13.9875 10.6684 13.9293 10.7558 13.8186C10.6976 13.7506 10.6258 13.6458 10.2373 13.6496C9.7966 13.6593 9.2878 13.9039 9.03732 13.9429C8.78682 13.9818 8.67814 14.0147 8.39846 13.9137C8.12428 13.8117 8.1152 13.7442 8.1152 13.7442C8.1152 13.7442 7.82732 13.5429 7.70688 13.0296C7.58644 12.5163 7.70688 12.1423 8.01958 11.7868C8.10112 11.6956 8.08166 11.614 8.08166 11.614C8.08166 11.614 8.28748 11.3364 8.23116 11.0764C8.16908 10.8181 7.771 10.8706 7.771 10.8706L5.56326 11.2568H5.56314Z" fill="#6E6342"/>
<path fill-rule="evenodd" clip-rule="evenodd" d="M5.89516 12.1201C5.87804 12.1523 5.87 12.1886 5.87188 12.225C5.87572 12.2773 5.89132 12.3453 6.04852 12.4988C6.18252 12.6326 6.15334 12.7821 6.15334 12.7821C6.15334 12.7821 6.2208 12.7957 6.40384 12.7101C6.54758 12.6421 6.59584 12.7626 6.59584 12.7626C6.63768 12.7406 6.68304 12.7261 6.72986 12.7198C6.77228 12.7159 6.81334 12.7028 6.85018 12.6814C6.85018 12.6814 7.01914 12.8542 7.16672 12.9357C7.30074 13.0077 7.37844 13.0562 7.44448 13.0077C7.50656 12.9649 7.50656 12.8775 7.5026 12.8387C7.4872 12.8029 7.46768 12.769 7.44448 12.7377C7.40172 12.6756 7.33376 12.6037 7.32928 12.5457C7.31956 12.4118 7.43028 12.2525 7.40684 12.2137C7.38342 12.1749 7.29626 12.1652 7.0807 12.2429C6.85748 12.3166 5.89428 12.1205 5.89428 12.1205L5.89516 12.1201Z" fill="#39331F"/>
<path fill-rule="evenodd" clip-rule="evenodd" d="M6.40386 12.9887C6.40386 12.9887 6.29326 12.8839 6.33204 12.3751C6.379 12.3744 6.42588 12.3789 6.47182 12.3886C6.47182 12.3886 6.53212 12.7829 6.40386 12.9887Z" fill="#292311"/>
<path fill-rule="evenodd" clip-rule="evenodd" d="M5.61564 10.8676C5.63108 10.8562 5.64538 10.8434 5.6584 10.8292C5.62 10.9011 5.44272 11.1884 5.58646 11.6409C5.7302 12.0913 6.0913 12.4272 6.53596 12.4428C6.98064 12.4584 7.21436 12.2408 7.48162 11.9147C7.58646 11.7846 7.7069 11.6214 7.81366 11.5108C7.9729 11.3379 8.09718 11.2894 8.09718 11.1225C8.09718 10.7807 7.74762 10.6273 7.23306 10.4739C6.7185 10.3206 6.25436 10.3395 6.0136 10.4445C5.77872 10.5589 5.67772 10.6794 5.61552 10.8678L5.61564 10.8676Z" fill="#252211"/>
<path fill-rule="evenodd" clip-rule="evenodd" d="M7.26796 13.1417L7.30636 13.1222C7.30636 13.1222 7.31596 12.9686 7.37818 12.9727C7.44026 12.9825 7.46944 13.0641 7.46354 13.0932C7.4597 13.1222 7.44422 13.1709 7.38202 13.165C7.30048 13.1669 7.26758 13.1417 7.26758 13.1417H7.26796Z" fill="#3F3824"/>
<path fill-rule="evenodd" clip-rule="evenodd" d="M7.09515 12.4891C7.09515 12.4891 7.13355 12.4756 7.18053 12.5222C7.21893 12.5222 7.38635 12.5027 7.43883 12.5357C7.49131 12.5688 7.50681 12.5978 7.50681 12.5978C7.50681 12.5978 7.31071 12.6406 7.20383 12.5978C7.09515 12.5609 7.09515 12.4891 7.09515 12.4891Z" fill="#2D2815"/>
<path fill-rule="evenodd" clip-rule="evenodd" d="M7.95931 12.5189C7.95931 12.5091 7.85447 12.4373 7.74375 12.4139C7.72431 12.4101 7.72033 12.4236 7.70535 12.4236C7.69563 12.4198 7.69179 12.3906 7.69179 12.3906L7.62881 12.4238C7.62881 12.4238 7.61909 12.4373 7.65211 12.4622C7.68117 12.4855 7.72981 12.5049 7.74337 12.5437C7.75695 12.5825 7.75695 12.5961 7.76283 12.6019C7.76667 12.6058 7.83463 12.6019 7.86767 12.5825C7.90069 12.563 7.96289 12.5313 7.95893 12.5185L7.95931 12.5189Z" fill="#82764F"/>
<path fill-rule="evenodd" clip-rule="evenodd" d="M6.97867 12.9128C6.97867 12.9128 6.99801 12.7789 7.12819 12.773C7.26207 12.7633 7.28741 12.8933 7.28741 12.8933L7.20971 12.971C7.20971 12.9691 7.15147 12.8875 6.97931 12.9128H6.97867Z" fill="#2D2816"/>
<path fill-rule="evenodd" clip-rule="evenodd" d="M7.82338 12.3358C7.82338 12.3358 7.75144 12.4135 7.59234 12.4368C7.57876 12.4173 7.54958 12.3785 7.59234 12.3164C7.63508 12.2544 7.6836 12.2349 7.7321 12.2542C7.77582 12.2613 7.81142 12.2931 7.82338 12.3358Z" fill="#574F35"/>
<path fill-rule="evenodd" clip-rule="evenodd" d="M8.11647 12.4312C8.12045 12.4118 8.10687 12.4079 8.11647 12.3982C8.12607 12.3885 8.17869 12.3692 8.18841 12.3788C8.19225 12.3827 8.18841 12.3982 8.18841 12.4172C8.18841 12.4361 8.18841 12.4556 8.17869 12.4695C8.16511 12.489 8.12633 12.4987 8.10687 12.4929C8.08743 12.4872 8.08359 12.4599 8.08359 12.4545C8.09319 12.4507 8.11647 12.441 8.11647 12.4312ZM8.44799 12.2216C8.44799 12.2118 8.48103 12.1924 8.50047 12.1924C8.52953 12.1924 8.52953 12.2157 8.53351 12.2216C8.54311 12.2254 8.54311 12.2176 8.55283 12.2351C8.56255 12.2527 8.57625 12.2837 8.56639 12.3031C8.55655 12.3226 8.51789 12.336 8.50829 12.3322C8.49471 12.3224 8.45197 12.2351 8.44799 12.2216Z" fill="#82764F"/>
<path fill-rule="evenodd" clip-rule="evenodd" d="M7.78061 12.4757C7.78061 12.4757 7.82335 12.4853 7.88159 12.534C7.86215 12.5475 7.83295 12.563 7.83295 12.563C7.83295 12.563 7.82911 12.5183 7.78061 12.4756V12.4757Z" fill="#6E6342"/>
<path fill-rule="evenodd" clip-rule="evenodd" d="M7.6855 12.0489C7.67576 12.0393 7.71456 12.016 7.73784 12.0198C7.76114 12.0237 7.77088 12.0393 7.79608 12.0431C7.8213 12.047 7.82528 12.0334 7.83448 12.0237C7.8437 12.0139 7.87724 12.0198 7.883 12.0237C7.88658 12.0279 7.88984 12.0325 7.89272 12.0372C7.89354 12.0223 7.90056 12.0084 7.91206 11.9988C7.92714 11.9878 7.94648 11.9842 7.96454 11.9891C7.96838 12.0027 7.98784 12.0512 7.984 12.0609C7.98016 12.0706 7.92192 12.0843 7.91206 12.0745C7.92178 12.0979 7.96454 12.1464 7.9703 12.156C7.97606 12.1656 7.92754 12.189 7.90822 12.1852C7.88108 12.1833 7.71404 12.0861 7.68498 12.0493L7.6855 12.0489ZM7.93984 11.7266C7.93624 11.7168 7.92936 11.7086 7.92038 11.7033C7.9068 11.6994 7.86214 11.7033 7.86214 11.7266C7.86214 11.7499 7.90054 11.8802 7.94368 11.948C7.99232 12.016 8.0252 12.0722 8.05824 12.0878C8.07974 12.0976 8.10516 12.0891 8.11648 12.0683C8.12032 12.0586 8.13004 11.9868 8.1262 11.8178C8.12236 11.6489 8.11648 11.4858 8.10674 11.4761C8.09702 11.4664 8.05824 11.4665 8.04466 11.4858C8.0311 11.5051 7.94368 11.6975 7.9397 11.7266H7.93984Z" fill="#585136"/>
<path fill-rule="evenodd" clip-rule="evenodd" d="M7.76704 12.72C7.76704 12.72 7.69906 12.6773 7.63302 12.7065C7.57094 12.7357 7.57478 12.8502 7.57478 12.8502C7.60314 12.8613 7.63514 12.8577 7.66028 12.8405C7.70304 12.8114 7.7573 12.7629 7.76704 12.7202V12.72Z" fill="#574F35"/>
<path fill-rule="evenodd" clip-rule="evenodd" d="M7.89515 12.8741C7.89131 12.8357 7.85675 12.8357 7.85675 12.8158C7.86165 12.7963 7.87925 12.7827 7.89937 12.7828C7.91883 12.7828 7.93777 12.8061 7.96159 12.8212C7.98489 12.8348 8.01983 12.8596 8.02367 12.8892C8.02751 12.9188 7.98527 12.9998 7.93829 12.9998C7.89131 12.9998 7.90527 12.9124 7.89553 12.8736L7.89515 12.8741ZM8.26993 12.8216C8.26993 12.8216 8.19225 12.8449 8.19801 12.8216C8.20377 12.7983 8.22143 12.7925 8.24665 12.7925C8.25945 12.7791 8.27669 12.7708 8.29515 12.7691C8.30571 12.7686 8.31609 12.7721 8.32421 12.7789C8.32421 12.7789 8.37669 12.7556 8.39217 12.7691C8.40767 12.7827 8.39615 12.7827 8.40575 12.7983C8.41797 12.8156 8.42599 12.8356 8.42917 12.8565C8.42917 12.872 8.37093 12.9051 8.32421 12.8993C8.26993 12.8877 8.27953 12.8313 8.26993 12.8216ZM8.72229 12.7342C8.72229 12.7342 8.74559 12.7477 8.72625 12.7634C8.71269 12.7769 8.64473 12.8018 8.58635 12.8061C8.52811 12.8061 8.47577 12.8157 8.47577 12.7964C8.47577 12.7771 8.52427 12.7381 8.55333 12.7284C8.56513 12.7136 8.58305 12.7051 8.60197 12.7051C8.62527 12.7051 8.71641 12.6954 8.74175 12.6916C8.76505 12.6876 8.78449 12.7012 8.77081 12.7206C8.76505 12.7342 8.72229 12.7342 8.72229 12.7342ZM8.85631 12.1346C8.85631 12.1346 8.82713 12.1967 8.79423 12.1967C8.76121 12.1929 8.76121 12.1831 8.76121 12.1734C8.76121 12.1598 8.79423 12.1249 8.79025 12.1152C8.78065 12.1152 8.75723 12.1152 8.76121 12.0919C8.76121 12.0724 8.79423 12.0491 8.82329 12.0535C8.84523 12.0354 8.87257 12.0252 8.90097 12.0244C8.93401 12.0244 8.96305 12.034 8.96305 12.0535C8.96305 12.0729 8.92465 12.1156 8.91057 12.1254C8.89509 12.1409 8.87563 12.151 8.85631 12.135V12.1346ZM8.41355 13.2821C8.41355 13.2821 8.37515 13.2861 8.37515 13.3054C8.37515 13.3152 8.38475 13.3152 8.39845 13.3094C8.40633 13.309 8.41415 13.3076 8.42175 13.3054C8.42559 13.3094 8.42559 13.3287 8.45477 13.3287C8.47873 13.3255 8.50183 13.3176 8.52273 13.3054C8.54603 13.2958 8.56549 13.286 8.56549 13.267C8.55577 13.234 8.53631 13.2184 8.50725 13.2184C8.49235 13.2175 8.47751 13.2208 8.46449 13.2281C8.46449 13.2281 8.45477 13.2087 8.42175 13.2281C8.38873 13.2476 8.39257 13.2476 8.40229 13.2573C8.41969 13.2728 8.41393 13.2829 8.41393 13.2829L8.41355 13.2821ZM8.19417 13.4841C8.19417 13.4744 8.24267 13.4549 8.25625 13.4608C8.26981 13.4647 8.30859 13.5384 8.30859 13.5462C8.30859 13.5559 8.26009 13.5792 8.24063 13.5792C8.22117 13.5792 8.18827 13.5462 8.18827 13.5408C8.18827 13.537 8.21157 13.5312 8.21157 13.5273C8.21733 13.5177 8.19417 13.4942 8.19417 13.4845V13.4841ZM8.04057 13.2006C8.05029 13.1968 8.05029 13.187 8.06385 13.1773C8.07247 13.1716 8.08325 13.1702 8.09305 13.1735C8.09997 13.1611 8.11209 13.1525 8.12607 13.1501C8.14937 13.1462 8.16881 13.1501 8.16447 13.1598C8.16447 13.189 8.18393 13.2083 8.18393 13.2316C8.18393 13.2549 8.17035 13.2841 8.12185 13.3035C8.07333 13.3171 8.00729 13.3171 7.99755 13.3133C7.98783 13.3094 7.97809 13.2705 7.98783 13.251C7.99755 13.2316 8.02469 13.2103 8.04031 13.2006H8.04057Z" fill="#82764F"/>
<path fill-rule="evenodd" clip-rule="evenodd" d="M8.10239 13.2139C8.10239 13.2139 8.06936 13.2333 8.06936 13.243C8.06644 13.2524 8.06514 13.2623 8.06552 13.2721C8.06552 13.2779 8.10829 13.2683 8.11405 13.2624C8.11597 13.2585 8.10239 13.224 8.10239 13.2139Z" fill="#6E6342"/>
<path fill-rule="evenodd" clip-rule="evenodd" d="M7.81364 13.1225C7.83296 13.1264 7.86598 13.1225 7.8912 13.1322C7.91066 13.1419 7.92422 13.1614 7.90478 13.1847C7.88532 13.208 7.86638 13.2429 7.82324 13.237C7.77472 13.2332 7.72814 13.208 7.72814 13.1885C7.72648 13.1636 7.73488 13.1392 7.75142 13.1205C7.77088 13.1051 7.78048 13.1148 7.8135 13.1225H7.81364Z" fill="#585136"/>
<path fill-rule="evenodd" clip-rule="evenodd" d="M7.79032 13.1416C7.79032 13.1416 7.72824 13.1901 7.71262 13.2135C7.69318 13.2368 7.59806 13.3571 7.56902 13.3824C7.57866 13.3653 7.58966 13.3491 7.6019 13.3339C7.5635 13.3584 7.53472 13.3954 7.52038 13.4387C7.49708 13.5106 7.65054 13.5494 7.75142 13.5786C7.85228 13.6078 7.89132 13.617 7.89132 13.617C7.85418 13.5612 7.8223 13.502 7.79608 13.4403C7.75768 13.3491 7.73784 13.3394 7.76306 13.2966C7.78252 13.2539 7.8117 13.2248 7.8117 13.1918C7.80006 13.1611 7.79032 13.1416 7.79032 13.1416Z" fill="#574F35"/>
<path fill-rule="evenodd" clip-rule="evenodd" d="M5.57671 13.2949C5.59083 13.2975 5.60533 13.2975 5.61945 13.2949C5.64851 13.2909 5.95149 13.1797 6.26803 13.1997C6.50501 13.214 6.73987 13.2526 6.96897 13.3149C7.36705 13.4197 7.86215 13.6274 8.18253 13.746C8.26791 13.7789 8.35149 13.8372 8.41293 13.8604C8.65767 13.9556 8.66727 13.9556 8.81101 13.9808C8.97997 14.0041 9.15277 13.9478 9.33337 13.909C9.55469 13.8604 9.93331 13.8371 10.2653 13.7886C10.3727 13.7737 10.4786 13.7497 10.5819 13.7168C10.5819 13.7168 10.3178 13.9808 9.68473 14.0759C9.42885 14.1148 9.16879 14.1181 8.91201 14.0857C8.71001 14.0662 8.57613 14.037 8.47513 14.008C8.36057 13.9749 8.12557 13.8875 7.83629 13.816C7.63431 13.7635 7.40903 13.7247 7.15085 13.6762C6.51393 13.5596 5.82273 13.4257 5.57645 13.2957L5.57671 13.2949Z" fill="#252211"/>
<path fill-rule="evenodd" clip-rule="evenodd" d="M4.86208 12.0957C4.70848 12.2257 4.54554 12.35 4.38644 12.4703L3.90682 12.8389C3.74376 12.9592 3.58452 13.0835 3.42132 13.2039C3.25812 13.3244 3.09518 13.4388 2.92212 13.5495C3.07572 13.4195 3.23866 13.299 3.40174 13.1806C3.5648 13.0622 3.7339 12.9461 3.8912 12.8261L4.37082 12.457C4.53582 12.3367 4.69504 12.2124 4.86208 12.0959V12.0957ZM4.01358 13.4549C4.01358 13.4549 4.18638 13.3112 4.40192 13.1093C4.66984 12.859 4.99802 12.5384 5.10286 12.4803L4.01344 13.4551L4.01358 13.4549Z" fill="#CFB66C"/>
<path fill-rule="evenodd" clip-rule="evenodd" d="M4.01358 13.4543C4.09908 13.3689 4.19034 13.2854 4.2816 13.2038L4.42138 13.0835C4.46414 13.0451 4.51278 13.0019 4.5554 12.9592C4.64078 12.8738 4.72436 12.7824 4.80974 12.6951C4.85206 12.6512 4.8968 12.6097 4.94376 12.5708C4.96722 12.55 4.9933 12.5324 5.02132 12.5183C5.04474 12.5048 5.06996 12.4799 5.10286 12.4756C5.08352 12.5048 5.06024 12.5183 5.04078 12.5436C5.01748 12.563 4.99802 12.5863 4.9787 12.6056C4.93594 12.6484 4.88744 12.6872 4.84468 12.7261C4.75342 12.8038 4.65832 12.8797 4.56704 12.961C4.47578 13.0422 4.3904 13.1299 4.29902 13.2115C4.20008 13.295 4.1088 13.3766 4.01358 13.4547V13.4543ZM5.1748 12.6776C5.1748 12.6776 4.54184 13.2971 4.41166 13.398L5.1748 12.6776Z" fill="#CFB66C"/>
<path fill-rule="evenodd" clip-rule="evenodd" d="M5.17479 12.6777C5.11785 12.7437 5.05681 12.8059 4.99201 12.8641L4.80001 13.0466C4.73793 13.1087 4.67955 13.1709 4.61363 13.233C4.54567 13.2912 4.48359 13.3482 4.41165 13.402L4.59803 13.2194C4.66023 13.1574 4.72819 13.105 4.79425 13.0428L4.98061 12.8603C5.04461 12.7963 5.10683 12.7341 5.17479 12.6777ZM5.20385 13.0136C5.14551 13.1764 5.07675 13.3354 4.99803 13.4894C4.83495 13.8157 4.59035 14.2233 4.48347 14.4312L5.20385 13.0136Z" fill="#CFB66C"/>
<path fill-rule="evenodd" clip-rule="evenodd" d="M5.20384 13.0137C5.20384 13.0855 5.18438 13.1477 5.16108 13.2098C5.13838 13.2719 5.11248 13.3328 5.08352 13.3923C5.05434 13.4505 5.02132 13.5127 4.98828 13.5691C4.95526 13.6254 4.91648 13.6835 4.8873 13.7419L4.6912 14.0875C4.62324 14.2027 4.55718 14.3185 4.48538 14.4292C4.53388 14.3049 4.59994 14.1885 4.66214 14.0739C4.73012 13.9587 4.7922 13.8435 4.85414 13.7243C4.8844 13.6649 4.9116 13.6041 4.93568 13.5419C4.96474 13.4797 4.9938 13.4215 5.01722 13.3652C5.04628 13.3031 5.06956 13.2447 5.09876 13.1885C5.13164 13.1282 5.15892 13.07 5.20358 13.0137H5.20384Z" fill="#CFB66C"/>
<path fill-rule="evenodd" clip-rule="evenodd" d="M5.89516 14.6055C5.89516 14.6055 5.70316 14.8598 5.72236 15.1821C5.7747 15.0133 5.84076 14.755 5.89516 14.6055ZM6.07768 14.8604C6.07768 14.8604 6.00972 15.5516 5.9534 15.8915C6.033 15.4986 6.0485 15.5317 6.07768 14.8604ZM7.34948 15.9323C7.34948 15.9323 7.06212 16.7771 7.05624 17.0119C7.11844 16.7705 7.23876 16.2773 7.34948 15.9317V15.9323Z" fill="#DEC270"/>
<path fill-rule="evenodd" clip-rule="evenodd" d="M8.02136 14.5537C8.02136 14.5537 8.48742 15.3226 8.83698 15.9789C8.7424 15.6486 8.5248 15.0429 8.02136 14.5537Z" fill="#CBAF59"/>
<path fill-rule="evenodd" clip-rule="evenodd" d="M9.27386 15.6855C9.52974 16.1379 9.76048 16.6039 9.96506 17.0816C9.92626 16.7515 9.8213 16.1865 9.27386 15.6855Z" fill="#E3C677"/>
<path fill-rule="evenodd" clip-rule="evenodd" d="M12.9554 16.8192C13.033 16.7707 13.1864 16.5065 13.3204 16.4405C13.4543 16.3726 13.5553 16.359 13.6758 16.225C13.7961 16.0851 13.8294 15.9997 14.0932 15.8891C14.4622 15.7298 14.2084 15.5239 14.2084 15.5239C14.249 15.484 14.2925 15.4471 14.3384 15.4133C14.4337 15.3415 14.5443 15.2541 14.5347 15.1006C14.5211 14.8425 14.4726 14.4677 14.2609 14.2502C14.4667 14.2075 14.8608 14.1784 15.1057 14.1163C15.3891 14.0444 15.5192 13.9434 15.5192 13.9434C15.5192 13.9434 15.3562 13.6658 15.6202 13.3862C15.8843 13.1067 16.0998 12.9396 16.2591 12.6269C16.0765 12.6036 15.7983 12.5066 15.0881 12.7764C15.1265 12.7945 15.1635 12.8152 15.1988 12.8385C15.1988 12.8385 14.762 12.9589 14.6028 13.093C14.325 13.3278 14.29 13.5201 13.9891 13.6638C13.6882 13.8076 13.3852 13.7687 13.1348 13.8852C12.8845 14.0016 12.8475 14.1007 12.7561 14.1435C12.7756 14.1668 12.7523 14.2055 12.7891 14.2386C12.7658 14.2716 12.6299 14.4929 12.492 14.4929C12.5056 14.5454 12.6221 14.5842 12.6221 14.5842C12.6221 14.5842 12.5367 14.6464 12.3192 14.6619C12.4298 14.7771 12.5348 14.9026 12.8241 15.0852C12.8008 15.1337 12.7036 15.2056 12.7425 15.2969C12.7853 15.3881 12.8961 15.5124 13.3386 15.6134C13.1133 15.623 12.8494 15.6755 12.4938 15.627C12.1385 15.5842 12.0803 15.559 11.8609 15.6134C11.8842 15.6367 11.9462 15.6367 12.0006 15.6988C11.9424 15.7026 11.5773 15.656 11.4531 15.8192C11.323 15.9881 11.2667 16.2658 11.2764 16.4522C11.2084 16.4852 11.1424 16.5435 11.1754 16.6639C11.2084 16.7844 11.3812 16.8231 11.492 16.8988C11.6026 16.9803 11.6123 17.0094 11.7172 16.99C11.8278 16.9668 11.9909 16.8562 12.0861 16.8562C12.1814 16.8562 12.2492 16.928 12.2492 16.928C12.2492 16.928 12.5075 16.8037 12.5327 16.827C12.556 16.8503 12.5366 16.9998 12.5618 17.0231C12.5874 17.0406 12.8783 16.8678 12.956 16.8192H12.9554Z" fill="#ECD592"/>
<path fill-rule="evenodd" clip-rule="evenodd" d="M18.6001 9.04854C17.3865 5.9146 14.3864 5.33398 14.3864 5.33398H5.82721L5.86023 8.52618H7.56481V15.6544H5.82709V18.8408H14.1495C16.1553 18.8408 17.7631 16.8252 17.7631 16.8252C20.3378 13.1709 18.5999 9.04854 18.5999 9.04854H18.6001ZM14.1942 14.6776C14.1942 14.6776 13.5414 15.6194 12.8311 15.6194H11.4103L11.3766 8.53398H13.2C13.2 8.53398 14.0448 8.71062 14.635 10.3824C14.635 10.3824 15.4175 12.776 14.1942 14.6776Z" fill="white" fill-opacity="0.8"/>
</svg>