<svg width="24" height="24" viewBox="0 0 24 24" fill="none" xmlns="http://www.w3.org/2000/svg">
<path d="M12 24C18.6274 24 24 18.6274 24 12C24 5.37258 18.6274 0 12 0C5.37258 0 0 5.37258 0 12C0 18.6274 5.37258 24 12 24Z" fill="#EDF0F4"/>
<path d="M12.0516 4C8.715 4.0134 6.0134 6.715 6 10.0516C6 10.7198 6.10786 11.3836 6.31912 12.0173C6.47676 12.4488 6.94456 12.6811 7.38366 12.5477C7.80808 12.385 8.03338 11.921 7.89808 11.487C7.71874 10.993 7.63896 10.469 7.66256 9.9444C7.73532 7.53448 9.74764 5.6396 12.1576 5.71236C14.5675 5.7851 16.4624 7.79742 16.3896 10.2073C16.3213 12.4635 14.5445 14.2958 12.291 14.433C12.291 14.433 11.4415 14.4847 11.019 14.5364C10.8633 14.5587 10.7088 14.5894 10.5563 14.6283C10.5346 14.6507 10.4995 14.6507 10.4771 14.629L10.4765 14.6283C10.4612 14.6085 10.4612 14.5804 10.4765 14.5607L10.608 13.8433L11.4057 10.2552C11.5015 9.80718 11.2162 9.36618 10.7682 9.27044C10.3201 9.1747 9.87912 9.46 9.78338 9.90802C9.78338 9.90802 7.88594 18.6906 7.88594 18.7704C7.77744 19.1973 8.0353 19.6313 8.46226 19.7398C8.46672 19.7411 8.47184 19.7424 8.4763 19.743H8.52034C8.94668 19.8534 9.38194 19.5969 9.49172 19.1705C9.49362 19.1635 9.49554 19.1565 9.49682 19.1488C9.49554 19.1354 9.49554 19.122 9.49682 19.1093C9.52044 19.0059 9.75976 17.8373 9.75976 17.8373C9.94102 16.9553 10.652 16.2794 11.5417 16.1428C11.7249 16.1147 12.4945 16.063 12.4945 16.063C15.8184 15.7318 18.2443 12.7685 17.9124 9.44468C17.6099 6.41312 15.0985 4.07914 12.0516 4Z" fill="#1E1E1E"/>
<path d="M12.4186 17.953C11.8729 17.8394 11.3394 18.1898 11.2258 18.7348C11.2245 18.7399 11.2239 18.745 11.2226 18.7502C11.1045 19.292 11.4479 19.8275 11.9904 19.9455C11.991 19.9455 11.9916 19.9455 11.9923 19.9462H12.0204C12.5514 20.0744 13.0856 19.7477 13.2132 19.2173C13.2145 19.2135 13.2151 19.209 13.2164 19.2052V19.1497C13.3102 18.6021 12.9605 18.0768 12.4186 17.953Z" fill="#E6007A"/>
</svg>