<svg width="24" height="24" viewBox="0 0 24 24" fill="none" xmlns="http://www.w3.org/2000/svg">
<path d="M23.1545 16.0585C23.0344 15.9651 22.9251 15.8587 22.8286 15.7411C22.4803 15.2763 22.3385 14.723 22.1758 14.1817C22.131 14.0324 22.0056 13.8707 22.0847 13.7145C22.1688 13.5478 22.1619 13.3801 22.1713 13.2099C22.1907 12.8681 22.1121 12.5347 22.0798 12.1974C22.0798 12.178 22.0798 12.1585 22.0837 12.1391L22.1116 12.168C22.2559 12.1829 22.3669 12.2675 22.4838 12.3436C22.5539 12.3884 22.6296 12.4432 22.7037 12.363C22.7779 12.2829 22.7137 12.2138 22.6689 12.1441C22.4533 11.8144 22.2377 11.4842 22.022 11.1534C22.0146 11.1345 21.9962 11.1037 22.0026 11.0977C22.026 11.0684 22.0524 11.0843 22.0773 11.1047C22.1584 11.0932 22.2469 11.0927 22.2474 10.9743C22.2474 10.8693 22.1638 10.8519 22.0982 10.8464C21.6817 10.8136 21.4827 10.5141 21.2911 10.2026C21.2782 10.1852 21.2498 10.1593 21.2543 10.1528C21.2757 10.1175 21.307 10.1334 21.3359 10.1479C21.5663 10.2394 21.7951 10.3349 22.028 10.42C22.1141 10.4514 22.2131 10.5464 22.2987 10.4384C22.3843 10.3305 22.2838 10.2394 22.2325 10.1488C22.1753 10.0493 22.0504 9.94733 22.0623 9.86125C22.0773 9.75228 22.2519 9.77119 22.3524 9.72242C22.4181 9.69008 22.4684 9.65375 22.4644 9.57662C22.4594 9.49204 22.3888 9.47712 22.3241 9.4597C22.2002 9.42885 22.0753 9.39999 21.9156 9.36019C22.0599 9.22634 22.1783 9.11488 22.2987 9.00591C22.3589 8.95118 22.445 8.90888 22.3873 8.80688C22.334 8.71134 22.2445 8.7437 22.1648 8.75315C21.9947 8.77455 21.8245 8.79892 21.5847 8.83126C21.8011 8.55511 21.8081 8.23417 22.0584 8.03514C22.1474 7.96449 22.1867 7.84855 22.2037 7.72764C22.238 7.4903 21.9728 7.35396 22.0046 7.11313C22.0106 7.07283 21.9051 7.07582 21.8489 7.06985C21.714 7.05592 21.5782 7.04946 21.3946 7.03652C21.4727 6.97681 21.5105 6.94894 21.5473 6.92008C21.6115 6.87032 21.6966 6.83002 21.6593 6.72454C21.622 6.61905 21.5235 6.6494 21.4448 6.64741C21.3536 6.64333 21.2621 6.64599 21.1712 6.65537C21.0264 6.67428 20.9572 6.63597 20.9692 6.47226C20.9783 6.30644 20.976 6.14019 20.9622 5.97469C20.9513 5.79805 20.9244 5.62639 21.1757 5.59305C21.2538 5.5831 21.2752 5.50746 21.2632 5.43731C21.261 5.42275 21.2556 5.40886 21.2474 5.39665C21.2392 5.38443 21.2283 5.37419 21.2157 5.36667C21.203 5.35915 21.1888 5.35454 21.1742 5.35316C21.1595 5.35178 21.1447 5.35367 21.1309 5.3587C20.8652 5.48508 20.9284 5.2741 20.905 5.14772C20.8816 5.02133 20.9224 4.93078 21.0154 4.84022C21.1411 4.71902 21.241 4.57363 21.309 4.41281C21.3324 4.35808 21.3488 4.30185 21.304 4.24911C21.2845 4.2271 21.2581 4.21233 21.2291 4.20718C21.2001 4.20204 21.1702 4.20682 21.1443 4.22074C21.0378 4.26204 20.9159 4.36106 20.8249 4.3128C20.7194 4.25707 20.7567 4.08889 20.7099 3.97594C20.6851 3.91523 20.6671 3.85105 20.6443 3.78885C20.4875 3.36641 20.2726 3.21813 19.8208 3.21415C19.5641 3.21955 19.3085 3.24802 19.057 3.29923C18.9187 3.32262 18.7584 3.4102 18.6495 3.36741C18.5002 3.30919 18.5997 3.09822 18.5365 2.96935C18.5271 2.94649 18.5198 2.92284 18.5146 2.89868C18.329 2.30906 17.9175 1.91896 17.3926 1.62887C17.0204 1.42288 16.6184 1.29301 16.2114 1.18105C16.1143 1.15419 15.9934 1.09945 15.9412 1.2542C15.8954 1.38804 15.9964 1.42586 16.088 1.46865C16.1327 1.48955 16.1775 1.51195 16.2208 1.53633C16.5559 1.71867 16.8501 1.9677 17.0852 2.26806C17.3204 2.56843 17.4915 2.91377 17.5881 3.28281C17.6225 3.40521 17.6503 3.5316 17.5881 3.66446C17.4991 3.59927 17.507 3.51966 17.4886 3.45149C17.1737 2.38021 16.5084 1.66918 15.3988 1.41492C14.7793 1.27312 14.1494 1.2756 13.5195 1.27859C12.8726 1.28207 12.2283 1.24674 11.5959 1.08901C11.3388 1.02422 11.0865 0.942102 10.8405 0.843212C10.7579 0.809874 10.6604 0.753151 10.5942 0.855651C10.5136 0.980542 10.641 1.02781 10.7092 1.08901C10.7727 1.14167 10.8391 1.19068 10.9082 1.23579C11.1525 1.41094 11.4247 1.5408 11.7272 1.70351C11.3834 1.70351 11.0863 1.73038 10.7953 1.69854C9.78567 1.58858 9.34482 1.15816 9.18958 0.160031C9.17863 0.0893753 9.16918 0.0237038 9.09255 0.00678625C8.98408 -0.0170973 8.95323 0.0749554 8.91342 0.145113C8.53228 0.82281 8.24816 1.52936 8.28747 2.34588C8.23408 2.33258 8.18157 2.31597 8.13024 2.29613C7.85381 2.15748 7.6377 1.92242 7.5227 1.63535C7.43712 1.43632 7.36099 1.42885 7.22416 1.59205C7.1744 1.64877 7.13609 1.71197 7.09329 1.77318C6.87386 2.08814 6.76191 2.44739 6.67682 2.85789C6.45291 2.53198 6.38873 2.20408 6.35987 1.86274C6.3529 1.77766 6.38972 1.6637 6.26035 1.64181C6.13944 1.62091 6.11407 1.73187 6.07376 1.808C5.91743 2.09131 5.80708 2.39765 5.74686 2.71558C5.71451 2.90068 5.74984 3.17235 5.64236 3.24997C5.53489 3.32759 5.28461 3.22211 5.09503 3.20021C4.32329 3.11463 4.0352 3.31367 3.84861 4.06301C3.70972 4.61756 3.61637 5.18253 3.56947 5.75228C3.56921 5.82086 3.5499 5.88801 3.5137 5.94626C3.47751 6.00451 3.42584 6.05156 3.36447 6.08216C2.7002 6.46679 2.00161 6.57228 1.25773 6.37175C1.17961 6.35085 1.07114 6.28567 1.01591 6.40459C0.96914 6.5041 1.05273 6.5693 1.11294 6.63945C1.17315 6.70961 1.2846 6.73896 1.29605 6.85639C1.20648 6.89769 1.07612 6.80663 1.03283 6.93898C0.992526 7.06188 1.10199 7.11712 1.17414 7.17732C1.5518 7.49229 1.98817 7.67043 2.47182 7.759C2.79872 7.8192 3.12314 7.74108 3.49334 7.759C3.31222 8.0257 3.15847 8.25657 2.99875 8.48644C2.74996 8.84221 2.71065 9.23281 2.78181 9.64978C2.81415 9.83687 2.90023 10.0115 2.90321 10.2066C2.91167 10.7285 2.93904 11.254 2.85744 11.7704C2.74001 12.5168 2.44943 13.182 1.87025 13.6936C1.79611 13.7587 1.6752 13.807 1.77073 13.9214C1.85333 14.021 1.95086 13.9473 2.03296 13.8896C2.22701 13.7548 2.35787 13.5587 2.5365 13.3328C2.44097 13.8199 2.35737 14.2469 2.27328 14.6738C2.16481 15.2211 1.91055 15.6829 1.45079 16.0172C1.3876 16.063 1.32789 16.1108 1.35128 16.1993C1.37914 16.2989 1.46721 16.2725 1.53737 16.274C1.59662 16.2722 1.65574 16.2674 1.71451 16.2595C1.58713 16.4088 1.65729 16.4914 1.77621 16.57C1.88315 16.6331 1.99724 16.6832 2.11605 16.7193C2.16133 16.7357 2.2504 16.7233 2.21059 16.8188C2.15586 16.9527 2.25089 17.0412 2.3101 17.1348C2.68596 17.7113 3.11942 18.2481 3.6038 18.737C4.44587 19.6048 5.39138 20.3658 6.41908 21.0029C6.48078 21.0412 6.52457 21.0711 6.5375 21.1024C6.75246 21.2711 7.27391 21.6319 8.20338 22.01C9.48165 22.5295 10.1842 22.6569 10.5211 22.839C10.8274 23.0025 11.122 23.1871 11.4028 23.3913C11.411 23.398 11.4196 23.4042 11.4287 23.4097C11.5626 23.4917 11.6833 23.5937 11.7864 23.7122C11.9655 23.9013 12.0044 23.8933 12.1014 23.6455C12.1411 23.6651 12.1762 23.6931 12.2041 23.7274C12.2321 23.7618 12.2524 23.8017 12.2636 23.8446C12.2696 23.8773 12.2842 23.9078 12.3059 23.933C12.3275 23.9582 12.3556 23.9771 12.387 23.9879C12.5258 24.0506 12.7049 23.8456 12.8278 23.6958L12.8303 23.6928C13.0379 23.446 13.2903 23.2407 13.5742 23.0878C13.8322 22.9246 14.109 22.7934 14.3987 22.6972C15.3824 22.3742 16.5482 21.8403 16.9139 21.6717C17.2677 21.5085 18.643 20.6268 18.7286 20.572H18.7326C20.0661 19.6266 21.2533 18.532 22.1658 17.1592C22.2156 17.0835 22.3151 16.9751 22.2902 16.9263C22.1653 16.6546 22.4077 16.6775 22.5271 16.6019C22.6231 16.5407 22.749 16.5282 22.8211 16.4272C22.8567 16.3728 22.9031 16.3262 22.9575 16.2905C23.0118 16.2548 23.073 16.2307 23.1371 16.2197C23.2834 16.1924 23.2306 16.1242 23.1545 16.0585ZM1.34381 6.88923C1.33088 6.88923 1.31943 6.87282 1.30749 6.86386C1.32483 6.85411 1.34319 6.84625 1.36222 6.84046C1.3667 6.84046 1.37665 6.85938 1.38412 6.87032C1.37019 6.87779 1.35625 6.89022 1.34381 6.88923ZM22.4002 16.0506C22.4422 16.0783 22.4859 16.1034 22.5311 16.1257C22.4853 16.2411 22.4091 16.1685 22.3375 16.158C22.2126 16.1391 22.1012 16.2272 22.1842 16.3178C22.2788 16.4208 22.2539 16.4501 22.2066 16.467C22.1983 16.4696 22.1898 16.4715 22.1813 16.473L22.142 16.4815C22.1305 16.4838 22.1194 16.4878 22.1091 16.4934C22.1063 16.4952 22.1036 16.4972 22.1012 16.4994C22.0988 16.5012 22.0968 16.5033 22.0952 16.5058C22.1668 16.7392 22.032 16.9079 21.9146 17.0805C20.8906 18.5812 19.5531 19.7515 18.0404 20.7332C16.9736 21.4254 15.8183 21.9354 14.6256 22.3668C13.9558 22.6091 13.2896 22.8643 12.7726 23.3868C12.6801 23.4808 12.5955 23.5823 12.5024 23.6853C12.394 23.548 12.3333 23.3371 12.1103 23.3301C12.0019 23.3271 11.9964 23.4415 11.9934 23.5664C11.3963 22.9146 10.6266 22.6399 9.86479 22.3723C8.37206 21.8473 6.96243 21.1582 5.68516 20.2242C4.5069 19.3614 3.44607 18.3668 2.6181 17.1477C2.51859 16.9985 2.33847 16.8517 2.5161 16.6382C2.52213 16.6234 2.52433 16.6073 2.52251 16.5913C2.52068 16.5754 2.51489 16.5602 2.50565 16.5471C2.31608 16.4531 2.40614 16.3009 2.42206 16.165C2.35588 16.0988 2.26781 16.0973 2.17327 16.0939C2.22651 15.9655 2.47182 15.9645 2.38325 15.7784C2.31856 15.6426 2.21606 15.7694 2.13048 15.7839L2.06928 15.8212L2.01952 15.8386L2.0434 15.7938L2.09714 15.747C2.4549 15.2047 2.52904 14.5758 2.64746 13.9593C2.6975 13.6524 2.78594 13.353 2.91068 13.0681C3.04801 13.2438 3.02811 13.4388 3.06443 13.6154C3.1107 13.8423 3.15051 14.0707 3.19828 14.2976C3.21768 14.3902 3.21669 14.5161 3.36148 14.5001C3.49035 14.4867 3.46746 14.3713 3.47543 14.2857C3.53613 13.6259 3.58638 12.9651 3.65654 12.3063C3.71383 11.7132 3.80991 11.1245 3.94414 10.5439C3.98345 10.3817 4.02624 10.2145 4.12526 10.0847C4.26458 9.90155 4.24318 9.72789 4.18397 9.52687C3.63365 7.66196 3.59733 5.79208 4.14914 3.9207C4.26856 3.51667 4.45316 3.39675 4.85868 3.41864C5.65182 3.46144 5.67869 3.48682 5.84936 4.35957C6.08471 4.8646 6.48526 5.23281 6.88282 5.6035L6.8863 5.60749C6.88658 5.60584 6.88658 5.60415 6.8863 5.60251V5.60797L6.90869 5.63434H6.87735C6.88033 5.62638 6.88282 5.61743 6.8863 5.60897C6.8823 5.61841 6.87531 5.62629 6.8664 5.63137C6.85502 5.63569 6.84245 5.63569 6.83107 5.63137L6.81266 5.62539C6.26782 5.41342 5.80109 5.10244 5.48961 4.59143C5.43985 4.51182 5.41746 4.38096 5.28411 4.41778C5.12887 4.46057 5.20151 4.59442 5.20599 4.69095C5.21626 4.96429 5.26226 5.23511 5.34282 5.49652C5.56425 6.18367 6.06331 6.55138 6.78579 6.56482C6.89327 6.56482 7.00074 6.56482 7.10822 6.56183C7.38039 6.47177 7.6461 6.40658 7.91081 6.24786C8.15114 6.10356 8.55766 6.06724 8.89103 6.20358C8.96716 6.23443 9.04279 6.30309 9.10698 6.20358C9.16022 6.12148 9.12141 6.04833 8.9995 5.98514C9.41 6.0548 9.33188 5.85478 9.25526 5.64132C9.21346 5.52538 9.27068 5.4791 9.38114 5.53632C9.48364 5.58907 9.57669 5.66072 9.67969 5.71446C10.0718 5.92045 10.4922 5.9518 10.9764 5.92543L10.5743 5.59156L10.5833 5.53036C11.7043 5.73486 12.8224 5.78511 13.9872 5.54826C13.6827 5.38805 13.3717 5.34376 13.0826 5.15021C13.3423 5.10542 13.5513 5.18304 13.7608 5.22335C14.1265 5.29301 14.4888 5.3791 14.8654 5.35471C14.9475 5.34924 15.0475 5.37163 15.1043 5.31092C15.2605 5.14374 15.3744 5.22783 15.4929 5.35272C15.6113 5.47761 15.7491 5.61046 15.8695 5.7463C15.9272 5.81148 15.98 5.88165 16.073 5.85428C16.178 5.82293 16.1502 5.72442 16.1556 5.64431C16.1601 5.58111 16.1716 5.51841 16.183 5.43382C16.4542 5.91348 16.4542 5.91348 16.7572 5.69505C16.7846 5.82392 16.8328 5.94036 16.8288 6.0553C16.8199 6.31454 17.0557 6.39067 17.1727 6.55288C17.2249 6.62602 17.2916 6.55735 17.3498 6.53496C17.2782 6.33941 17.4026 6.20158 17.4871 6.04883C17.7817 5.51742 18.0713 4.98353 18.3629 4.45063C18.4256 4.22025 18.4942 3.99186 18.5475 3.75949C18.5529 3.72326 18.5703 3.6899 18.5969 3.66474C18.6235 3.63957 18.6578 3.62405 18.6943 3.62066C19.0716 3.52836 19.4574 3.47468 19.8456 3.46045C20.1591 3.45497 20.291 3.55499 20.4019 3.84905C20.584 4.33319 20.6288 4.8442 20.6701 5.34973C20.7059 5.78561 20.7089 6.22398 20.7343 6.66085C20.7433 6.8136 20.7035 6.8738 20.5427 6.83052C20.3522 6.78076 20.1586 6.73996 19.9661 6.69567C19.2923 6.56282 18.639 6.6922 17.9882 6.84943C17.9706 6.88745 17.964 6.92963 17.9691 6.97121C17.9742 7.01279 17.9908 7.05213 18.0171 7.08478C18.2514 7.35397 18.3654 7.69729 18.5848 7.97643C18.7641 8.21388 19.0023 8.40034 19.2759 8.5173C19.0769 8.55512 18.8709 8.53571 18.6878 8.62427C18.6166 8.65861 18.5211 8.67403 18.5241 8.78449C18.5271 8.87754 18.6047 8.90092 18.6704 8.93376L19.0724 9.13578C19.0525 9.19698 19.0072 9.16712 18.9769 9.16912C18.9127 9.17409 18.8391 9.1527 18.8072 9.2348C18.7754 9.3169 18.8241 9.37313 18.8833 9.42537C19.2323 9.73068 19.6082 10.0038 20.0064 10.2414C20.075 10.2827 20.1417 10.327 20.2442 10.3907C20.0208 10.4588 19.8541 10.6608 19.6551 10.4131C19.6173 10.3663 19.5441 10.3832 19.5028 10.4379C19.4531 10.5036 19.4844 10.5608 19.5267 10.6176C19.7717 10.9585 20.1399 11.1905 20.5532 11.2644C20.7686 11.3032 20.8129 11.3833 20.802 11.5838C20.7582 12.4606 20.7278 13.3378 20.697 14.2145C20.6935 14.3036 20.6363 14.435 20.7806 14.4633C20.9328 14.4922 20.9443 14.3519 20.9692 14.2528C21.0806 13.8075 21.2677 13.3861 21.3672 12.9362C21.3921 12.8228 21.3747 12.6875 21.4971 12.578C21.8335 13.6727 21.9897 14.8171 22.5714 15.8361C22.5161 15.8391 22.5082 15.8401 22.5002 15.8396C22.3982 15.8361 22.344 15.5938 22.2265 15.7545C22.1091 15.9152 22.3017 15.9774 22.4002 16.0506Z" fill="#272A45"/>
<path d="M7.1157 6.56319C7.38788 6.47313 7.65358 6.40795 7.91829 6.24922C8.15862 6.10493 8.56514 6.0686 8.89851 6.20493C8.97464 6.23578 9.05027 6.30445 9.11446 6.20493C9.1677 6.12283 9.12889 6.04969 9.00698 5.9865C9.41748 6.05616 9.33936 5.85614 9.26274 5.64268C9.22094 5.52675 9.27816 5.48047 9.38862 5.53769C9.49112 5.59043 9.58417 5.66209 9.68717 5.71582C10.0793 5.92182 10.4997 5.95317 10.9838 5.9268L10.5818 5.59293L10.5908 5.53172C11.7118 5.73623 12.8298 5.78648 13.9947 5.54963C13.6902 5.38941 13.3792 5.34513 13.0901 5.15157C13.3498 5.10679 13.5588 5.18441 13.7683 5.22471C14.134 5.29437 14.4962 5.38046 14.8729 5.35608C14.955 5.35061 15.055 5.37299 15.1117 5.31229C15.268 5.1451 15.3819 5.2292 15.5003 5.35409C15.6188 5.47898 15.7566 5.61183 15.877 5.74766C15.9347 5.81285 15.9875 5.88301 16.0805 5.85565C16.1855 5.8243 16.1576 5.72577 16.1631 5.64566C16.1676 5.58247 16.179 5.51977 16.1905 5.43519C16.4616 5.91485 16.4616 5.91485 16.7647 5.69641C16.792 5.82528 16.8403 5.94172 16.8363 6.05666C16.8274 6.31589 17.0632 6.39202 17.1801 6.55423C17.2324 6.62737 17.2991 6.55871 17.3573 6.53632C17.6061 6.56916 17.7742 6.76322 17.9957 6.85079C17.9781 6.88882 17.9715 6.93099 17.9766 6.97258C17.9817 7.01416 17.9983 7.0535 18.0245 7.08615C18.2589 7.35533 18.3728 7.69866 18.5923 7.9778C18.7715 8.21525 19.0098 8.40169 19.2834 8.51865C19.0844 8.55647 18.8784 8.53707 18.6953 8.62564C18.6241 8.65997 18.5286 8.67539 18.5316 8.78586C18.5345 8.8789 18.6122 8.90229 18.6778 8.93513L19.0799 9.13715C19.06 9.19835 19.0147 9.16849 18.9843 9.17048C18.9202 9.17546 18.8465 9.15406 18.8147 9.23616C18.7828 9.31826 18.8316 9.37448 18.8908 9.42673C19.2398 9.73203 19.6156 10.0052 20.0138 10.2428C20.0825 10.2841 20.1492 10.3283 20.2517 10.392C20.0283 10.4602 19.8616 10.6622 19.6625 10.4144C19.6247 10.3676 19.5516 10.3846 19.5103 10.4393C19.4605 10.505 19.4919 10.5622 19.5342 10.6189C19.7792 10.9599 20.1474 11.1919 20.5607 11.2658C20.7761 11.3046 20.8204 11.3847 20.8094 11.5852C20.7657 12.4619 20.7353 13.3392 20.7045 14.2159C20.701 14.3049 20.6438 14.4363 20.7881 14.4647C20.9403 14.4935 20.9518 14.3532 20.9766 14.2542C21.0881 13.8089 21.2752 13.3874 21.3747 12.9376C21.3996 12.8242 21.3822 12.6888 21.5046 12.5794C21.8409 13.674 21.9972 14.8184 22.5788 15.8375C22.5236 15.8405 22.5156 15.8415 22.5077 15.841C22.4057 15.8375 22.3514 15.5952 22.234 15.7559C22.1166 15.9166 22.3007 15.9758 22.3992 16.0509C22.4412 16.0787 22.4849 16.1038 22.5301 16.1261C22.4843 16.2415 22.4082 16.1689 22.3365 16.1584C22.2116 16.1395 22.1002 16.2276 22.1833 16.3181C22.3569 16.5077 22.128 16.448 22.0942 16.5037C22.0375 16.4301 22.0594 16.344 22.0599 16.2634C22.0638 15.7658 21.6787 15.2085 21.1722 15.0837C20.5194 14.9224 19.9208 15.0284 19.363 15.3593C18.5753 15.8265 17.8175 16.3455 16.9428 16.648C16.6039 16.765 16.2611 16.8605 15.9029 16.753C15.1898 16.5391 9.87326 16.1838 9.38464 16.452C8.95026 16.6893 8.49697 16.866 7.99144 16.7774C7.52322 16.6963 7.08684 16.4933 6.67436 16.2853C6.22405 16.0579 5.79265 15.7758 5.36574 15.4971C5.01743 15.2687 4.65122 15.0742 4.23027 15.0309C3.46301 14.9513 2.92314 15.105 2.58579 15.7509C2.51613 15.8842 2.53603 16.0494 2.42756 16.1629C2.36138 16.0967 2.27331 16.0952 2.17877 16.0917C2.23201 15.9634 2.47732 15.9624 2.38875 15.7763C2.32406 15.6404 2.22156 15.7673 2.13598 15.7818C2.12655 15.7684 2.11571 15.756 2.10364 15.7449C2.46139 15.2026 2.53553 14.5736 2.65395 13.9571C2.704 13.6502 2.79243 13.3508 2.91717 13.066C3.0545 13.2416 3.0346 13.4367 3.07092 13.6133C3.1172 13.8402 3.157 14.0686 3.20477 14.2955C3.22417 14.388 3.22318 14.5139 3.36797 14.498C3.49685 14.4846 3.47396 14.3691 3.48192 14.2836C3.54262 13.6238 3.59288 12.963 3.66304 12.3042C3.72033 11.7111 3.8164 11.1224 3.95063 10.5418C3.98994 10.3796 4.03273 10.2124 4.13175 10.0825C4.27107 9.89943 4.24968 9.72578 4.19046 9.52476C3.64015 7.65985 3.60382 5.78996 4.15563 3.91858C4.27505 3.51455 4.45965 3.39464 4.86518 3.41654C5.65831 3.45933 5.68518 3.4847 5.85585 4.35744C5.78188 4.35921 5.70789 4.35572 5.63442 4.347C5.10401 4.24748 4.82139 4.42014 4.68107 4.9411C4.60245 5.23615 4.55886 5.53944 4.55121 5.84469C4.53329 6.41043 4.61042 6.96722 4.67112 7.525C4.69799 7.77379 4.68655 8.03452 4.81641 8.2649C4.84826 8.32112 4.85473 8.40522 4.92737 8.41815C5.00002 8.43109 5.03982 8.36092 5.07963 8.30868C5.15974 8.20419 5.23189 8.09224 5.31896 7.99372C5.83308 7.41913 6.44053 6.93549 7.1157 6.56319ZM16.2268 15.3389C16.675 15.3604 17.1221 15.2769 17.5324 15.0951C17.917 14.919 18.0798 14.6533 18.0419 14.299C18.0096 13.9875 17.7643 13.7347 17.3732 13.6631C16.5543 13.5066 15.7066 13.6357 14.9714 14.0288C14.7818 14.1283 14.6326 14.4428 14.7032 14.6144C14.7978 14.8453 14.9301 15.0493 15.1819 15.1528C15.5182 15.2936 15.869 15.3304 16.2268 15.3389ZM8.19494 15.3484C8.6149 15.2822 9.08062 15.3424 9.49709 15.0672C9.89515 14.8045 9.9479 14.2661 9.52894 14.0293C9.15991 13.8138 8.75135 13.6745 8.3275 13.6198C7.90365 13.5651 7.47313 13.5961 7.06147 13.7108C6.78233 13.786 6.58728 13.9775 6.54698 14.2845C6.50319 14.6184 6.64301 14.8627 6.92663 15.0309C7.30827 15.2543 7.73369 15.3145 8.19494 15.3484ZM6.44099 12.4749C6.49991 12.5304 6.57702 12.5626 6.65794 12.5654C7.23711 12.6062 7.7526 12.8471 8.21136 13.166C8.54872 13.4014 8.88707 13.4451 9.26124 13.4232C9.56775 13.4053 9.81156 13.2576 9.90809 12.967C10.0131 12.657 9.97576 12.3485 9.7225 12.1012C9.48018 11.8643 9.1677 11.7882 8.85124 11.7265C7.92476 11.5454 7.16248 11.8937 6.44099 12.4749ZM15.356 13.5257C15.6184 13.5469 15.88 13.4766 16.0964 13.3267C16.5594 12.994 17.0836 12.7562 17.6389 12.6271C17.7096 12.6107 17.8036 12.6082 17.8155 12.5202C17.8275 12.4321 17.7409 12.4032 17.6822 12.3584C17.3717 12.129 17.0208 11.9602 16.6477 11.8609C16.0506 11.6932 15.4536 11.7011 14.9062 12.041C14.7246 12.1539 14.5579 12.3042 14.4962 12.5216C14.3554 13.0152 14.6744 13.5481 15.356 13.5257Z" fill="url(#paint0_radial_4401_196540)"/>
<path d="M2.42403 16.1641C2.533 16.0492 2.5126 15.8855 2.58226 15.7521C2.91962 15.1053 3.45949 14.9525 4.22675 15.0322C4.64769 15.0754 5.01242 15.27 5.36221 15.4984C5.78913 15.777 6.22053 16.0591 6.67083 16.2865C7.08332 16.4945 7.51969 16.6975 7.98791 16.7786C8.49544 16.8672 8.94873 16.6906 9.38112 16.4532C9.87222 16.185 10.3569 15.9059 10.7907 15.5501C10.8763 15.4795 11.3505 15.1113 12.3432 15.0739C13.4786 15.0312 15.1888 16.5403 15.9018 16.7543C16.2601 16.8617 16.6029 16.7662 16.9418 16.6493C17.8165 16.3467 18.5743 15.8278 19.362 15.3605C19.9197 15.0297 20.5183 14.9237 21.1711 15.0849C21.6777 15.2098 22.0628 15.7646 22.0588 16.2646C22.0588 16.3453 22.0364 16.4313 22.0931 16.505C22.1648 16.7383 22.03 16.907 21.9125 17.0797C20.8885 18.5804 19.551 19.7507 18.0384 20.7324C16.9716 21.4245 15.8162 21.9345 14.6236 22.3659C13.9538 22.6082 13.2876 22.8635 12.7706 23.3859C12.678 23.48 12.5935 23.5815 12.5004 23.6845C12.3919 23.5472 12.3312 23.3362 12.1083 23.3292C11.9999 23.3262 11.9944 23.4407 11.9914 23.5656C11.3943 22.9137 10.6246 22.6391 9.86277 22.3714C8.37005 21.8464 6.96042 21.1573 5.68315 20.2234C4.50489 19.3606 3.44406 18.3659 2.6161 17.1468C2.51658 16.9976 2.33646 16.8508 2.5141 16.6373C2.52013 16.6225 2.52233 16.6064 2.5205 16.5905C2.51868 16.5746 2.51288 16.5594 2.50365 16.5463C2.31805 16.4522 2.4101 16.299 2.42403 16.1641ZM12.2944 16.5363C12.1158 16.5508 11.9416 16.5547 11.7705 16.5796C10.9972 16.6926 10.7415 17.3324 11.2177 17.9569C11.3878 18.1803 11.557 18.4047 11.7361 18.6222C11.8406 18.7485 11.858 18.8137 11.6695 18.8709C11.1078 19.0418 10.5366 19.1797 9.9588 19.2839C9.77968 19.3143 9.62195 19.3635 9.64434 19.5825C9.66673 19.8014 9.83988 19.8238 10.0165 19.7939C10.7514 19.6705 11.4769 19.5113 12.1685 19.2272C12.2191 19.2037 12.2742 19.1916 12.33 19.1916C12.3858 19.1916 12.4409 19.2037 12.4915 19.2272C13.2244 19.5218 13.9911 19.687 14.7708 19.7999C14.934 19.8233 15.052 19.7611 15.0764 19.589C15.1007 19.4168 14.9987 19.3297 14.842 19.2949C14.8097 19.2874 14.7758 19.2889 14.7425 19.2834C14.1477 19.1816 13.5602 19.0404 12.9841 18.861C12.7064 18.7734 12.7069 18.7684 12.8801 18.546C13.0532 18.3236 13.2284 18.1236 13.3841 17.8992C13.7936 17.3235 13.5279 16.6931 12.8333 16.5861C12.6547 16.5592 12.4721 16.5522 12.2944 16.5363Z" fill="#FEFEFE"/>
<path d="M17.9942 6.85361C17.7727 6.76604 17.6041 6.57199 17.3558 6.53915C17.2841 6.34361 17.4085 6.20578 17.4931 6.05302C17.7877 5.52161 18.0773 4.98771 18.3688 4.45481C18.5231 4.4578 18.6554 4.38665 18.7883 4.32346C18.9315 4.25908 19.0925 4.24625 19.2441 4.28713C19.6386 4.37122 19.769 4.67972 19.868 5.00712C20.0357 5.56142 19.9675 6.13363 19.972 6.69887C19.2983 6.56702 18.645 6.69638 17.9942 6.85361Z" fill="#FEFEFE"/>
<path d="M7.11566 6.5629C6.44005 6.9362 5.83241 7.42103 5.31843 7.99691C5.23135 8.09642 5.1592 8.20738 5.07909 8.31188C5.03929 8.36412 5.00097 8.43477 4.92683 8.42134C4.8527 8.4079 4.84772 8.32432 4.81588 8.26809C4.68601 8.03772 4.69745 7.77698 4.67058 7.52819C4.60988 6.97041 4.53276 6.41363 4.55067 5.84788C4.55735 5.54275 4.59993 5.23946 4.67755 4.94429C4.81787 4.42333 5.10049 4.24769 5.6309 4.35019C5.70437 4.35891 5.77836 4.3624 5.85232 4.36064C6.08768 4.86567 6.48822 5.23388 6.88579 5.60457L6.89275 5.60059C6.87782 5.64089 6.84996 5.6404 6.81563 5.62696C6.27078 5.415 5.80406 5.10401 5.49258 4.593C5.44282 4.51339 5.42043 4.38253 5.28708 4.41935C5.13184 4.46214 5.20448 4.59599 5.20896 4.69251C5.21923 4.96586 5.26523 5.23668 5.34579 5.49809C5.56721 6.18524 6.06628 6.55294 6.78876 6.56638C6.89972 6.56787 7.00719 6.5639 7.11566 6.5629Z" fill="#FEFEFE"/>
<path d="M19.972 6.70027C19.967 6.13403 20.0357 5.56182 19.868 5.00852C19.7685 4.68111 19.6386 4.37262 19.244 4.28853C19.0925 4.24764 18.9314 4.26047 18.7883 4.32485C18.6554 4.38804 18.5231 4.45919 18.3688 4.4562C18.4315 4.22582 18.5002 3.99744 18.5534 3.76508C18.5588 3.72885 18.5762 3.69548 18.6028 3.67031C18.6294 3.64514 18.6637 3.62963 18.7002 3.62625C19.0776 3.53395 19.4633 3.48027 19.8516 3.46603C20.165 3.46056 20.2969 3.56056 20.4079 3.85463C20.59 4.33877 20.6348 4.84979 20.6761 5.35532C20.7119 5.7912 20.7149 6.22956 20.7402 6.66643C20.7492 6.81918 20.7094 6.8794 20.5487 6.83611C20.3581 6.78337 20.1646 6.74655 19.972 6.70027Z" fill="#FBBE76"/>
<path d="M2.07326 15.8203L2.0235 15.8377L2.04738 15.793C2.05679 15.8013 2.06544 15.8105 2.07326 15.8203Z" fill="#FBBE76"/>
<path d="M6.88779 5.60455L6.91416 5.63539H6.88281C6.88679 5.62445 6.89028 5.61301 6.89475 5.60156L6.88779 5.60455Z" fill="#FEFEFE"/>
<path d="M2.13445 15.7829L2.07325 15.8202C2.06575 15.8104 2.05743 15.8013 2.04837 15.7929L2.10211 15.7461C2.11418 15.7572 2.12502 15.7695 2.13445 15.7829Z" fill="#FBBE76"/>
<path d="M16.2268 15.3396C15.869 15.3312 15.5182 15.2944 15.1819 15.156C14.9301 15.0525 14.7978 14.8485 14.7032 14.6177C14.6326 14.446 14.7818 14.131 14.9714 14.032C15.7066 13.6389 16.5544 13.5099 17.3732 13.6663C17.7643 13.738 18.0096 13.9907 18.042 14.3022C18.0788 14.654 17.9171 14.9197 17.5324 15.0983C17.1219 15.2793 16.6749 15.3619 16.2268 15.3396ZM16.2223 13.9962C16.2089 13.8887 16.1542 13.822 16.0462 13.832C16.0213 13.8315 15.9966 13.8366 15.974 13.8469C15.9513 13.8572 15.9313 13.8725 15.9153 13.8916C15.8994 13.9107 15.8879 13.9332 15.8818 13.9573C15.8757 13.9814 15.8751 14.0066 15.88 14.031C15.8889 14.145 15.9636 14.1803 16.0656 14.1743C16.1755 14.1654 16.2173 14.0947 16.2213 13.9972L16.2223 13.9962Z" fill="#272A45"/>
<path d="M8.19493 15.3481C7.73368 15.3142 7.30825 15.256 6.92661 15.0301C6.64299 14.8624 6.50318 14.6181 6.54696 14.2838C6.58727 13.9768 6.78232 13.7862 7.06146 13.7101C7.47312 13.5953 7.90364 13.5643 8.32749 13.619C8.75134 13.6737 9.1599 13.813 9.52893 14.0285C9.94789 14.2654 9.89415 14.8037 9.49709 15.0664C9.08062 15.3421 8.61489 15.2819 8.19493 15.3481ZM7.65705 14.0046C7.64909 13.9121 7.6073 13.8404 7.49534 13.8374C7.39334 13.8345 7.31572 13.8872 7.30278 13.9867C7.29784 14.009 7.29799 14.0321 7.30321 14.0543C7.30843 14.0765 7.31859 14.0972 7.33294 14.115C7.34728 14.1327 7.36544 14.147 7.38606 14.1567C7.40668 14.1665 7.42924 14.1715 7.45205 14.1713C7.56998 14.1828 7.63417 14.125 7.65705 14.0021V14.0046Z" fill="#272A45"/>
<path d="M6.44098 12.475C7.16246 11.8939 7.92474 11.5455 8.85272 11.7287C9.16917 11.7904 9.48165 11.8665 9.72397 12.1033C9.97723 12.3521 10.0146 12.6591 9.90956 12.9691C9.81005 13.2597 9.56773 13.4075 9.26272 13.4254C8.88854 13.4473 8.55019 13.4035 8.21284 13.1682C7.75457 12.8492 7.23859 12.6084 6.65941 12.5676C6.57772 12.5646 6.49998 12.5316 6.44098 12.475Z" fill="#FEFEFE"/>
<path d="M15.356 13.5259C14.6743 13.5483 14.3554 13.0139 14.4972 12.5228C14.5599 12.3054 14.7256 12.1551 14.9072 12.0421C15.4545 11.7023 16.0516 11.6938 16.6487 11.862C17.0217 11.9613 17.3727 12.1301 17.6832 12.3596C17.7419 12.4044 17.828 12.4377 17.8165 12.5213C17.8051 12.6049 17.7105 12.6119 17.6399 12.6283C17.0846 12.7574 16.5603 12.9952 16.0974 13.3279C15.8806 13.4776 15.6186 13.5476 15.356 13.5259Z" fill="#FEFEFE"/>
<path d="M12.2944 16.5371C12.472 16.553 12.6547 16.56 12.8338 16.5869C13.5304 16.6938 13.7941 17.3243 13.3846 17.9C13.2269 18.1219 13.0482 18.3294 12.8806 18.5468C12.7129 18.7643 12.7069 18.7742 12.9846 18.8618C13.5607 19.0412 14.1482 19.1823 14.743 19.2842C14.7758 19.2897 14.8096 19.2882 14.8425 19.2957C14.9992 19.3305 15.1007 19.4186 15.0768 19.5897C15.053 19.7609 14.9345 19.8241 14.7713 19.8007C13.9916 19.6878 13.2249 19.5226 12.492 19.228C12.4414 19.2045 12.3863 19.1924 12.3305 19.1924C12.2747 19.1924 12.2196 19.2045 12.169 19.228C11.4774 19.5121 10.7519 19.6713 10.017 19.7947C9.84039 19.8246 9.66872 19.8097 9.64484 19.5833C9.62096 19.3569 9.78018 19.3146 9.95931 19.2847C10.5371 19.1805 11.1083 19.0426 11.67 18.8717C11.8585 18.8165 11.8411 18.7513 11.7366 18.6229C11.5575 18.406 11.3883 18.1811 11.2182 17.9577C10.742 17.3332 10.9977 16.6933 11.771 16.5804C11.9421 16.5555 12.1158 16.5515 12.2944 16.5371ZM11.8128 17.3507C11.9546 17.3223 12.0864 17.2571 12.0864 17.0735C12.0864 16.8705 11.9596 16.7819 11.767 16.775C11.5744 16.768 11.5217 16.8884 11.5132 17.0406C11.5038 17.2277 11.6098 17.3263 11.8128 17.3507Z" fill="#272A45"/>
<path d="M16.2213 13.9959C16.2164 14.0954 16.1746 14.1641 16.0646 14.1721C15.9626 14.179 15.8879 14.1427 15.879 14.0288C15.8741 14.0044 15.8747 13.9792 15.8808 13.9551C15.8869 13.9309 15.8984 13.9085 15.9143 13.8894C15.9303 13.8703 15.9503 13.855 15.973 13.8447C15.9956 13.8344 16.0203 13.8293 16.0452 13.8297C16.1542 13.8218 16.2089 13.8885 16.2213 13.9959Z" fill="#FEFEFE"/>
<path d="M7.65704 14.0023C7.63415 14.1252 7.56996 14.1829 7.45054 14.169C7.42773 14.1691 7.40517 14.1641 7.38455 14.1544C7.36392 14.1446 7.34577 14.1304 7.33142 14.1126C7.31708 14.0949 7.30692 14.0741 7.3017 14.0519C7.29648 14.0297 7.29633 14.0066 7.30127 13.9844C7.3142 13.8848 7.39182 13.8321 7.49383 13.8351C7.60529 13.8381 7.64907 13.9107 7.65704 14.0023Z" fill="#FEFEFE"/>
<path d="M11.8128 17.3501C11.6098 17.3257 11.5038 17.2272 11.5142 17.0386C11.5227 16.8863 11.5824 16.7644 11.768 16.7729C11.9536 16.7813 12.0879 16.8699 12.0874 17.0714C12.0864 17.2565 11.9546 17.3217 11.8128 17.3501Z" fill="#FEFEFE"/>
<path d="M11.4262 23.41C11.4171 23.4045 11.4085 23.3983 11.4003 23.3916L11.4262 23.41Z" fill="#FEFEFE"/>
<defs>
<radialGradient id="paint0_radial_4401_196540" cx="0" cy="0" r="1" gradientUnits="userSpaceOnUse" gradientTransform="translate(12 17.5) rotate(-89.0842) scale(10.1132 15.4684)">
<stop stop-color="#FDEEC3"/>
<stop offset="1" stop-color="#FBB25D"/>
</radialGradient>
</defs>
</svg>