<svg width="24" height="24" viewBox="0 0 24 24" fill="none" xmlns="http://www.w3.org/2000/svg">
<path d="M11.9999 23.9998C18.6273 23.9998 23.9998 18.6273 23.9998 11.9999C23.9998 5.37254 18.6273 0 11.9999 0C5.37254 0 0 5.37254 0 11.9999C0 18.6273 5.37254 23.9998 11.9999 23.9998Z" fill="#021D3A"/>
<path d="M12.2436 20.8085C12.2438 20.7854 12.2442 20.7624 12.2442 20.7392C12.2442 15.9428 12.2442 11.1465 12.2432 6.35009C12.2432 6.305 12.2562 6.27446 12.288 6.24306C13.0591 5.47875 13.8293 4.71358 14.5985 3.94737C14.6282 3.91766 14.6421 3.91471 14.6733 3.94632C14.9208 4.19807 15.1728 4.44561 15.4188 4.69884C15.6061 4.8916 15.7976 5.08015 15.9868 5.27144C16.0134 5.2982 16.015 5.3121 15.9872 5.33991C15.41 5.91526 14.8338 6.49187 14.2576 7.06848C14.2443 7.08175 14.2239 7.09081 14.2229 7.11398C14.2144 7.13295 14.2188 7.15317 14.2188 7.17255C14.2186 10.1112 14.2186 13.0497 14.2193 15.9883C14.2193 16.0071 14.2056 16.0309 14.2306 16.0456C14.2515 16.0244 14.2719 16.0031 14.293 15.9822C15.8775 14.3978 17.4619 12.8135 19.0472 11.2299C19.0824 11.1947 19.0854 11.1772 19.0489 11.1393C18.746 10.8246 18.4285 10.5243 18.1279 10.2075C18.0008 10.0735 17.8656 9.94837 17.7386 9.81459C17.6952 9.76867 17.6941 9.76972 17.6475 9.81607C16.6907 10.7727 15.734 11.7294 14.7773 12.6863C14.7647 12.6989 14.7542 12.7137 14.7419 12.7284C14.7243 12.7097 14.7308 12.6943 14.7308 12.6808C14.7304 11.7865 14.7306 10.8922 14.7299 9.99809C14.7299 9.9707 14.7348 9.94984 14.7559 9.92878C15.7239 8.96221 16.6913 7.99523 17.6572 7.02698C17.6935 6.99074 17.7095 6.99432 17.7434 7.02824C19.1123 8.39888 20.4821 9.76846 21.8524 11.1378C21.866 11.1515 21.8764 11.1696 21.8966 11.1757V11.1856C21.8852 11.208 21.8684 11.2259 21.8509 11.2434C21.6828 11.4113 21.5153 11.5798 21.3467 11.7471C18.3276 14.7433 15.3295 17.7603 12.3182 20.7641C12.2977 20.7843 12.2832 20.8193 12.2434 20.8085H12.2436Z" fill="#FEFEFE"/>
<path d="M11.7483 20.8081C11.7224 20.8047 11.7116 20.7818 11.6958 20.7662C9.39591 18.4671 7.09621 16.1678 4.79651 13.8683C4.78134 13.8532 4.76512 13.8391 4.74953 13.8245C4.73731 13.8112 4.72572 13.7973 4.71287 13.7847C4.31512 13.3867 3.92138 12.985 3.51794 12.5927C3.26513 12.3469 3.01612 12.097 2.76458 11.8499C2.55306 11.6422 2.34281 11.4332 2.13024 11.2265C2.09506 11.1924 2.09211 11.173 2.12877 11.1365C2.56865 10.6992 3.00748 10.2606 3.44484 9.82069C3.47981 9.78551 3.49814 9.79035 3.53037 9.82258C5.59243 11.8857 7.65512 13.9482 9.71803 16.0105C9.73067 16.0231 9.74478 16.034 9.75827 16.0456C9.76922 16.0467 9.77238 16.0402 9.77259 16.0309C9.77322 16.0145 9.7728 15.9978 9.7728 15.9814C9.7728 13.0465 9.7728 10.1118 9.77259 7.17696C9.77259 7.15589 9.77702 7.13419 9.76859 7.11334C9.23685 6.58118 8.70532 6.04923 8.17359 5.51707C8.11291 5.4564 8.0535 5.39446 7.99094 5.33568C7.96502 5.31146 7.96734 5.2984 7.99157 5.27438C8.20161 5.06687 8.41502 4.86272 8.6179 4.64826C8.84353 4.40999 9.0799 4.18267 9.30722 3.94609C9.34366 3.90817 9.36094 3.91386 9.39507 3.94777C10.1653 4.71504 10.9366 5.48126 11.7087 6.24684C11.7365 6.27444 11.7485 6.30141 11.7485 6.34122C11.7476 11.1403 11.7476 15.9392 11.7476 20.7384C11.7476 20.7615 11.7481 20.7845 11.7483 20.8077V20.8081Z" fill="#FEFEFE"/>
<path d="M9.48171 12.731C9.4697 12.7198 9.45727 12.7091 9.44568 12.6975C8.02133 11.2734 6.59697 9.849 5.17156 8.4257C5.13722 8.39136 5.13891 8.37577 5.17198 8.34291C5.3797 8.13771 5.58511 7.9302 5.79073 7.72269C6.02015 7.49095 6.24957 7.25921 6.4771 7.02536C6.51059 6.99102 6.52724 6.98744 6.56368 7.02389C7.52266 7.98519 8.48291 8.9448 9.44315 9.90483C9.45811 9.91979 9.47433 9.93369 9.48992 9.94802C9.5013 9.96277 9.49582 9.97983 9.49582 9.99584C9.49603 10.8906 9.49624 11.7855 9.4954 12.6802C9.4954 12.6967 9.50994 12.7207 9.48171 12.7308V12.731Z" fill="#FEFEFE"/>
</svg>