<svg width="24" height="24" viewBox="0 0 24 24" fill="none" xmlns="http://www.w3.org/2000/svg">
<path d="M11.9797 23.274C18.294 23.274 23.4127 18.1553 23.4127 11.8411C23.4127 5.52688 18.294 0.408203 11.9797 0.408203C5.66556 0.408203 0.546875 5.52688 0.546875 11.8411C0.546875 18.1553 5.66556 23.274 11.9797 23.274Z" fill="url(#paint0_radial)"/>
<path d="M12.4133 21.1881C17.0407 21.1881 20.792 17.6738 20.792 13.3387C20.792 9.00355 17.0407 5.48926 12.4133 5.48926C7.78588 5.48926 4.03461 9.00355 4.03461 13.3387C4.03461 17.6738 7.78588 21.1881 12.4133 21.1881Z" fill="url(#paint1_linear)"/>
<path d="M12.0591 23.4293C17.055 23.4293 21.105 19.6352 21.105 14.9549C21.105 10.2746 17.055 6.48047 12.0591 6.48047C7.06311 6.48047 3.01312 10.2746 3.01312 14.9549C3.01312 19.6352 7.06311 23.4293 12.0591 23.4293Z" fill="url(#paint2_radial)"/>
<path d="M9.52433 19.6787C9.48302 19.6743 8.50626 19.567 7.99847 19.2768C7.91204 19.2274 5.87164 18.05 5.05618 16.5822C4.36866 15.3446 3.20423 13.1091 3.13065 12.0413C3.06369 11.0707 3.11635 8.99242 3.4595 8.30616C3.4834 8.25838 3.51292 8.19304 3.55031 8.11016C3.77415 7.61427 4.23993 6.58249 5.16473 5.67122C6.31102 4.54173 7.78124 3.96762 9.53447 3.96493C9.54604 3.96482 10.8106 3.94922 12.2332 3.94922C13.069 3.94922 13.7951 3.95449 14.3915 3.965C16.2849 3.9982 17.7975 4.15835 18.5174 4.2854L18.6415 4.30704C19.1461 4.39446 19.335 4.42718 19.3758 4.79464C19.4108 5.10936 19.6917 7.39296 19.6946 7.41602L19.7022 7.47758L17.9578 8.53667H19.8321L20.0169 12.0462L17.9799 13.5335H19.8191L19.1903 17.2699L15.694 19.2523L9.5328 19.6797L9.52433 19.6787Z" fill="url(#paint3_linear)"/>
<path d="M12.2331 4.04552C12.9525 4.04552 13.7162 4.04944 14.3897 4.06126C16.4097 4.09668 17.8981 4.27388 18.5006 4.38021C19.1031 4.48653 19.2449 4.48653 19.2803 4.80548C19.3157 5.12446 19.5993 7.42799 19.5993 7.42799L17.6147 8.63293H19.741L19.9182 11.9996L17.6856 13.6298H19.7056L19.1031 17.2092L15.6655 19.1583L9.53458 19.5836C9.53458 19.5836 8.54225 19.4773 8.04615 19.1938C7.55 18.9102 5.84887 17.8117 5.14011 16.5358C4.43135 15.26 3.29731 13.0628 3.22641 12.0351C3.15551 11.0073 3.22641 8.9873 3.54537 8.34937C3.86433 7.71144 5.14007 4.06799 9.53458 4.06126C9.53447 4.06126 10.7947 4.04552 12.2331 4.04552ZM12.2331 3.85352C10.8099 3.85352 9.54469 3.86912 9.53211 3.86926C7.75491 3.87195 6.26211 4.45533 5.09727 5.60312C4.15967 6.52697 3.68895 7.56981 3.46271 8.07097C3.42724 8.14959 3.39657 8.21748 3.37358 8.26352C3.02265 8.96541 2.96721 11.0682 3.03479 12.0482C3.10972 13.1345 4.28084 15.3845 4.97222 16.629C5.80051 18.12 7.86342 19.3105 7.9508 19.3604C8.47578 19.6604 9.47193 19.77 9.51407 19.7745L9.53091 19.7763L9.54782 19.7752L15.6788 19.3499L15.7223 19.3469L15.7602 19.3253L19.1978 17.3762L19.2773 17.3312L19.2924 17.241L19.8949 13.6617L19.9326 13.4378H19.7055H18.274L20.0313 12.1547L20.1153 12.0934L20.1099 11.9896L19.9327 8.62282L19.9231 8.44093H19.7409H18.3008L19.6989 7.5921L19.8049 7.52766L19.7898 7.4045C19.7869 7.38144 19.506 5.09842 19.4711 4.78428C19.4223 4.34519 19.1668 4.30093 18.6578 4.21275C18.6189 4.20599 18.5776 4.19886 18.534 4.19115C17.8107 4.06352 16.2921 3.90261 14.393 3.8693C13.7962 3.85882 13.0695 3.85352 12.2331 3.85352Z" fill="#692CC2"/>
<path d="M3.33203 12.043C3.33203 12.043 3.42803 13.291 3.94004 14.443C4.45207 15.5951 5.7024 17.417 6.14814 17.8992C6.81149 18.6167 8.1004 19.4576 8.9004 19.5536C9.70044 19.6496 11.887 19.4972 12.382 19.4902C12.7036 19.4857 15.3137 19.2223 15.6657 19.1583C16.0177 19.0943 19.0193 17.3758 19.1033 17.2092C19.1721 17.0729 19.2103 16.5742 19.2103 16.5742L16.765 17.137L9.3988 17.4852C9.15764 17.4949 8.79876 17.4552 8.51516 17.4306C8.15825 17.3997 7.81694 17.3324 7.40244 17.2015C6.95811 17.0612 6.40214 16.7739 5.94822 16.4295C5.30963 15.9451 4.54393 15.1844 4.10018 14.0911C3.81833 13.3969 3.33203 12.043 3.33203 12.043Z" fill="white"/>
<path d="M6.87659 8.66788L7.76259 7.46293C7.76259 7.46293 7.72717 7.14399 9.39277 7.10853C11.0584 7.07311 19.2094 7.3566 19.2094 7.3566L17.5438 8.66788H6.87659Z" fill="url(#paint4_linear)"/>
<path d="M19.493 12.0352L17.402 13.6299L8.15244 13.9134C8.15244 13.9134 7.33735 13.2401 7.19557 12.9743C7.05382 12.7085 6.87659 12.3541 6.87659 12.3541C6.87659 12.3541 16.5161 12.2832 17.4375 12.2478C18.3589 12.2123 19.493 12.0352 19.493 12.0352Z" fill="url(#paint5_linear)"/>
<path d="M18.4298 17.3156C18.4298 17.3156 15.7364 18.9104 15.5238 18.9813C15.3112 19.0522 10.1805 19.4064 9.67636 19.4065C9.02596 19.4067 8.22334 19.1939 7.69174 18.8041C7.16014 18.4143 6.34505 17.6346 6.16785 17.3157C5.99062 16.9967 5.49451 16.4297 5.49451 16.4297C5.49451 16.4297 6.69945 17.2093 7.54996 17.4574C8.40051 17.7055 10.1929 17.6493 11.008 17.6139C11.8232 17.5785 18.4298 17.3156 18.4298 17.3156Z" fill="url(#paint6_linear)"/>
<path d="M17.4296 3.2515C17.4296 3.2515 15.5391 2.68438 14.3238 2.7114C13.1086 2.73843 11.5422 2.84643 10.7321 3.11648C9.92184 3.38652 9.59781 3.54857 9.59781 3.54857C9.59781 3.54857 10.1109 4.1697 10.0569 4.76385C10.0029 5.35799 9.40879 6.06014 8.70664 6.24916C8.0045 6.43817 7.30235 6.54621 6.76221 6.43817C6.22206 6.33017 4.97984 5.62799 4.97984 5.62799L4.03461 4.95279C4.03461 4.95279 4.97984 3.65654 6.54617 2.90038C8.1125 2.14424 9.70584 1.49609 11.7043 1.49609C13.7027 1.49609 15.134 1.95521 15.9713 2.36029C16.8084 2.7654 17.4296 3.2515 17.4296 3.2515Z" fill="white"/>
<path d="M4.03456 4.95215C4.03456 4.95215 3.31555 5.86215 3.1332 6.26324C2.95085 6.66437 2.34917 7.83124 2.23977 8.97993C2.13038 10.1286 2.11214 11.0188 2.23977 11.6222C2.36741 12.2254 2.58619 13.0642 2.58619 13.0642C2.58619 13.0642 3.33374 9.98281 3.44313 9.23524C3.55253 8.48771 4.08129 6.90146 4.5371 6.35444C4.99292 5.80742 5.4123 5.15106 5.4123 5.15106L4.03456 4.95215Z" fill="url(#paint7_linear)"/>
<path d="M5.41227 5.15137C5.41227 5.15137 4.61503 6.19209 4.4431 6.48075C4.27118 6.76937 3.55977 7.90995 3.51604 8.48798C3.47231 9.06606 3.35193 10.293 3.35193 10.293C3.35193 10.293 4.62823 7.99569 4.97467 7.59457C5.32107 7.19344 6.3239 5.86246 6.3239 5.86246L5.41227 5.15137Z" fill="url(#paint8_linear)"/>
<defs>
<radialGradient id="paint0_radial" cx="0" cy="0" r="1" gradientUnits="userSpaceOnUse" gradientTransform="translate(6.52298 4.7892) scale(12.3418)">
<stop stop-color="#21FFE3"/>
<stop offset="1" stop-color="#8549DF"/>
</radialGradient>
<linearGradient id="paint1_linear" x1="12.7833" y1="21.2005" x2="12.1117" y2="6.92886" gradientUnits="userSpaceOnUse">
<stop stop-color="#21FFE3"/>
<stop offset="1" stop-color="#8549DF"/>
</linearGradient>
<radialGradient id="paint2_radial" cx="0" cy="0" r="1" gradientUnits="userSpaceOnUse" gradientTransform="translate(12.059 14.9549) scale(10.6974)">
<stop stop-color="#21FFE3"/>
<stop offset="0.1916" stop-color="#23FCE3" stop-opacity="0.8084"/>
<stop offset="0.3419" stop-color="#28F2E3" stop-opacity="0.6581"/>
<stop offset="0.478" stop-color="#31E1E2" stop-opacity="0.522"/>
<stop offset="0.6059" stop-color="#3ECAE2" stop-opacity="0.3941"/>
<stop offset="0.728" stop-color="#4FACE1" stop-opacity="0.272"/>
<stop offset="0.8458" stop-color="#6386E0" stop-opacity="0.1542"/>
<stop offset="0.958" stop-color="#7B5BDF" stop-opacity="0.042"/>
<stop offset="1" stop-color="#8549DF" stop-opacity="0"/>
</radialGradient>
<linearGradient id="paint3_linear" x1="4.26331" y1="6.37907" x2="18.8981" y2="14.981" gradientUnits="userSpaceOnUse">
<stop stop-color="#21FFE3"/>
<stop offset="1" stop-color="#F8FFFB"/>
</linearGradient>
<linearGradient id="paint4_linear" x1="6.87659" y1="7.88668" x2="19.2094" y2="7.88668" gradientUnits="userSpaceOnUse">
<stop stop-color="#692CC2"/>
<stop offset="0.5189" stop-color="#3E5BDE"/>
<stop offset="1" stop-color="#229EE7"/>
</linearGradient>
<linearGradient id="paint5_linear" x1="6.87662" y1="12.9743" x2="19.493" y2="12.9743" gradientUnits="userSpaceOnUse">
<stop stop-color="#692CC2"/>
<stop offset="0.5189" stop-color="#3E5BDE"/>
<stop offset="1" stop-color="#229EE7"/>
</linearGradient>
<linearGradient id="paint6_linear" x1="5.49454" y1="17.9181" x2="18.4299" y2="17.9181" gradientUnits="userSpaceOnUse">
<stop stop-color="#677CF4"/>
<stop offset="0.2764" stop-color="#374CD7"/>
<stop offset="0.3631" stop-color="#3752D8"/>
<stop offset="0.4747" stop-color="#3562DB"/>
<stop offset="0.5999" stop-color="#337CE1"/>
<stop offset="0.7351" stop-color="#30A1E9"/>
<stop offset="0.8766" stop-color="#2DD0F2"/>
<stop offset="1" stop-color="#29FFFC"/>
</linearGradient>
<linearGradient id="paint7_linear" x1="3.90263" y1="6.94437" x2="1.70892" y2="12.5283" gradientUnits="userSpaceOnUse">
<stop stop-color="#F8FFFB"/>
<stop offset="1" stop-color="#F8FFFB" stop-opacity="0"/>
</linearGradient>
<linearGradient id="paint8_linear" x1="4.89849" y1="7.24769" x2="4.53263" y2="12.265" gradientUnits="userSpaceOnUse">
<stop stop-color="#F8FFFB"/>
<stop offset="1" stop-color="#F8FFFB" stop-opacity="0"/>
</linearGradient>
</defs>
</svg>