<svg width="24" height="24" viewBox="0 0 24 24" fill="none" xmlns="http://www.w3.org/2000/svg">
<path d="M3.96356 9.70963C4.20185 10.2166 4.79163 11.2187 4.79163 11.2187L11.6098 0L4.95546 4.62505C4.55895 4.88833 4.23364 5.2447 4.00824 5.66272C3.70517 6.29334 3.54414 6.98224 3.53642 7.68126C3.52871 8.38027 3.67448 9.07253 3.96356 9.70963Z" fill="url(#paint0_linear_848_216)"/>
<path d="M1.26149 13.4038C1.33662 14.4769 1.64124 15.5217 2.15495 16.4681C2.66866 17.4146 3.3796 18.2408 4.24017 18.8916L11.6005 23.9999C11.6005 23.9999 6.99545 17.3944 3.11125 10.8215C2.71801 10.1271 2.45365 9.36782 2.33083 8.58012C2.27646 8.22342 2.27646 7.8606 2.33083 7.50391C2.22956 7.69069 2.03296 8.07314 2.03296 8.07314C1.63912 8.87263 1.37089 9.72754 1.23766 10.608C1.16096 11.5388 1.16894 12.4745 1.26149 13.4038Z" fill="#A0A8D4"/>
<path d="M20.0389 14.2903C19.8006 13.7833 19.2108 12.7812 19.2108 12.7812L12.3926 24L19.047 19.3779C19.4435 19.1146 19.7688 18.7582 19.9942 18.3402C20.2977 17.7092 20.459 17.0197 20.4667 16.3202C20.4744 15.6206 20.3284 14.9278 20.0389 14.2903Z" fill="url(#paint1_linear_848_216)"/>
<path d="M22.7413 10.5961C22.6662 9.52298 22.3616 8.47822 21.8479 7.53178C21.3342 6.58535 20.6232 5.75908 19.7627 5.1083L12.4023 0C12.4023 0 17.0044 6.60552 20.8916 13.1784C21.2838 13.873 21.5471 14.6323 21.669 15.4198C21.7234 15.7765 21.7234 16.1393 21.669 16.496C21.7703 16.3092 21.9669 15.9268 21.9669 15.9268C22.3607 15.1273 22.629 14.2724 22.7622 13.3919C22.8399 12.4612 22.8329 11.5255 22.7413 10.5961Z" fill="#A0A8D4"/>
<path style="mix-blend-mode:color" d="M4.00783 5.66272C4.23324 5.2447 4.55854 4.88833 4.95505 4.62505L11.6094 0L4.79122 11.2217C4.79122 11.2217 4.19549 10.2196 3.96315 9.7126C3.67362 9.0751 3.5276 8.3823 3.53532 7.68274C3.54304 6.98317 3.70431 6.29374 4.00783 5.66272ZM1.26149 13.4037C1.33662 14.4769 1.64124 15.5216 2.15495 16.4681C2.66866 17.4145 3.3796 18.2408 4.24017 18.8915L11.6005 23.9998C11.6005 23.9998 6.99545 17.3943 3.11125 10.8214C2.71801 10.127 2.45365 9.36775 2.33083 8.58005C2.27646 8.22336 2.27646 7.86054 2.33083 7.50384C2.22956 7.69062 2.03296 8.07308 2.03296 8.07308C1.63912 8.87256 1.37089 9.72747 1.23766 10.608C1.16096 11.5387 1.16894 12.4744 1.26149 13.4037ZM20.0272 14.2932C19.7889 13.7862 19.1991 12.7841 19.1991 12.7841L12.3928 23.9998L19.0472 19.3778C19.4437 19.1145 19.769 18.7581 19.9944 18.3401C20.2979 17.7091 20.4592 17.0196 20.4669 16.3201C20.4746 15.6205 20.3286 14.9277 20.0391 14.2902L20.0272 14.2932ZM22.7288 10.5991C22.6537 9.52594 22.3491 8.48118 21.8354 7.53475C21.3217 6.58831 20.6107 5.76204 19.7502 5.11127L12.4018 0C12.4018 0 17.0038 6.60551 20.891 13.1784C21.2832 13.873 21.5465 14.6323 21.6684 15.4198C21.7228 15.7765 21.7228 16.1393 21.6684 16.496C21.7697 16.3092 21.9663 15.9268 21.9663 15.9268C22.3601 15.1273 22.6284 14.2724 22.7616 13.3919C22.8393 12.4612 22.8323 11.5255 22.7408 10.5961L22.7288 10.5991Z" fill="url(#paint2_linear_848_216)"/>
<defs>
<linearGradient id="paint0_linear_848_216" x1="11.9077" y1="0.275724" x2="3.20058" y2="9.75914" gradientUnits="userSpaceOnUse">
<stop offset="0.58" stop-color="#A0A8D4"/>
<stop offset="0.73" stop-color="#8791C7"/>
<stop offset="0.91" stop-color="#6470B4"/>
</linearGradient>
<linearGradient id="paint1_linear_848_216" x1="356.12" y1="928.9" x2="676.946" y2="678.666" gradientUnits="userSpaceOnUse">
<stop offset="0.58" stop-color="#A0A8D4"/>
<stop offset="0.73" stop-color="#8791C7"/>
<stop offset="0.91" stop-color="#6470B4"/>
</linearGradient>
<linearGradient id="paint2_linear_848_216" x1="11.9996" y1="-0.118591" x2="11.9996" y2="24.074" gradientUnits="userSpaceOnUse">
<stop stop-color="#513EFF"/>
<stop offset="0.18" stop-color="#5157FF"/>
<stop offset="0.57" stop-color="#5298FF"/>
<stop offset="1" stop-color="#52E5FF"/>
</linearGradient>
</defs>
</svg>