<svg width="24" height="24" viewBox="0 0 24 24" fill="none" xmlns="http://www.w3.org/2000/svg">
<g clip-path="url(#clip0)">
<path fill-rule="evenodd" clip-rule="evenodd" d="M12 24C5.4 24 0 18.6001 0 11.9402C0.06 5.34038 5.4 -0.0595036 12.06 0.000495205C18.66 0.060494 24 5.40038 24 12.1202C23.94 18.6601 18.6 24 12 24Z" fill="black"/>
<path fill-rule="evenodd" clip-rule="evenodd" d="M8.16798 9.152L11.912 4L15.624 9.12L17.224 16.768L11.912 20L6.59998 16.768L8.16798 9.152ZM8.64798 10.624L7.46398 16.416L11.336 18.784L8.64798 10.624ZM9.03198 9.312L11.912 5.344L14.792 9.312L11.912 18.016L9.03198 9.312ZM15.144 10.624L12.456 18.784L16.328 16.416L15.144 10.624Z" fill="white"/>
</g>
<defs>
<clipPath id="clip0">
<rect width="24" height="24" fill="white"/>
</clipPath>
</defs>
</svg>