<svg width="24" height="24" viewBox="0 0 24 24" fill="none" xmlns="http://www.w3.org/2000/svg">
<g clip-path="url(#clip0)">
<circle cx="12" cy="11.9996" r="11.6364" fill="#318231"/>
<path d="M11.8111 8.45055V3L17.1751 11.4934L11.8111 8.45055ZM11.8111 16.3236V21.7741L17.1751 13.2807L11.8111 16.3236ZM11.8111 12.8967V9.42547L17.0513 12.3945L11.8111 12.8967Z" fill="#73AA73"/>
<path d="M11.8111 15.5167V12.9041L17.1751 12.3877L11.8111 15.5167Z" fill="#549754"/>
<path d="M11.811 8.45055V3L6 11.4934L11.811 8.45055ZM11.811 16.3236V21.7741L6 13.2807L11.811 16.3236ZM11.811 12.8967V9.42547L6.13444 12.3945L11.811 12.8967Z" fill="white"/>
<path d="M11.811 15.5167V12.9041L6 12.3877L11.811 15.5167Z" fill="#ADCDAD"/>
</g>
<defs>
<clipPath id="clip0">
<rect width="23.6364" height="24" fill="white"/>
</clipPath>
</defs>
</svg>