<svg width="24" height="24" viewBox="0 0 24 24" fill="none" xmlns="http://www.w3.org/2000/svg">
<g clip-path="url(#clip0_859_329)">
<path opacity="0.98" d="M6.73923 22.7846C12.6959 25.6899 19.8799 23.2163 22.7852 17.2596C25.6905 11.3029 23.2168 4.11885 17.2601 1.21358C11.3035 -1.69169 4.11943 0.781972 1.21416 6.73866C-1.69111 12.6953 0.782551 19.8794 6.73923 22.7846Z" fill="url(#paint0_linear_859_329)"/>
<path d="M9.86396 18.1946C9.73573 18.1945 9.60939 18.1643 9.49533 18.1063C9.38127 18.0483 9.28278 17.9642 9.20798 17.8611L5.9983 13.4564H3.90527V11.8531H6.41259C6.54072 11.8529 6.66703 11.883 6.7811 11.9408C6.89517 11.9986 6.9937 12.0825 7.06855 12.1855L9.69133 15.7832L13.6929 6.72796C13.7559 6.58518 13.8596 6.46373 13.9912 6.37848C14.1229 6.29323 14.2768 6.2479 14.4341 6.24805H19.4412V7.85132H14.9638L10.6062 17.7136C10.5488 17.8436 10.4574 17.9563 10.3416 18.0398C10.2258 18.1234 10.0896 18.175 9.94699 18.1892C9.91824 18.1908 9.88944 18.1908 9.8607 18.1892" fill="#00C389"/>
</g>
<defs>
<linearGradient id="paint0_linear_859_329" x1="1.21416" y1="6.73866" x2="22.7852" y2="17.2596" gradientUnits="userSpaceOnUse">
<stop stop-color="#052CC0"/>
<stop offset="1" stop-color="#060F8F"/>
</linearGradient>
<clipPath id="clip0_859_329">
<rect width="24" height="24" fill="white"/>
</clipPath>
</defs>
</svg>