<svg width="24" height="24" viewBox="0 0 24 24" fill="none" xmlns="http://www.w3.org/2000/svg">
<g clip-path="url(#clip0)">
<path fill-rule="evenodd" clip-rule="evenodd" d="M12 24C5.4 24 0 18.6001 0 11.9402C0.06 5.34038 5.4 -0.0595036 12.06 0.000495205C18.66 0.060494 24 5.40038 24 12.1202C23.94 18.6601 18.6 24 12 24Z" fill="#0090FF"/>
<path fill-rule="evenodd" clip-rule="evenodd" d="M13.041 10.5928L12.6841 12.5153L16.0749 12.9959L15.8369 13.897L12.5057 13.4164C12.2677 14.1974 12.1487 15.0385 11.8513 15.7595C11.5539 16.6006 11.2564 17.4416 10.8995 18.2226C10.4236 19.244 9.59077 19.9649 8.46053 20.1452C7.80617 20.2652 7.09231 20.2052 6.55693 19.7847C6.37847 19.6645 6.20001 19.4242 6.20001 19.244C6.20001 19.0037 6.31899 18.7033 6.49745 18.5831C6.61643 18.523 6.91385 18.5831 7.09231 18.6432C7.27077 18.8234 7.44925 19.0637 7.56821 19.304C7.92513 19.7847 8.40103 19.8447 8.87693 19.4843C9.41231 19.0036 9.70975 18.3428 9.88821 17.6819C10.2451 16.2401 10.6021 14.8583 10.8995 13.4164V13.1761L7.74667 12.6955L7.86565 11.7943L11.1375 12.2749L11.5539 10.4125L8.16309 9.87181L8.28207 8.91057L11.7918 9.39119C11.9108 9.03071 11.9703 8.73033 12.0893 8.42993C12.3867 7.34853 12.6841 6.26713 13.398 5.30589C14.1118 4.34463 14.9446 3.74385 16.1939 3.80393C16.7293 3.80393 17.2646 3.98417 17.6216 4.40471C17.681 4.46479 17.8 4.58495 17.8 4.70511C17.8 4.94541 17.8 5.24581 17.6216 5.42605C17.3836 5.60627 17.0862 5.54619 16.8482 5.30589C16.6698 5.12565 16.5508 4.94541 16.3723 4.76519C16.0154 4.28455 15.48 4.22449 15.0636 4.64503C14.7662 4.94541 14.4687 5.36597 14.2903 5.78651C13.8739 7.04815 13.5764 8.36987 13.16 9.69157L16.4318 10.1722L16.1939 11.0734L13.041 10.5928Z" fill="white"/>
</g>
<defs>
<clipPath id="clip0">
<rect width="24" height="24" fill="white"/>
</clipPath>
</defs>
</svg>