<svg width="24" height="24" viewBox="0 0 24 24" fill="none" xmlns="http://www.w3.org/2000/svg">
<g clip-path="url(#clip0)">
<path d="M12.4736 0C12.5274 0.00939394 12.581 0.0242424 12.635 0.0272727C17.1244 0.27 21.0768 2.96879 22.9348 7.065C23.4193 8.13333 23.7365 9.2503 23.8905 10.4142C23.9982 11.2279 24.0319 12.0444 23.9668 12.8618C23.7267 15.8774 22.5399 18.4606 20.3857 20.5832C18.6952 22.2489 16.6714 23.3036 14.3463 23.7755C13.8469 23.8768 13.3423 23.9442 12.8329 23.9732C12.7834 23.9761 12.7347 23.9909 12.6856 24.0002C12.2315 24.0002 11.7773 24.0002 11.3232 24.0002C11.2794 23.9909 11.2361 23.9759 11.1919 23.9732C10.3131 23.9185 9.45292 23.7598 8.60863 23.5118C5.17411 22.5029 2.3133 19.9311 0.946488 16.6232C0.441523 15.4012 0.139452 14.132 0.0555689 12.8112C0.0479982 12.6917 0.0190781 12.5733 0 12.4545C0 12.1515 0 11.8485 0 11.5455C0.0116589 11.4971 0.0286172 11.4494 0.0342195 11.4005C0.0843375 10.9647 0.116437 10.5262 0.183816 10.0933C0.442128 8.43515 1.03325 6.90091 1.94733 5.4953C4.06804 2.23409 7.52178 0.240606 11.4033 0.0266667C11.4576 0.0236364 11.5114 0.00924242 11.5654 0C11.8681 0 12.1709 0 12.4736 0ZM17.3844 15.3998C17.3991 15.3641 17.4094 15.3467 17.4133 15.328C18.1442 11.807 18.8746 8.28576 19.6046 4.76455C19.6107 4.7353 19.6101 4.7047 19.612 4.6747C19.6123 4.66985 19.6111 4.66424 19.6087 4.66015C19.6063 4.65606 19.6014 4.65333 19.5772 4.63152C18.7898 4.59364 17.981 4.5547 17.1614 4.5153C17.1438 4.60167 17.127 4.67439 17.1143 4.74788C16.8177 6.44727 16.5221 8.14682 16.2247 9.84606C15.938 11.4856 15.6494 13.125 15.3617 14.7644C15.3343 14.9208 15.3405 14.9327 15.4893 14.9848C15.9564 15.1486 16.4328 15.2777 16.9226 15.352C17.0757 15.375 17.2307 15.3842 17.3844 15.3998ZM8.77867 14.8626C8.0319 11.4076 7.2883 7.96758 6.54607 4.53333C6.3241 4.49909 4.51168 4.5103 4.39903 4.54712C5.12097 8.165 5.84321 11.7839 6.56682 15.41C7.36007 15.4083 8.09125 15.2462 8.77867 14.8626ZM11.8496 12.6858C11.8639 12.6847 11.8781 12.6838 11.8923 12.6827C12.0179 13.137 12.1434 13.5912 12.266 14.0347C12.5816 14.0685 12.8784 14.0894 13.1713 14.1348C13.4605 14.1797 13.7458 14.2497 14.0501 14.3121C13.5591 12.7652 13.0743 11.2374 12.5887 9.70788C12.1526 9.70788 11.7264 9.70788 11.3005 9.70788C11.2874 9.73924 11.2758 9.76167 11.2687 9.78561C10.8261 11.285 10.3838 12.7845 9.94168 14.2842C9.94032 14.2888 9.94153 14.2944 9.94274 14.2992C9.9438 14.3038 9.94547 14.3085 9.94804 14.3123C9.95076 14.3164 9.95485 14.3197 9.96863 14.3339C10.4568 14.177 10.9692 14.1074 11.4843 14.0562C11.6089 13.5883 11.7293 13.1371 11.8496 12.6858ZM15.1659 17.6773C15.1552 17.6777 15.1446 17.6782 15.1338 17.6786C15.1214 17.6462 15.1075 17.6144 15.0967 17.5815C15.0095 17.313 14.9164 17.0461 14.839 16.7747C14.8065 16.6605 14.7485 16.6095 14.6344 16.5927C14.2259 16.5326 13.8188 16.4635 13.4103 16.4032C13.2787 16.3838 13.1445 16.3814 12.9963 16.3702C13.0102 16.4264 13.0167 16.4605 13.027 16.4932C13.3595 17.5462 13.6922 18.5991 14.0255 19.6518C14.0644 19.7747 14.0665 19.7762 14.1941 19.7764C14.92 19.7771 15.646 19.777 16.3719 19.7761C16.4104 19.7761 16.449 19.7676 16.4967 19.762C16.6723 18.9129 16.8466 18.0708 17.0186 17.2391C16.9944 17.2183 16.988 17.2092 16.9794 17.2061C16.9606 17.1992 16.9411 17.1935 16.9214 17.1909C16.4136 17.1265 15.9248 16.9903 15.4481 16.8061C15.3703 16.7761 15.2878 16.7586 15.1844 16.7286C15.178 17.0589 15.172 17.368 15.1659 17.6773ZM6.9455 17.2391C6.9455 17.2768 6.94308 17.2921 6.94581 17.3064C7.10191 18.0876 7.25802 18.8689 7.41519 19.65C7.44032 19.7747 7.44275 19.7762 7.57342 19.7764C8.26417 19.7771 8.95492 19.777 9.64567 19.7765C9.78164 19.7764 9.78345 19.7755 9.82282 19.6447C10.1367 18.6017 10.4498 17.5585 10.7622 16.515C10.7728 16.4797 10.7728 16.4412 10.7782 16.3995C10.7446 16.398 10.7246 16.3947 10.7051 16.3965C10.2528 16.437 9.80541 16.5076 9.36086 16.6005C9.27743 16.6179 9.25926 16.6692 9.24154 16.7339C9.1672 17.0064 9.09285 17.2788 9.0173 17.5509C9.0064 17.5902 8.98898 17.6277 8.97475 17.6661C8.96461 17.6642 8.95446 17.6624 8.94432 17.6606C8.92524 17.3529 8.90616 17.0452 8.88557 16.7103C8.75808 16.7529 8.64982 16.7773 8.552 16.8235C8.15212 17.0124 7.73528 17.1405 7.29648 17.1959C7.18277 17.2103 7.06891 17.2239 6.9455 17.2391Z" fill="#24292F"/>
<path d="M17.3844 15.4003C17.2307 15.3847 17.0757 15.3755 16.9228 15.3523C16.4329 15.278 15.9566 15.1488 15.4895 14.9851C15.3406 14.933 15.3344 14.9211 15.3618 14.7647C15.6494 13.1253 15.938 11.4859 16.2249 9.84637C16.5221 8.14713 16.8177 6.44759 17.1144 4.7482C17.1273 4.67472 17.144 4.60199 17.1615 4.51562C17.9811 4.55502 18.79 4.59396 19.5773 4.63184C19.6017 4.65366 19.6064 4.65638 19.6088 4.66047C19.6112 4.66456 19.6124 4.67032 19.6121 4.67502C19.6102 4.70502 19.6108 4.73562 19.6047 4.76487C18.8748 8.28607 18.1444 11.8073 17.4135 15.3283C17.4094 15.3471 17.3991 15.3645 17.3844 15.4003Z" fill="#05EDA8"/>
<path d="M8.77869 14.8624C8.09128 15.2461 7.36025 15.4083 6.56684 15.4098C5.84323 11.7838 5.12099 8.1647 4.39905 4.54698C4.5117 4.51017 6.32412 4.49911 6.5461 4.5332C7.28833 7.96743 8.03192 11.4074 8.77869 14.8624Z" fill="#05EDA8"/>
<path d="M11.8497 12.6859C11.7293 13.1373 11.6089 13.5885 11.4841 14.0563C10.969 14.1074 10.4567 14.1771 9.9685 14.3341C9.95472 14.3198 9.95063 14.3166 9.9479 14.3124C9.94533 14.3086 9.94367 14.3039 9.94261 14.2994C9.94155 14.2945 9.94033 14.2889 9.94155 14.2844C10.3837 12.7848 10.8259 11.2851 11.2685 9.78574C11.2755 9.76195 11.2873 9.73937 11.3003 9.70801C11.7264 9.70801 12.1525 9.70801 12.5885 9.70801C13.074 11.2376 13.559 12.7653 14.05 14.3123C13.7456 14.2498 13.4604 14.1798 13.1712 14.135C12.8782 14.0895 12.5814 14.0686 12.2659 14.0348C12.1434 13.5915 12.0177 13.1373 11.8922 12.6829C11.8781 12.6839 11.8639 12.6848 11.8497 12.6859Z" fill="#05EDA8"/>
<path d="M15.1659 17.6772C15.172 17.368 15.1779 17.0588 15.1844 16.7286C15.2878 16.7584 15.3705 16.7759 15.4482 16.806C15.9248 16.9903 16.4137 17.1266 16.9214 17.1909C16.9411 17.1933 16.9607 17.1992 16.9794 17.206C16.9881 17.2092 16.9944 17.2183 17.0186 17.2391C16.8466 18.0707 16.6724 18.913 16.4967 19.7619C16.449 19.7675 16.4106 19.7759 16.372 19.776C15.6461 19.7768 14.9201 19.7769 14.1942 19.7763C14.0665 19.7762 14.0644 19.7747 14.0255 19.6518C13.6921 18.5991 13.3594 17.5462 13.0271 16.4931C13.0168 16.4604 13.0103 16.4263 12.9963 16.3701C13.1446 16.3815 13.2787 16.3838 13.4103 16.4031C13.8188 16.4633 14.226 16.5324 14.6345 16.5927C14.7485 16.6095 14.8065 16.6604 14.839 16.7747C14.9164 17.046 15.0095 17.313 15.0968 17.5815C15.1075 17.6144 15.1214 17.6463 15.1338 17.6786C15.1446 17.6781 15.1553 17.6777 15.1659 17.6772Z" fill="#05EDA8"/>
<path d="M6.94551 17.2387C7.06876 17.2235 7.18262 17.2098 7.29649 17.1954C7.73528 17.1398 8.15212 17.0119 8.55201 16.8229C8.64982 16.7767 8.75808 16.7522 8.88557 16.7098C8.90631 17.0448 8.92539 17.3523 8.94432 17.6601C8.95446 17.6619 8.96461 17.6637 8.97475 17.6655C8.98914 17.6272 9.0064 17.5898 9.0173 17.5504C9.09286 17.2782 9.1672 17.0058 9.24154 16.7334C9.25911 16.6689 9.27743 16.6173 9.36086 16.5999C9.80541 16.507 10.2528 16.4364 10.7051 16.396C10.7246 16.3943 10.7445 16.3975 10.7782 16.399C10.7726 16.4405 10.7728 16.479 10.7622 16.5145C10.4498 17.5579 10.1365 18.6011 9.82282 19.6441C9.78345 19.7747 9.78163 19.7758 9.64567 19.776C8.95492 19.7766 8.26417 19.7766 7.57342 19.7758C7.4429 19.7757 7.44033 19.7741 7.4152 19.6494C7.25788 18.8684 7.10177 18.0872 6.94581 17.3058C6.94309 17.2919 6.94551 17.2764 6.94551 17.2387Z" fill="#05EDA8"/>
</g>
<defs>
<clipPath id="clip0">
<rect width="24" height="24" fill="white"/>
</clipPath>
</defs>
</svg>