<svg width="24" height="24" viewBox="0 0 24 24" fill="none" xmlns="http://www.w3.org/2000/svg">
<g clip-path="url(#clip0_860_346)">
<path opacity="0.98" d="M6.78513 22.8315C12.7418 25.7368 19.9258 23.2631 22.8311 17.3064C25.7364 11.3498 23.2627 4.16573 17.306 1.26046C11.3494 -1.64481 4.16532 0.828847 1.26006 6.78553C-1.64521 12.7422 0.828449 19.9262 6.78513 22.8315Z" fill="white"/>
<path d="M12.5799 20.9998H5.02299L5 20.8932C5.29249 20.802 5.58131 20.6945 5.87748 20.6198C6.95178 20.3409 7.37211 19.8506 7.45121 18.7487C7.47328 18.447 7.48339 18.1454 7.48431 17.8428C7.48431 14.2787 7.48431 10.7143 7.48431 7.14956C7.48431 6.87615 7.47237 6.60274 7.45673 6.33479C7.38591 5.10899 6.89565 4.58037 5.6659 4.37986C5.47084 4.33697 5.27859 4.28249 5.09014 4.21672L5.10761 4.08638C5.34237 4.04782 5.57912 4.02228 5.81676 4.00984C9.79021 4.00315 13.764 4.00072 17.738 4.00254C18.5106 4.00254 18.6689 4.13198 18.7553 4.89937C18.8473 5.75333 18.9246 6.61091 18.9954 7.46761C18.9995 7.67123 18.9902 7.87489 18.9678 8.07732L18.8436 8.12289C18.7283 7.94919 18.6227 7.76941 18.5272 7.58429C18.3773 7.25529 18.2679 6.90805 18.1124 6.58177C17.6093 5.52639 16.7382 4.97409 15.5839 4.93581C14.1849 4.89025 12.7841 4.90117 11.3842 4.92122C10.6374 4.93124 10.3421 5.17641 10.1802 5.90643C10.0765 6.37711 10.0235 6.85738 10.022 7.33914C10.0091 10.8735 10.0091 14.4078 10.022 17.9421C10.025 18.3342 10.0585 18.7254 10.1223 19.1123C10.2492 19.908 10.7127 20.412 11.5139 20.5988C11.8772 20.6836 12.2378 20.7811 12.5992 20.8722L12.5799 20.9998Z" fill="black"/>
</g>
<defs>
<clipPath id="clip0_860_346">
<rect width="24" height="24" fill="white"/>
</clipPath>
</defs>
</svg>