<svg width="24" height="24" viewBox="0 0 24 24" fill="none" xmlns="http://www.w3.org/2000/svg">
<path d="M11.9999 23.9998C18.6273 23.9998 23.9998 18.6273 23.9998 11.9999C23.9998 5.37254 18.6273 0 11.9999 0C5.37254 0 0 5.37254 0 11.9999C0 18.6273 5.37254 23.9998 11.9999 23.9998Z" fill="#065DEA"/>
<path d="M12.5384 13.7402C12.5354 13.7971 12.5323 13.8265 12.5328 13.8562C12.5364 14.1171 12.5436 14.3781 12.5442 14.6391C12.5455 15.2728 12.545 15.9066 12.5427 16.5404C12.5427 16.6895 12.5354 16.8386 12.5339 16.9877C12.5339 17.0491 12.5153 17.0856 12.4553 17.1182C12.1712 17.2756 11.8931 17.4429 11.6103 17.6029C11.3635 17.7421 11.1122 17.8737 10.8647 18.013C10.6686 18.1231 10.4768 18.2415 10.2809 18.3524C9.96399 18.5317 9.64524 18.7066 9.32779 18.8855C9.07466 19.0275 8.81724 19.1634 8.57119 19.3174C8.42039 19.4117 8.29306 19.4123 8.14394 19.3174C7.91448 19.172 7.67793 19.0378 7.44027 18.9047C6.96904 18.6402 6.49464 18.3815 6.0236 18.1168C5.66571 17.9155 5.31248 17.7067 4.95477 17.5048C4.68057 17.3505 4.40227 17.2036 4.12677 17.0515C4.10813 17.0414 4.08296 17.0099 4.08744 16.9989C4.1003 16.9665 4.12005 16.9264 4.14857 16.9122C4.38251 16.7956 4.61905 16.6845 4.85429 16.5704C4.91506 16.5409 4.97062 16.4945 5.03418 16.4787C5.09774 16.4628 5.17566 16.4548 5.22692 16.4822C5.46813 16.6116 5.70206 16.7549 5.93917 16.8923C6.23555 17.0639 6.53224 17.235 6.82924 17.4055C7.05106 17.5332 7.27437 17.6582 7.49489 17.7885C7.73609 17.9309 7.98047 18.0694 8.21217 18.2264C8.3378 18.3118 8.42914 18.2622 8.53185 18.2031C8.74286 18.0819 8.9548 17.9621 9.16562 17.8398C9.22974 17.8025 9.28827 17.7561 9.35202 17.719C9.50115 17.6329 9.65363 17.5527 9.80182 17.4653C9.98972 17.3544 10.1735 17.2368 10.361 17.1259C10.4591 17.0679 10.5636 17.0207 10.6626 16.9643C10.8982 16.8295 11.1346 16.6957 11.365 16.5521C11.4013 16.5294 11.425 16.4589 11.4254 16.4095C11.4291 15.7385 11.4274 15.0674 11.4278 14.3964C11.4278 14.1447 11.4304 13.8931 11.4314 13.6416C11.4314 13.6213 11.4278 13.6008 11.4241 13.5604L11.1294 13.7313C10.9317 13.846 10.734 13.9607 10.5362 14.0754C10.3015 14.2121 10.067 14.3488 9.83276 14.4855C9.64312 14.5961 9.45374 14.7067 9.2646 14.8175C9.0946 14.9166 8.92498 15.0163 8.7546 15.1157C8.64276 15.1806 8.53092 15.2488 8.41479 15.3041C8.39284 15.3129 8.36932 15.3169 8.34571 15.3161C8.3221 15.3153 8.29891 15.3097 8.2776 15.2995C7.96593 15.1239 7.65706 14.9431 7.34856 14.7617C7.11444 14.624 6.88367 14.4808 6.64899 14.344C6.45178 14.2292 6.24953 14.1231 6.0525 14.0085C5.74624 13.8291 5.44407 13.6433 5.13781 13.4642C4.93799 13.3475 4.73351 13.239 4.53257 13.1242C4.42874 13.0647 4.3264 13.0023 4.22742 12.9353C4.21485 12.925 4.20458 12.9121 4.19727 12.8975C4.18995 12.8829 4.18575 12.867 4.18493 12.8507C4.18493 11.8474 4.18623 10.844 4.18884 9.84067C4.18959 9.31266 4.18909 8.78451 4.18735 8.25625C4.18735 8.17199 4.19779 8.11068 4.29136 8.06408C4.51505 7.95223 4.72867 7.82286 4.94564 7.69891C5.21033 7.54736 5.47297 7.3919 5.73878 7.24204C6.03703 7.07427 6.339 6.91154 6.63781 6.74378C6.79383 6.65617 6.94555 6.56129 7.10083 6.47238C7.44046 6.27777 7.78064 6.08423 8.12139 5.89173C8.1719 5.86187 8.22406 5.83485 8.2776 5.81083C8.38814 5.76404 8.47667 5.83078 8.56484 5.87813C8.75497 5.98028 8.94194 6.08802 9.12965 6.19501C9.24764 6.26174 9.36433 6.33034 9.48195 6.39744C9.68793 6.51506 9.89446 6.63175 10.1004 6.74974C10.2812 6.8532 10.4604 6.96001 10.6425 7.06179C10.9139 7.21352 11.1877 7.36003 11.4593 7.51232C11.6767 7.63367 11.891 7.7606 12.11 7.87878C12.1302 7.8879 12.152 7.89262 12.1741 7.89262C12.1962 7.89262 12.218 7.8879 12.2381 7.87878C12.5871 7.68194 12.9312 7.47634 13.2799 7.2795C13.6341 7.0793 13.9938 6.88805 14.3489 6.68916C14.545 6.57937 14.7357 6.46026 14.9305 6.34805C15.1356 6.2295 15.3415 6.11019 15.552 6.00077C15.5773 5.98987 15.6047 5.9844 15.6322 5.98473C15.6598 5.98505 15.687 5.99115 15.7121 6.00264C15.9518 6.13498 16.1843 6.28075 16.4229 6.41534C16.6672 6.55309 16.9168 6.68152 17.1623 6.8176C17.2811 6.88321 17.3942 6.95889 17.5122 7.02618C17.6939 7.12982 17.8783 7.22899 18.0602 7.33225C18.2532 7.44186 18.444 7.555 18.637 7.66442C18.8114 7.7634 18.9876 7.8594 19.1628 7.95726C19.292 8.0294 19.4206 8.10266 19.5498 8.17498C19.6089 8.20797 19.6657 8.24749 19.7287 8.26967C19.8042 8.29614 19.8154 8.34833 19.815 8.41506C19.8142 8.69156 19.8139 8.96806 19.8141 9.24456C19.8141 10.4808 19.8124 11.7172 19.8169 12.954C19.8169 13.0845 19.7727 13.151 19.6547 13.2097C19.4256 13.3238 19.2089 13.4627 18.9865 13.5904C18.7801 13.7091 18.5725 13.8258 18.3665 13.9445C18.1717 14.0575 17.9788 14.1732 17.7845 14.2868C17.5422 14.4284 17.2999 14.5697 17.0576 14.7105L16.3783 15.1058C16.1466 15.241 15.9158 15.3782 15.6815 15.5086C15.6624 15.5169 15.6417 15.5209 15.6208 15.5204C15.6 15.5199 15.5795 15.5149 15.5607 15.5057C15.237 15.3192 14.9165 15.1276 14.5946 14.9382C14.3287 14.7819 14.0623 14.6261 13.7955 14.4709C13.4483 14.2692 13.1004 14.0682 12.7517 13.8679C12.6887 13.8288 12.6255 13.7915 12.5384 13.7402ZM12.5315 10.755H12.5433C12.5433 10.8109 12.5433 10.8668 12.5433 10.9227C12.5418 11.4104 12.5433 11.8982 12.5351 12.3858C12.5334 12.479 12.5636 12.5327 12.6359 12.5748C12.8173 12.6805 12.9984 12.7868 13.1806 12.8917C13.4292 13.0341 13.6792 13.1749 13.928 13.3171C14.0932 13.4112 14.258 13.5065 14.4228 13.6015C14.5508 13.6761 14.6794 13.7482 14.8066 13.8237C15.064 13.977 15.3194 14.1335 15.579 14.2828C15.6085 14.2998 15.667 14.2912 15.7002 14.2728C15.8185 14.2077 15.9304 14.1313 16.0469 14.0627C16.2749 13.9283 16.504 13.796 16.733 13.6636C16.9653 13.5298 17.199 13.3986 17.4307 13.2632C17.6822 13.1165 17.9312 12.965 18.1829 12.8183C18.332 12.7312 18.4847 12.6505 18.6347 12.565C18.686 12.5359 18.7173 12.4962 18.7125 12.4291C18.7048 12.3243 18.7043 12.2188 18.7044 12.1137C18.7067 11.0978 18.7104 10.0819 18.71 9.06617C18.7086 9.04389 18.7025 9.02216 18.6921 9.00236C18.6818 8.98256 18.6674 8.96513 18.65 8.95116C18.543 8.87809 18.4284 8.81621 18.3164 8.75041C18.0474 8.59234 17.7778 8.4352 17.5096 8.27601C17.2809 8.14049 17.0538 8.00181 16.8253 7.86592C16.629 7.74923 16.4314 7.63515 16.2346 7.51958C16.0668 7.42135 15.8959 7.32983 15.7362 7.22134C15.6329 7.15106 15.5563 7.19488 15.4752 7.2439C15.176 7.42359 14.8787 7.60701 14.5791 7.7854C14.1676 8.03015 13.7539 8.27154 13.3414 8.51442C13.1364 8.63521 12.9332 8.75954 12.7263 8.87567C12.5926 8.95023 12.5213 9.03467 12.5272 9.20914C12.5421 9.72399 12.5315 10.24 12.5315 10.7555V10.755ZM5.66255 8.56847C5.7824 8.63651 5.88436 8.69281 5.98502 8.75153C6.24599 8.90382 6.50453 9.05891 6.76624 9.20933C7.03317 9.36293 7.30438 9.50962 7.57075 9.66434C7.81308 9.80507 8.05037 9.95438 8.29269 10.0953C8.31028 10.1041 8.32956 10.109 8.34921 10.1097C8.36887 10.1104 8.38844 10.1068 8.40659 10.0992C8.57044 10.0096 8.73019 9.91282 8.89124 9.81719C9.07764 9.70721 9.26237 9.59518 9.44933 9.48651C9.61709 9.38958 9.78653 9.29694 9.95429 9.20094C10.1254 9.10308 10.295 9.0028 10.4658 8.90456C10.6574 8.79421 10.8494 8.68498 11.0535 8.56904C11.0162 8.54145 10.9924 8.5189 10.9642 8.50212C10.8692 8.44508 10.7722 8.39028 10.6768 8.33436C10.4158 8.17946 10.1567 8.02307 9.89613 7.86835C9.64896 7.72184 9.4003 7.57774 9.15313 7.43142C8.90596 7.28509 8.656 7.13206 8.40435 6.9876C8.37825 6.9725 8.32438 6.98294 8.29456 7.00046C8.03359 7.15387 7.77617 7.31305 7.51595 7.46739C7.12848 7.69754 6.74014 7.92632 6.35093 8.15373C6.22324 8.22829 6.09295 8.29913 5.96582 8.37518C5.8689 8.43334 5.7742 8.49709 5.66255 8.56904V8.56847ZM7.79966 13.7878C7.80376 13.7514 7.80879 13.7279 7.80879 13.7044C7.80879 12.8503 7.8073 11.9961 7.81028 11.142C7.81028 11.0599 7.77654 11.0165 7.71242 10.9807C7.49992 10.8616 7.28668 10.7436 7.07623 10.6208C6.80967 10.4653 6.54647 10.3039 6.2801 10.1482C5.97067 9.96743 5.65956 9.7896 5.34808 9.6114C5.32666 9.60183 5.30429 9.59452 5.28135 9.58959C5.27198 9.61355 5.26572 9.63861 5.26271 9.66416C5.26513 9.80955 5.27408 9.95513 5.27427 10.1005C5.27427 10.8025 5.27595 11.5045 5.27185 12.2069C5.27185 12.2956 5.30819 12.3454 5.37772 12.3841C5.55536 12.4837 5.73375 12.5815 5.91009 12.6824C6.18503 12.8408 6.45867 13.0015 6.73268 13.1616C6.93474 13.2798 7.13643 13.3989 7.33849 13.5173C7.48762 13.6055 7.63637 13.6921 7.79966 13.7878ZM8.91621 13.7866C8.9794 13.7537 9.02414 13.7331 9.06627 13.7082C9.41633 13.5003 9.76547 13.2902 10.1163 13.0833C10.3959 12.9187 10.6755 12.7573 10.957 12.5953C11.0688 12.5305 11.178 12.4554 11.2975 12.4089C11.3917 12.3717 11.4299 12.3226 11.4302 12.2253C11.433 11.396 11.4386 10.5663 11.4412 9.73778C11.4412 9.7005 11.4226 9.66322 11.412 9.62688C11.3721 9.63974 11.3281 9.64551 11.2929 9.66658C11.0319 9.81961 10.7752 9.97843 10.5137 10.1302C10.2956 10.2565 10.0717 10.3725 9.85289 10.4987C9.5662 10.6631 9.28343 10.8342 8.99544 10.9977C8.93392 11.0327 8.90857 11.0687 8.90876 11.1418C8.91137 11.9867 8.91025 12.8315 8.91043 13.6769C8.91099 13.7084 8.91398 13.7402 8.91621 13.7866Z" fill="white"/>
<path d="M3.20993 16.5769C3.31842 16.5769 3.42728 16.5741 3.53559 16.5779C3.604 16.5803 3.63643 16.6038 3.64165 16.6914C3.65246 16.8722 3.67334 17.0573 3.72777 17.2286C3.7561 17.3177 3.85658 17.3922 3.93897 17.4539C4.04447 17.533 4.16432 17.593 4.27859 17.6601C4.36005 17.7078 4.37011 17.7702 4.31755 17.8534C4.21875 18.0092 4.12537 18.1684 4.02769 18.3248C3.98929 18.3861 3.93449 18.418 3.86366 18.3771C3.59356 18.2196 3.32812 18.0539 3.12326 17.8127C2.97879 17.6426 2.91281 17.4347 2.85167 17.2215C2.80153 17.0466 2.80357 16.8733 2.7991 16.6975C2.7963 16.5896 2.81383 16.5728 2.9212 16.5723C3.01757 16.5723 3.11375 16.5723 3.20993 16.5723V16.5769Z" fill="white"/>
<path d="M21.1967 8.21295V8.25937C21.1967 8.42154 21.1762 8.44335 21.018 8.44577C20.8383 8.44838 20.6586 8.45118 20.4789 8.45286C20.398 8.45379 20.36 8.42247 20.3544 8.33095C20.3445 8.17101 20.3357 8.00604 20.2875 7.85524C20.2576 7.76036 20.1695 7.67406 20.088 7.6077C19.9691 7.51114 19.8343 7.43286 19.7029 7.35252C19.6356 7.31132 19.6336 7.26062 19.6656 7.20339C19.767 7.02668 19.8707 6.85127 19.976 6.67661C20.0194 6.60447 20.0878 6.6041 20.1547 6.65405C20.2558 6.72862 20.3633 6.7961 20.4701 6.86358C20.7246 7.02463 20.9129 7.24719 21.0502 7.51039C21.1006 7.60677 21.1231 7.71973 21.1453 7.82728C21.1712 7.95385 21.1826 8.0834 21.2012 8.21165L21.1967 8.21295Z" fill="white"/>
</svg>