<svg width="24" height="24" viewBox="0 0 24 24" fill="none" xmlns="http://www.w3.org/2000/svg">
<path d="M23.9972 12.0005C23.9972 18.6267 18.6247 23.999 11.9957 24C5.37142 24 -0.000959524 18.6267 5.14513e-07 11.9995C-0.00191956 5.37238 5.37046 0 11.9976 0C18.6247 0 23.9972 5.37334 23.9972 12.0005Z" fill="#02A6C2"/>
<path d="M9.33403 6.60028C12.3225 6.59938 15.3112 6.59938 18.3001 6.60028C18.301 7.56628 18.301 8.53212 18.3001 9.4978C15.3115 9.49872 12.3228 9.49872 9.33403 9.4978C9.33307 8.5318 9.33307 7.56596 9.33403 6.60028Z" fill="white"/>
<path d="M5.80375 10.5887C6.76791 10.5837 7.73225 10.5837 8.69675 10.5887C8.70175 11.5529 8.70175 12.5172 8.69675 13.4817C7.73229 13.4867 6.76795 13.4867 5.80375 13.482C5.79873 12.5176 5.79873 11.5532 5.80375 10.5887Z" fill="white"/>
<path d="M9.3362 10.5884C11.4933 10.5838 13.6502 10.5838 15.8069 10.5884C15.8115 11.5526 15.8115 12.5169 15.8069 13.4814C13.6499 13.4859 11.493 13.4859 9.3362 13.4814C9.3317 12.5172 9.3317 11.5529 9.3362 10.5884Z" fill="white"/>
<path d="M9.33885 14.5772C10.3014 14.5667 11.2638 14.5667 12.226 14.5772C12.236 15.5391 12.2361 16.5015 12.2264 17.4643C11.2639 17.4738 10.3015 17.4736 9.33935 17.4638C9.32935 16.502 9.32919 15.5398 9.33885 14.5772Z" fill="white"/>
</svg>