<svg width="24" height="24" viewBox="0 0 24 24" fill="none" xmlns="http://www.w3.org/2000/svg">
<circle cx="12" cy="12" r="12" fill="white"/>
<path fill-rule="evenodd" clip-rule="evenodd" d="M3 16.97C3.24574 17.1006 3.56827 17.3002 3.79865 17.4538C3.88312 17.5114 3.97911 17.5613 4.07126 17.6189C4.12117 17.6496 4.15189 17.665 4.19797 17.6957C4.22101 17.7111 4.2402 17.7264 4.26324 17.7379C4.29012 17.7533 4.30548 17.761 4.33235 17.7763L7.28888 19.5963C7.33111 19.6194 7.36951 19.6462 7.41559 19.6731L10.0995 21.328C10.1302 21.3472 10.1417 21.351 10.1686 21.3702L11.451 22.1574C11.5086 22.1881 11.5317 22.2265 11.597 22.2303V12.2089L11.19 11.9746C11.1516 11.9554 11.1285 11.9401 11.0901 11.917L10.7714 11.7327C10.3184 11.4947 9.89599 11.2029 9.43908 10.9648C9.393 10.9418 9.37764 10.9264 9.32773 10.9034L8.92072 10.6692C8.82089 10.6077 8.36782 10.3351 8.28718 10.3159V11.8979L9.95359 12.8616C9.99966 12.8885 10.0304 12.9077 10.0726 12.9307C10.1187 12.9538 10.1417 12.9806 10.1993 12.9921V19.7768C9.90751 19.581 9.5965 19.4043 9.29701 19.2239L8.57132 18.7746C8.27566 18.575 7.95697 18.4099 7.66132 18.2141C7.62677 18.191 7.60757 18.1833 7.57301 18.1603L6.93179 17.7648C6.86268 17.7264 6.81276 17.6957 6.74749 17.6496C6.51327 17.4922 6.25985 17.354 6.0218 17.2004C5.95652 17.1582 5.90277 17.1313 5.83749 17.089C5.48425 16.851 5.10412 16.636 4.7432 16.4171C4.71248 16.3979 4.6856 16.3787 4.65872 16.3595L4.37843 16.1867V8.04285C4.32468 8.0083 4.27092 7.97758 4.20949 7.94302C4.14805 7.90847 4.10198 7.88159 4.04054 7.84319L3.17662 7.35172C3.11135 7.31716 3.06143 7.27876 3 7.24805V16.97Z" fill="#060606"/>
<path fill-rule="evenodd" clip-rule="evenodd" d="M12.4256 12.1938V16.0449L12.9363 15.757C13.1705 15.6341 13.3856 15.4844 13.6198 15.3615C13.662 15.3384 13.6774 15.3308 13.7081 15.3077C13.7388 15.2885 13.7695 15.277 13.8002 15.2617V12.9924C13.8463 12.9809 13.8617 12.9732 13.8962 12.9502C13.9308 12.9271 13.9538 12.9195 13.9884 12.9003C14.1688 12.7966 14.3455 12.6737 14.5298 12.5816C14.7793 12.4587 15.0174 12.3051 15.2555 12.1631C15.3169 12.1285 15.3668 12.0978 15.4321 12.0594L15.793 11.8559C15.8314 11.8329 15.8429 11.8252 15.8813 11.8021C16.0387 11.7215 16.1847 11.614 16.3459 11.5295L16.5225 11.4258C16.5533 11.4066 16.584 11.3951 16.6147 11.3798L17.7935 10.6963C18.043 10.5658 18.2734 10.4083 18.5191 10.2778L18.8839 10.0628C19.0068 9.98982 19.1258 9.92455 19.2487 9.84775C19.314 9.80936 19.3677 9.78248 19.4253 9.74408L19.6173 9.63657V16.2062C19.5635 16.2177 19.5482 16.2369 19.5021 16.2638L19.1642 16.4711C19.1296 16.4942 19.1028 16.5134 19.0605 16.5403C19.0145 16.5671 18.9837 16.5902 18.9453 16.6132C18.9031 16.6362 18.8801 16.6554 18.8378 16.6785L18.4961 16.882C18.1889 17.0586 17.901 17.2583 17.5938 17.4349L16.6953 17.9916C16.6531 18.0185 16.63 18.03 16.5878 18.0569C16.1846 18.3295 15.7546 18.5561 15.3476 18.821C15.2747 18.8709 15.1979 18.9132 15.1249 18.9592L13.9999 19.6504C13.9653 19.6696 13.9269 19.6926 13.8924 19.7156C13.5583 19.9345 13.2089 20.1226 12.8749 20.3415L12.418 20.6218V22.2345C12.4948 22.2153 12.6176 22.1231 12.6867 22.0809C12.7789 22.0233 12.8672 21.9772 12.9594 21.9158C13.2166 21.743 13.4969 21.6009 13.7542 21.4281C13.8041 21.3974 13.8425 21.3705 13.8885 21.3437L14.5682 20.9251C14.6142 20.8983 14.6488 20.8752 14.6949 20.8483L18.3118 18.6213C18.3617 18.5906 18.404 18.5638 18.4462 18.5369L20.8613 17.0509C20.9074 17.0202 20.9535 16.9933 20.9996 16.9703V7.26367C20.9304 7.27903 20.9189 7.30207 20.8652 7.33279C20.8152 7.35966 20.7807 7.37886 20.7346 7.40574L19.9321 7.87034C19.6595 8.01624 19.4061 8.19671 19.1296 8.33493L16.9833 9.5713C16.8873 9.62505 16.8105 9.67497 16.7184 9.72872L16.3229 9.9591C16.0426 10.1012 15.6356 10.3431 15.3783 10.5043C15.3323 10.535 15.2939 10.5466 15.2478 10.5773L14.3762 11.0841C14.3378 11.1033 14.3455 11.1033 14.3071 11.1264L14.0345 11.2761C13.8732 11.3606 13.7311 11.4642 13.5699 11.5487C13.5315 11.5679 13.5315 11.5756 13.5007 11.591L13.2281 11.7407C13.0477 11.829 12.5716 12.1631 12.4256 12.1938Z" fill="#060606"/>
<path fill-rule="evenodd" clip-rule="evenodd" d="M3.5332 6.60373C3.58696 6.61525 3.61768 6.64596 3.66759 6.67284C3.84805 6.76883 4.00932 6.88402 4.19362 6.97617L5.65268 7.82089C6.34766 8.24325 7.06951 8.61954 7.76832 9.0419L7.89887 9.11485C7.94879 9.14173 7.98335 9.16477 8.02942 9.18781L8.82423 9.64856C8.85878 9.66776 8.85494 9.66776 8.88182 9.68312C9.25427 9.90966 9.64591 10.1016 10.0145 10.3359L11.1971 11.0155C11.2432 11.0424 11.2778 11.0654 11.3238 11.0923C11.4621 11.1767 11.9574 11.4762 12.0073 11.4762C12.0802 11.4762 12.5026 11.2075 12.6101 11.1422L12.8175 11.0193C12.8866 10.9771 12.948 10.9502 13.0171 10.908C13.0901 10.8657 13.1438 10.835 13.2168 10.7928L13.6199 10.5547C13.689 10.5125 13.7505 10.4818 13.8158 10.4395L14.4263 10.094C14.4647 10.0748 14.4915 10.0556 14.5261 10.0364C14.5606 10.0133 14.5837 10.0018 14.6259 9.97877L15.0329 9.74455C15.0982 9.70616 15.1712 9.64856 15.2479 9.62936C15.2364 9.58329 15.2287 9.58713 15.1903 9.56409L13.8887 8.81536C13.3704 9.08797 12.8789 9.40666 12.3644 9.68696C12.3221 9.71 12.2876 9.73303 12.2492 9.75991C12.1686 9.80983 12.0956 9.85206 12.0111 9.89814L11.2278 9.44506C10.9552 9.30683 10.7056 9.12637 10.433 8.9843C10.3716 8.94975 10.3102 8.91135 10.2564 8.88063L8.6668 7.9668C8.63608 7.9476 8.60921 7.93224 8.57849 7.91304C8.54393 7.89001 8.52089 7.88233 8.48634 7.86313L6.45133 6.6882C6.41293 6.66516 6.40909 6.65364 6.35534 6.64212C6.39757 6.58069 6.44749 6.57685 6.5166 6.53461C6.5742 6.49622 6.62795 6.47702 6.68939 6.44246L8.45946 5.48639C8.49786 5.46336 8.49786 5.45952 8.53625 5.44032C8.57465 5.42112 8.59385 5.41344 8.6284 5.3904C8.68984 5.35201 8.75127 5.32513 8.81271 5.29441L11.0205 4.10412C11.0589 4.08492 11.0704 4.07341 11.1088 4.05037L12.0073 3.57041C12.0572 3.57041 12.7368 3.9659 12.8942 4.04653C12.9326 4.06573 12.9595 4.07724 12.9979 4.10028C13.044 4.12716 13.0555 4.13868 13.1093 4.16172L15.5513 5.47871C15.7663 5.6131 16.419 5.95483 16.6494 6.07002C16.9105 6.20057 17.1601 6.35799 17.4212 6.48854L18.8726 7.27566C18.9225 7.30254 18.9378 7.31022 18.9839 7.3371C19.1567 7.44077 19.1605 7.35246 19.4408 7.19887L19.9592 6.90322C20.0513 6.8533 20.4007 6.63061 20.4814 6.61141C20.466 6.56149 20.4199 6.54229 20.3739 6.51542L19.8478 6.22744C19.5829 6.09306 19.318 5.92795 19.053 5.80124L18.527 5.51327C18.3465 5.42112 18.1661 5.33665 17.9971 5.22914L15.3439 3.79695C15.2902 3.77007 15.2595 3.75472 15.2134 3.724L14.146 3.14805C14.0961 3.12117 14.0653 3.10198 14.0154 3.0751C13.9885 3.05974 13.977 3.0559 13.954 3.04438L12.5525 2.28413C12.4642 2.23038 12.0534 2 12.0034 2C11.9612 2 11.6656 2.17662 11.6003 2.20734L8.56313 3.85071C8.51322 3.87374 8.47482 3.89294 8.42874 3.91982L6.30158 5.06787C6.25167 5.09475 6.22863 5.11395 6.17104 5.14083L5.97905 5.2445C5.94066 5.26369 5.94066 5.27137 5.90994 5.28673C5.8677 5.31361 5.82163 5.32513 5.77555 5.35584L5.36855 5.5747C5.3148 5.60158 5.28792 5.62462 5.238 5.64766L4.61982 5.98555C4.59678 5.99706 4.59678 5.99323 4.57758 6.00474C4.48927 6.05466 4.39712 6.08922 4.31265 6.14681C4.26273 6.17753 4.23202 6.18905 4.17826 6.21592L3.58312 6.54613C3.53704 6.57301 3.54856 6.54997 3.5332 6.60373Z" fill="#060606"/>
</svg>