<svg width="24" height="24" viewBox="0 0 24 24" fill="none" xmlns="http://www.w3.org/2000/svg">
<path d="M12 24C18.6274 24 24 18.6274 24 12C24 5.37258 18.6274 0 12 0C5.37258 0 0 5.37258 0 12C0 18.6274 5.37258 24 12 24Z" fill="#EDF0F4"/>
<path d="M14.7158 18.2334H9.29944V18.9593H14.7158V18.2334Z" fill="#681AF1"/>
<path d="M16.112 17.5078H7.84778V18.2337H16.112V17.5078Z" fill="#681AF1"/>
<path d="M16.7821 16.7822H7.17773V17.5081H16.7821V16.7822Z" fill="#681AF1"/>
<path d="M17.508 16.0557H6.396V16.7816H17.508V16.0557Z" fill="#781CF2"/>
<path d="M18.2338 15.3301H5.78162V16.056H18.2338V15.3301Z" fill="#781CF2"/>
<path d="M18.2338 14.6045H5.78162V15.3304H18.2338V14.6045Z" fill="#781CF2"/>
<path d="M18.904 9.35547H5.05579V10.4723H18.904V9.35547Z" fill="#E740EC"/>
<path d="M18.2338 7.90332H5.78162V9.35514H18.2338V7.90332Z" fill="#E740EC"/>
<path d="M17.5081 7.17773H6.4519V7.90365H17.5081V7.17773Z" fill="#E740EC"/>
<path d="M16.782 6.45117H7.12183V7.17708H16.782V6.45117Z" fill="#E740EC"/>
<path d="M16.112 5.72559H7.84778V6.4515H16.112V5.72559Z" fill="#E740EC"/>
<path d="M14.7158 5H9.29944V5.72591H14.7158V5Z" fill="#E740EC"/>
<path d="M18.904 12.5381H5V14.6041H18.904V12.5381Z" fill="#9521F2"/>
<path d="M18.904 10.4717H5V12.5377H18.904V10.4717Z" fill="#B828F3"/>
<path d="M8.8527 13.0967H7.40088V13.5992H8.8527V13.0967Z" fill="white"/>
<path d="M9.35526 10.6396H7.40088V11.1422H9.35526V10.6396Z" fill="white"/>
<path d="M10.3047 10.6396H9.80212V13.5991H10.3047V10.6396Z" fill="white"/>
<path d="M12.0356 10.6396H11.5331V13.5991H12.0356V10.6396Z" fill="white"/>
<path d="M9.35544 11.8125H7.84778V12.3151H9.35544V11.8125Z" fill="white"/>
<path d="M11.5333 11.8125H10.3048V12.3151H11.5333V11.8125Z" fill="white"/>
<path d="M14.2136 13.0967H12.4825V13.5992H14.2136V13.0967Z" fill="white"/>
<path d="M16.6703 11.0859H16.1677V13.5987H16.6703V11.0859Z" fill="white"/>
<path d="M13.9342 13.5996H13.4316V14.1022H13.9342V13.5996Z" fill="white"/>
<path d="M14.7161 12.3154H14.2135V13.0972H14.7161V12.3154Z" fill="white"/>
<path d="M12.9851 11.0859H12.4825V11.8677H12.9851V11.0859Z" fill="white"/>
<path d="M14.2136 11.8682H12.9851V12.3149H14.2136V11.8682Z" fill="white"/>
<path d="M14.7161 10.6396H12.9851V11.0864H14.7161V10.6396Z" fill="white"/>
<path d="M17.6196 10.6396H15.2185V11.0864H17.6196V10.6396Z" fill="white"/>
<path d="M13.9901 10.1367H13.4875V10.6393H13.9901V10.1367Z" fill="white"/>
<path d="M9.35534 12.3154H8.85278V13.0972H9.35534V12.3154Z" fill="white"/>
<path d="M7.40087 11.1426H6.89832V13.097H7.40087V11.1426Z" fill="white"/>
</svg>