<svg width="24" height="24" viewBox="0 0 24 24" fill="none" xmlns="http://www.w3.org/2000/svg">
<circle cx="12" cy="12" r="12" fill="#0D1126"/>
<path d="M18.819 10.347C18.9803 10.347 19.1142 10.2208 19.1142 10.0596C19.1142 7.12285 16.7336 4.74219 13.7969 4.74219C10.8602 4.74219 8.47949 7.12285 8.47949 10.0596C8.47949 10.2208 8.61346 10.347 8.77469 10.347H18.819Z" fill="#52C8C6"/>
<path d="M12.7901 17.4605C12.7901 17.2621 12.9509 17.1012 13.1494 17.1012H18.6104C18.8089 17.1012 18.9697 17.2621 18.9697 17.4605C18.9697 17.6589 18.8089 17.8198 18.6104 17.8198H13.1494C12.9509 17.8198 12.7901 17.6589 12.7901 17.4605Z" fill="#F41482"/>
<path d="M9.34099 18.8976C9.34099 18.6992 9.50185 18.5383 9.70027 18.5383H15.1613C15.3598 18.5383 15.5206 18.6992 15.5206 18.8976C15.5206 19.096 15.3598 19.2569 15.1613 19.2569H9.70027C9.50185 19.2569 9.34099 19.096 9.34099 18.8976Z" fill="#F41482"/>
<path d="M11.0655 16.0234C11.0655 15.8249 11.2264 15.6641 11.4248 15.6641H20.335C20.5334 15.6641 20.6943 15.8249 20.6943 16.0234C20.6943 16.2218 20.5334 16.3826 20.335 16.3826H11.4248C11.2264 16.3826 11.0655 16.2218 11.0655 16.0234Z" fill="#F41482"/>
<path d="M5.46075 16.0234C5.46075 15.8249 5.62161 15.6641 5.82003 15.6641H9.9877C10.1861 15.6641 10.347 15.8249 10.347 16.0234C10.347 16.2218 10.1861 16.3826 9.9877 16.3826H5.82003C5.62161 16.3826 5.46075 16.2218 5.46075 16.0234Z" fill="#F41482"/>
<path d="M7.1853 14.5862C7.1853 14.3878 7.34616 14.2269 7.54458 14.2269H18.4667C18.6652 14.2269 18.826 14.3878 18.826 14.5862C18.826 14.7847 18.6652 14.9455 18.4667 14.9455H7.54458C7.34616 14.9455 7.1853 14.7847 7.1853 14.5862Z" fill="#F41482"/>
<path d="M4.74219 13.0054C4.74219 12.807 4.90304 12.6461 5.10147 12.6461H14.0116C14.2101 12.6461 14.3709 12.807 14.3709 13.0054C14.3709 13.2038 14.2101 13.3647 14.0116 13.3647H5.10147C4.90304 13.3647 4.74219 13.2038 4.74219 13.0054Z" fill="#F41482"/>
<path d="M7.32901 11.5683C7.32901 11.3698 7.48987 11.209 7.6883 11.209H19.9039C20.1023 11.209 20.2631 11.3698 20.2631 11.5683C20.2631 11.7667 20.1023 11.9275 19.9039 11.9275H7.6883C7.48987 11.9275 7.32901 11.7667 7.32901 11.5683Z" fill="#F41482"/>
</svg>