<svg width="24" height="24" viewBox="0 0 24 24" fill="none" xmlns="http://www.w3.org/2000/svg">
<circle cx="12" cy="12" r="12" fill="url(#paint0_linear_1492_4063)"/>
<path fill-rule="evenodd" clip-rule="evenodd" d="M2 12C2 6.47716 6.47716 2 12 2C17.5229 2 22 6.47717 22 12C22 17.5229 17.5228 22 12 22C6.47716 22 2 17.5229 2 12ZM12 2.95238C7.00314 2.95238 2.95238 7.00315 2.95238 12C2.95238 16.9969 7.00314 21.0476 12 21.0476C16.9969 21.0476 21.0476 16.9969 21.0476 12C21.0476 7.00315 16.9969 2.95238 12 2.95238Z" fill="black"/>
<path fill-rule="evenodd" clip-rule="evenodd" d="M10.4086 5C10.6597 5 10.8632 5.21615 10.8632 5.48278V7.89645H12.9092V5.48278C12.9092 5.21615 13.1127 5 13.3637 5C13.6148 5 13.8183 5.21615 13.8183 5.48278V7.89645H16.5455C16.7965 7.89645 17 8.1126 17 8.37923C17 8.64586 16.7965 8.86201 16.5455 8.86201H13.3775L13.3637 8.86223L13.3499 8.86201H10.4224L10.4086 8.86223L10.3949 8.86201H7.90909V14.8967H16.0909V12.4828H10.4091C10.1581 12.4828 9.95455 12.2667 9.95455 12.0001C9.95455 11.7334 10.1581 11.5173 10.4091 11.5173H16.3182C16.6947 11.5173 17 11.8415 17 12.2415V15.1381C17 15.5381 16.6947 15.8623 16.3182 15.8623H13.8183V18.5181C13.8183 18.7847 13.6148 19.0009 13.3637 19.0009C13.1127 19.0009 12.9092 18.7847 12.9092 18.5181V15.8623H10.8632V18.5181C10.8632 18.7847 10.6597 19.0009 10.4086 19.0009C10.1576 19.0009 9.9541 18.7847 9.9541 18.5181V15.8623H7.68182C7.30526 15.8623 7 15.5381 7 15.1381V8.62062C7 8.22067 7.30526 7.89645 7.68182 7.89645H9.9541V5.48278C9.9541 5.21615 10.1576 5 10.4086 5Z" fill="black"/>
<defs>
<linearGradient id="paint0_linear_1492_4063" x1="0" y1="0" x2="24" y2="24" gradientUnits="userSpaceOnUse">
<stop stop-color="#C09E52"/>
<stop offset="1" stop-color="#F2E09F"/>
</linearGradient>
</defs>
</svg>