<svg width="24" height="24" viewBox="0 0 24 24" fill="none" xmlns="http://www.w3.org/2000/svg">
<path d="M12 24C18.6274 24 24 18.6274 24 12C24 5.37258 18.6274 0 12 0C5.37258 0 0 5.37258 0 12C0 18.6274 5.37258 24 12 24Z" fill="#6747ED"/>
<path fill-rule="evenodd" clip-rule="evenodd" d="M11.825 13.5498C10.05 13.5498 8.62502 12.1248 8.62502 10.3498C8.62502 8.57481 10.05 7.14981 11.825 7.14981C13.6 7.14981 15.025 8.57481 15.025 10.3498C15.025 12.1248 13.6 13.5498 11.825 13.5498ZM11.825 5.5498C14.475 5.5498 16.625 7.69981 16.625 10.3498C16.625 12.9998 14.475 15.1498 11.825 15.1498C9.17503 15.1498 7.02502 12.9998 7.02502 10.3498C7.02502 7.69981 9.17503 5.5498 11.825 5.5498ZM16.4 15.3998C16.725 15.7248 16.725 16.2248 16.4 16.5248L13.2 19.7248C12.875 20.0498 12.375 20.0498 12.075 19.7248C11.75 19.3998 11.75 18.8998 12.075 18.5998L15.275 15.3998C15.575 15.0748 16.1 15.0748 16.4 15.3998ZM18.25 6.34981C18.25 6.79981 17.9 7.14981 17.45 7.14981C17 7.14981 16.65 6.79981 16.65 6.34981C16.65 5.89981 17 5.5498 17.45 5.5498C17.875 5.5498 18.25 5.89981 18.25 6.34981Z" fill="white"/>
</svg>