<svg width="24" height="24" viewBox="0 0 24 24" fill="none" xmlns="http://www.w3.org/2000/svg">
<g clip-path="url(#clip0)">
<path d="M23.1893 6.35959L15.939 10.1696V14.5878L18.4328 13.2603V15.8223L11.406 19.8798L5.75854 16.6188C5.33886 16.3765 4.99037 16.028 4.74812 15.6083C4.50587 15.1886 4.37841 14.7125 4.37854 14.2278V7.70734L10.2068 4.34209C10.5712 4.13171 10.9845 4.02095 11.4053 4.02095C11.8261 4.02095 12.2394 4.13171 12.6038 4.34209L18.432 7.70734L21.9998 5.64709L12.9203 0.404588C12.4593 0.138885 11.9366 -0.000976563 11.4045 -0.000976562C10.8725 -0.000976562 10.3498 0.138885 9.88879 0.404588L0.810791 5.64784V16.2836C0.810791 17.2736 1.33879 18.1871 2.19529 18.6821L11.406 23.9996L20.6033 18.6896C21.0282 18.4444 21.381 18.0916 21.6263 17.6667C21.8716 17.2419 22.0006 16.7599 22.0005 16.2693V11.3628L23.1885 10.7313V6.35959H23.1893Z" fill="#D35756"/>
</g>
<defs>
<clipPath id="clip0">
<rect width="24" height="24" fill="white"/>
</clipPath>
</defs>
</svg>