<svg width="24" height="24" viewBox="0 0 24 24" fill="none" xmlns="http://www.w3.org/2000/svg">
<path d="M12 24C18.6274 24 24 18.6274 24 12C24 5.37258 18.6274 0 12 0C5.37258 0 0 5.37258 0 12C0 18.6274 5.37258 24 12 24Z" fill="#EDF0F4"/>
<path d="M16.1629 8C15.2536 8 14.2609 8.48384 13.2098 9.44316C12.7093 9.89364 12.2755 10.3775 11.9585 10.7696C11.9585 10.7696 12.4674 11.3452 13.0263 11.9625C13.3266 11.5871 13.7687 11.0782 14.2692 10.6194C15.2035 9.7685 15.8125 9.59332 16.1629 9.59332C17.4726 9.59332 18.5404 10.6694 18.5404 12.0042C18.5404 13.3222 17.4809 14.3983 16.1629 14.415C16.1045 14.415 16.0211 14.4067 15.9376 14.39C16.3214 14.5652 16.7301 14.6903 17.1222 14.6903C19.5247 14.6903 19.9919 13.0636 20.0252 12.9468C20.092 12.6465 20.1336 12.3379 20.1336 12.0125C20.117 9.79354 18.3485 8 16.1629 8Z" fill="url(#paint0_linear)"/>
<path d="M7.77085 15.9999C8.68013 15.9999 9.67283 15.5161 10.7239 14.5567C11.2244 14.1062 11.6582 13.6224 11.9752 13.2303C11.9752 13.2303 11.4664 12.6547 10.9074 12.0374C10.6071 12.4128 10.165 12.9217 9.66449 13.3805C8.73019 14.2314 8.12121 14.4066 7.77085 14.4066C6.46115 14.4066 5.39337 13.3304 5.39337 11.9957C5.39337 10.6777 6.45281 9.60155 7.77085 9.58487C7.82925 9.58487 7.91267 9.59321 7.99609 9.60989C7.61235 9.43471 7.20359 9.30957 6.81153 9.30957C4.40901 9.30957 3.94187 10.9363 3.90849 11.0531C3.84177 11.3534 3.80005 11.662 3.80005 11.9874C3.80839 14.198 5.58525 15.9999 7.77085 15.9999Z" fill="url(#paint1_linear)"/>
<path fill-rule="evenodd" clip-rule="evenodd" d="M6.81985 9.3514C8.05447 9.38478 9.33915 10.4025 9.59775 10.6528C10.2127 11.245 10.7931 11.9062 10.8988 12.0266C10.9092 12.0385 10.915 12.0451 10.9158 12.0459C11.4747 12.6632 11.9836 13.2388 11.9836 13.2388L11.9919 13.2304C13.1348 14.5401 14.6613 16 16.1796 16C18.0399 15.9917 19.6082 14.682 20.0252 12.9218C19.9836 13.0469 19.3662 14.6903 17.1139 14.6319C15.8876 14.5985 14.603 13.5892 14.3443 13.3389C13.6686 12.6882 13.0347 11.9541 13.0347 11.9541C12.4758 11.3368 11.9669 10.7612 11.9669 10.7612C11.9585 10.7612 11.9585 10.7696 11.9585 10.7696C10.824 9.45152 9.29743 8 7.77919 8C5.91891 8.00834 4.35061 9.3097 3.93351 11.0615C3.98357 10.853 4.62591 9.30136 6.81985 9.3514ZM3.92517 11.0699V11.0532C3.93351 11.0615 3.93351 11.0699 3.92517 11.0699Z" fill="#29ABE2"/>
<defs>
<linearGradient id="paint0_linear" x1="10.6222" y1="10.834" x2="14.8342" y2="17.3134" gradientUnits="userSpaceOnUse">
<stop offset="0.21" stop-color="#F15A24"/>
<stop offset="0.6841" stop-color="#FBB03B"/>
</linearGradient>
<linearGradient id="paint1_linear" x1="13.3108" y1="13.1638" x2="9.09873" y2="6.68441" gradientUnits="userSpaceOnUse">
<stop offset="0.21" stop-color="#ED1E79"/>
<stop offset="0.8929" stop-color="#522785"/>
</linearGradient>
</defs>
</svg>