<svg width="24" height="24" viewBox="0 0 24 24" fill="none" xmlns="http://www.w3.org/2000/svg">
<path d="M12 24C18.6274 24 24 18.6274 24 12C24 5.37258 18.6274 0 12 0C5.37258 0 0 5.37258 0 12C0 18.6274 5.37258 24 12 24Z" fill="#20C5C9"/>
<path d="M17.6 7.6002C18.2628 7.6002 18.8 7.06294 18.8 6.4002C18.8 5.73745 18.2628 5.2002 17.6 5.2002C16.9373 5.2002 16.4 5.73745 16.4 6.4002C16.4 7.06294 16.9373 7.6002 17.6 7.6002Z" fill="white"/>
<path d="M8.44619 14.0561C7.53199 12.505 7.78307 10.5321 9.05667 9.25914C10.3303 7.98612 12.304 7.73516 13.8559 8.64892L14.8 7.70527L14.7528 7.66751C12.6589 6.28795 9.88166 6.57831 8.11867 8.36113C6.3557 10.144 6.09757 12.923 7.50208 14.9998L8.44619 14.0561Z" fill="white"/>
<path d="M15.3499 10.1437C16.2635 11.6946 16.0126 13.6671 14.7398 14.9399C13.4669 16.2127 11.4945 16.4637 9.94352 15.55L9 16.4936C11.0845 17.9088 13.8805 17.6438 15.662 15.8622C17.4436 14.0806 17.7086 11.2847 16.2934 9.2002L15.3499 10.1437Z" fill="white"/>
<path d="M6.2 18.9996C6.86274 18.9996 7.4 18.4624 7.4 17.7996C7.4 17.1369 6.86274 16.5996 6.2 16.5996C5.53726 16.5996 5 17.1369 5 17.7996C5 18.4624 5.53726 18.9996 6.2 18.9996Z" fill="white"/>
</svg>