<svg width="25" height="24" viewBox="0 0 25 24" fill="none" xmlns="http://www.w3.org/2000/svg">
<g clip-path="url(#clip0)">
<path d="M12.1845 23.6727C18.7301 23.6727 24.0364 18.4469 24.0364 12.0004C24.0364 5.554 18.7301 0.328125 12.1845 0.328125C5.6389 0.328125 0.332642 5.554 0.332642 12.0004C0.332642 18.4469 5.6389 23.6727 12.1845 23.6727Z" fill="white"/>
<path d="M12.1846 4.00668e-05C14.5945 4.00668e-05 16.9503 0.703828 18.954 2.02241C20.9578 3.34098 22.5195 5.21513 23.4417 7.40784C24.3639 9.60055 24.6052 12.0134 24.1351 14.3411C23.665 16.6689 22.5045 18.8071 20.8004 20.4853C19.0964 22.1636 16.9253 23.3065 14.5617 23.7695C12.1981 24.2325 9.74821 23.9949 7.52175 23.0866C5.29532 22.1784 3.39234 20.6403 2.05348 18.6669C0.714617 16.6935 0 14.3734 0 12V11.8724C0.0656094 5.32926 5.49556 -0.016883 12.1846 4.00668e-05ZM12.4439 0.870809C5.9736 0.872348 0.918532 5.84622 0.891977 11.9308C0.86386 18.0754 5.93609 23.1308 12.1846 23.1093C15.2792 23.0985 17.952 22.02 20.139 19.8708C22.6275 17.4262 23.7178 14.4277 23.4335 10.9939C23.2345 8.39941 22.0782 5.96636 20.1827 4.15388C17.9785 2.00004 15.2979 0.910811 12.4408 0.870809H12.4439Z" fill="#333333"/>
<path d="M23.132 10.8213C22.8988 8.37371 21.7918 6.08688 20.0078 4.36745C17.8505 2.23515 15.2214 1.15208 12.1565 1.14746C9.28042 1.20482 6.54121 2.36789 4.52436 4.38805C2.50751 6.40822 1.37305 9.12521 1.36346 11.9583C1.35388 14.7914 2.46992 17.5158 4.47303 19.5491C6.47615 21.5825 9.20742 22.7635 12.0831 22.8398C15.1355 22.8613 17.7833 21.809 19.939 19.6828C22.415 17.2429 23.4835 14.2628 23.132 10.8213ZM16.9413 3.55823C17.0077 3.55946 17.0723 3.58005 17.1268 3.61741C17.1813 3.65476 17.2233 3.70719 17.2476 3.76808C17.2719 3.829 17.2773 3.89561 17.2631 3.95952C17.2489 4.0234 17.2159 4.08174 17.168 4.12715C17.1202 4.17253 17.0598 4.20292 16.9944 4.21451C16.929 4.22607 16.8616 4.21828 16.8007 4.19214C16.7398 4.166 16.6882 4.12265 16.6523 4.0676C16.6165 4.01254 16.598 3.94826 16.5992 3.88283C16.6012 3.79525 16.6383 3.71199 16.7024 3.6512C16.7665 3.5904 16.8523 3.55699 16.9413 3.55823ZM15.4338 2.86746C15.5251 2.86787 15.6125 2.90387 15.6769 2.96759C15.7414 3.03131 15.7775 3.11755 15.7775 3.20746C15.7763 3.2507 15.7664 3.29328 15.7485 3.33277C15.7306 3.37226 15.7049 3.40788 15.673 3.4376C15.6411 3.46732 15.6035 3.49055 15.5625 3.50597C15.5215 3.52139 15.4777 3.52869 15.4338 3.52746C15.3912 3.52807 15.3488 3.5204 15.3091 3.50488C15.2695 3.48936 15.2333 3.4663 15.2027 3.43701C15.1721 3.40772 15.1476 3.37278 15.1307 3.33419C15.1139 3.29559 15.1048 3.2541 15.1042 3.21207V3.19669C15.105 3.11041 15.1399 3.02781 15.2014 2.96637C15.2629 2.90493 15.3463 2.86945 15.4338 2.86746ZM13.8467 2.44284C13.9329 2.45089 14.0137 2.48757 14.0758 2.54684C14.138 2.60611 14.1779 2.68446 14.1888 2.769C14.1828 2.86068 14.1411 2.94654 14.0725 3.00873C14.0038 3.07091 13.9134 3.10462 13.8201 3.10284C13.7326 3.09965 13.6497 3.06302 13.589 3.00071C13.5284 2.93841 13.4948 2.8553 13.4952 2.769C13.4993 2.68031 13.5382 2.59665 13.6039 2.53577C13.6695 2.47489 13.7566 2.44156 13.8467 2.44284ZM12.1846 2.30746C12.2507 2.30716 12.3153 2.32613 12.3704 2.36199C12.4255 2.39785 12.4686 2.44898 12.4943 2.50893C12.5199 2.56888 12.5269 2.63497 12.5144 2.69885C12.502 2.76273 12.4706 2.82154 12.4242 2.86785C12.3778 2.91417 12.3186 2.94592 12.2539 2.95909C12.1892 2.97227 12.122 2.96628 12.0608 2.94188C11.9995 2.91748 11.947 2.87576 11.9098 2.82199C11.8727 2.76822 11.8525 2.70481 11.8519 2.63977C11.8519 2.55243 11.8868 2.4686 11.949 2.40641C12.0113 2.34422 12.096 2.30867 12.1846 2.30746ZM10.5428 2.44438C10.6288 2.44883 10.71 2.48446 10.7709 2.5444C10.8317 2.60434 10.8679 2.68435 10.8724 2.769C10.8724 2.81236 10.8637 2.8553 10.8468 2.89535C10.8299 2.93539 10.8052 2.97175 10.774 3.00235C10.7428 3.03294 10.7057 3.05716 10.665 3.07361C10.6242 3.09006 10.5806 3.09843 10.5366 3.09823H10.5241C10.4806 3.09783 10.4376 3.08899 10.3976 3.07223C10.3575 3.05546 10.3213 3.0311 10.2908 3.00053C10.2604 2.96996 10.2363 2.93377 10.22 2.89405C10.2038 2.85432 10.1956 2.81183 10.196 2.769C10.2 2.68216 10.2374 2.60008 10.3007 2.53948C10.364 2.47888 10.4483 2.44432 10.5366 2.44284L10.5428 2.44438ZM8.93696 2.86746C9.02546 2.86867 9.10994 2.90427 9.17194 2.96651C9.23397 3.02874 9.26853 3.11257 9.26812 3.19977C9.27023 3.28387 9.23862 3.36541 9.18017 3.42674C9.12169 3.48807 9.04105 3.52425 8.95568 3.52746H8.94006C8.89572 3.5291 8.85145 3.52206 8.80983 3.50676C8.76826 3.49145 8.73015 3.46817 8.69777 3.43827C8.66539 3.40836 8.63932 3.37243 8.62112 3.33255C8.60292 3.29267 8.59291 3.24963 8.59173 3.20592C8.59095 3.20134 8.59095 3.19666 8.59173 3.19208C8.59612 3.10472 8.63438 3.02236 8.69858 2.96197C8.76283 2.90157 8.84812 2.86775 8.93696 2.86746ZM7.42791 3.55823C7.47193 3.5552 7.51612 3.56073 7.55792 3.57452C7.59975 3.5883 7.63845 3.61006 7.67172 3.63856C7.70502 3.66707 7.73227 3.70176 7.75195 3.74061C7.77163 3.77949 7.78337 3.8218 7.78644 3.86515C7.7895 3.90849 7.78389 3.95199 7.7699 3.9932C7.7559 4.0344 7.73378 4.07247 7.70487 4.10526C7.67593 4.13804 7.6407 4.16489 7.60123 4.18427C7.56176 4.20366 7.51878 4.21521 7.47481 4.21824H7.42791C7.34303 4.21252 7.26346 4.17526 7.20538 4.11401C7.14726 4.05275 7.11495 3.97204 7.11495 3.88822C7.11495 3.80441 7.14726 3.72369 7.20538 3.66245C7.26346 3.60119 7.34303 3.56394 7.42791 3.55823ZM6.07982 4.49206C6.16836 4.49406 6.25269 4.5298 6.31505 4.59179C6.37742 4.65375 6.4129 4.73716 6.41412 4.82437C6.41367 4.91158 6.37834 4.99507 6.31572 5.05673C6.25313 5.11839 6.16836 5.15321 6.07982 5.15361C6.03721 5.15528 5.99471 5.14859 5.95472 5.13401C5.91477 5.11939 5.8781 5.09716 5.8469 5.06858C5.81567 5.03996 5.79052 5.00559 5.77284 4.96737C5.75519 4.92916 5.74537 4.88788 5.74396 4.84593C5.74308 4.84032 5.74308 4.8346 5.74396 4.82899C5.74097 4.74218 5.77298 4.65774 5.83298 4.59404C5.89295 4.53035 5.97606 4.49262 6.0642 4.489L6.07982 4.49206ZM4.91445 5.6444C5.00314 5.64761 5.08695 5.68508 5.14777 5.7487C5.20858 5.81236 5.24148 5.89702 5.23937 5.98438C5.23775 6.07145 5.20116 6.1543 5.13761 6.21486C5.0741 6.27541 4.98881 6.30868 4.90038 6.30746C4.81191 6.30473 4.72788 6.2688 4.66544 6.20703C4.60297 6.14526 4.56689 6.06229 4.56453 5.97515C4.56815 5.88643 4.6064 5.80254 4.67131 5.74091C4.73622 5.67929 4.82273 5.64469 4.9129 5.6444H4.91445ZM3.95689 6.98592C4.04199 6.98426 4.12441 7.01553 4.18633 7.0731C4.24825 7.13062 4.2848 7.20982 4.28805 7.2936C4.2896 7.29811 4.2896 7.30298 4.28805 7.30745C4.2893 7.39492 4.25534 7.47932 4.19356 7.54217C4.13179 7.60501 4.04724 7.64123 3.95844 7.64286C3.86753 7.64127 3.7808 7.60486 3.71666 7.54139C3.65251 7.47796 3.61597 7.39237 3.61476 7.30283C3.618 7.21606 3.6553 7.13387 3.71881 7.07361C3.78235 7.01336 3.86713 6.97972 3.9553 6.97976L3.95689 6.98592ZM3.25704 8.46129C3.34681 8.46251 3.43247 8.49859 3.49537 8.56169C3.55826 8.62479 3.59332 8.70982 3.59289 8.79822V8.80593C3.58506 8.8906 3.54471 8.96913 3.48009 9.02552C3.41546 9.0819 3.33143 9.11184 3.24514 9.10929C3.15885 9.10675 3.0768 9.07185 3.01572 9.01178C2.95465 8.95167 2.91916 8.87092 2.91649 8.78592C2.9201 8.69912 2.95747 8.617 3.02086 8.55656C3.08425 8.49611 3.16881 8.46203 3.25704 8.46129ZM2.81964 10.0351C2.91054 10.0355 2.99765 10.0711 3.06221 10.1341C3.12678 10.1971 3.16365 10.2826 3.16487 10.3721C3.16242 10.4591 3.12536 10.5418 3.06167 10.6022C2.99798 10.6626 2.91276 10.696 2.82433 10.6951C2.78186 10.6954 2.73977 10.6873 2.70046 10.6715C2.66115 10.6557 2.62539 10.6324 2.59522 10.603C2.56504 10.5736 2.54106 10.5385 2.52461 10.5C2.50818 10.4614 2.49961 10.4201 2.4994 10.3782C2.49852 10.2923 2.5316 10.2095 2.59166 10.1471C2.65173 10.0848 2.73405 10.048 2.8212 10.0444L2.81964 10.0351ZM2.34319 11.9998C2.34547 11.9126 2.38125 11.8295 2.44328 11.7672C2.50532 11.705 2.58902 11.6682 2.67749 11.6644C2.72139 11.664 2.76494 11.6721 2.80566 11.6883C2.84637 11.7044 2.88345 11.7284 2.91479 11.7586C2.94612 11.7889 2.97109 11.825 2.98827 11.8648C3.00544 11.9046 3.0145 11.9473 3.01491 11.9905C3.01916 12.0764 2.98865 12.1604 2.93008 12.2242C2.87151 12.2879 2.78966 12.3261 2.70248 12.3305H2.66812C2.58184 12.3252 2.5007 12.2883 2.44059 12.2272C2.38048 12.166 2.34575 12.0848 2.34319 11.9998ZM2.4994 13.6228C2.49939 13.5358 2.53408 13.4521 2.59601 13.39C2.65795 13.3279 2.74217 13.2922 2.83058 13.2905C2.92134 13.2921 3.00789 13.3286 3.07178 13.3921C3.13568 13.4556 3.17188 13.5411 3.17268 13.6305C3.17147 13.6738 3.16161 13.7164 3.14368 13.7558C3.12575 13.7953 3.10009 13.8309 3.06818 13.8607C3.03626 13.8904 2.99871 13.9136 2.95768 13.929C2.91664 13.9444 2.87292 13.9518 2.82902 13.9505C2.74392 13.9526 2.66147 13.9214 2.59969 13.8637C2.53792 13.8061 2.50186 13.7266 2.4994 13.6429V13.6244V13.6228ZM3.26485 15.5274C3.17614 15.5291 3.09035 15.4963 3.02603 15.4361C2.96171 15.376 2.92404 15.2932 2.92118 15.2059C2.92197 15.1164 2.95812 15.0306 3.02198 14.9669C3.08583 14.9032 3.17238 14.8664 3.26329 14.8644C3.35051 14.8683 3.43302 14.9045 3.49418 14.9659C3.55534 15.0272 3.59061 15.1092 3.59289 15.1951C3.59248 15.2824 3.55713 15.3658 3.49453 15.4275C3.43193 15.4892 3.34713 15.524 3.2586 15.5244L3.26485 15.5274ZM3.96313 17.009C3.87477 17.0079 3.79018 16.9735 3.72682 16.9128C3.66348 16.8521 3.62617 16.7698 3.62258 16.6828C3.62257 16.5948 3.65786 16.5104 3.72076 16.4479C3.78364 16.3854 3.86908 16.3498 3.95844 16.349H3.96623C4.05137 16.3473 4.13375 16.3786 4.1957 16.4362C4.25762 16.4937 4.29414 16.5729 4.29743 16.6567C4.2982 16.6623 4.2982 16.668 4.29743 16.6736C4.29761 16.7166 4.28919 16.7592 4.27265 16.7989C4.25611 16.8387 4.23174 16.8748 4.20098 16.9052C4.17019 16.9357 4.13364 16.9598 4.09335 16.9763C4.05307 16.9928 4.00987 17.0013 3.96623 17.0013H3.95689L3.96313 17.009ZM3.96313 14.4244L3.9803 14.3644H7.54197C8.46674 14.3644 8.46674 14.3644 8.46674 13.4413C8.46674 12.6721 8.46674 11.9029 8.46674 11.1336C8.46674 10.8829 8.50112 10.7659 8.80574 10.7782C9.47589 10.8059 10.1491 10.7967 10.8193 10.7782C11.0536 10.7782 11.1317 10.849 11.1317 11.0752C11.1255 12.3654 11.1255 13.6572 11.1317 14.9505C11.1317 15.1967 11.0536 15.3213 10.7896 15.2967C10.7128 15.289 10.6353 15.289 10.5584 15.2967C10.257 15.329 10.1538 15.2136 10.1538 14.9228C10.1679 13.989 10.1538 13.0567 10.1538 12.1228C10.1538 11.8659 10.0726 11.7474 9.79298 11.7474C9.51337 11.7474 9.42121 11.8336 9.42589 12.1074C9.43838 13.0413 9.42589 13.9752 9.43682 14.9075C9.43682 15.2152 9.34153 15.3013 9.04005 15.2967C8.0809 15.2813 7.11861 15.3398 6.16574 15.2705C5.71583 15.2382 5.27999 14.989 4.84415 14.8198C4.54891 14.7059 4.25522 14.5567 3.95689 14.4213L3.96313 14.4244ZM4.94882 18.3505C4.90389 18.3557 4.85836 18.352 4.81487 18.3398C4.77134 18.3275 4.73072 18.307 4.69531 18.2792C4.6599 18.2515 4.6304 18.2172 4.6085 18.1782C4.58657 18.1392 4.57273 18.0964 4.56767 18.0521C4.56615 18.0347 4.56615 18.0172 4.56767 17.9998C4.5731 17.9103 4.61234 17.8261 4.6777 17.7637C4.74305 17.7014 4.82975 17.6654 4.92069 17.6629C5.01189 17.6746 5.09593 17.7176 5.15818 17.7843C5.22043 17.8509 5.25691 17.937 5.26127 18.0275C5.24857 18.106 5.21186 18.1789 5.15607 18.2363C5.10025 18.2938 5.02795 18.3331 4.94882 18.349V18.3505ZM6.07358 19.4936C5.9878 19.4936 5.90554 19.4601 5.84491 19.4003C5.78428 19.3406 5.7502 19.2596 5.7502 19.1752V19.1598C5.75079 19.1161 5.76014 19.073 5.77767 19.033C5.79518 18.9929 5.82058 18.9566 5.85233 18.9261C5.88409 18.8957 5.92164 18.8717 5.96281 18.8556C6.00398 18.8394 6.04799 18.8315 6.0923 18.8321C6.18087 18.8348 6.26499 18.871 6.32724 18.9332C6.38945 18.9953 6.42505 19.0786 6.4266 19.1659C6.42641 19.2089 6.41759 19.2515 6.40068 19.2912C6.38377 19.3309 6.35906 19.3669 6.32805 19.3972C6.297 19.4275 6.26018 19.4514 6.21975 19.4677C6.17932 19.484 6.13601 19.4923 6.0923 19.4921H6.07982L6.07358 19.4936ZM7.44512 20.4305C7.40244 20.4322 7.35983 20.4255 7.31977 20.411C7.2797 20.3964 7.24297 20.3742 7.21162 20.3456C7.18027 20.317 7.15498 20.2826 7.13714 20.2444C7.11931 20.2062 7.1093 20.1649 7.10768 20.1229C7.10694 20.1188 7.10694 20.1146 7.10768 20.1105C7.10517 20.0225 7.13803 19.9371 7.19921 19.8728C7.26036 19.8085 7.3448 19.7707 7.43419 19.7675H7.44353C7.53211 19.7694 7.61644 19.8052 7.67881 19.8672C7.74113 19.9292 7.77665 20.0125 7.77783 20.0998C7.77846 20.1429 7.77041 20.1856 7.75413 20.2256C7.73788 20.2656 7.7137 20.3021 7.68305 20.3328C7.65241 20.3636 7.61589 20.3881 7.57557 20.4048C7.53529 20.4216 7.49198 20.4304 7.44822 20.4305H7.44512ZM8.94789 21.1182C8.85953 21.1233 8.77273 21.0938 8.70634 21.0362C8.63991 20.9786 8.5993 20.8975 8.59328 20.8105C8.59328 20.8105 8.59328 20.7982 8.59328 20.7921C8.59716 20.7051 8.63419 20.6226 8.69703 20.5614C8.75988 20.5 8.84388 20.4643 8.93227 20.4613C9.02092 20.4617 9.10588 20.4965 9.16873 20.5581C9.23161 20.6197 9.26731 20.7032 9.26812 20.7905C9.27023 20.8745 9.23858 20.9558 9.18006 21.0169C9.12154 21.078 9.0409 21.1139 8.95568 21.1167L8.94789 21.1182ZM7.6763 16.1198C7.37951 16.0028 7.0952 15.8551 6.80465 15.7213L6.84058 15.6275H11.4035C12.1096 15.6275 12.019 15.689 12.0284 15.0121C12.0284 13.0121 12.0284 10.9951 12.0284 8.98745C12.0284 8.65669 12.1206 8.5567 12.4564 8.569C13.1063 8.59363 13.7561 8.5844 14.4075 8.569C14.6418 8.569 14.7465 8.629 14.7465 8.87668C14.7465 11.3629 14.7465 13.8485 14.7465 16.3336C14.7465 16.6013 14.6309 16.6844 14.381 16.6413C14.2962 16.6192 14.2092 16.6063 14.1217 16.6028C13.7077 16.6167 13.7061 16.6198 13.7061 16.1921V10.0382C13.7061 9.86899 13.7717 9.65055 13.4859 9.60591C13.1516 9.55363 13.0516 9.63054 13.0516 9.97514V16.2275C13.0516 16.6521 13.0516 16.6536 12.608 16.6536C11.5051 16.6536 10.4038 16.6382 9.30091 16.6536C8.67606 16.6782 8.20743 16.3259 7.67943 16.1198H7.6763ZM10.5428 21.5382C10.4544 21.5411 10.3684 21.5094 10.3037 21.45C10.239 21.3906 10.2008 21.3084 10.1976 21.2213C10.1968 21.2172 10.1968 21.213 10.1976 21.209C10.1967 21.143 10.2156 21.0783 10.252 21.0229C10.2884 20.9676 10.3407 20.9241 10.4022 20.8979C10.4637 20.8718 10.5316 20.8642 10.5975 20.876C10.6634 20.8879 10.7242 20.9187 10.7723 20.9646C10.8204 21.0105 10.8537 21.0694 10.8679 21.1338C10.882 21.1983 10.8765 21.2655 10.8519 21.3268C10.8273 21.3882 10.7849 21.441 10.7299 21.4787C10.6749 21.5163 10.6098 21.537 10.5428 21.5382ZM12.1846 21.6921C12.0937 21.6905 12.0072 21.6534 11.944 21.5891C11.8807 21.5249 11.8459 21.4385 11.8472 21.349C11.849 21.2833 11.8705 21.2197 11.9089 21.1659C11.9473 21.1122 12.001 21.0709 12.0632 21.0471C12.1253 21.0233 12.1933 21.0181 12.2584 21.0321C12.3236 21.0461 12.3831 21.0788 12.4295 21.1259C12.4759 21.1731 12.5072 21.2328 12.5193 21.2974C12.5315 21.362 12.524 21.4286 12.4979 21.4891C12.4718 21.5495 12.4281 21.601 12.3724 21.6371C12.3166 21.6733 12.2513 21.6923 12.1846 21.6921ZM13.8092 21.5382C13.7232 21.5323 13.6427 21.494 13.5846 21.4313C13.5264 21.3686 13.495 21.2862 13.4968 21.2013C13.4984 21.1575 13.5089 21.1144 13.5274 21.0745C13.5459 21.0346 13.5723 20.9987 13.6049 20.9688C13.6376 20.939 13.6759 20.9157 13.7176 20.9005C13.7594 20.8852 13.8038 20.8782 13.8483 20.8798C13.8928 20.8814 13.9366 20.8916 13.977 20.9099C14.0175 20.9281 14.054 20.9541 14.0843 20.9863C14.1146 21.0184 14.1382 21.0561 14.1537 21.0972C14.1693 21.1384 14.1764 21.1821 14.1748 21.2259C14.1691 21.3119 14.1295 21.3923 14.0644 21.4498C13.9992 21.5073 13.9138 21.5374 13.8264 21.5336L13.8092 21.5382ZM15.4323 21.1167C15.3472 21.118 15.2651 21.0865 15.2032 21.0291C15.1414 20.9716 15.1048 20.8927 15.1011 20.809V20.7936C15.1015 20.7066 15.1363 20.6233 15.1982 20.5612C15.26 20.4991 15.344 20.4633 15.4323 20.4613C15.523 20.4629 15.6096 20.4993 15.6735 20.5628C15.7374 20.6263 15.7736 20.7119 15.7744 20.8013C15.7704 20.8874 15.7323 20.9685 15.6684 21.0275C15.6045 21.0864 15.5198 21.1184 15.4323 21.1167ZM16.9397 20.4275C16.8962 20.4285 16.853 20.421 16.8124 20.4056C16.7718 20.3901 16.7347 20.367 16.7032 20.3374C16.6718 20.3078 16.6465 20.2724 16.6289 20.2333C16.6113 20.194 16.6017 20.1518 16.6008 20.109C16.6003 20.0195 16.6359 19.9335 16.6997 19.8697C16.7636 19.8061 16.8504 19.7698 16.9413 19.769C17.0301 19.7706 17.1146 19.8068 17.1764 19.8697C17.2382 19.9325 17.2722 20.0169 17.2709 20.1044C17.273 20.1886 17.2415 20.2703 17.1831 20.3319C17.1246 20.3935 17.044 20.43 16.9585 20.4336H16.9444L16.9397 20.4275ZM17.2225 17.2536C17.2725 16.7644 17.2006 9.889 17.2022 7.8044C17.2022 7.60283 17.2241 7.41515 16.9101 7.41977C16.657 7.41977 16.5976 7.51052 16.5976 7.74591C16.607 8.82284 16.5804 16.9275 16.5804 16.9275V17.9459C16.4633 17.9582 16.368 17.9752 16.268 17.9767C14.8371 17.9767 13.4047 18.0044 11.9753 17.9613C11.616 17.9505 11.2583 17.7259 10.9084 17.5813C10.5021 17.4214 10.1128 17.2225 9.74613 16.9875C9.83984 16.9875 9.93359 16.9705 10.0273 16.9705L14.8199 16.9905C15.5541 16.9905 15.5432 16.9905 15.5432 16.2952V6.78591C15.5432 6.51977 15.6041 6.3967 15.9103 6.40593C16.6039 6.42746 17.299 6.41978 17.9926 6.40593C18.2254 6.40593 18.305 6.4844 18.305 6.71361V17.5382C18.305 17.9767 18.305 17.9767 17.8458 17.9782C17.1366 17.9782 17.1475 17.9659 17.2209 17.2567L17.2225 17.2536ZM18.2925 19.4905C18.2043 19.491 18.1194 19.4571 18.0562 19.3964C17.9931 19.3356 17.9568 19.2528 17.9551 19.1659C17.9568 19.0765 17.9937 18.9913 18.0582 18.9284C18.1227 18.8654 18.2096 18.8298 18.3004 18.829C18.3443 18.83 18.3875 18.8395 18.4277 18.857C18.4679 18.8745 18.5041 18.8996 18.5345 18.9308C18.5648 18.9621 18.5885 18.999 18.6044 19.0393C18.6203 19.0797 18.6279 19.1227 18.6268 19.1659C18.6294 19.2079 18.6232 19.2498 18.6087 19.2894C18.5941 19.3288 18.5715 19.365 18.5422 19.3955C18.513 19.4261 18.4777 19.4504 18.4384 19.467C18.3993 19.4836 18.3571 19.4921 18.3144 19.4921H18.291L18.2925 19.4905ZM18.3035 5.15206C18.216 5.15295 18.1316 5.12013 18.0683 5.06068C18.005 5.0012 17.9678 4.91971 17.9645 4.8336C17.9637 4.83006 17.9637 4.8264 17.9645 4.82286C17.9665 4.73583 18.0022 4.6529 18.0644 4.59109C18.1266 4.52925 18.2105 4.49328 18.2988 4.49055C18.3426 4.49014 18.3861 4.49827 18.4267 4.51444C18.4674 4.53065 18.5043 4.55457 18.5355 4.58489C18.5668 4.6152 18.5916 4.65128 18.6086 4.69104C18.6256 4.73084 18.6344 4.77353 18.6347 4.81669C18.6398 4.90095 18.6107 4.98373 18.5539 5.04691C18.4971 5.11008 18.4171 5.14848 18.3316 5.15361H18.3128L18.3035 5.15206ZM19.4594 18.3398C19.3745 18.334 19.295 18.2968 19.2369 18.2355C19.1788 18.1743 19.1465 18.0936 19.1465 18.0097C19.1465 17.9259 19.1788 17.8453 19.2369 17.784C19.295 17.7227 19.3745 17.6855 19.4594 17.6798C19.5054 17.6767 19.5515 17.6829 19.5948 17.6981C19.6382 17.7133 19.678 17.7371 19.7116 17.7681C19.7452 17.799 19.7721 17.8364 19.7904 17.878C19.8087 17.9196 19.8182 17.9644 19.8182 18.0097C19.8182 18.0551 19.8087 18.1 19.7904 18.1415C19.7721 18.1831 19.7452 18.2205 19.7116 18.2515C19.678 18.2824 19.6382 18.3062 19.5948 18.3214C19.5515 18.3366 19.5054 18.3429 19.4594 18.3398ZM19.4594 6.31208C19.3924 6.31208 19.3269 6.29251 19.2711 6.25581C19.2154 6.21914 19.1719 6.16701 19.1463 6.10597C19.1206 6.04497 19.1139 5.97785 19.127 5.91308C19.1401 5.84832 19.1723 5.78884 19.2197 5.74217C19.2672 5.69546 19.3276 5.66367 19.3933 5.65078C19.4591 5.63793 19.5272 5.64454 19.5892 5.6698C19.6511 5.69505 19.7041 5.73785 19.7413 5.79275C19.7785 5.84766 19.7984 5.9122 19.7984 5.97822C19.7972 6.06598 19.761 6.14969 19.6975 6.21131C19.6341 6.27294 19.5485 6.30746 19.4594 6.30746V6.31208ZM21.8698 10.3736C21.8719 10.4574 21.8402 10.5386 21.7817 10.5995C21.7231 10.6603 21.6425 10.6958 21.5574 10.6982H21.5387C21.45 10.6986 21.3647 10.6647 21.3012 10.6036C21.2378 10.5426 21.2013 10.4594 21.1997 10.3721C21.2007 10.3268 21.2107 10.2822 21.2293 10.2408C21.2478 10.1993 21.2744 10.1619 21.3077 10.1306C21.3409 10.0993 21.38 10.0748 21.4229 10.0584C21.4657 10.042 21.5114 10.0341 21.5574 10.0351C21.6437 10.0411 21.7244 10.0796 21.7826 10.1426C21.8408 10.2057 21.872 10.2884 21.8698 10.3736ZM20.4108 6.98899C20.4993 6.98939 20.5842 7.02388 20.6473 7.08513C20.7104 7.14639 20.7466 7.2295 20.7482 7.31668C20.7462 7.40607 20.7088 7.49114 20.644 7.5538C20.5793 7.61642 20.4922 7.65168 20.4014 7.65209C20.313 7.64888 20.2294 7.61158 20.1687 7.5483C20.1079 7.48497 20.0748 7.40071 20.0765 7.31361C20.0748 7.22961 20.1065 7.14831 20.1649 7.08705C20.2233 7.02584 20.3037 6.9895 20.3889 6.98592H20.4124L20.4108 6.98899ZM20.4108 17.009C20.3226 17.009 20.2379 16.9745 20.1755 16.913C20.1131 16.8516 20.0781 16.7682 20.0781 16.6813C20.0751 16.5967 20.1063 16.5144 20.1649 16.4524C20.2234 16.3903 20.3046 16.3537 20.3905 16.3505H20.4077C20.452 16.3493 20.4962 16.3567 20.5376 16.3724C20.5791 16.3881 20.6169 16.4118 20.649 16.4419C20.6811 16.4721 20.7068 16.5083 20.7247 16.5483C20.7425 16.5883 20.7521 16.6314 20.7529 16.6752V16.6828C20.7497 16.7692 20.7129 16.8511 20.6501 16.9116C20.5873 16.972 20.5033 17.0063 20.4155 17.0075L20.4108 17.009ZM21.1106 8.46129C21.1769 8.46129 21.2418 8.48075 21.2968 8.51712C21.3519 8.55353 21.3947 8.60522 21.4199 8.66563C21.4451 8.72607 21.4514 8.79249 21.4381 8.85648C21.4248 8.92047 21.3925 8.9791 21.3453 9.02496C21.2981 9.07082 21.2381 9.1018 21.1729 9.11398C21.1078 9.12617 21.0404 9.119 20.9794 9.09334C20.9184 9.06772 20.8665 9.02481 20.8304 8.97006C20.7942 8.91534 20.7754 8.85124 20.7763 8.78592C20.7795 8.70004 20.8159 8.61859 20.878 8.55822C20.9402 8.49788 21.0234 8.46321 21.1106 8.46129ZM21.1216 15.5244C21.0331 15.5265 20.9474 15.4943 20.8828 15.4347C20.8182 15.3751 20.78 15.293 20.7763 15.2059C20.7687 15.1176 20.7969 15.0299 20.855 14.9621C20.913 14.8943 20.9959 14.8519 21.0856 14.8444C21.1753 14.8368 21.2644 14.8647 21.3333 14.9218C21.4021 14.979 21.4451 15.0607 21.4527 15.149C21.4543 15.1633 21.4543 15.1777 21.4527 15.1921C21.4527 15.2791 21.4181 15.3628 21.3561 15.4249C21.2942 15.4871 21.21 15.5228 21.1216 15.5244ZM21.5355 13.9475C21.4474 13.9455 21.3634 13.9099 21.3014 13.8482C21.2393 13.7865 21.204 13.7035 21.2028 13.6167C21.2065 13.527 21.2456 13.4424 21.3119 13.3809C21.3782 13.3193 21.4663 13.2858 21.5574 13.2875C21.6443 13.2934 21.7254 13.3323 21.7837 13.396C21.842 13.4598 21.8729 13.5433 21.8698 13.629C21.87 13.6707 21.8618 13.7121 21.8458 13.7507C21.8297 13.7894 21.806 13.8245 21.7761 13.8541C21.7462 13.8837 21.7107 13.9072 21.6715 13.9232C21.6324 13.9392 21.5904 13.9475 21.548 13.9475H21.5355ZM21.6917 12.3229C21.6491 12.3245 21.6066 12.3178 21.5666 12.3032C21.5267 12.2886 21.49 12.2664 21.4588 12.2378C21.4276 12.2092 21.4025 12.1748 21.3848 12.1366C21.3671 12.0984 21.3573 12.0571 21.3559 12.0151C21.3551 12.009 21.3551 12.0028 21.3559 11.9967C21.3518 11.9565 21.3557 11.9159 21.3676 11.8772C21.3794 11.8385 21.3989 11.8025 21.4248 11.7712C21.4508 11.7399 21.4828 11.714 21.5189 11.6948C21.5551 11.6757 21.5947 11.6638 21.6355 11.6598H21.6574C21.7043 11.6564 21.7513 11.6622 21.7959 11.6768C21.8405 11.6914 21.8818 11.7144 21.9173 11.7448C21.9529 11.775 21.982 11.8119 22.0031 11.8533C22.0242 11.8947 22.0367 11.9397 22.0401 11.9859V11.9998C22.0405 12.0422 22.0324 12.0843 22.0161 12.1235C21.9999 12.1628 21.9759 12.1985 21.9455 12.2286C21.9151 12.2586 21.879 12.2825 21.8391 12.2986C21.7993 12.3148 21.7567 12.323 21.7136 12.3229H21.6933H21.6917Z" fill="#004B6A"/>
</g>
<defs>
<clipPath id="clip0">
<rect width="25" height="24" fill="white"/>
</clipPath>
</defs>
</svg>