<svg width="24" height="24" viewBox="0 0 24 24" fill="none" xmlns="http://www.w3.org/2000/svg">
<g clip-path="url(#clip0_816_229)">
<path d="M21.4641 10.8232C21.1848 9.91483 20.625 9.11816 19.8651 8.54745C20.4032 7.02523 20.346 5.35586 19.705 3.87402C19.064 2.39219 17.8865 1.20745 16.4086 0.557326C14.9308 -0.0927961 13.2618 -0.160237 11.7363 0.368526C10.2108 0.89729 8.94156 1.98317 8.18307 3.40845L4.72047 9.99045C4.22068 10.9421 4.07499 12.0403 4.30937 13.0894C4.54375 14.1384 5.14297 15.0702 6.00027 15.7186C5.46204 17.2406 5.51894 18.9097 6.15956 20.3915C6.80018 21.8732 7.97717 23.0581 9.45462 23.7086C10.9321 24.3591 12.6008 24.4271 14.1263 23.8991C15.6518 23.371 16.9213 22.2859 17.6805 20.8612L21.1473 14.2804C21.4267 13.7541 21.5988 13.1775 21.6536 12.5842C21.7084 11.9908 21.6448 11.3924 21.4665 10.8238L21.4641 10.8232ZM6.11727 10.7284L9.58407 4.15005C9.87127 3.58668 10.2666 3.08539 10.7476 2.67481C11.2285 2.26423 11.7856 1.9524 12.387 1.75712C12.9885 1.56184 13.6225 1.48693 14.2529 1.53668C14.8833 1.58642 15.4977 1.75985 16.0611 2.04705C16.6244 2.33425 17.1257 2.7296 17.5363 3.21053C17.9469 3.69147 18.2587 4.24856 18.454 4.85C18.6493 5.45145 18.7242 6.08547 18.6744 6.71586C18.6247 7.34625 18.4513 7.96068 18.1641 8.52405L12.9771 18.37C12.9115 18.4952 12.8218 18.6062 12.7131 18.6964C12.6882 18.7173 12.6617 18.7362 12.6339 18.7528L12.6063 18.7708L12.5613 18.7984L12.5199 18.8206L12.5073 18.8272C12.3573 18.9022 12.1919 18.9413 12.0243 18.9412C11.852 18.9398 11.6827 18.8963 11.5311 18.8146C11.2812 18.6835 11.0925 18.4598 11.0055 18.1913C10.9185 17.9229 10.94 17.631 11.0655 17.3782L16.1931 7.64625L16.1985 7.63605C16.432 7.1895 16.5338 6.68579 16.4921 6.18359C16.4504 5.68139 16.2669 5.20137 15.9629 4.79947C15.6589 4.39757 15.2469 4.09032 14.775 3.91352C14.3031 3.73672 13.7907 3.69764 13.2975 3.80085C13.2799 3.80293 13.2626 3.80696 13.2459 3.81285C13.2285 3.81705 13.1859 3.82605 13.1589 3.83445C13.1319 3.84285 13.0917 3.85245 13.0575 3.86325L13.0425 3.86805C12.3706 4.07747 11.8095 4.54516 11.4825 5.16825L6.69987 14.242C6.23361 13.7996 5.92444 13.2171 5.8193 12.583C5.71415 11.9488 5.81877 11.2977 6.11727 10.7284ZM19.7463 13.5382L16.2825 20.1178C15.9993 20.6878 15.606 21.196 15.1252 21.6131C14.6444 22.0301 14.0858 22.3477 13.4815 22.5474C12.8772 22.7472 12.2393 22.8251 11.6047 22.7768C10.9701 22.7285 10.3514 22.5549 9.7843 22.266C9.21722 21.977 8.71305 21.5785 8.30094 21.0935C7.88884 20.6085 7.57697 20.0466 7.38337 19.4404C7.18978 18.8341 7.1183 18.1954 7.17307 17.5614C7.22784 16.9273 7.40778 16.3104 7.70247 15.7462L12.8841 5.90085C12.9668 5.74133 13.0884 5.60516 13.2375 5.50485C13.2639 5.48805 13.2903 5.47245 13.3167 5.45745L13.3287 5.45085C13.3544 5.43703 13.3808 5.42461 13.4079 5.41365L13.4517 5.39625L13.4817 5.38545C13.5942 5.34664 13.7124 5.32638 13.8315 5.32545C14.0057 5.32511 14.1774 5.36778 14.3313 5.44965C14.5795 5.58148 14.7665 5.80489 14.8527 6.07242C14.9389 6.33996 14.9173 6.63054 14.7927 6.88245C14.6415 7.16985 9.68127 16.585 9.65967 16.6288C9.39894 17.1295 9.30412 17.7002 9.38891 18.2583C9.4737 18.8164 9.73371 19.3331 10.1314 19.7338C10.529 20.1344 11.0438 20.3983 11.6012 20.4873C12.1587 20.5763 12.73 20.4858 13.2327 20.2288L13.2501 20.2192C13.3497 20.1678 13.4459 20.1099 13.5381 20.0458L13.5633 20.0278C13.5987 20.0026 13.6347 19.9756 13.6695 19.9486L13.7019 19.9222C13.7415 19.8898 13.7811 19.8574 13.8177 19.8226C13.8333 19.8082 13.8477 19.7938 13.8627 19.7788L13.9227 19.7188L13.9869 19.6504L14.0139 19.6198C14.1542 19.4608 14.2751 19.2856 14.3739 19.0978C14.4069 19.0336 15.9507 16.1044 17.3697 13.4104L19.1553 10.021C19.6222 10.4634 19.9317 11.0462 20.0367 11.6807C20.1417 12.3153 20.0363 12.9667 19.7367 13.5358L19.7463 13.5382Z" fill="#0000FF"/>
</g>
<defs>
<clipPath id="clip0_816_229">
<rect width="24" height="24" fill="white"/>
</clipPath>
</defs>
</svg>