<svg width="24" height="24" viewBox="0 0 24 24" fill="none" xmlns="http://www.w3.org/2000/svg">
<g clip-path="url(#clip0_4401_196506)">
<path d="M23.5806 10.0827L22.9556 10.0046C22.8524 9.40474 22.6993 8.81462 22.4977 8.24032C22.6576 8.12014 22.815 7.99996 22.9785 7.87978C23.2477 7.67307 23.2765 7.53485 23.1071 7.24041C22.6319 6.41517 22.1556 5.59072 21.6781 4.76709C21.5075 4.47385 21.3717 4.42818 21.0616 4.55798L20.5352 4.77792C20.1375 4.30186 19.701 3.85968 19.23 3.45593C19.303 3.28287 19.3755 3.10981 19.4476 2.93675C19.5677 2.63509 19.5293 2.49568 19.2517 2.33584C18.4224 1.85512 17.592 1.3744 16.7603 0.893681C16.4683 0.725429 16.3301 0.755487 16.1222 1.02709C16.0152 1.16771 15.9095 1.30952 15.8037 1.45013C15.2112 1.234 14.6013 1.06913 13.9806 0.95738C13.9613 0.805953 13.9433 0.655727 13.9301 0.505501C13.9287 0.409204 13.9065 0.314352 13.865 0.227438C13.8235 0.140524 13.7637 0.0636077 13.6897 0.00195312H10.3091C10.2351 0.0636077 10.1753 0.140524 10.1338 0.227438C10.0923 0.314352 10.0701 0.409204 10.0687 0.505501C10.0555 0.654525 10.0375 0.803544 10.0194 0.951366C9.39641 1.06271 8.78406 1.22717 8.18908 1.44291C8.08452 1.3035 7.98117 1.1641 7.87541 1.02709C7.6687 0.755487 7.53049 0.725429 7.23725 0.893681C6.41121 1.36879 5.58718 1.84513 4.76514 2.32264C4.46349 2.4969 4.42263 2.63148 4.56084 2.96078C4.62694 3.12062 4.69424 3.27925 4.76154 3.4415C4.28421 3.84652 3.84198 4.29117 3.43956 4.7707L2.93119 4.55798C2.62834 4.43179 2.48893 4.47507 2.33029 4.75148C1.84476 5.58793 1.36084 6.42558 0.878518 7.26444C0.723485 7.53364 0.758338 7.67786 0.998698 7.86534C1.15493 7.98472 1.31197 8.1049 1.4698 8.22588C1.26589 8.80654 1.11033 9.40308 1.00471 10.0094C0.811216 10.0322 0.618929 10.0598 0.427842 10.0959C0.274011 10.1247 0.136999 10.2413 -0.00721741 10.3194V13.6941C0.136999 13.771 0.274011 13.8888 0.427842 13.9176C0.629745 13.9549 0.832844 13.9837 1.03835 14.0078C1.15038 14.6005 1.31117 15.1829 1.51907 15.7492C1.34601 15.8802 1.17175 16.0088 1.0011 16.141C0.752324 16.3321 0.719875 16.4775 0.873706 16.7419C1.35443 17.5807 1.83876 18.4184 2.32669 19.2548C2.48773 19.5324 2.62714 19.5757 2.92759 19.4507L3.54531 19.1899C3.93335 19.6391 4.35652 20.0566 4.81081 20.4386C4.71868 20.6533 4.62814 20.8692 4.53921 21.0864C4.41902 21.3724 4.4659 21.5118 4.7363 21.668C5.57276 22.1544 6.41002 22.6387 7.24807 23.121C7.51848 23.2761 7.6639 23.2412 7.84897 23.0009C7.99559 22.8098 8.13861 22.6175 8.28403 22.4252C8.8368 22.6197 9.40426 22.7696 9.98097 22.8735C10.0098 23.1138 10.0395 23.3542 10.0699 23.5945C10.1072 23.8986 10.2249 24.0079 10.5266 24.0092C11.4952 24.0092 12.4639 24.0092 13.4325 24.0092C13.7498 24.0092 13.8664 23.901 13.9049 23.5861C13.9337 23.3458 13.9613 23.1054 13.9902 22.8747C14.565 22.77 15.1305 22.6193 15.6811 22.424C15.8241 22.6151 15.9696 22.8062 16.115 22.996C16.3133 23.2532 16.4563 23.2845 16.7363 23.1162C17.5679 22.6355 18.3988 22.1548 19.2288 21.6741C19.5113 21.5094 19.5581 21.3724 19.4356 21.0732C19.3442 20.8532 19.2529 20.6345 19.1591 20.417C19.6088 20.0374 20.0275 19.6227 20.4114 19.1767C20.6269 19.2696 20.8425 19.3602 21.058 19.4483C21.356 19.5685 21.493 19.5252 21.6589 19.2428C22.1396 18.4128 22.6203 17.5819 23.1011 16.7503C23.2621 16.469 23.232 16.326 22.9737 16.1289C22.797 15.9931 22.6131 15.8597 22.4413 15.7251C22.6479 15.163 22.8087 14.585 22.922 13.9969C23.1455 13.9693 23.3691 13.9429 23.5926 13.914C23.881 13.878 23.9928 13.7566 23.9928 13.4682C23.9928 12.4923 23.9928 11.516 23.9928 10.5394C23.994 10.2389 23.8894 10.1211 23.5806 10.0827Z" fill="#F6931E"/>
<path d="M12.0072 22.0527C17.5899 22.0527 22.1156 17.527 22.1156 11.9443C22.1156 6.36161 17.5899 1.83594 12.0072 1.83594C6.42452 1.83594 1.89885 6.36161 1.89885 11.9443C1.89885 17.527 6.42452 22.0527 12.0072 22.0527Z" fill="white"/>
<path d="M12.0072 21.211C17.1253 21.211 21.2743 17.0619 21.2743 11.9439C21.2743 6.82578 17.1253 2.67676 12.0072 2.67676C6.88913 2.67676 2.74011 6.82578 2.74011 11.9439C2.74011 17.0619 6.88913 21.211 12.0072 21.211Z" fill="#F6931E"/>
<path d="M13.471 9.89633C13.471 10.3963 13.4866 10.8963 13.471 11.3962C13.4554 11.8962 13.6501 11.9298 14.0467 11.7351C15.2653 11.1342 16.4923 10.5609 17.7158 9.97446C17.9153 9.87952 18.1484 9.61391 18.3167 9.93599C18.4741 10.2304 18.2085 10.4167 17.9766 10.5369C16.6894 11.258 15.4107 11.9995 14.102 12.6809C13.5996 12.9441 13.459 13.2818 13.459 13.8178C13.459 15.0725 13.5792 16.3344 13.2186 17.5747C12.6177 19.6394 10.3199 20.6092 8.54002 19.5204C7.09786 18.6371 6.85749 16.7142 8.03285 15.3622C8.83566 14.4416 9.88002 13.8407 10.9328 13.2686C11.3006 13.0691 11.4664 12.8576 11.4436 12.4358C11.4087 11.8165 11.4087 11.1958 11.4436 10.5766C11.4796 9.99489 11.2573 9.99848 10.8258 10.2016C10.1769 10.5068 9.51107 10.7761 8.85248 11.0597C8.69745 11.127 8.51357 11.3 8.38258 11.0825C8.25158 10.865 8.35614 10.6511 8.57246 10.5237C9.03636 10.2485 9.50506 9.98406 9.97256 9.71605C10.9761 9.14039 11.9856 8.57435 12.9771 7.98667C13.3532 7.76554 13.4698 7.86651 13.4578 8.27151C13.4482 8.81112 13.4578 9.35313 13.4578 9.89154L13.471 9.89633Z" fill="#FEFEFD"/>
<path d="M11.4339 15.3544C11.4424 16.1668 11.3138 16.9455 10.833 17.6378C10.4725 18.157 9.90525 18.3745 9.44136 18.1738C8.97746 17.9731 8.7359 17.3409 8.90776 16.7316C9.23465 15.5647 10.2033 15.0106 11.1383 14.4314C11.3414 14.3112 11.4267 14.4446 11.4279 14.6441C11.4363 14.8748 11.4351 15.114 11.4339 15.3544Z" fill="#F5931F"/>
<path d="M12.1154 6.91274C12.8674 6.91274 13.477 6.30311 13.477 5.5511C13.477 4.79908 12.8674 4.18945 12.1154 4.18945C11.3634 4.18945 10.7537 4.79908 10.7537 5.5511C10.7537 6.30311 11.3634 6.91274 12.1154 6.91274Z" fill="white"/>
</g>
<defs>
<clipPath id="clip0_4401_196506">
<rect width="23.9964" height="24" fill="white"/>
</clipPath>
</defs>
</svg>