<svg width="24" height="24" viewBox="0 0 24 24" fill="none" xmlns="http://www.w3.org/2000/svg">
<path d="M12.1819 24.0001C11.6425 24.0001 11.1152 23.8508 10.6667 23.5711C10.2182 23.2914 9.86861 22.8939 9.66219 22.4287C9.45577 21.9636 9.40176 21.4518 9.50699 20.958C9.61223 20.4643 9.87197 20.0107 10.2534 19.6547C10.6348 19.2987 11.1208 19.0563 11.6498 18.9581C12.1788 18.8599 12.7272 18.9103 13.2255 19.1029C13.7239 19.2956 14.1498 19.6219 14.4495 20.0405C14.7492 20.4591 14.9091 20.9512 14.9091 21.4546C14.9091 22.1297 14.6218 22.7772 14.1103 23.2545C13.5989 23.7319 12.9052 24.0001 12.1819 24.0001Z" fill="#B41514"/>
<path d="M12.1819 5.45455C11.6425 5.45455 11.1152 5.29459 10.6667 4.99492C10.2182 4.69524 9.86861 4.2693 9.66219 3.77096C9.45577 3.27261 9.40176 2.72425 9.50699 2.19521C9.61223 1.66617 9.87197 1.18022 10.2534 0.798801C10.6348 0.417385 11.1208 0.157637 11.6498 0.052405C12.1788 -0.0528274 12.7272 0.00118162 13.2255 0.207602C13.7239 0.414023 14.1498 0.763585 14.4495 1.21208C14.7492 1.66058 14.9091 2.18787 14.9091 2.72727C14.9091 3.45059 14.6218 4.14428 14.1103 4.65575C13.5989 5.16721 12.9052 5.45455 12.1819 5.45455Z" fill="#B41514"/>
<path d="M1.09094 17.0908V13.0908H23.2728V17.0908H1.09094Z" fill="#B41514"/>
<path d="M12 11.2727C5.70235 11.2727 0.577196 6.26263 0.363647 0H4.3566C4.56612 4.05253 7.91036 7.27273 12 7.27273C16.0897 7.27273 19.4339 4.05253 19.6434 0H23.6364C23.4228 6.26263 18.2977 11.2727 12 11.2727Z" fill="#B41514"/>
</svg>