<svg width="24" height="24" viewBox="0 0 24 24" fill="none" xmlns="http://www.w3.org/2000/svg">
<g clip-path="url(#clip0)">
<path d="M11.1587 11.9985L20.1072 17.1242C20.1791 17.1674 20.2613 17.1907 20.3452 17.1917C20.4291 17.1927 20.5117 17.1713 20.5846 17.1297C20.6575 17.0882 20.718 17.028 20.7599 16.9553C20.8019 16.8826 20.8237 16.8001 20.8231 16.7161V7.27364C20.8242 7.1896 20.8026 7.10681 20.7607 7.03395C20.7188 6.96109 20.6581 6.90083 20.5849 6.85948C20.5117 6.81814 20.4288 6.79722 20.3447 6.79892C20.2607 6.80063 20.1787 6.82489 20.1072 6.86917L11.1587 11.9985Z" fill="#31CB9E"/>
<path d="M19.9176 4.59902L13.8003 0.0996901C13.737 0.0510639 13.6627 0.0187657 13.5839 0.00564249C13.5051 -0.00748076 13.4243 -0.0010261 13.3487 0.0244375C13.273 0.0499012 13.2047 0.0935918 13.1499 0.151658C13.0951 0.209725 13.0554 0.280384 13.0343 0.357408L10.8008 10.3798L19.8639 5.36859C19.9328 5.33312 19.9915 5.28046 20.0341 5.21571C20.0768 5.15095 20.1021 5.07629 20.1075 4.99893C20.1129 4.92157 20.0982 4.84412 20.065 4.77407C20.0317 4.70402 19.9809 4.64373 19.9176 4.59902Z" fill="#31CB9E"/>
<path d="M13.7932 23.8924L19.9176 19.3931C19.9818 19.3479 20.0333 19.2871 20.0673 19.2163C20.1012 19.1455 20.1164 19.0672 20.1113 18.9889C20.1063 18.9105 20.0812 18.8348 20.0385 18.7689C19.9958 18.7031 19.9369 18.6493 19.8674 18.6127L10.8008 13.6016L13.0343 23.6239C13.0529 23.7018 13.0904 23.7739 13.1437 23.8336C13.197 23.8934 13.2642 23.9389 13.3395 23.9663C13.4147 23.9936 13.4955 24.0018 13.5747 23.9902C13.6539 23.9785 13.729 23.9474 13.7932 23.8995" fill="#31CB9E"/>
<path d="M8.83236 11.8123L11.159 0.930903C11.1767 0.840732 11.1672 0.747309 11.1316 0.662593C11.0959 0.577877 11.0358 0.505723 10.9589 0.455366C10.8821 0.405008 10.7919 0.378739 10.7 0.379921C10.6081 0.381103 10.5187 0.409682 10.4431 0.462L4.48336 5.03292C4.33245 5.14869 4.21032 5.29777 4.1265 5.46851C4.04269 5.63925 3.99944 5.82705 4.00014 6.01726V17.6146C3.99721 17.8072 4.03939 17.9978 4.12329 18.1712C4.2072 18.3446 4.33051 18.496 4.48336 18.6132L10.4145 23.1698C10.49 23.2221 10.5795 23.2507 10.6714 23.2519C10.7633 23.2531 10.8534 23.2268 10.9303 23.1765C11.0072 23.1261 11.0673 23.054 11.1029 22.9692C11.1386 22.8845 11.1481 22.7911 11.1303 22.7009L8.83236 11.8123Z" fill="#31CB9E"/>
</g>
<defs>
<clipPath id="clip0">
<rect width="24" height="24" fill="white"/>
</clipPath>
</defs>
</svg>