<svg width="24" height="24" viewBox="0 0 24 24" fill="none" xmlns="http://www.w3.org/2000/svg">
<g clip-path="url(#clip0)">
<path d="M22.5972 5.74813C22.2361 5.47619 21.8056 5.10477 21.0208 5.01191C20.2847 4.91905 19.5347 5.38997 19.0278 5.7017C18.5208 6.01343 17.5625 6.92872 17.1667 7.20729C16.7708 7.48586 15.7569 7.74453 14.125 8.67972C12.4931 9.61491 6.09028 13.5414 6.09028 13.5414L7.75694 13.5613L0.326389 17.2158H1.06944L0 17.9918C0 17.9918 0.944444 18.2306 1.73611 17.7531V17.972C1.73611 17.972 10.5833 14.6424 12.2917 15.5046L11.25 15.7965C11.3403 15.7965 13.0208 15.9026 13.0208 15.9026C13.0616 16.235 13.1786 16.5547 13.3634 16.839C13.5483 17.1233 13.7964 17.3652 14.0903 17.5475C15.1042 18.1842 15.125 18.5357 15.125 18.5357C15.125 18.5357 14.5972 18.7413 14.5972 19C14.5972 19 15.375 18.7745 16.0972 18.7944C16.5556 18.811 17.0102 18.88 17.4514 19C17.4514 19 17.3958 18.7214 16.6944 18.5357C15.9931 18.35 15.2986 17.6204 14.9583 17.2225C14.7499 16.9692 14.6141 16.6684 14.5641 16.3498C14.5142 16.0312 14.5519 15.7056 14.6736 15.4051C14.9167 14.8016 15.7639 14.47 17.5139 13.6077C19.5764 12.5863 20.0486 11.8302 20.3403 11.2399C20.6319 10.6496 21.0625 9.47563 21.3056 8.92513C21.6111 8.21544 21.9861 7.83738 22.2986 7.61188C22.6111 7.38637 24 6.88893 24 6.88893C24 6.88893 22.9375 6.0068 22.5972 5.74813Z" fill="black"/>
</g>
<defs>
<clipPath id="clip0">
<rect width="24" height="24" fill="white"/>
</clipPath>
</defs>
</svg>