<svg width="24" height="24" viewBox="0 0 24 24" fill="none" xmlns="http://www.w3.org/2000/svg">
<path fill-rule="evenodd" clip-rule="evenodd" d="M1.13941 13.4532C1.13941 14.3028 1.63416 15.1074 2.63866 15.902L13.963 4.57769C14.5976 3.89304 14.8425 3.12842 14.6925 2.27885C14.5132 1.3765 14.0169 0.568131 13.2933 0L1.93901 11.3543C1.67436 11.6344 1.46753 11.964 1.33033 12.3241C1.19313 12.6843 1.12826 13.068 1.13941 13.4532ZM6.67665 19.94C5.68215 19.1554 5.17741 18.3408 5.1874 17.5013C5.17624 17.116 5.24112 16.7324 5.37832 16.3722C5.51552 16.0121 5.72235 15.6825 5.987 15.4024L17.3413 4.04805C18.062 4.61575 18.5564 5.42209 18.7355 6.32191C18.8855 7.17147 18.6406 7.9361 18.0059 8.62073L6.67665 19.94ZM10.7246 23.9873C9.72011 23.1927 9.22538 22.3881 9.2304 21.5435C9.21923 21.1582 9.28411 20.7746 9.42129 20.4145C9.55847 20.0543 9.76534 19.7247 10.0299 19.4446L21.3842 8.09029C22.105 8.65795 22.5994 9.46428 22.7785 10.3641C22.9285 11.2137 22.6836 11.9783 22.0489 12.663L10.7246 23.9873Z" fill="url(#paint0_linear)"/>
<defs>
<linearGradient id="paint0_linear" x1="3.73439" y1="13.1619" x2="13.9578" y2="21.5153" gradientUnits="userSpaceOnUse">
<stop stop-color="#7EB5FF"/>
<stop offset="0.9997" stop-color="#1A38F8"/>
</linearGradient>
</defs>
</svg>