<svg width="24" height="24" viewBox="0 0 24 24" fill="none" xmlns="http://www.w3.org/2000/svg">
<path d="M5.41305 7.00995C9.05104 3.39252 14.9494 3.39252 18.5874 7.00995L21.73 10.1347L18.5874 13.2595C14.9494 16.8769 9.05106 16.8769 5.41305 13.2595L2.27051 10.1347L5.41305 7.00995Z" fill="black"/>
<path fill-rule="evenodd" clip-rule="evenodd" d="M0 10.1401L7.13513 3H16.8649L24 10.1401L12 22.1351L0 10.1401ZM17.5135 7.54051C14.4818 4.49552 9.51816 4.49554 6.48649 7.54052L3.89189 10.1352L6.48649 12.7298C9.51816 15.7747 14.4818 15.7747 17.5135 12.7297L20.1081 10.1352L17.5135 7.54051Z" fill="#0CE466"/>
<path fill-rule="evenodd" clip-rule="evenodd" d="M8.27051 10.136C8.27051 12.1967 9.9412 13.8657 12.0002 13.8657C14.0593 13.8657 15.73 12.1967 15.73 10.136C15.73 8.07527 14.0593 6.40625 12.0002 6.40625C9.9412 6.40625 8.27051 8.07527 8.27051 10.136ZM10.3786 10.136C10.3786 11.0319 11.105 11.7576 12.0002 11.7576C12.8955 11.7576 13.6219 11.0319 13.6219 10.136C13.6219 9.24002 12.8955 8.51436 12.0002 8.51436C11.105 8.51436 10.3786 9.24002 10.3786 10.136Z" fill="white"/>
</svg>