<svg width="24" height="24" viewBox="0 0 24 24" fill="none" xmlns="http://www.w3.org/2000/svg">
<path d="M0 15.6878C0.0954463 15.5574 0.175765 15.4173 0.261607 15.2808C2.82389 11.2091 5.38593 7.13734 7.94774 3.06544C7.96082 3.04479 7.96694 3.01742 7.99456 3.00781H7.99708C7.99816 3.03182 8.0002 3.05584 8.0002 3.07985C8.0002 9.39011 8.0002 15.7004 8.0002 22.0106V22.0947C7.90824 22.0217 7.82744 21.9579 7.74712 21.8937L0.0241311 15.7178C0.0164474 15.7117 0.00792323 15.7065 0.000119443 15.701L0 15.6878Z" fill="#1C60FE"/>
<path d="M8.34473 21.851C8.39731 21.8087 8.44281 21.7716 8.4888 21.7351L13.5659 17.6961C14.3885 17.0417 15.2114 16.3874 16.0345 15.7333C16.0705 15.7051 16.0731 15.6864 16.0488 15.6478C15.355 14.5459 14.662 13.4434 13.9699 12.3403C13.9593 12.3234 13.9489 12.3062 13.9381 12.2896C13.924 12.2676 13.9284 12.2567 13.9557 12.2575C13.9717 12.2575 13.9878 12.2575 14.0037 12.2575C17.3089 12.2575 20.6141 12.2579 23.9194 12.2586C23.9447 12.2586 23.9832 12.2371 23.996 12.2779C24.0104 12.3232 23.984 12.3481 23.9452 12.3717C22.8631 13.029 21.7814 13.6871 20.7002 14.3459C18.556 15.6517 16.4119 16.9576 14.2681 18.2634C12.5981 19.2805 10.9281 20.2974 9.25812 21.3139C8.97655 21.485 8.69501 21.6562 8.41352 21.8275C8.39611 21.8381 8.38014 21.8563 8.34473 21.851Z" fill="#1C60FE"/>
<path d="M7.99719 3.00707H7.99463C7.99463 3.00443 7.99524 3.00166 7.99548 2.99902L7.99719 3.00707Z" fill="#1C60FE"/>
</svg>