<svg width="24" height="24" viewBox="0 0 24 24" fill="none" xmlns="http://www.w3.org/2000/svg">
<path d="M9.56643 10.2201C8.46266 8.53573 9.01456 6.48605 10.6702 5.36793C11.7596 4.68712 12.9708 4.25708 13.9455 3.31808C14.0099 3.2537 14.0673 3.19625 14.1247 3.13896C17.9448 4.14235 20.9621 7.32451 21.8151 11.2809C20.8835 10.6501 19.7796 10.2559 18.5898 10.1771C17.9518 10.1412 17.3068 10.1914 16.6905 10.3419C16.0886 10.4852 15.515 10.7218 14.9775 11.03C14.7266 11.1805 14.4473 11.3239 14.1603 11.4385C13.9742 11.5174 13.788 11.5747 13.6088 11.6249C13.2575 11.7109 12.8921 11.7538 12.5264 11.7538C11.3509 11.761 10.2184 11.2235 9.56643 10.2201Z" fill="#F2DF5A"/>
<path d="M22.0587 13.3589C22.1091 15.8101 21.2919 18.0822 19.8872 19.8811C19.364 20.0173 18.8052 20.0458 18.2246 19.9384C16.6978 19.666 15.4865 18.4691 15.1855 16.9497C14.8272 15.1221 15.7875 13.4521 17.2713 12.7354C17.4288 12.6637 17.5935 12.6064 17.7584 12.5491C18.9697 12.1477 20.4891 12.1333 21.9943 12.3484C22.0303 12.678 22.0518 13.0149 22.0587 13.3589Z" fill="#F4E15D"/>
<path fill-rule="evenodd" clip-rule="evenodd" d="M20.7184 19.8161C16.8338 24.0447 10.4335 25.5785 5.40211 22.0093C3.37375 20.5687 2.06945 18.6551 1.43848 16.5838C1.54627 16.9063 1.68239 17.2073 1.83288 17.4868C3.24462 20.0885 6.4128 21.0561 9.78851 19.7516C11.9386 18.9202 12.4905 18.2681 13.8018 15.9673C14.619 14.5483 15.7515 13.3728 17.271 12.735C15.7872 13.4517 14.8269 15.1216 15.1852 16.9493C15.4862 18.4687 16.6975 19.6656 18.2243 19.9379C18.8049 20.0454 19.3637 20.0169 19.8869 19.8807C20.1378 19.8232 20.3744 19.7374 20.6037 19.6297C20.7112 19.5724 20.8041 19.723 20.7184 19.8161Z" fill="url(#paint0_linear_720_13535)"/>
<path fill-rule="evenodd" clip-rule="evenodd" d="M22.9335 12.5135C22.6251 12.4489 22.3098 12.3917 21.9945 12.3486C20.4893 12.1336 18.9698 12.148 17.7586 12.5494C17.5937 12.6067 17.4289 12.664 17.2715 12.7357C15.7519 13.3735 14.6195 14.549 13.8023 15.968C12.491 18.2688 11.9391 18.9209 9.78899 19.7523C6.41328 21.0568 3.2451 20.0892 1.83337 17.4875C1.68287 17.208 1.54675 16.907 1.43896 16.5845C1.43195 16.5701 1.43195 16.563 1.42496 16.5486V16.5414C0.0559196 11.9329 2.03389 6.55031 6.79299 3.97021C8.06158 3.28214 9.59546 2.7017 10.8784 2.32184C12.111 1.95634 14.2111 1.43303 14.7413 0.0785103C14.7917 -0.0434875 14.9635 -0.0147629 14.9778 0.114168C15.1857 1.60504 14.8917 2.3433 14.125 3.13884C14.0676 3.19613 14.0102 3.25358 13.9458 3.31796C12.9712 4.25696 11.7599 4.687 10.6705 5.36781C9.01488 6.48592 8.46298 8.53561 9.56675 10.22C10.2187 11.2233 11.3512 11.7609 12.5267 11.7537C12.8924 11.7537 13.2578 11.7108 13.6091 11.6248C13.7883 11.5745 13.9745 11.5172 14.1607 11.4384C14.4476 11.3238 14.7269 11.1804 14.9778 11.0298C15.5154 10.7217 16.089 10.4851 16.6908 10.3418C17.3071 10.1913 17.9521 10.1411 18.5901 10.177C19.7799 10.2558 20.8838 10.65 21.8154 11.2807C22.2667 11.5745 22.6755 11.9329 23.0408 12.3271C23.1196 12.406 23.0408 12.535 22.9335 12.5135Z" fill="url(#paint1_linear_720_13535)"/>
<defs>
<linearGradient id="paint0_linear_720_13535" x1="9.03284" y1="13.3597" x2="13.6063" y2="24.1326" gradientUnits="userSpaceOnUse">
<stop stop-color="#FDD244"/>
<stop offset="0.00215534" stop-color="#FDD244"/>
<stop offset="1" stop-color="#F11526"/>
</linearGradient>
<linearGradient id="paint1_linear_720_13535" x1="5.04968" y1="5.11969" x2="16.6553" y2="18.1621" gradientUnits="userSpaceOnUse">
<stop stop-color="#FDD242"/>
<stop offset="0.00215534" stop-color="#FDD242"/>
<stop offset="1" stop-color="#F01627"/>
</linearGradient>
</defs>
</svg>