<svg width="24" height="24" viewBox="0 0 24 24" fill="none" xmlns="http://www.w3.org/2000/svg">
<path d="M8.01219 0.695303C10.4104 -0.201722 13.1097 -0.20377 15.5529 0.533511C18.7335 1.52065 21.4184 3.92091 22.8213 6.93352C23.2084 7.79163 23.5791 8.68661 23.6159 9.64098C21.828 8.60469 19.8681 7.93295 17.904 7.32059C14.7624 6.18805 11.4733 5.40161 8.49961 3.84513C7.80739 3.43144 6.9247 3.0075 6.73628 2.14529C6.6605 1.39982 7.44898 0.984072 8.01219 0.695303Z" fill="#FFD83D"/>
<path d="M0.772632 7.94517C1.4669 6.06101 2.60559 4.31201 4.15184 3.01562C4.54505 6.24942 5.92131 9.37467 8.19459 11.7258C10.9205 14.5582 14.8035 16.2969 18.7541 16.2314C20.3229 16.2805 21.8568 15.918 23.3867 15.6252C21.8814 21.0647 15.9197 24.6753 10.3962 23.8069C7.06205 23.381 3.9839 21.4067 2.12636 18.6194C0.0312546 15.5392 -0.49713 11.4493 0.772632 7.94517Z" fill="#FFD83D"/>
<path d="M18 7.39941C19.958 7.99662 21.9119 8.65174 23.6942 9.6624L23.8147 9.72431C23.9801 10.9407 24.1005 12.181 23.88 13.3994C22.9837 13.0279 22.2569 12.3748 21.4974 11.7975C20.0356 10.6071 18.5431 9.24495 18 7.39941Z" fill="#FF6F03"/>
</svg>