<svg width="24" height="24" viewBox="0 0 24 24" fill="none" xmlns="http://www.w3.org/2000/svg">
<circle cx="12" cy="12" r="12" fill="#1C68F3"/>
<path fill-rule="evenodd" clip-rule="evenodd" d="M19.2 6.2398C19.2 5.44451 18.5553 4.7998 17.76 4.7998H6.24005C5.44476 4.7998 4.80005 5.44451 4.80005 6.2398V7.99981H19.2V6.2398ZM19.2 9.19972V13.1997H7.20005V13.1998L6.68375 13.1998C7.2302 15.6268 9.39886 17.4397 11.991 17.4397C14.1339 17.4397 15.9875 16.2006 16.8742 14.3998L19.2 14.3998V17.7597C19.2 18.555 18.5553 19.1997 17.76 19.1997H6.24005C5.44476 19.1997 4.80005 18.555 4.80005 17.7597V9.19972H19.2ZM15.4931 14.3998C14.7294 15.5163 13.4457 16.249 11.9909 16.249C10.5361 16.249 9.25242 15.5163 8.48875 14.3998H15.4931ZM6.70271 12.08C6.85798 10.9945 7.79155 10.16 8.92003 10.16C10.0485 10.16 10.9821 10.9945 11.1373 12.08L9.90988 12.08C9.77492 11.6622 9.38277 11.36 8.92003 11.36C8.4573 11.36 8.06515 11.6622 7.93018 12.08L6.70271 12.08ZM15.08 10.16C13.9516 10.16 13.018 10.9945 12.8627 12.08L14.0902 12.08C14.2252 11.6622 14.6173 11.36 15.08 11.36C15.5428 11.36 15.9349 11.6622 16.0699 12.08L17.2974 12.08C17.1421 10.9945 16.2085 10.16 15.08 10.16Z" fill="white"/>
</svg>