<svg width="24" height="24" viewBox="0 0 24 24" fill="none" xmlns="http://www.w3.org/2000/svg">
<path fill-rule="evenodd" clip-rule="evenodd" d="M3.49962 4.88135C3.34395 4.75845 3.17178 4.65733 2.98779 4.58113C2.72572 4.47258 2.44485 4.41671 2.1612 4.41671C1.58801 4.41671 1.0383 4.64441 0.633 5.04971C0.227698 5.45501 0 6.00472 0 6.57791C0 7.1511 0.227698 7.70081 0.633 8.10611C0.813682 8.28679 1.02306 8.43218 1.25043 8.53783V15.424C1.02306 15.5296 0.813682 15.675 0.633 15.8557C0.227698 16.261 0 16.8107 0 17.3839C0 17.9571 0.227698 18.5068 0.633 18.9121C1.0383 19.3174 1.58801 19.5452 2.1612 19.5452C2.66406 19.5452 3.1367 19.3736 3.51108 19.0857L11.8296 23.7523C11.8757 23.7679 11.9303 23.775 11.9875 23.7727C12.047 23.775 12.1087 23.7679 12.1704 23.7523L20.4993 19.0799C20.8789 19.3797 21.3504 19.5452 21.8389 19.5452C22.4121 19.5452 22.9616 19.3174 23.367 18.9121C23.7724 18.5068 24 17.9571 24 17.3839C24 16.8107 23.7724 16.261 23.367 15.8557C23.2013 15.6901 23.0116 15.5541 22.806 15.4512V8.51061C23.0116 8.40772 23.2013 8.27174 23.367 8.10611C23.7724 7.70081 24 7.1511 24 6.57791C24 6.00472 23.7724 5.45501 23.367 5.04971C22.9616 4.64441 22.4121 4.41671 21.8389 4.41671C21.3489 4.41671 20.876 4.58311 20.4958 4.8846L12.3524 0.363903C12.2201 0.196517 11.9803 0.157373 11.8296 0.208307L3.49962 4.88135ZM4.31785 6.82228C4.32399 6.74169 4.3252 6.65975 4.3212 6.57671C4.3212 6.29306 4.26533 6.01217 4.15678 5.75012C4.12876 5.68247 4.09738 5.61642 4.06278 5.55221L11.544 1.35533V6.91871C11.543 6.97886 11.5542 7.03858 11.5767 7.09436C11.5993 7.15013 11.6328 7.20077 11.6754 7.24331C11.7179 7.28586 11.7686 7.3194 11.8243 7.34198C11.8801 7.36455 11.9398 7.37567 12 7.37471C12.2844 7.37471 12.456 7.14671 12.456 6.91871V1.35531L19.9367 5.55189C19.7682 5.86434 19.6776 6.21646 19.6776 6.57791C19.6776 6.66072 19.6823 6.74303 19.6917 6.82449L13.1647 10.2967C13.0457 10.2144 12.9179 10.1446 12.7834 10.0889C12.535 9.98606 12.2688 9.93311 12 9.93311C11.5896 9.93311 11.1918 10.0564 10.8563 10.2824L4.31785 6.82228ZM3.18483 8.48782C3.20932 8.47505 3.23355 8.46183 3.25749 8.44819L9.95283 11.9909C9.95562 12.53 10.171 13.0465 10.5524 13.4279C10.9363 13.8118 11.4571 14.0275 12 14.0275C12.2688 14.0275 12.535 13.9746 12.7834 13.8717C13.0318 13.7688 13.2575 13.618 13.4476 13.4279C13.6377 13.2378 13.7885 13.0121 13.8914 12.7637C13.9895 12.5267 14.0422 12.2735 14.0469 12.0172L20.7558 8.44816C20.7938 8.47015 20.8324 8.49096 20.8716 8.51057V15.4513C20.666 15.5541 20.4762 15.6901 20.3106 15.8557C19.9054 16.261 19.6776 16.8107 19.6776 17.3839C19.6776 17.745 19.768 18.0968 19.9362 18.409L12.456 22.6053V17.0431C12.456 16.7575 12.228 16.5871 12 16.5871C11.7156 16.5871 11.544 16.8139 11.544 17.0419V22.6053L4.08303 18.4198C4.25048 18.112 4.33932 17.7586 4.3212 17.3827C4.3212 17.0991 4.26533 16.8182 4.15678 16.5561C4.04824 16.294 3.88913 16.0559 3.68856 15.8554C3.53951 15.7063 3.36974 15.5802 3.18483 15.4807V8.48782Z" fill="#AED7FD"/>
<circle cx="2.5" cy="6.5" r="2.5" fill="#5D9BEC"/>
<circle cx="2.5" cy="17.5" r="2.5" fill="#5D9BEC"/>
<circle cx="12" cy="12" r="3" fill="#5D9BEC"/>
<circle cx="21.5" cy="6.5" r="2.5" fill="#5D9BEC"/>
<circle cx="21.5" cy="17.5" r="2.5" fill="#5D9BEC"/>
</svg>