<svg width="24" height="24" viewBox="0 0 24 24" fill="none" xmlns="http://www.w3.org/2000/svg">
<g clip-path="url(#clip0)">
<path d="M11.0515 10.2345C10.7211 10.5213 10.4444 10.7629 10.1649 11.0027C9.1469 11.8741 9.07657 13.0397 10.0131 14.0052C10.7609 14.7752 11.6929 14.9596 12.697 14.6341C13.6391 14.328 14.212 13.6686 14.3387 12.6625C14.3835 12.3956 14.3556 12.1216 14.2579 11.8691C14.1602 11.6165 13.9964 11.3947 13.7835 11.2268C11.6012 9.39629 9.42825 7.55475 7.23305 5.73996C6.46677 5.10736 5.58387 5.10275 4.70746 5.51219C3.85511 5.91148 3.44605 6.60955 3.45068 7.54092C3.47659 11.8289 3.50313 16.1166 3.53028 20.404C3.53028 21.0329 3.51731 21.044 2.87504 20.9684C1.10556 20.7581 0.0218568 19.5492 0.0190804 17.7685C0.0190804 14.4183 0.0745918 11.0663 0.00240582 7.71705C-0.0744075 4.20366 2.95649 1.77655 6.30574 2.01631C7.56359 2.0937 8.76041 2.58362 9.70959 3.40968C11.9733 5.35727 14.2443 7.29747 16.4978 9.25705C17.9471 10.5167 17.9999 12.1627 17.589 13.8411C16.9689 16.3705 14.4359 18.2674 11.3837 18.0295C9.0164 17.845 7.24138 16.7034 6.26502 14.4976C5.74214 13.3182 5.73564 12.077 6.05862 10.8376C6.27888 9.99476 6.86286 9.40182 7.5042 8.85683C8.46206 8.04349 8.54442 7.97894 8.54442 7.97894C9.07101 8.42803 10.4777 9.74947 11.0515 10.2345Z" fill="white"/>
<path d="M15.2153 6.74612L12.6638 4.67866C15.2301 1.27869 20.6348 1.1874 23.0401 4.4721C23.6785 5.33229 24.0166 6.37718 24.0026 7.44696C23.9859 10.9032 23.9615 14.3591 23.9294 17.8147C23.9109 19.5613 22.6764 20.8098 20.9236 20.9353C20.508 20.9657 20.3581 20.8661 20.3683 20.4198C20.4062 17.2098 20.4182 13.9998 20.4377 10.7888C20.4442 9.74496 20.4275 8.69924 20.4627 7.65352C20.4969 6.6244 20.0416 5.91157 19.1356 5.47909C18.1971 5.03092 17.2782 5.07887 16.4351 5.71977C16.0242 6.02777 15.6521 6.37449 15.2153 6.74612Z" fill="#4DABDF"/>
</g>
<defs>
<clipPath id="clip0">
<rect width="24" height="24" fill="white"/>
</clipPath>
</defs>
</svg>