<svg width="24" height="24" viewBox="0 0 24 24" fill="none" xmlns="http://www.w3.org/2000/svg">
<path d="M1.87036 18V8.58276L9.19583 13.9577V18H11.0655V13.5782C11.0652 13.4139 11.0258 13.2519 10.9504 13.1049C10.875 12.9579 10.7657 12.83 10.6311 12.7311L1.74722 6.21044C1.58473 6.09278 1.39195 6.02135 1.19032 6.00409C0.98869 5.98683 0.786096 6.02441 0.605056 6.11266C0.424016 6.20091 0.271621 6.33637 0.164807 6.50398C0.0579935 6.6716 0.000944384 6.8648 0 7.06213V18H1.87036ZM22.1296 18V8.58276L14.8042 13.9577V18H12.9345V13.5782C12.9348 13.4139 12.9742 13.2519 13.0496 13.1049C13.125 12.9579 13.2343 12.83 13.3689 12.7311L22.2528 6.21311C22.4151 6.09558 22.6076 6.02418 22.809 6.00681C23.0104 5.98944 23.2128 6.02679 23.3937 6.11472C23.5747 6.20264 23.7271 6.33771 23.8341 6.50494C23.9411 6.67217 23.9986 6.86503 24 7.06213V18H22.1296Z" fill="url(#paint0_linear)"/>
<defs>
<linearGradient id="paint0_linear" x1="12" y1="6" x2="12" y2="18" gradientUnits="userSpaceOnUse">
<stop stop-color="#4FA89B"/>
<stop offset="1" stop-color="#6ACEBB"/>
</linearGradient>
</defs>
</svg>