<svg width="24" height="24" viewBox="0 0 24 24" fill="none" xmlns="http://www.w3.org/2000/svg">
<circle cx="12" cy="12" r="12" fill="url(#paint0_linear)"/>
<path fill-rule="evenodd" clip-rule="evenodd" d="M14.4218 5.74997C14.9594 5.83162 15.4239 6.17805 15.6599 6.67326C15.6921 6.74082 15.7323 6.84459 15.7494 6.90388C15.8187 7.1442 15.8157 7.01852 15.8159 9.65937V12.09H14.1814H12.5469V9.65937C12.5471 7.58249 12.5496 7.21293 12.5646 7.1202C12.6794 6.41301 13.2287 5.86168 13.929 5.75096C14.0664 5.72923 14.2825 5.7288 14.4218 5.74997ZM19.1449 7.758C19.252 7.78342 19.4241 7.86986 19.5141 7.9435C19.6183 8.02857 19.702 8.13545 19.7642 8.26242C19.8669 8.47263 19.8588 8.30238 19.8629 10.3085L19.8666 12.0902H18.9228H17.9791V10.3426C17.9791 8.45084 17.9771 8.51385 18.0442 8.3361C18.1266 8.11753 18.2939 7.93612 18.5139 7.82683C18.706 7.73145 18.93 7.70701 19.1449 7.758ZM8.26604 7.87836C8.46735 7.91929 8.64003 8.01474 8.79731 8.172C8.97804 8.3527 9.079 8.55493 9.10913 8.79662C9.11747 8.86351 9.12182 9.44598 9.12182 10.4942V12.0899H8.05193H6.98205L6.98533 10.4164L6.98862 8.74285L7.02178 8.63713C7.14546 8.24284 7.44638 7.96065 7.82989 7.87932C7.94265 7.85542 8.15094 7.85496 8.26604 7.87836ZM3.31188 10.0353C3.67932 10.1003 3.97724 10.3424 4.11522 10.6879C4.18273 10.8569 4.18506 10.8825 4.1911 11.5159L4.1967 12.1017H3.14998H2.10327V11.5304C2.10327 11.0558 2.1065 10.9433 2.12232 10.8664C2.20756 10.4519 2.52559 10.131 2.93852 10.0426C3.03877 10.0211 3.21286 10.0177 3.31188 10.0353ZM6.9704 12.9461C6.97032 13.8736 6.96692 13.9301 6.89894 14.1331C6.82903 14.3417 6.73603 14.4969 6.58703 14.6536C6.08551 15.1811 5.28995 15.2362 4.71972 14.7831C4.4987 14.6074 4.32328 14.3375 4.24514 14.0528L4.21269 13.9346L4.20907 13.0182L4.20547 12.1018H5.58796H6.97047L6.9704 12.9461ZM12.5319 14.5985L12.5281 17.0953L12.5007 17.2155C12.4279 17.5349 12.3071 17.778 12.1067 18.0085C11.8592 18.2931 11.5052 18.4941 11.1289 18.5635C10.9598 18.5947 10.6696 18.5915 10.5053 18.5568C10.1491 18.4813 9.8603 18.322 9.61156 18.0637C9.37989 17.8232 9.24553 17.5714 9.16214 17.2215C9.14192 17.1366 9.14044 16.9827 9.13708 14.6166L9.13351 12.1018H10.8346H12.5356L12.5319 14.5985ZM17.9643 14.0878L17.961 16.0738L17.9279 16.1793C17.7778 16.6581 17.3786 16.9607 16.8974 16.9607C16.4084 16.9607 16.0039 16.647 15.8619 16.1575L15.8341 16.0617L15.8306 14.0818L15.8272 12.1018H16.8974H17.9675L17.9643 14.0878ZM21.9177 12.6877C21.9114 13.3275 21.9096 13.3463 21.837 13.5276C21.7653 13.7069 21.6183 13.8907 21.459 14.0003C21.1982 14.1797 20.8403 14.2294 20.5409 14.1274C20.1864 14.0069 19.9257 13.7091 19.849 13.3371C19.8332 13.2601 19.8299 13.1482 19.8299 12.6731V12.1018H20.8767H21.9235L21.9177 12.6877Z" fill="white"/>
<defs>
<linearGradient id="paint0_linear" x1="7.81773" y1="-5.48022" x2="-4.96945" y2="16.7291" gradientUnits="userSpaceOnUse">
<stop stop-color="#6B6EEC"/>
<stop offset="1" stop-color="#7CEECA"/>
</linearGradient>
</defs>
</svg>