<svg width="24" height="24" viewBox="0 0 24 24" fill="none" xmlns="http://www.w3.org/2000/svg">
<g clip-path="url(#clip0_1681_943)">
<path d="M13.5663 11.1918L9.42127 8.75629C8.8155 8.4001 8.05762 8.84487 8.05762 9.55725V14.4274C8.05762 15.1388 8.81459 15.5845 9.42127 15.2283L13.5663 12.7928C14.172 12.4366 14.172 11.5471 13.5663 11.1909V11.1918Z" fill="#E30376"/>
<path d="M21.3127 7.45111L8.94728 0.18742C8.52206 -0.0624733 7.99694 -0.0624733 7.57172 0.18742L1.68732 3.64396C1.2621 3.89386 1 4.35635 1 4.85613V19.1597C1 19.6595 1.2621 20.122 1.68824 20.3719L7.54515 23.8126C7.97037 24.0625 8.49457 24.0625 8.92071 23.8126L21.3127 16.533C21.7379 16.2831 22 15.8207 22 15.3209V8.66327C22 8.16349 21.7379 7.701 21.3127 7.45111ZM21.222 12.449L5.29989 21.8022C4.9544 22.0055 4.52184 21.7519 4.52184 21.3454V2.6388C4.52184 2.23225 4.9544 1.97863 5.29989 2.1819L21.222 11.5352C21.5674 11.7385 21.5674 12.2466 21.222 12.4499V12.449Z" fill="#E30376"/>
</g>
<defs>
<clipPath id="clip0_1681_943">
<rect width="24" height="24" fill="white"/>
</clipPath>
</defs>
</svg>