<svg width="24" height="24" viewBox="0 0 24 24" fill="none" xmlns="http://www.w3.org/2000/svg">
<path d="M3.00009 23.9954C3.00009 18.9266 3.00009 13.8578 3.00009 8.78889C3.01159 8.71523 3.02911 8.64205 3.03363 8.56801C3.06066 8.12597 3.12057 7.68835 3.21448 7.25591C3.53925 5.76118 4.19794 4.42939 5.204 3.27864C6.99347 1.23166 9.26087 0.162387 11.9697 0.0145998C12.0037 0.012716 12.0374 0.00499219 12.0711 0C12.3095 0 12.5479 0 12.7862 0C12.8136 0.004898 12.8408 0.0133753 12.8683 0.0141288C13.3238 0.0275983 13.7744 0.0836427 14.2219 0.16672C15.3523 0.376581 16.4087 0.779818 17.3897 1.37992C18.0405 1.77807 18.6233 2.26033 19.1654 2.7961C20.244 3.86217 21.0151 5.11332 21.4552 6.56586C21.6412 7.1799 21.762 7.80713 21.8029 8.44773C21.8197 8.71033 21.8233 8.97407 21.8234 9.23734C21.8245 14.1082 21.8242 18.979 21.8242 23.8499C21.8242 23.8781 21.8255 23.9064 21.8237 23.9345C21.8224 23.9552 21.8174 23.9756 21.8134 24H21.6955C15.5012 24 9.30683 24 3.11256 23.9998C3.07507 23.9998 3.03758 23.997 3 23.9955L3.00009 23.9954ZM3.48076 23.5166C3.6082 23.5379 21.2952 23.5324 21.368 23.5112C21.368 23.4821 21.368 23.4512 21.368 23.4202C21.368 18.6782 21.368 13.9361 21.368 9.19411C21.368 8.86773 21.3503 8.54248 21.3152 8.2178C21.2406 7.52559 21.0834 6.85267 20.8376 6.20181C20.209 4.53771 19.1543 3.19415 17.7242 2.15079C16.2594 1.08208 14.6005 0.554416 12.7953 0.474635C12.2715 0.451463 11.7487 0.475954 11.2278 0.542171C10.7418 0.603961 10.2633 0.700037 9.79362 0.838405C8.39571 1.25021 7.17507 1.96325 6.13331 2.98495C5.25553 3.84587 4.56435 4.83169 4.09969 5.97235C3.67432 7.01638 3.47916 8.10355 3.47972 9.22999C3.48198 13.9533 3.48066 18.6764 3.48066 23.3997V23.5166H3.48076Z" fill="black"/>
<path d="M3.48044 23.5173V23.4004C3.48044 18.6771 3.48175 13.954 3.47949 9.23069C3.47893 8.10425 3.67409 7.01708 4.09947 5.97305C4.56412 4.83238 5.2553 3.84657 6.13308 2.98565C7.17484 1.96395 8.39539 1.25091 9.79339 0.839103C10.263 0.700735 10.7416 0.604659 11.2276 0.542869C11.7485 0.476652 12.2713 0.452162 12.7951 0.475333C14.6002 0.555114 16.2592 1.08278 17.724 2.15148C19.1541 3.19485 20.2088 4.53841 20.8373 6.2025C21.0832 6.85337 21.2404 7.52628 21.315 8.2185C21.3499 8.54309 21.3677 8.86833 21.3677 9.1948C21.3676 13.9368 21.3677 18.6789 21.3677 23.4209C21.3677 23.4519 21.3677 23.4828 21.3677 23.5119C21.2949 23.533 3.60797 23.5385 3.48053 23.5173H3.48044ZM20.2511 22.3447V22.2402C20.2511 17.9775 20.2513 13.7149 20.2508 9.45223C20.2508 8.9272 20.2036 8.40623 20.1 7.89118C19.9121 6.95661 19.5638 6.08561 19.0634 5.27424C18.6336 4.57731 18.112 3.95357 17.4996 3.41583C16.2517 2.3199 14.778 1.74344 13.1299 1.60413C12.4902 1.55007 11.852 1.57286 11.2166 1.67336C10.5412 1.78018 9.88909 1.96658 9.2661 2.24765C7.67962 2.96333 6.47773 4.10221 5.62519 5.60947C4.95982 6.78593 4.65219 8.05969 4.65266 9.41069C4.65426 13.6859 4.65322 17.9611 4.65322 22.2362V22.3447H20.2511Z" fill="white"/>
<path d="M20.2517 22.3433H4.65389V22.2348C4.65389 17.9596 4.65492 13.6844 4.65332 9.40927C4.65285 8.05827 4.96039 6.7845 5.62586 5.60804C6.47839 4.10078 7.68019 2.9619 9.26676 2.24623C9.88975 1.96516 10.5418 1.77875 11.2173 1.67194C11.8526 1.57143 12.4909 1.54864 13.1305 1.60271C14.7788 1.74202 16.2523 2.31847 17.5003 3.4144C18.1126 3.95214 18.6343 4.57588 19.0641 5.27281C19.5644 6.08428 19.9127 6.95518 20.1007 7.88976C20.2042 8.4048 20.2514 8.92578 20.2515 9.45081C20.2519 13.7135 20.2517 17.9761 20.2517 22.2387V22.3433ZM15.502 21.0906V20.9311C15.502 17.8229 15.502 14.7147 15.502 11.6066C15.502 11.3493 15.4927 11.0928 15.4627 10.8368C15.3932 10.2433 15.2351 9.67536 14.9808 9.13479C14.5712 8.26389 13.967 7.54812 13.2212 6.94783C12.3914 6.27982 11.4586 5.80142 10.4531 5.46026C9.67499 5.19624 8.87652 5.0297 8.05602 4.97083C7.96079 4.96396 7.8958 4.98364 7.83184 5.0622C6.75513 6.38381 6.18715 7.89117 6.18046 9.59972C6.17415 11.2087 6.17942 12.8176 6.17895 14.4266C6.17886 14.8069 6.2123 15.1839 6.27154 15.5595C6.4718 16.8287 7.03017 17.9331 7.82298 18.928C7.95137 19.089 8.10603 19.2297 8.25184 19.3764C8.61787 19.7447 9.01819 20.0712 9.45468 20.3528C10.4947 21.0238 11.6342 21.3878 12.869 21.4499C13.4693 21.48 14.0661 21.4369 14.6564 21.3189C14.942 21.2619 15.2238 21.1893 15.502 21.0906ZM8.0465 21.4473C8.18468 21.4658 10.5449 21.4598 10.6171 21.4406C10.5929 21.4311 10.5731 21.4229 10.5531 21.4155C10.0784 21.2385 9.63232 21.0057 9.20874 20.7288C8.82481 20.4778 8.46651 20.194 8.12854 19.8841C8.10547 19.863 8.0871 19.8306 8.0466 19.8305V21.4474L8.0465 21.4473ZM7.77919 4.50797C7.7595 4.50599 7.75112 4.5027 7.74838 4.50524C7.72785 4.52446 7.70741 4.54395 7.68895 4.56505C6.42216 6.00893 5.76159 7.68706 5.75415 9.61197C5.74793 11.2208 5.75217 12.8296 5.75339 14.4384C5.75367 14.8213 5.78118 15.2024 5.83788 15.5816C5.95798 16.3852 6.20194 17.1485 6.57513 17.8702C6.83547 18.3736 7.15554 18.8373 7.51714 19.2725C7.55802 19.3217 7.57733 19.367 7.57714 19.4309C7.57516 20.2181 7.57582 21.0053 7.57582 21.7924C7.57582 21.8207 7.57422 21.8491 7.57686 21.877C7.57827 21.8922 7.58703 21.9067 7.59259 21.9216L7.61331 21.9199C7.6152 21.8877 7.61859 21.8555 7.61859 21.8233C7.61896 21.4031 7.61887 20.9829 7.61887 20.5627C7.61887 20.1864 7.61774 19.81 7.62 19.4337C7.62038 19.3706 7.60455 19.3222 7.5633 19.2726C7.45507 19.1427 7.35249 19.0078 7.2502 18.8731C6.98213 18.5201 6.75061 18.1442 6.55525 17.7463C6.0404 16.698 5.79597 15.5885 5.79776 14.4217C5.80021 12.8254 5.79644 11.2292 5.80021 9.63297C5.80087 9.35755 5.81697 9.08138 5.84127 8.80691C5.89035 8.25202 6.01496 7.7123 6.19506 7.18539C6.5236 6.22359 7.03017 5.36531 7.69931 4.60179C7.72474 4.57278 7.74951 4.54311 7.77937 4.50816L7.77919 4.50797ZM8.15106 4.51899L8.15162 4.53114L8.20126 4.52625C8.18449 4.5238 8.16782 4.52144 8.15106 4.51899Z" fill="black"/>
<path d="M15.5014 21.0917C15.2233 21.1904 14.9416 21.263 14.6558 21.32C14.0656 21.438 13.4689 21.4811 12.8684 21.451C11.6336 21.389 10.4941 21.0249 9.4541 20.3539C9.01761 20.0723 8.6173 19.7458 8.25127 19.3775C8.10546 19.2308 7.95079 19.0902 7.82241 18.9291C7.02959 17.9342 6.47113 16.8298 6.27097 15.5607C6.21172 15.1851 6.17828 14.8081 6.17838 14.4277C6.17885 12.8187 6.17357 11.2097 6.17988 9.60084C6.18657 7.89228 6.75455 6.38492 7.83126 5.06331C7.89522 4.98485 7.96021 4.96516 8.05544 4.97195C8.87595 5.03082 9.67442 5.19725 10.4525 5.46137C11.458 5.80253 12.3908 6.28094 13.2207 6.94895C13.9664 7.54923 14.5706 8.265 14.9803 9.1359C15.2345 9.67638 15.3926 10.2444 15.4622 10.8379C15.4922 11.0939 15.5014 11.3504 15.5014 11.6077C15.5014 14.7159 15.5014 17.824 15.5014 20.9322V21.0917ZM10.8977 15.1817V15.0497C10.8977 13.7981 10.8977 12.5467 10.8977 11.2952C10.8977 11.2544 10.8983 11.2136 10.8989 11.1728C10.903 10.9063 10.9737 10.6573 11.1135 10.432C11.4298 9.92213 11.887 9.6403 12.4915 9.64379C13.1949 9.64784 13.8279 10.1679 13.988 10.8537C14.0148 10.9687 14.0194 11.0891 14.0315 11.2073C14.0437 11.3275 14.1299 11.4338 14.2398 11.4586C14.3407 11.4814 14.4599 11.4221 14.5111 11.316C14.5294 11.2781 14.5373 11.2322 14.5382 11.1896C14.5427 10.9969 14.5109 10.8085 14.457 10.624C14.1583 9.60093 13.1129 8.96165 12.0689 9.17198C11.4584 9.2949 10.9932 9.6323 10.6712 10.166C10.6544 10.1937 10.6366 10.2207 10.6189 10.2486C10.5578 10.1645 10.5069 10.085 10.4465 10.0134C10.2402 9.76878 9.97206 9.65085 9.65483 9.64134C9.52098 9.63738 9.40248 9.72913 9.3779 9.85035C9.3552 9.96235 9.4216 10.0815 9.53803 10.1286C9.57184 10.1423 9.61074 10.147 9.64767 10.1489C9.8774 10.1613 10.0444 10.2735 10.1572 10.4693C10.1914 10.5287 10.2206 10.592 10.2442 10.6564C10.3069 10.8285 10.3356 11.0076 10.3434 11.1905C10.3455 11.2401 10.3568 11.2892 10.3649 11.3384C10.3724 11.3841 10.3881 11.4295 10.3882 11.4751C10.3895 12.6858 10.3892 13.8965 10.3891 15.1072C10.3891 15.1376 10.3864 15.1679 10.3852 15.1937C10.3755 15.1993 10.3726 15.2025 10.3701 15.2022C10.3609 15.2009 10.3516 15.1996 10.3428 15.1966C10.0445 15.0929 9.85395 14.8883 9.77605 14.5824C9.76004 14.5194 9.75957 14.4522 9.75307 14.3869C9.74092 14.2648 9.64607 14.1581 9.53059 14.138C9.42914 14.1203 9.30641 14.1948 9.26421 14.306C9.25027 14.3429 9.24547 14.3856 9.24678 14.4253C9.26148 14.8666 9.44864 15.223 9.79319 15.4936C10.3807 15.9549 11.207 15.8685 11.6646 15.3014C11.8785 15.0363 11.9729 14.7302 11.956 14.391C11.9471 14.2108 11.761 14.0861 11.6107 14.1581C11.5066 14.2081 11.453 14.2919 11.447 14.4117C11.4309 14.7343 11.28 14.9769 10.9985 15.1367C10.9722 15.1516 10.9432 15.1617 10.8977 15.1817ZM7.8437 11.6598C7.8502 11.6579 7.85679 11.656 7.86329 11.6541C7.8874 11.6777 7.9118 11.7009 7.93572 11.7248C8.27708 12.0661 8.61824 12.4076 8.95978 12.7487C8.98634 12.7753 9.01253 12.803 9.04267 12.825C9.09645 12.8645 9.16691 12.8856 9.21937 12.8498C9.33165 12.7732 9.41991 12.681 9.4169 12.522C9.40917 12.1146 9.41435 11.7071 9.41426 11.2996C9.41426 11.2776 9.41501 11.2555 9.41209 11.2338C9.39617 11.1174 9.29727 11.017 9.18471 11.0015C9.08374 10.9875 8.96863 11.058 8.92615 11.1665C8.91184 11.2031 8.9076 11.2456 8.90713 11.2855C8.90524 11.4736 8.90656 11.6616 8.90581 11.8497C8.90581 11.8687 8.89987 11.8876 8.89479 11.9178C8.86041 11.8849 8.83535 11.8618 8.81115 11.8377C8.54722 11.5741 8.28357 11.3102 8.01974 11.0465C7.93553 10.9623 7.85085 10.8785 7.76721 10.7937C7.72379 10.7496 7.67377 10.72 7.61095 10.7166C7.43641 10.7072 7.29418 10.8381 7.29361 11.0149C7.29201 11.5257 7.29258 12.0367 7.29333 12.5476C7.29352 12.6888 7.36699 12.7832 7.49198 12.8398C7.57628 12.8781 7.65729 12.8671 7.73142 12.8123C7.81016 12.754 7.84511 12.6755 7.84445 12.5768C7.84266 12.3042 7.84388 12.0314 7.84388 11.7587C7.84388 11.7257 7.84388 11.6928 7.84388 11.6598H7.8437ZM12.5036 11.1212C12.4445 11.1279 12.3852 11.1328 12.3263 11.1414C11.8289 11.2142 11.4371 11.676 11.4489 12.1752C11.452 12.3075 11.559 12.4274 11.6843 12.4388C11.7979 12.4491 11.9223 12.3517 11.9508 12.2289C11.9557 12.2078 11.9559 12.1855 11.9573 12.1636C11.9739 11.8813 12.1538 11.6979 12.4335 11.6783C12.6985 11.6597 12.9122 11.8224 12.9631 12.0827C12.9697 12.1163 12.9715 12.151 12.9737 12.1853C12.9807 12.2928 13.0384 12.3665 13.13 12.4147C13.2217 12.4631 13.3084 12.4391 13.3846 12.3797C13.4335 12.3415 13.4749 12.2936 13.5192 12.2494C13.5572 12.2115 13.5665 12.1663 13.5633 12.1123C13.5305 11.5537 13.0696 11.1232 12.5034 11.1212H12.5036Z" fill="white"/>
<path d="M8.04599 21.4489V19.832C8.08649 19.832 8.10486 19.8645 8.12794 19.8856C8.4659 20.1956 8.82421 20.4793 9.20814 20.7303C9.63172 21.0073 10.0779 21.24 10.5524 21.417C10.5725 21.4244 10.5923 21.4326 10.6165 21.4422C10.5443 21.4615 8.18417 21.4674 8.0459 21.4488L8.04599 21.4489Z" fill="white"/>
<path d="M7.77853 4.50779C7.74867 4.54274 7.7239 4.57241 7.69847 4.60142C7.02933 5.36494 6.52276 6.22322 6.19422 7.18502C6.01422 7.71193 5.88951 8.25165 5.84043 8.80654C5.81613 9.08101 5.80002 9.35719 5.79936 9.6326C5.7956 11.2289 5.79936 12.8252 5.79691 14.4213C5.79512 15.5881 6.03955 16.6976 6.55441 17.7459C6.74986 18.1438 6.98129 18.5197 7.24936 18.8728C7.35165 19.0076 7.45413 19.1424 7.56245 19.2722C7.6038 19.3218 7.61963 19.3702 7.61916 19.4333C7.6169 19.8096 7.61803 20.186 7.61803 20.5623C7.61803 20.9825 7.61812 21.4028 7.61775 21.823C7.61775 21.8552 7.61426 21.8874 7.61247 21.9195L7.59175 21.9212C7.58628 21.9064 7.57753 21.8919 7.57602 21.8767C7.57338 21.8487 7.57498 21.8202 7.57498 21.7921C7.57498 21.0049 7.57423 20.2177 7.5763 19.4306C7.57649 19.3666 7.55718 19.3213 7.5163 19.2721C7.15479 18.8369 6.83463 18.3733 6.57428 17.8698C6.20109 17.148 5.95714 16.3848 5.83704 15.5812C5.78034 15.202 5.75283 14.8209 5.75255 14.438C5.75133 12.8292 5.74709 11.2204 5.7533 9.6116C5.76074 7.68659 6.42131 6.00856 7.68811 4.56468C7.70666 4.54358 7.7271 4.52409 7.74754 4.50487C7.75027 4.50223 7.75866 4.50563 7.77834 4.5076L7.77853 4.50779Z" fill="black"/>
<path d="M8.15039 4.51953C8.16716 4.52198 8.18383 4.52433 8.2006 4.52678C8.18402 4.52839 8.16744 4.53008 8.15096 4.53168L8.15039 4.51953Z" fill="white"/>
<path d="M10.8982 15.1806C10.9436 15.1604 10.9727 15.1504 10.999 15.1356C11.2804 14.9758 11.4314 14.7333 11.4475 14.4106C11.4535 14.2908 11.507 14.2069 11.6112 14.157C11.7615 14.0849 11.9475 14.2097 11.9565 14.3898C11.9734 14.729 11.879 15.0351 11.6651 15.3002C11.2075 15.8673 10.3811 15.9537 9.79369 15.4925C9.44913 15.2219 9.26197 14.8655 9.24728 14.4241C9.24596 14.3845 9.25076 14.3417 9.26471 14.3049C9.3069 14.1936 9.42964 14.1191 9.53108 14.1368C9.64656 14.157 9.74141 14.2636 9.75356 14.3858C9.76006 14.4512 9.76053 14.5182 9.77655 14.5812C9.85444 14.8871 10.0449 15.0918 10.3433 15.1955C10.352 15.1985 10.3614 15.1998 10.3706 15.201C10.3731 15.2013 10.376 15.1982 10.3857 15.1926C10.3869 15.1667 10.3895 15.1364 10.3895 15.1061C10.3897 13.8953 10.39 12.6847 10.3887 11.4739C10.3887 11.4283 10.3729 11.3829 10.3654 11.3373C10.3574 11.2881 10.346 11.2389 10.3439 11.1894C10.336 11.0065 10.3074 10.8275 10.2447 10.6553C10.2212 10.5909 10.192 10.5276 10.1577 10.4681C10.0449 10.2723 9.8779 10.1601 9.64816 10.1478C9.61124 10.1458 9.57234 10.1411 9.53852 10.1275C9.4221 10.0803 9.35569 9.96121 9.3784 9.84921C9.40298 9.72799 9.52138 9.63624 9.65532 9.6402C9.97256 9.64962 10.2407 9.76764 10.447 10.0123C10.5074 10.0838 10.5582 10.1633 10.6194 10.2475C10.6371 10.2196 10.655 10.1925 10.6717 10.1648C10.9937 9.63116 11.459 9.29376 12.0694 9.17084C13.1134 8.96051 14.1587 9.59988 14.4575 10.6229C14.5114 10.8073 14.5432 10.9957 14.5387 11.1884C14.5377 11.231 14.5299 11.277 14.5116 11.3148C14.4605 11.421 14.3412 11.4802 14.2403 11.4575C14.1305 11.4327 14.0442 11.3263 14.032 11.2061C14.0199 11.0879 14.0153 10.9676 13.9884 10.8525C13.8284 10.1667 13.1953 9.6467 12.492 9.64265C11.8875 9.63916 11.4303 9.92099 11.114 10.4308C10.9742 10.6562 10.9035 10.9052 10.8994 11.1717C10.8988 11.2125 10.8982 11.2532 10.8982 11.294C10.8982 12.5456 10.8982 13.797 10.8982 15.0485V15.1806Z" fill="black"/>
<path d="M7.84423 11.6604C7.84423 11.6934 7.84423 11.7264 7.84423 11.7593C7.84423 12.032 7.84301 12.3048 7.8448 12.5775C7.84546 12.676 7.81051 12.7547 7.73177 12.813C7.65773 12.8678 7.57663 12.8787 7.49233 12.8405C7.36734 12.7839 7.29387 12.6895 7.29368 12.5483C7.29302 12.0374 7.29236 11.5264 7.29396 11.0155C7.29453 10.8387 7.43676 10.7079 7.6113 10.7173C7.67403 10.7207 7.72405 10.7502 7.76756 10.7943C7.8512 10.8791 7.93588 10.9629 8.02009 11.0471C8.28383 11.3109 8.54757 11.5747 8.8115 11.8384C8.83561 11.8625 8.86076 11.8855 8.89514 11.9184C8.90022 11.8883 8.90616 11.8693 8.90616 11.8503C8.90691 11.6622 8.90559 11.4741 8.90748 11.2861C8.90785 11.2463 8.91209 11.2038 8.9265 11.1671C8.96898 11.0586 9.08409 10.9882 9.18506 11.0021C9.29762 11.0177 9.39662 11.1182 9.41244 11.2345C9.41536 11.2561 9.41461 11.2783 9.41461 11.3002C9.4147 11.7077 9.40952 12.1154 9.41725 12.5227C9.42026 12.6817 9.33191 12.7739 9.21972 12.8504C9.16717 12.8863 9.0968 12.8651 9.04302 12.8257C9.01297 12.8036 8.98669 12.7759 8.96013 12.7494C8.61868 12.4082 8.27742 12.0667 7.93607 11.7254C7.91224 11.7016 7.88785 11.6783 7.86364 11.6548C7.85714 11.6567 7.85055 11.6585 7.84405 11.6604H7.84423Z" fill="black"/>
<path d="M12.504 11.1211C13.0701 11.1232 13.5309 11.5536 13.5639 12.1122C13.5671 12.1662 13.5577 12.2114 13.5197 12.2493C13.4755 12.2935 13.4341 12.3414 13.3851 12.3796C13.3089 12.439 13.2223 12.4629 13.1306 12.4146C13.039 12.3664 12.9812 12.2927 12.9743 12.1852C12.972 12.1509 12.9703 12.1161 12.9637 12.0826C12.9127 11.8223 12.699 11.6596 12.4341 11.6782C12.1544 11.6979 11.9745 11.8813 11.9578 12.1635C11.9565 12.1854 11.9562 12.2077 11.9513 12.2288C11.9229 12.3516 11.7985 12.4489 11.6849 12.4387C11.5596 12.4273 11.4526 12.3074 11.4495 12.1751C11.4378 11.6759 11.8294 11.2141 12.3269 11.1413C12.3856 11.1328 12.445 11.1278 12.5041 11.1211H12.504Z" fill="black"/>
</svg>