<svg width="24" height="24" viewBox="0 0 24 24" fill="none" xmlns="http://www.w3.org/2000/svg">
<path fill-rule="evenodd" clip-rule="evenodd" d="M14.9595 0.247966C16.359 0.95374 17.2995 2.15605 17.6304 3.66226C17.6803 3.88939 17.6925 4.0842 17.6913 4.6354C17.6896 5.40589 17.645 5.6939 17.4227 6.37254C17.3157 6.69921 16.981 7.45931 16.9442 7.45931C16.8778 7.45931 16.0149 6.97484 15.7598 6.79435C15.3365 6.49488 14.6858 5.84339 14.4263 5.45904C13.4541 4.01959 13.3137 2.29812 14.0341 0.651683C14.0989 0.503764 14.204 0.296611 14.2679 0.191387L14.384 0L14.5236 0.0492501C14.6004 0.0763462 14.7965 0.16577 14.9595 0.247966ZM9.56847 0.722526C9.92979 0.787005 10.3369 0.935327 10.6636 1.1215C11.6818 1.70178 12.2994 2.72188 12.4381 4.05258C12.4726 4.38294 12.4714 4.44298 12.4299 4.46924C12.3549 4.51671 11.7113 4.50605 11.3561 4.45149C10.7387 4.35662 10.2222 4.16395 9.77202 3.86058C9.49723 3.67538 9.08881 3.267 8.90364 2.99227C8.50678 2.40335 8.26594 1.62722 8.26389 0.930554L8.26322 0.705179L8.37248 0.686824C8.67843 0.635422 9.16115 0.649844 9.56847 0.722526ZM10.382 5.1083C12.3621 5.35308 14.2339 6.50557 15.5486 8.28944C15.6648 8.4472 15.76 8.58968 15.76 8.60605C15.76 8.64831 15.3133 8.99783 14.9726 9.2222C12.6337 10.7625 10.0367 11.0198 7.75747 9.93698C6.64088 9.40652 5.59866 8.49951 4.8634 7.41839L4.62871 7.07337L4.79028 6.92922C5.8513 5.98234 7.24711 5.32924 8.64622 5.12501C9.02254 5.07008 9.99686 5.0607 10.382 5.1083ZM20.3154 9.58057C20.5893 9.6109 21.0305 9.68838 21.1811 9.73263C21.2557 9.75454 21.2587 9.98335 21.1909 10.485C20.9348 12.379 20.0315 14.0285 18.6334 15.1552C17.6701 15.9315 16.5161 16.4145 15.1215 16.6252C14.414 16.7321 12.8191 16.6883 12.3564 16.5493C12.2782 16.5258 12.28 16.3918 12.3658 15.8661C12.6488 14.1312 13.3827 12.6267 14.4826 11.5269C15.9857 10.0237 18.0612 9.33116 20.3154 9.58057ZM6.35947 11.0208C6.84216 11.1177 7.35076 11.2868 7.79808 11.4993C7.99828 11.5943 8.1621 11.6789 8.1621 11.6871C8.1621 11.6954 8.087 11.8522 7.99519 12.0356C7.4451 13.1344 6.60307 14.0243 5.65336 14.5104C4.56471 15.0678 3.38713 15.1965 2.19491 14.8886C1.5172 14.7136 0.705263 14.3316 0.725467 14.1974C0.730846 14.1617 0.817883 13.9611 0.918939 13.7514C1.62932 12.2775 2.92243 11.2695 4.46413 10.9879C4.94846 10.8994 5.83133 10.9148 6.35947 11.0208ZM9.4649 13.032C10.0327 13.7171 10.5928 14.7291 10.8976 15.6202C11.186 16.4635 11.2945 17.0986 11.2955 17.9486C11.2973 19.5519 10.7735 21.0102 9.73139 22.3033C9.30088 22.8375 8.43525 23.6021 7.90422 23.9173L7.7639 24.0006L7.48994 23.6724C6.57527 22.5769 5.97566 21.2049 5.80686 19.8214C5.75526 19.3985 5.78353 18.3026 5.85605 17.9153C5.98235 17.2408 6.13894 16.7583 6.42906 16.15C6.88482 15.1943 7.55291 14.3112 8.35823 13.5998C8.69609 13.3014 9.25482 12.8723 9.30555 12.8723C9.32041 12.8723 9.39211 12.9441 9.4649 13.032ZM21.0753 15.6435C21.7747 15.766 22.4282 16.0947 22.9488 16.5858C23.1395 16.7657 23.1817 16.8229 23.1573 16.8684C23.0862 17.0014 22.6481 17.4366 22.4 17.6208C21.5094 18.2821 20.422 18.496 19.3904 18.2127C18.8656 18.0685 18.1592 17.6734 17.7568 17.2988C17.5244 17.0826 17.5202 17.0963 17.9421 16.6948C18.8527 15.8282 19.9767 15.4511 21.0753 15.6435ZM5.1911 16.2544C5.2269 16.397 5.18101 17.239 5.12292 17.5059C5.00976 18.0254 4.82359 18.4734 4.55478 18.8729C4.37774 19.136 3.96548 19.5463 3.69529 19.7284C3.10715 20.1248 2.3302 20.3661 1.63569 20.3682C1.42239 20.3688 1.41143 20.3649 1.39025 20.2805C1.34789 20.1117 1.36826 19.3468 1.42266 19.0623C1.53282 18.4863 1.79434 17.9266 2.16497 17.4736C2.78297 16.7182 3.9088 16.2058 5.02684 16.171C5.15371 16.1671 5.17146 16.1761 5.1911 16.2544ZM15.4234 17.8017C16.6942 18.0078 17.8651 18.7754 18.6067 19.8886C18.9359 20.3827 19.3064 21.2327 19.3318 21.5517C19.3395 21.6497 19.3284 21.6596 19.1046 21.7524C18.4904 22.0071 17.8588 22.1274 17.138 22.1268C16.537 22.1264 16.161 22.069 15.625 21.8957C14.1485 21.4184 12.9549 20.1776 12.3847 18.527L12.2656 18.1824L12.3878 18.1314C12.6003 18.0425 13.0414 17.9172 13.3947 17.8453C14.0653 17.7088 14.7584 17.6939 15.4234 17.8017Z" fill="#283A79"/>
</svg>