<svg width="24" height="24" viewBox="0 0 24 24" fill="none" xmlns="http://www.w3.org/2000/svg">
<path d="M12 24C18.6274 24 24 18.6274 24 12C24 5.37258 18.6274 0 12 0C5.37258 0 0 5.37258 0 12C0 18.6274 5.37258 24 12 24Z" fill="#EDF0F4"/>
<path fill-rule="evenodd" clip-rule="evenodd" d="M17.724 10.0166C17.0014 9.63119 16.1344 9.63119 15.46 10.0166L12.04 11.9915L15.46 13.9664C16.1826 14.3518 17.0496 14.3518 17.724 13.9664C18.4465 13.5811 18.88 12.8103 18.88 11.9915C18.88 11.1726 18.4465 10.4019 17.724 10.0166Z" fill="#050505"/>
<path fill-rule="evenodd" clip-rule="evenodd" d="M6.35601 10.0166C5.63347 10.4019 5.19995 11.1726 5.19995 11.9915C5.19995 12.8103 5.63347 13.5329 6.35601 13.9664C7.07855 14.3518 7.94559 14.3518 8.61995 13.9664L12.0399 11.9915L8.61995 10.0166C7.89741 9.63119 7.03037 9.63119 6.35601 10.0166Z" fill="#050505"/>
<path fill-rule="evenodd" clip-rule="evenodd" d="M10.0651 17.628C10.4505 18.3505 11.2212 18.7358 12.04 18.7358C12.8589 18.7358 13.6296 18.3023 14.015 17.628C14.4003 16.9054 14.4003 16.0866 14.015 15.364L12.04 11.9922L10.0651 15.364C9.67979 16.0866 9.67979 16.9054 10.0651 17.628Z" fill="#050505"/>
<path fill-rule="evenodd" clip-rule="evenodd" d="M14.015 6.30808C13.6296 5.63371 12.8589 5.2002 12.04 5.2002C11.2212 5.2002 10.4505 5.63371 10.0651 6.30808C9.67979 7.03062 9.67979 7.84948 10.0651 8.57202L12.04 11.9438L14.015 8.57202C14.4003 7.89765 14.4003 7.03062 14.015 6.30808Z" fill="#050505"/>
</svg>