<svg width="24" height="24" viewBox="0 0 24 24" fill="none" xmlns="http://www.w3.org/2000/svg">
<path d="M12 0C18.6274 0 24 5.37257 24 12C24 18.6274 18.6274 24 12 24C5.37257 24 0 18.6274 0 12C0 5.37257 5.37257 0 12 0Z" fill="#1A82FF"/>
<path d="M16.387 16.9409C15.3482 18.2136 13.8871 18.85 12.0039 18.85C10.1207 18.85 8.65947 18.2136 7.62015 16.9409C6.58061 15.6676 6.06107 14.0216 6.06152 12.0031C6.06198 9.98459 6.5813 8.33888 7.61947 7.06596C8.65832 5.79259 10.1196 5.15602 12.0032 5.15625C13.8869 5.15648 15.3479 5.79305 16.3863 7.06596C17.4252 8.33865 17.9447 9.98436 17.945 12.0031C17.9452 14.0218 17.4259 15.6678 16.387 16.9409Z" fill="white"/>
<path d="M11.9823 16.1886C12.478 16.1886 12.8995 16.0535 13.2467 15.7833C13.5939 15.5132 13.8453 15.1468 14.001 14.6841C14.1564 14.2213 14.2661 13.7776 14.3301 13.3532C14.3941 12.9287 14.4259 12.4787 14.4255 12.003C14.4255 11.4174 14.39 10.8933 14.3192 10.4307L10.0479 14.8816C10.4428 15.7525 11.0876 16.1881 11.9823 16.1886Z" fill="#1A82FF"/>
<path d="M12.0247 7.81738C11.529 7.81738 11.1075 7.95247 10.7603 8.22263C10.4131 8.49279 10.1617 8.85919 10.006 9.3218C9.84966 9.78465 9.73995 10.2283 9.67686 10.6527C9.61286 11.0772 9.58109 11.5272 9.58155 12.0029C9.58155 12.3162 9.5916 12.612 9.61172 12.8902L13.6856 8.64571C13.2899 8.09372 12.7363 7.81761 12.0247 7.81738Z" fill="#1A82FF"/>
<path d="M6.39371 16.2462L5.86914 15.7429L9.84697 11.5964L10.3715 12.0997L6.39371 16.2462ZM13.8886 11.9194L13.364 11.416L17.3418 7.26953L17.8664 7.77285L13.8886 11.9194Z" fill="#1A82FF"/>
</svg>