<svg width="24" height="24" viewBox="0 0 24 24" fill="none" xmlns="http://www.w3.org/2000/svg">
<circle cx="12" cy="12" r="12" fill="#EDF0F4"/>
<circle cx="12.0001" cy="12.0001" r="11.545" fill="white"/>
<path fill-rule="evenodd" clip-rule="evenodd" d="M0 11.9996C0 5.37239 5.37239 0 11.9996 0C18.6267 0 23.9991 5.37239 23.9991 11.9996C23.9991 18.6267 18.6267 23.9991 11.9996 23.9991C5.37239 23.9991 0 18.6267 0 11.9996ZM22.7141 11.9994C22.7141 6.08217 17.9172 1.28528 11.9999 1.28528C6.08266 1.28528 1.28577 6.08217 1.28577 11.9994C1.28577 17.9167 6.08266 22.7136 11.9999 22.7136C17.9172 22.7136 22.7141 17.9167 22.7141 11.9994Z" fill="#EB1A6B"/>
<path d="M14.8392 14.126C15.1414 14.3426 15.2953 14.4738 15.4664 14.5821C16.504 15.2719 17.6328 15.3404 18.3683 14.6448C19.1494 13.8865 19.2121 12.9344 18.8472 11.9595C18.4595 10.8535 17.5473 10.1865 16.447 10.3575C15.951 10.443 15.3637 10.8136 15.0844 11.2241C14.3945 12.2218 14.1551 13.4989 13.0091 14.1659C12.8552 14.2514 12.9008 14.7474 12.9008 15.0553C12.9236 17.2218 11.3444 18.8865 9.06959 19.1032C7.2737 19.2742 4.58842 17.8261 4.61123 15.8136C5.56333 16.2469 6.46983 16.8512 7.49035 17.0678C8.33413 17.2617 9.34895 17.1762 10.1984 16.8968C11.3045 16.5262 11.8233 15.4658 11.6922 14.5137C11.561 13.6927 11.2361 13.4761 9.5713 13.191C9.46298 12.7121 9.35465 12.1933 9.24633 11.6118C9.41737 11.589 9.54849 11.549 9.67962 11.549C10.4379 11.4863 11.2589 11.4635 11.3216 10.4031C11.3843 9.55932 10.5861 8.5616 9.65682 8.65282C8.75032 8.73834 7.90654 9.21724 6.86321 9.58212C6.66937 9.27996 6.3444 8.78395 6.04224 8.28224C7.36492 6.72581 9.52569 6.42364 11.1049 7.56959C12.553 8.60721 12.6842 10.2777 11.4071 12.2218C11.7777 12.5696 12.1426 12.9116 12.6614 13.4133C12.8324 12.8945 12.9236 12.524 13.049 12.1819C13.2201 11.6859 13.3512 11.1443 13.6306 10.6882C14.3204 9.4966 15.2782 8.67563 16.7663 8.84666C18.2144 9.0177 18.9555 9.87859 19.5085 11.2241C20.1129 12.7976 19.8677 13.9835 19.5085 14.8843C19.1494 15.7851 17.8267 16.703 16.8746 16.549C15.6203 16.3552 14.9077 15.557 14.8392 14.126Z" fill="black"/>
<path d="M10.666 5.83628C12.6557 7.22168 14.4117 7.02784 16.1848 5.81348C16.5098 6.33229 16.7891 6.76558 17.0742 7.19888C14.9704 8.84653 11.5497 8.00275 10.666 5.83628Z" fill="black"/>
<path d="M12.2451 5.03845C12.6328 4.55955 12.935 4.21747 13.3055 3.78418C13.7388 4.24028 14.0182 4.54244 14.366 4.93013C14.041 5.30071 13.7388 5.61998 13.3512 6.03617C12.9806 5.7112 12.6556 5.40333 12.2451 5.03845Z" fill="#F01871"/>
</svg>