<svg width="26" height="24" viewBox="0 0 26 24" fill="none" xmlns="http://www.w3.org/2000/svg">
<path fill-rule="evenodd" clip-rule="evenodd" d="M1.20977 9.69864C2.16269 4.66451 6.33053 0.766188 11.509 0.0635262C12.4042 -0.0616055 14.3004 0.00577354 15.2919 0.198282C17.6597 0.650681 20.0469 1.96937 21.6928 3.70196C24.4938 6.67624 25.6008 10.7286 24.696 14.7135C24.1762 17.014 23.0019 19.0546 21.2308 20.7391C19.556 22.3177 17.6597 23.2995 15.3111 23.8C14.1753 24.0406 11.8267 24.0406 10.6909 23.8C9.04492 23.4438 7.62035 22.8471 6.22465 21.9326C5.31023 21.3262 3.72202 19.7284 3.08674 18.7851C1.26752 16.0611 0.61299 12.8751 1.20977 9.69864ZM21.5292 4.98126C19.7678 2.8059 17.063 1.34282 14.2042 1.01556C11.8364 0.755669 9.58401 1.23694 7.41828 2.47863C5.43542 3.60481 3.64508 5.6743 2.78841 7.82078C1.10395 11.9886 2.03763 16.6089 5.20441 19.7853C10.8161 25.4354 20.3934 23.4237 23.2907 15.9832C23.8394 14.5971 24.0126 13.5672 24.0126 11.8924C24.003 10.7181 23.9645 10.333 23.7527 9.48599C23.3196 7.70527 22.6651 6.39621 21.5292 4.98126Z" fill="black"/>
<path fill-rule="evenodd" clip-rule="evenodd" d="M3.47192 12.606C3.18315 11.1622 3.98207 9.61251 5.23338 9.16011C5.70503 8.99648 6.64833 8.9676 7.13923 9.10236C8.40017 9.4585 9.25684 10.8446 9.12208 12.3269C9.0162 13.405 8.54455 14.1654 7.68788 14.6466C7.22586 14.8969 7.10073 14.9258 6.26331 14.9258C5.21413 14.9258 4.82911 14.7814 4.23233 14.1365C3.77993 13.6648 3.6163 13.328 3.47192 12.606ZM7.99562 12.5674C8.19775 11.73 7.90899 10.777 7.34108 10.3631C6.76355 9.95888 5.77213 9.94925 5.21385 10.3535C4.54007 10.8252 4.30905 12.1824 4.75183 13.0487C5.48336 14.5021 7.6106 14.1845 7.99562 12.5674Z" fill="black"/>
<path d="M18.2566 9.19828C16.447 9.92019 15.9368 12.5864 17.3036 14.2035C18.0448 15.0891 19.7966 15.2527 20.5763 14.5019L20.7881 14.2998L20.8169 14.5693C20.8458 14.8099 20.8747 14.8292 21.3271 14.8292H21.8084L21.8372 13.3084L21.8661 11.7972H20.5089H19.1613V12.2784V12.7597H19.9795C20.8651 12.7597 20.8939 12.779 20.6437 13.2987C20.4704 13.6549 19.8544 14.011 19.3924 14.011C18.2854 14.011 17.6213 13.2314 17.6213 11.9704C17.6309 10.5747 18.5261 9.77581 19.7485 10.0646C20.2202 10.1801 20.7014 10.594 20.7014 10.8924C20.7014 10.9886 20.8458 11.0271 21.279 11.0271H21.8469L21.7121 10.594C21.4137 9.5833 20.6726 9.07315 19.4501 9.03464C18.9111 9.01539 18.6127 9.05389 18.2566 9.19828Z" fill="black"/>
<path d="M9.92114 11.9904V14.8781H10.4024H10.8837L10.9029 12.9337L10.9318 10.9797L11.6441 12.9337L12.3564 14.8877L12.8377 14.8588L13.3189 14.8299L14.0216 12.9048L14.7243 10.9797L14.7531 12.9048L14.782 14.8299L15.2922 14.8588L15.7927 14.8877L15.7734 12.0193L15.7446 9.1509H15.0804H14.4066L13.6366 11.2878C13.2131 12.4717 12.8377 13.4054 12.8088 13.3572C12.7703 13.3187 12.4238 12.4043 12.0387 11.3166C11.6537 10.229 11.288 9.28566 11.2398 9.21828C11.1821 9.1509 10.9126 9.10278 10.5372 9.10278H9.92114V11.9904Z" fill="black"/>
</svg>