<svg width="24" height="24" viewBox="0 0 24 24" fill="none" xmlns="http://www.w3.org/2000/svg">
<g clip-path="url(#clip0)">
<path d="M6.41631 4.05145C6.03351 4.69585 5.20071 4.90825 4.55631 4.52545C3.91191 4.14265 3.69951 3.30984 4.08231 2.66544C4.46511 2.02104 5.29791 1.80864 5.94231 2.19144C6.58671 2.57424 6.79911 3.40704 6.41631 4.05145Z" fill="#5F45BA"/>
<path d="M1.78308 3.44855C1.51308 3.90335 0.923882 4.05335 0.469082 3.78335C0.014282 3.51335 -0.135718 2.92535 0.134282 2.46935C0.404282 2.01335 0.993482 1.86455 1.44828 2.13455C1.90428 2.40575 2.05428 2.99375 1.78308 3.44855Z" fill="#5F45BA"/>
<path d="M14.6805 23.0929C19.6533 22.5085 23.6529 18.4429 23.9793 13.2685C24.3465 7.4461 19.9233 2.4289 14.1009 2.0629C13.4181 2.0197 12.7329 2.0437 12.0549 2.1325C10.6557 2.2465 9.47373 2.7805 9.47373 2.7805C8.51613 3.2485 7.89813 4.0309 7.89813 5.0773C7.89813 6.4381 9.00093 7.5421 10.3617 7.5421C10.5897 7.5421 11.3769 7.2925 11.5641 7.2277C12.2793 6.9781 13.0377 6.8749 13.7937 6.9241C15.8049 7.0513 17.5053 8.2081 18.4161 9.8485C18.9441 10.7989 19.1877 11.8801 19.1181 12.9649C18.9201 16.1029 16.2165 18.4873 13.0773 18.2893C11.2233 18.1717 9.63333 17.1793 8.68173 15.7405V15.7417V15.7405C7.54413 14.2525 7.80693 11.8729 7.80573 11.8429C7.75893 10.5193 6.67533 9.4609 5.34093 9.4609C4.20093 9.4609 3.24453 10.2349 2.96013 11.2849C2.90493 11.4913 2.87613 12.0961 2.88453 12.1765C2.64933 17.8981 7.02813 22.7857 12.7713 23.1469C13.4085 23.1865 14.0469 23.1685 14.6805 23.0929Z" fill="#5F45BA"/>
<path d="M5.00255 7.81832C4.50575 8.65472 3.42575 8.92952 2.59055 8.43272C1.75535 7.93592 1.47935 6.85592 1.97615 6.02072C2.47295 5.18552 3.55295 4.90952 4.38815 5.40632C5.22335 5.90312 5.49815 6.98312 5.00255 7.81832Z" fill="#5F45BA"/>
</g>
<defs>
<clipPath id="clip0">
<rect width="24" height="24" fill="white"/>
</clipPath>
</defs>
</svg>