<svg width="24" height="24" viewBox="0 0 24 24" fill="none" xmlns="http://www.w3.org/2000/svg">
<g clip-path="url(#clip0_934_374)">
<path d="M11.1573 18C11.2504 17.5777 11.3436 17.1554 11.4393 16.7355C11.5055 16.4523 11.5104 16.4955 11.2529 16.3971C8.45 15.3222 5.64465 14.2496 2.83929 13.1794C2.70442 13.129 2.62595 13.0546 2.58182 12.9203C2.47637 12.6131 2.35376 12.3132 2.24094 12.0084C2.22378 11.9652 2.21152 11.9196 2.18945 11.8477C2.26057 11.8693 2.3096 11.8813 2.3562 11.9005C4.47493 12.7691 6.5912 13.6353 8.70994 14.5039C9.4971 14.8279 10.2843 15.1518 11.0739 15.4709C11.1744 15.5117 11.2456 15.5669 11.297 15.6629C11.4393 15.9244 11.5889 16.1812 11.7286 16.4427C11.7532 16.4907 11.7777 16.5507 11.7703 16.6011C11.709 17.069 11.6404 17.5345 11.5766 18.0024C11.4344 18 11.2946 18 11.1573 18Z" fill="url(#paint0_linear_934_374)"/>
<path d="M12.4077 17.9994C12.3415 17.5315 12.2753 17.066 12.2115 16.5981C12.2042 16.5501 12.2238 16.4949 12.2483 16.4517C12.3954 16.1806 12.545 15.907 12.7044 15.6431C12.7437 15.5759 12.8172 15.5135 12.8908 15.4847C15.8065 14.285 18.7222 13.09 21.6404 11.8926C21.6796 11.8758 21.7237 11.8638 21.7923 11.8398C21.7728 11.907 21.7655 11.9526 21.7483 11.9934C21.6329 12.3005 21.5103 12.6077 21.4025 12.9172C21.3558 13.0492 21.2774 13.126 21.1451 13.1764C19.4726 13.8123 17.8026 14.4529 16.1327 15.0912C14.9825 15.5303 13.8349 15.9718 12.6848 16.4109C12.4837 16.4877 12.4862 16.4877 12.5352 16.6989C12.6333 17.1308 12.7289 17.5651 12.827 17.9994C12.6848 17.9994 12.545 17.9994 12.4077 17.9994Z" fill="url(#paint1_linear_934_374)"/>
<path d="M11.918 17.9997C11.9327 17.8365 11.945 17.6734 11.9597 17.5102C11.9793 17.5102 12.0014 17.5102 12.021 17.5078C12.0357 17.671 12.0504 17.8365 12.0651 17.9997C12.0161 17.9997 11.967 17.9997 11.918 17.9997Z" fill="url(#paint2_linear_934_374)"/>
<path d="M24.0003 6.0192C23.9881 6.05998 23.9757 6.10078 23.9611 6.13918C23.6816 6.88543 23.3996 7.63168 23.12 8.38033C23.0857 8.47391 23.0292 8.53149 22.9409 8.57947C19.9983 10.1752 17.0531 11.7732 14.1105 13.3689C14.0737 13.3905 14.032 13.4049 13.9707 13.4049C13.9879 13.3665 14.0001 13.3281 14.0222 13.2921C14.1546 13.0522 14.2846 12.8122 14.4219 12.5771C14.4611 12.5099 14.52 12.4475 14.5838 12.4019C17.6736 10.2927 20.7684 8.18117 23.8606 6.07198C23.8998 6.0456 23.939 6.024 23.9782 6C23.9881 6.0072 23.993 6.012 24.0003 6.0192Z" fill="url(#paint3_linear_934_374)"/>
<path d="M9.9877 13.4241C9.95091 13.4073 9.91412 13.3929 9.87979 13.3737C6.93465 11.7756 3.99197 10.18 1.04685 8.58427C0.951212 8.53149 0.89236 8.46671 0.855576 8.36593C0.580926 7.62448 0.301371 6.88783 0.0218168 6.14876C0.00710344 6.10558 -0.00515771 6.05998 0.00219899 6C0.0389825 6.0216 0.075766 6.0432 0.112549 6.06718C3.19992 8.17397 6.28727 10.2783 9.36974 12.3875C9.45555 12.4475 9.52913 12.5363 9.58307 12.6251C9.71305 12.8386 9.8283 13.0594 9.94845 13.2753C9.97052 13.3161 9.99014 13.3593 10.0098 13.4025C10.0049 13.4097 9.99505 13.4169 9.9877 13.4241Z" fill="url(#paint4_linear_934_374)"/>
<path d="M1.2041 9.24805C1.27031 9.27685 1.312 9.29125 1.34878 9.31285C3.66615 10.5222 5.98596 11.7316 8.30331 12.9409C8.95316 13.2792 9.603 13.6176 10.2479 13.9607C10.319 13.9991 10.3828 14.0639 10.4245 14.1335C10.5692 14.3758 10.7016 14.623 10.8389 14.8701C10.8561 14.9013 10.8683 14.9325 10.8978 14.9925C10.8365 14.9709 10.7997 14.9613 10.7654 14.9469C7.857 13.7016 4.94867 12.461 2.04521 11.2181C1.98146 11.1917 1.90789 11.1317 1.88336 11.0717C1.66022 10.5006 1.44442 9.92472 1.22862 9.35123C1.22127 9.32965 1.21881 9.30565 1.2041 9.24805Z" fill="url(#paint5_linear_934_374)"/>
<path d="M13.0918 14.955C13.2635 14.6503 13.4302 14.3455 13.6068 14.0456C13.6313 14.0024 13.695 13.976 13.7441 13.9496C15.0707 13.2561 16.3974 12.5651 17.7241 11.8716C19.3475 11.0246 20.9684 10.18 22.5918 9.33292C22.6408 9.30652 22.6923 9.28492 22.7756 9.24414C22.7561 9.31372 22.7488 9.3521 22.7339 9.3905C22.5281 9.93759 22.3196 10.4847 22.1159 11.0342C22.0816 11.1277 22.0252 11.1853 21.932 11.2261C19.0286 12.4619 16.1252 13.7024 13.2242 14.9406C13.1874 14.955 13.1507 14.9694 13.1139 14.9814C13.1065 14.9718 13.0991 14.9622 13.0918 14.955Z" fill="url(#paint6_linear_934_374)"/>
<path d="M11.9862 15.9989C11.9568 15.9462 11.9347 15.9126 11.9175 15.879C11.6282 15.2671 11.3413 14.6528 11.047 14.0433C10.9857 13.9162 10.9955 13.825 11.096 13.7242C11.2088 13.6114 11.3069 13.4867 11.432 13.3403C11.6208 13.7362 11.7949 14.1057 11.9715 14.4753C11.9837 14.4753 11.9984 14.4753 12.0107 14.4753C12.1848 14.1057 12.3614 13.7386 12.5502 13.3379C12.7047 13.5227 12.842 13.6786 12.9695 13.8418C12.9892 13.8682 12.9818 13.9306 12.9646 13.9642C12.6581 14.6168 12.3516 15.2695 12.0426 15.9222C12.0328 15.9414 12.0156 15.9582 11.9862 15.9989Z" fill="url(#paint7_linear_934_374)"/>
<path d="M11.9639 13.5567C11.9369 13.5135 11.9075 13.4679 11.8805 13.4199C11.7677 13.2208 11.6598 13.0192 11.5421 12.8225C11.4955 12.7433 11.4955 12.6881 11.5667 12.6233C11.6843 12.5177 11.7947 12.4049 11.9051 12.2946C11.9565 12.2442 11.9958 12.2418 12.0473 12.2946C12.1674 12.4145 12.2925 12.5297 12.4078 12.6545C12.4323 12.6809 12.4494 12.7409 12.4347 12.7673C12.2925 13.0288 12.1454 13.2856 11.9982 13.5447C11.9982 13.5471 11.986 13.5471 11.9639 13.5567Z" fill="url(#paint8_linear_934_374)"/>
</g>
<defs>
<linearGradient id="paint0_linear_934_374" x1="6.98055" y1="11.8477" x2="6.98055" y2="18.0024" gradientUnits="userSpaceOnUse">
<stop stop-color="#FB6723"/>
<stop offset="1" stop-color="#F54E54"/>
</linearGradient>
<linearGradient id="paint1_linear_934_374" x1="17.0011" y1="11.8398" x2="17.0011" y2="17.9994" gradientUnits="userSpaceOnUse">
<stop stop-color="#FB6723"/>
<stop offset="1" stop-color="#F54E54"/>
</linearGradient>
<linearGradient id="paint2_linear_934_374" x1="11.9915" y1="17.5078" x2="11.9915" y2="17.9997" gradientUnits="userSpaceOnUse">
<stop stop-color="#FB6723"/>
<stop offset="1" stop-color="#F54E54"/>
</linearGradient>
<linearGradient id="paint3_linear_934_374" x1="18.9855" y1="6" x2="18.9855" y2="13.4049" gradientUnits="userSpaceOnUse">
<stop stop-color="#FB6723"/>
<stop offset="1" stop-color="#F54E54"/>
</linearGradient>
<linearGradient id="paint4_linear_934_374" x1="5.00488" y1="6" x2="5.00488" y2="13.4241" gradientUnits="userSpaceOnUse">
<stop stop-color="#FB6723"/>
<stop offset="1" stop-color="#F54E54"/>
</linearGradient>
<linearGradient id="paint5_linear_934_374" x1="6.05094" y1="9.24805" x2="6.05094" y2="14.9925" gradientUnits="userSpaceOnUse">
<stop stop-color="#FB6723"/>
<stop offset="1" stop-color="#F54E54"/>
</linearGradient>
<linearGradient id="paint6_linear_934_374" x1="17.9337" y1="9.24414" x2="17.9337" y2="14.9814" gradientUnits="userSpaceOnUse">
<stop stop-color="#FB6723"/>
<stop offset="1" stop-color="#F54E54"/>
</linearGradient>
<linearGradient id="paint7_linear_934_374" x1="11.995" y1="13.3379" x2="11.995" y2="15.9989" gradientUnits="userSpaceOnUse">
<stop stop-color="#FB6723"/>
<stop offset="1" stop-color="#F54E54"/>
</linearGradient>
<linearGradient id="paint8_linear_934_374" x1="11.975" y1="12.2559" x2="11.975" y2="13.5567" gradientUnits="userSpaceOnUse">
<stop stop-color="#FB6723"/>
<stop offset="1" stop-color="#F54E54"/>
</linearGradient>
<clipPath id="clip0_934_374">
<rect width="24" height="24" fill="white"/>
</clipPath>
</defs>
</svg>