<svg width="24" height="24" viewBox="0 0 24 24" fill="none" xmlns="http://www.w3.org/2000/svg">
<path fill-rule="evenodd" clip-rule="evenodd" d="M21.1693 15.3217C21.1693 15.3217 21.0764 17.1664 18.8397 19.1048C16.6032 21.0431 12.2015 22.6827 12.2015 22.6827C12.2015 22.6827 7.6712 20.7976 5.33057 18.8364C2.8233 16.7356 3.23374 15.3217 3.23374 15.3217V2.84666L12.2132 1.41378L21.1693 2.84666V15.3217ZM12.197 0.0234375L2.40491 2.04139V15.6454C2.40491 15.6454 2.1874 17.283 4.6915 19.4782C7.19555 21.6733 12.1843 23.9829 12.1843 23.9829C12.1843 23.9829 16.9842 21.8847 19.4232 19.7708C21.8622 17.657 21.9635 15.6454 21.9635 15.6454V2.04139L12.197 0.0234375Z" fill="#372F45"/>
<path fill-rule="evenodd" clip-rule="evenodd" d="M12.1819 0.0265595V1.4188L12.2133 1.41378L21.1693 2.84666V15.3217C21.1693 15.3217 21.0764 17.1664 18.8398 19.1048C16.6032 21.0431 12.2016 22.6827 12.2016 22.6827C12.2016 22.6827 12.1944 22.6797 12.1819 22.6744V23.9818C12.183 23.9823 12.1843 23.9829 12.1843 23.9829C12.1843 23.9829 16.9842 21.8847 19.4232 19.7708C21.8623 17.657 21.9635 15.6454 21.9635 15.6454V2.04139L12.197 0.0234375L12.1819 0.0265595Z" fill="#5C4D7D"/>
<path fill-rule="evenodd" clip-rule="evenodd" d="M12.0597 2.38867L3.96887 3.66043L3.9516 14.886C3.9516 14.886 3.61926 16.3575 6.00223 18.3541C8.22692 20.2181 12.1818 21.7789 12.1818 21.7789C12.1818 21.7789 16.0686 20.0753 18.2807 18.3376C20.6996 16.4375 20.3418 14.6569 20.3418 14.6569L20.3199 3.69043L12.0597 2.38867Z" fill="#372F45"/>
<path fill-rule="evenodd" clip-rule="evenodd" d="M20.3202 3.69043L12.06 2.38867L5.46753 3.42487C6.60221 12.443 12.5325 16.2693 19.8999 16.5213C20.4991 15.4398 20.3421 14.6569 20.3421 14.6569L20.3202 3.69043Z" fill="#5C4D7D"/>
<path fill-rule="evenodd" clip-rule="evenodd" d="M13.64 5.20312H9.07446V6.29591H13.4889V6.29839C15.0263 6.35015 16.2488 7.20483 16.2488 9.02074C16.2488 10.7275 15.0263 11.6847 13.4889 11.743H13.4888C13.4391 11.7449 13.3891 11.7458 13.3388 11.7458L9.27115 11.743V17.7793H10.4395V12.8376C10.5356 12.8448 13.64 12.8496 13.64 12.8496C15.7671 12.8496 17.4914 11.1379 17.4914 9.02625C17.4914 6.91483 15.7671 5.20312 13.64 5.20312Z" fill="white"/>
<path fill-rule="evenodd" clip-rule="evenodd" d="M8.22974 9.46793H12.9492V8.52734H8.22974V9.46793Z" fill="white"/>
</svg>