<svg width="24" height="24" viewBox="0 0 24 24" fill="none" xmlns="http://www.w3.org/2000/svg">
<path fill-rule="evenodd" clip-rule="evenodd" d="M15.9572 1C18.263 1 20.1742 1.75835 21.6734 3.27506C23.1813 4.79176 23.9397 6.71175 23.9397 9.03503C23.9397 11.3671 23.1813 13.2827 21.6821 14.7994C20.183 16.3161 18.2717 17.0744 15.966 17.0744H11.6395V23.2377H6.49756V19.8668C8.56221 19.2136 10.057 17.2805 10.057 15.001C10.057 12.7216 8.56221 10.7884 6.49756 10.1353V6.95723V1H15.9572ZM15.1596 12.8928C16.2029 12.8928 17.0533 12.529 17.7196 11.8101C18.3859 11.0912 18.7235 10.1707 18.7191 9.04847C18.7191 7.92628 18.3859 7.00574 17.7196 6.28684C17.0489 5.56794 16.1942 5.2041 15.1596 5.2041H11.6309V12.8928H15.1596Z" fill="black"/>
<path d="M3.84124 18.7675C5.90151 18.7675 7.56725 17.0973 7.56725 15.0414C7.56725 12.9812 5.89712 11.3154 3.84124 11.3154C1.78536 11.3154 0.115234 12.9856 0.115234 15.0414C0.115234 17.1017 1.78536 18.7675 3.84124 18.7675Z" fill="#FF3465"/>
</svg>