<svg width="24" height="24" viewBox="0 0 24 24" fill="none" xmlns="http://www.w3.org/2000/svg">
<path fill-rule="evenodd" clip-rule="evenodd" d="M0 11.9994C0 5.37232 5.37232 0 11.9994 0C18.6265 0 23.9988 5.37232 23.9988 11.9994C23.9988 18.6265 18.6265 23.9988 11.9994 23.9988C5.37232 23.9988 0 18.6265 0 11.9994ZM22.3249 11.9997C22.3249 6.29731 17.7022 1.67461 11.9998 1.67461C6.29745 1.67461 1.67476 6.2973 1.67476 11.9997C1.67476 17.7021 6.29745 22.3248 11.9998 22.3248C17.7022 22.3248 22.3249 17.7021 22.3249 11.9997Z" fill="#3740C2"/>
<path d="M13.6334 7.40873C13.4624 7.23777 13.2304 7.14199 12.9887 7.14258H12.9863C12.7441 7.14253 12.5119 7.23974 12.342 7.4124L5.21855 14.5698C5.04719 14.7409 4.95136 14.9734 4.9524 15.2155C4.95303 15.4593 5.04879 15.6885 5.22156 15.8606C5.39209 16.0315 5.6238 16.1273 5.86526 16.1267C6.10973 16.1267 6.34019 16.031 6.51296 15.8579L13.636 8.70014C13.991 8.34241 13.9898 7.765 13.6334 7.40873H13.6334Z" fill="#2DB8E3"/>
<path d="M17.7689 7.2303C17.4274 7.08764 17.0334 7.16669 16.7734 7.43008L9.6493 14.5882C9.29399 14.9459 9.29548 15.5237 9.65263 15.8796C10.0105 16.2348 10.5885 16.2332 10.9444 15.8759L16.5069 10.2867V15.2319C16.5073 15.7361 16.9159 16.1447 17.4201 16.1451C17.9243 16.1447 18.3329 15.7361 18.3333 15.2319V8.07445C18.3344 7.70448 18.1112 7.37072 17.7689 7.2303H17.7689Z" fill="#3840C7"/>
</svg>