<svg width="24" height="24" viewBox="0 0 24 24" fill="none" xmlns="http://www.w3.org/2000/svg">
<g clip-path="url(#clip0_934_753)">
<path d="M18.0251 1.74414L19.48 7.17944L14.0447 8.6343L12.5898 3.19083L18.0251 1.74414Z" fill="#69EE5F"/>
<path opacity="0.6" d="M12.0586 0.142578L8.07812 4.12302L12.0586 8.10345L16.039 4.12302L12.0586 0.142578Z" fill="#27D9E5"/>
<path d="M13.3671 17.337L12.0594 16.0293L10.6127 17.4842L11.5363 20.9415L9.54199 21.4728L12.0676 23.9983L14.5604 21.5055L12.3863 20.9415L13.3671 17.337Z" fill="#68EFAF"/>
<path d="M6.64834 13.5215L8.1032 12.0666L6.64834 10.6117L3.191 11.5353L2.65155 9.54102L0.125977 12.0666L2.64338 14.584L3.18282 12.5897L6.64834 13.5215Z" fill="#4DEBE1"/>
<path d="M17.4779 10.611L16.0312 12.0659L17.4861 13.5207L20.9435 12.5971L21.4747 14.5914L24.0003 12.074L21.4747 9.55664L20.9435 11.5509L17.4779 10.611Z" fill="#83F07B"/>
<path d="M8.09502 8.10144L10.0812 8.63271L10.6124 6.64658L8.07867 4.11283L9.54171 2.64979L6.09254 1.73438L5.16895 5.17537L7.16325 4.6441L8.09502 8.10144Z" fill="#51ECE2"/>
<path d="M16.0317 16.062L13.8739 15.498L13.3672 17.3371L16.0399 20.0097L14.5442 21.5055L17.977 22.3964L18.9251 18.9554L16.9471 19.4866L16.0317 16.062Z" fill="#86F085"/>
<path d="M8.09461 16.0291L8.62588 14.043L6.63974 13.5117L4.10599 16.0455L2.64296 14.5824L1.72754 18.0316L5.16853 18.9552L4.63726 16.9609L8.09461 16.0291Z" fill="#4DEBE1"/>
<path d="M16.0313 8.10185L15.5 10.088L17.4861 10.6193L20.0199 8.08551L21.4829 9.54854L22.3983 6.09937L18.9492 5.17578L19.4804 7.17009L16.0313 8.10185Z" fill="#83F07B"/>
<path d="M6.64792 10.6111L8.63405 10.0798L8.10278 8.09368L4.64544 7.17009L5.17671 5.17578L1.72754 6.09937L2.65113 9.54037L4.11417 8.07733L6.64792 10.6111Z" fill="#4DEBE1"/>
<path d="M20.0121 16.0455L17.4783 13.5117L15.4922 14.043L16.0316 16.0536L19.4808 16.9527L18.925 18.9552L22.3905 18.0234L21.4669 14.5824L20.0121 16.0455Z" fill="#85F082"/>
<path d="M10.6121 17.4842L10.0808 15.498L8.09465 16.0293L7.17106 19.4866L5.17676 18.9554L6.10035 22.3964L9.54134 21.4728L8.07831 20.0097L10.6121 17.4842Z" fill="#59EEC3"/>
<path opacity="0.85" d="M10.6121 6.647L12.0669 8.10186L13.5218 6.647L12.5982 3.18966L14.5925 2.65839L12.0588 0.132812L9.5332 2.65839L11.5275 3.18966L10.6121 6.647Z" fill="#4BE8E0"/>
<path d="M8.09467 8.10187L7.17108 4.64453L5.17678 5.1758L4.64551 7.17011L8.09467 8.10187Z" fill="#08D1CB"/>
<path d="M10.6129 6.64681L11.5364 3.18947L9.54214 2.6582L8.0791 4.12124L10.6129 6.64681Z" fill="#08D1CB"/>
<path d="M6.64816 13.5212L3.19081 12.5977L2.65137 14.592L4.1144 16.055L6.64816 13.5212Z" fill="#10D5CE"/>
<path d="M6.64816 10.6119L4.1144 8.07812L2.65137 9.54116L3.19081 11.5355L6.64816 10.6119Z" fill="#10D5CE"/>
<path d="M10.6129 17.4844L8.0791 20.0181L9.54214 21.4811L11.5364 20.9499L10.6129 17.4844Z" fill="#29DBA5"/>
<path d="M8.09503 16.0293L4.6377 16.9529L5.16896 18.9472L7.16327 19.4785L8.09503 16.0293Z" fill="#29DBA5"/>
<path d="M13.3673 17.3379L12.3701 20.9424L14.5442 21.5063L16.04 20.0106L13.3673 17.3379Z" fill="#4DE171"/>
<path d="M16.0312 16.0625L16.9548 19.4871L18.9328 18.9559L19.4886 16.9534L16.0312 16.0625Z" fill="#4DE171"/>
<path d="M17.4785 10.6115L20.9358 11.5351L21.4671 9.5408L20.0123 8.08594L17.4785 10.6115Z" fill="#58E46D"/>
<path d="M17.4785 13.5212L20.0123 16.055L21.4753 14.592L20.944 12.5977L17.4785 13.5212Z" fill="#58E46D"/>
<path d="M16.0312 8.10187L19.4886 7.17828L18.9492 5.1758L16.9548 4.64453L16.0312 8.10187Z" fill="#53E55D"/>
<path opacity="0.25" d="M13.5137 6.64658L14.0449 8.63271L16.0311 8.10144L16.9547 4.6441L18.949 5.17537L18.0254 1.73438L14.5844 2.65797L16.0474 4.121L13.5137 6.64658Z" fill="white"/>
</g>
<defs>
<clipPath id="clip0_934_753">
<rect width="24" height="24" fill="white"/>
</clipPath>
</defs>
</svg>