<svg width="24" height="24" viewBox="0 0 24 24" fill="none" xmlns="http://www.w3.org/2000/svg">
<path d="M5.75889 1.45322L11.8528 8.48771L15.9411 6.11739C15.9411 6.11739 11.0043 -0.381869 9.69294 0.0769044C8.45875 0.535675 5.75889 1.45322 5.75889 1.45322Z" fill="black"/>
<path d="M16.0957 6.11761C16.0957 6.11761 17.0213 4.51192 17.4841 2.37097C17.4841 2.37097 22.1124 4.20607 20.3382 8.79377L16.0957 6.11761Z" fill="black"/>
<path d="M20.3382 8.79377L20.7238 13.6108L22.498 13.3814C22.498 13.3814 22.9608 13.2285 22.8837 12.3874C22.8066 11.4699 22.6523 9.5583 22.6523 9.5583C22.6523 9.5583 22.7294 9.09952 21.6495 8.94661C20.3381 8.71724 20.3382 8.79377 20.3382 8.79377Z" fill="black"/>
<path d="M20.7238 13.6108L17.1757 16.4398L18.7956 19.5748C18.7956 19.5748 19.1813 20.7982 20.3384 19.4218C21.4183 18.0455 21.8811 17.8162 21.804 16.9751C21.7269 16.134 21.4952 14.146 20.7238 13.6108Z" fill="black"/>
<path d="M17.0986 16.4397L12.2389 14.2988L7.9963 22.7861C7.9963 22.7861 7.68775 23.3978 8.76767 23.4742C9.84758 23.6271 11.6218 24.0094 12.5474 23.0919C13.4731 22.2508 17.0986 16.4397 17.0986 16.4397Z" fill="black"/>
<path d="M12.2388 14.2224L11.7759 8.56422L1.28517 9.25238C1.28517 9.25238 0.66806 9.32885 0.745198 10.4758C0.822336 12.005 0.976613 13.6872 0.976613 13.6872C0.976613 13.6872 0.899475 14.3753 2.28796 14.4518C3.67644 14.5282 12.0845 14.5282 12.2388 14.2224Z" fill="black"/>
</svg>