<svg width="24" height="24" viewBox="0 0 24 24" fill="none" xmlns="http://www.w3.org/2000/svg">
<path fill-rule="evenodd" clip-rule="evenodd" d="M6 12C6 8.692 8.692 6 12 6C15.308 6 18 8.692 18 12C18 12.8707 17.8093 13.696 17.4747 14.444L13.5147 10.484L10.4853 13.5147L14.4453 17.4747C13.6766 17.8208 12.8431 17.9999 12 18C10.4092 17.9982 8.88414 17.3655 7.75931 16.2407C6.63447 15.1159 6.00176 13.5908 6 12ZM21.7507 12C21.7524 10.1167 21.2057 8.27372 20.1773 6.696L24 2.872L21.128 0L17.304 3.824C15.776 2.83067 13.9573 2.24933 12 2.24933C10.0427 2.24933 8.224 2.83067 6.696 3.82267L2.872 0L0 2.872L3.824 6.696C2.83067 8.224 2.24933 10.0427 2.24933 12C2.24933 13.9573 2.832 15.776 3.824 17.304L0 21.128L2.872 24L6.696 20.176C8.224 21.1693 10.0427 21.7507 12 21.7507C13.9573 21.7507 15.776 21.1693 17.304 20.176L21.128 24L24 21.128L20.176 17.304C21.2049 15.7265 21.7521 13.8834 21.7507 12Z" fill="#040404"/>
</svg>