<svg width="24" height="24" viewBox="0 0 24 24" fill="none" xmlns="http://www.w3.org/2000/svg">
<rect width="24" height="24" rx="12" fill="#5555FE"/>
<path d="M11.4692 13.8936C11.9 13.0968 12.044 12.3096 12.3092 11.568C12.9176 9.8796 13.4528 8.16119 14.5448 6.69357C15.5829 5.29916 16.9557 4.51436 18.6945 4.38956C18.8613 4.37756 19.1661 4.25636 19.0797 4.62956C18.8253 5.73717 18.7581 6.87958 18.4413 7.97878C17.8497 10.0296 15.7005 11.0988 14.1056 11.0568C13.52 11.04 13.286 11.2968 13.0748 11.7408C12.1388 13.6944 12.074 15.7416 12.416 17.8309C12.488 18.2641 12.602 18.6901 12.602 19.1329C12.602 19.8157 12.1688 20.2333 11.4704 20.2225C10.772 20.2117 10.3064 19.7773 10.3748 19.0945C10.4588 18.2617 10.6496 17.4397 10.7348 16.6081C10.8392 15.6576 10.946 14.7024 10.6976 13.7508C10.5284 13.1052 10.1468 12.6108 9.66441 12.1464C9.3464 12.4752 9.14241 12.8796 8.7368 13.0884C8.30919 13.3133 7.81979 13.3922 7.34318 13.3131C6.86656 13.2341 6.42886 13.0013 6.09678 12.6504C5.32158 11.8524 4.61357 10.9884 3.85156 10.1304C5.45477 9.5304 6.95599 9.732 8.3972 10.482C9.80841 11.2116 10.7996 12.36 11.4692 13.8936Z" fill="#53D855"/>
</svg>