<svg width="24" height="24" viewBox="0 0 24 24" fill="none" xmlns="http://www.w3.org/2000/svg">
<path d="M0 2C0 0.89543 0.895431 0 2 0H22C23.1046 0 24 0.895431 24 2V22C24 23.1046 23.1046 24 22 24H2C0.89543 24 0 23.1046 0 22V2Z" fill="#4E27AF"/>
<path fill-rule="evenodd" clip-rule="evenodd" d="M8.74414 9.54351V10.9249H9.12391H9.50368V10.3664C9.50368 9.99321 9.50586 9.80786 9.51026 9.80786C9.51688 9.80786 9.62699 9.91699 9.62699 9.92357C9.62699 9.92817 9.71011 10.0128 9.71463 10.0128C9.71658 10.0128 9.73707 10.032 9.7602 10.0556L9.80227 10.0984V10.6901V11.2818H10.182H10.5618V10.6406C10.5618 10.2177 10.5596 9.99956 10.5553 9.99956C10.5518 9.99956 10.5488 9.99508 10.5488 9.98956C10.5488 9.98409 10.4583 9.88765 10.3476 9.77526C10.2369 9.66283 10.1464 9.56916 10.1464 9.5671C10.1464 9.56504 10.2357 9.56333 10.3448 9.56333C10.5082 9.56333 10.5449 9.56167 10.5525 9.5539C10.5604 9.54589 10.5618 9.47561 10.5618 9.09424V8.64402L10.5459 8.6278C10.5371 8.61887 10.5268 8.61158 10.523 8.61158C10.5192 8.61158 10.5033 8.59893 10.4877 8.58346C10.4721 8.56803 10.4508 8.5488 10.4404 8.54075C10.4299 8.53266 10.4121 8.51708 10.4008 8.50605C10.3894 8.49499 10.377 8.48598 10.3731 8.48598C10.3692 8.48598 10.3548 8.47409 10.3411 8.45953C10.3274 8.44502 10.3128 8.43312 10.3086 8.43312C10.3045 8.43312 10.2899 8.42123 10.2762 8.40667C10.2625 8.39212 10.2479 8.38022 10.2439 8.38022C10.2399 8.38022 10.2299 8.37356 10.2217 8.36535C10.2135 8.35718 10.1955 8.34156 10.1817 8.33065C10.168 8.31974 10.1442 8.29821 10.129 8.28274C10.1137 8.26728 10.098 8.25467 10.0941 8.25467C10.0901 8.25467 10.0757 8.24277 10.062 8.22822C10.0482 8.21366 10.0331 8.20177 10.0282 8.20177C10.0234 8.20177 10.0152 8.19582 10.01 8.18856C10.0049 8.1813 9.99691 8.17535 9.99235 8.17535C9.98779 8.17535 9.98405 8.17238 9.98405 8.16873C9.98405 8.16437 9.77306 8.16211 9.36408 8.16211H8.74414V9.54351ZM11.4057 8.17389C11.4057 8.18035 11.3999 8.18995 11.3928 8.19518C11.3856 8.20042 11.3798 8.20934 11.3798 8.21501C11.3798 8.22068 11.3739 8.2296 11.3668 8.23484C11.3597 8.24007 11.3538 8.249 11.3538 8.25467C11.3538 8.26034 11.348 8.26926 11.3408 8.2745C11.3337 8.27973 11.3278 8.28929 11.3278 8.29575C11.3278 8.30226 11.3249 8.30753 11.3213 8.30753C11.3178 8.30753 11.3149 8.31348 11.3149 8.32074C11.3149 8.32803 11.312 8.33398 11.3084 8.33398C11.3048 8.33398 11.3019 8.33842 11.3019 8.3439C11.3019 8.34933 11.2989 8.35381 11.2954 8.35381C11.2918 8.35381 11.2889 8.35841 11.2889 8.364C11.2889 8.36963 11.2823 8.38137 11.2743 8.39013C11.2524 8.41401 11.246 8.42245 11.2368 8.44014C11.2322 8.44898 11.223 8.46104 11.2165 8.46695C11.2099 8.47282 11.2045 8.48249 11.2045 8.4884C11.2045 8.49435 11.2016 8.49919 11.198 8.49919C11.1944 8.49919 11.1915 8.50367 11.1915 8.5091C11.1915 8.51458 11.1886 8.51902 11.185 8.51902C11.1815 8.51902 11.1785 8.5235 11.1785 8.52893C11.1785 8.53441 11.1756 8.53885 11.172 8.53885C11.1685 8.53885 11.1655 8.54333 11.1655 8.54876C11.1655 8.55423 11.1626 8.55867 11.1591 8.55867C11.1555 8.55867 11.1526 8.56462 11.1526 8.57192C11.1526 8.57918 11.1496 8.58513 11.1461 8.58513C11.1425 8.58513 11.1396 8.5904 11.1396 8.5969C11.1396 8.60337 11.1338 8.61293 11.1266 8.61816C11.1195 8.62339 11.1136 8.63232 11.1136 8.63799C11.1136 8.64366 11.1078 8.65258 11.1006 8.65782C11.0935 8.66305 11.0876 8.67197 11.0876 8.67764C11.0876 8.68332 11.0818 8.69224 11.0747 8.69747C11.0675 8.70271 11.0617 8.7123 11.0617 8.71877C11.0617 8.72523 11.0595 8.73059 11.0568 8.73067C11.0541 8.73074 11.0432 8.74415 11.0325 8.76041C11.0218 8.77667 11.0108 8.78999 11.0081 8.78999C11.0055 8.79003 11.0033 8.79531 11.0033 8.80177C11.0033 8.80823 10.9974 8.81783 10.9903 8.82307C10.9831 8.8283 10.9773 8.8379 10.9773 8.84436C10.9773 8.85082 10.9744 8.8561 10.9708 8.8561C10.9672 8.8561 10.9643 8.86141 10.9643 8.86788C10.9643 8.87434 10.9585 8.88394 10.9513 8.88917C10.9442 8.89441 10.9383 8.90333 10.9383 8.909C10.9383 8.91467 10.9325 8.92359 10.9254 8.92883C10.9182 8.93406 10.9124 8.94362 10.9124 8.95009C10.9124 8.95659 10.9094 8.96186 10.9059 8.96186C10.9023 8.96186 10.8994 8.9663 10.8994 8.97178C10.8994 8.97721 10.8965 8.98169 10.8929 8.98169C10.8893 8.98169 10.8864 8.98613 10.8864 8.99161C10.8864 8.99704 10.8835 9.00152 10.8799 9.00152C10.8763 9.00152 10.8734 9.00596 10.8734 9.01143C10.8734 9.01687 10.8705 9.02135 10.8669 9.02135C10.8634 9.02135 10.8604 9.02662 10.8604 9.03313C10.8604 9.03959 10.8546 9.04915 10.8475 9.05438C10.8346 9.06386 10.8345 9.07151 10.8345 9.9944V10.9249H11.2142H11.594V10.3399V9.75499H11.7394C11.8659 9.75499 11.8853 9.75634 11.8887 9.76546C11.8908 9.77121 11.8926 10.0344 11.8926 10.3504V10.9249H12.2724H12.6522V9.54351V8.16211H12.029C11.4359 8.16211 11.4057 8.1627 11.4057 8.17389ZM13.4572 8.20839C13.4339 8.23337 13.4127 8.25399 13.4099 8.25423C13.404 8.25471 13.3598 8.29873 13.3598 8.30408C13.3598 8.30872 13.2117 8.45953 13.2072 8.45953C13.2027 8.45953 13.1196 8.54416 13.1196 8.54872C13.1196 8.55332 12.9975 8.67764 12.9929 8.67764C12.991 8.67764 12.9735 8.69394 12.9539 8.71385L12.9183 8.75006V9.83748V10.9249H13.3014H13.6844V9.87726V8.82969H13.8304H13.9765V9.87726V10.9249H14.3562H14.736V9.54351V8.16211L14.1177 8.16255L13.4993 8.16298L13.4572 8.20839ZM15.0087 9.54351V10.9249H15.3884H15.7682V10.3768C15.7682 10.0754 15.77 9.82408 15.7721 9.81833C15.7756 9.8092 15.7949 9.80786 15.9214 9.80786H16.0668V10.3664V10.9249H16.4466H16.8264V10.2309V9.53688H16.6186C16.4399 9.53688 16.4109 9.53553 16.4109 9.52713C16.4109 9.52177 16.5044 9.42196 16.6186 9.30533L16.8264 9.09332V8.62772V8.16211H16.4466H16.0668V8.58354V9.00501L16.0493 9.01814C16.0332 9.03015 15.8722 9.19286 15.8325 9.23716C15.8081 9.26436 15.7889 9.27912 15.7779 9.27912C15.7694 9.27912 15.7682 9.21075 15.7682 8.72063V8.16211H15.3884H15.0087V9.54351ZM17.099 9.54351V10.9249H18.0079H18.9167V10.5911V10.2573H18.3876H17.8586V10.0061V9.75499H18.0663H18.274V9.51705V9.27912H18.0663H17.8586V9.05438V8.82969H18.3876H18.9167V8.4959V8.16211H18.0079H17.099V9.54351ZM19.1829 9.54351V10.9249H19.5659H19.9489V10.3664C19.9489 9.87004 19.95 9.80786 19.9588 9.80786C19.9681 9.80786 20.0268 9.86234 20.0268 9.87099C20.0268 9.87321 20.0385 9.88642 20.0528 9.90041C20.0671 9.91437 20.0787 9.93051 20.0787 9.93622C20.0787 9.94198 20.0817 9.94665 20.0853 9.94665C20.0889 9.94665 20.1254 9.98084 20.1664 10.0226L20.241 10.0985V10.6902V11.2818H20.6208H21.0005V10.6372V9.9925L20.9291 9.92024C20.8899 9.88047 20.8578 9.84624 20.8578 9.84414C20.8578 9.83926 20.8271 9.80786 20.8223 9.80786C20.8176 9.80786 20.6435 9.63067 20.6435 9.62587C20.6435 9.62088 20.6126 9.58975 20.6077 9.58975C20.6026 9.58975 20.5851 9.57218 20.5851 9.5671C20.5851 9.56504 20.6786 9.56333 20.7928 9.56333H21.0005V9.10375V8.64417L20.9781 8.62125C20.9657 8.60864 20.9524 8.59833 20.9487 8.59833C20.9449 8.59833 20.9287 8.58572 20.9128 8.57025C20.8968 8.55479 20.8706 8.52953 20.8547 8.51406C20.8387 8.49863 20.8218 8.48598 20.8171 8.48598C20.8125 8.48598 20.8045 8.48004 20.7993 8.47278C20.7942 8.46548 20.7874 8.45953 20.7843 8.45953C20.7811 8.45953 20.7704 8.45061 20.7604 8.43971C20.7504 8.4288 20.7387 8.41988 20.7345 8.41988C20.7303 8.41988 20.7157 8.40798 20.702 8.39347C20.6882 8.37891 20.6738 8.36701 20.6698 8.36701C20.6659 8.36701 20.6495 8.35361 20.6334 8.33727C20.6173 8.32089 20.6021 8.30753 20.5995 8.30753C20.5969 8.30753 20.5823 8.29563 20.5672 8.28108C20.552 8.26656 20.5365 8.25467 20.5327 8.25467C20.5289 8.25467 20.5116 8.2398 20.4942 8.22159C20.4768 8.20343 20.4587 8.18856 20.4539 8.18856C20.449 8.18856 20.4409 8.18261 20.4358 8.17535C20.4265 8.16227 20.419 8.16211 19.8046 8.16211H19.1829V9.54351ZM11.8887 8.72777C11.8908 8.73352 11.8926 8.85991 11.8926 9.00866V9.27912H11.7433C11.6481 9.27912 11.594 9.27674 11.594 9.27249C11.594 9.26888 11.5969 9.26591 11.6005 9.26591C11.6041 9.26591 11.607 9.25996 11.607 9.25266C11.607 9.24541 11.6099 9.23946 11.6135 9.23946C11.6171 9.23946 11.62 9.23204 11.62 9.22292C11.62 9.21384 11.6229 9.20643 11.6265 9.20643C11.63 9.20643 11.6329 9.20048 11.6329 9.19318C11.6329 9.18592 11.6359 9.17997 11.6394 9.17997C11.643 9.17997 11.646 9.17403 11.646 9.16677C11.646 9.15947 11.6489 9.15352 11.6524 9.15352C11.656 9.15352 11.6589 9.14757 11.6589 9.14032C11.6589 9.13306 11.6618 9.12711 11.6654 9.12711C11.669 9.12711 11.6719 9.1218 11.6719 9.11533C11.6719 9.10887 11.6777 9.09927 11.6849 9.09404C11.692 9.0888 11.6979 9.07925 11.6979 9.07278C11.6979 9.06628 11.7005 9.061 11.7037 9.061C11.707 9.061 11.715 9.04764 11.7216 9.0313C11.7282 9.01492 11.7358 9.00156 11.7385 9.00156C11.7411 9.00152 11.7433 8.99557 11.7433 8.98831C11.7433 8.98102 11.7463 8.97507 11.7498 8.97507C11.7534 8.97507 11.7563 8.96912 11.7563 8.96186C11.7563 8.95461 11.7592 8.94866 11.7628 8.94866C11.7664 8.94866 11.7693 8.94271 11.7693 8.93541C11.7693 8.92816 11.7722 8.92221 11.7758 8.92221C11.7794 8.92221 11.7823 8.91626 11.7823 8.909C11.7823 8.9017 11.7852 8.89576 11.7887 8.89576C11.7923 8.89576 11.7953 8.88981 11.7953 8.88255C11.7953 8.87529 11.7982 8.86934 11.8018 8.86934C11.8053 8.86934 11.8082 8.8634 11.8082 8.8561C11.8082 8.84884 11.8111 8.84289 11.8147 8.84289C11.8183 8.84289 11.8212 8.83695 11.8212 8.82969C11.8212 8.82239 11.8242 8.81644 11.8277 8.81644C11.8313 8.81644 11.8342 8.81049 11.8342 8.80324C11.8342 8.79598 11.8371 8.79003 11.8407 8.79003C11.8443 8.79003 11.8472 8.78408 11.8472 8.77679C11.8472 8.76953 11.8501 8.76358 11.8537 8.76358C11.8573 8.76358 11.8602 8.7591 11.8602 8.75367C11.8602 8.74819 11.8631 8.74375 11.8666 8.74375C11.8702 8.74375 11.8732 8.7378 11.8732 8.73055C11.8732 8.71476 11.8831 8.71302 11.8887 8.72777ZM9.80227 9.05438V9.27912H9.65297H9.50368V9.05438V8.82969H9.65297H9.80227V9.05438ZM20.241 9.05438V9.27912H20.0949H19.9489V9.05438V8.82969H20.0949H20.241V9.05438ZM8.74414 13.3175V14.6989H9.36416H9.98421L10.0458 14.6361C10.0797 14.6017 10.1074 14.5718 10.1074 14.5699C10.1074 14.5653 10.1774 14.494 10.182 14.494C10.1866 14.494 10.3346 14.3431 10.3346 14.3385C10.3346 14.3337 10.3786 14.289 10.3834 14.289C10.3854 14.289 10.4102 14.2653 10.4385 14.2362C10.4667 14.2071 10.4943 14.1833 10.4999 14.1833C10.5054 14.1833 10.5099 14.1801 10.5099 14.1762C10.5099 14.1723 10.5216 14.1576 10.5359 14.1437L10.5618 14.1182V13.4766C10.5618 13.0533 10.5596 12.835 10.5553 12.835C10.5518 12.835 10.5488 12.8305 10.5488 12.8251C10.5488 12.8196 10.5459 12.8152 10.5423 12.8152C10.5388 12.8152 10.5359 12.8107 10.5359 12.8053C10.5359 12.7998 10.5329 12.7953 10.5294 12.7953C10.5258 12.7953 10.5229 12.7894 10.5229 12.7821C10.5229 12.7748 10.5199 12.7689 10.5164 12.7689C10.5128 12.7689 10.5099 12.7644 10.5099 12.759C10.5099 12.7535 10.507 12.7491 10.5034 12.7491C10.4998 12.7491 10.4969 12.7438 10.4969 12.7373C10.4969 12.7308 10.4911 12.7213 10.4839 12.716C10.4768 12.7108 10.4709 12.7019 10.4709 12.6962C10.4709 12.6905 10.4651 12.6816 10.458 12.6764C10.4508 12.6711 10.445 12.6629 10.445 12.6581C10.445 12.6533 10.4384 12.6422 10.4303 12.6334C10.4063 12.6072 10.3998 12.5984 10.392 12.5808C10.3879 12.5716 10.3826 12.564 10.3802 12.564C10.3779 12.564 10.372 12.5536 10.3671 12.5409C10.3621 12.5281 10.3558 12.5177 10.3529 12.5177C10.35 12.5177 10.3476 12.5124 10.3476 12.506C10.3476 12.4995 10.3417 12.4899 10.3346 12.4847C10.3275 12.4794 10.3216 12.4705 10.3216 12.4648C10.3216 12.4592 10.3158 12.4503 10.3086 12.445C10.3015 12.4398 10.2957 12.4309 10.2957 12.4252C10.2957 12.4195 10.2898 12.4106 10.2827 12.4054C10.2755 12.4001 10.2697 12.3912 10.2697 12.3855C10.2697 12.3799 10.2638 12.3709 10.2567 12.3657C10.2496 12.3605 10.2437 12.3509 10.2437 12.3444C10.2437 12.3379 10.2408 12.3327 10.2372 12.3327C10.2336 12.3327 10.2307 12.3282 10.2307 12.3228C10.2307 12.3173 10.2285 12.3128 10.2258 12.3128C10.2231 12.3128 10.2169 12.3037 10.2121 12.2926C10.2072 12.2814 10.1963 12.2652 10.1878 12.2565C10.1793 12.2478 10.1723 12.2368 10.1723 12.232C10.1723 12.2272 10.1665 12.2189 10.1593 12.2137C10.1522 12.2085 10.1464 12.1995 10.1464 12.1939C10.1464 12.1882 10.1405 12.1793 10.1333 12.174C10.1262 12.1688 10.1204 12.1592 10.1204 12.1527C10.1204 12.1463 10.1175 12.141 10.1139 12.141C10.1103 12.141 10.1074 12.1365 10.1074 12.1311C10.1074 12.1256 10.1045 12.1212 10.1009 12.1212C10.0973 12.1212 10.0944 12.1167 10.0944 12.1113C10.0944 12.1058 10.0915 12.1014 10.0879 12.1014C10.0844 12.1014 10.0814 12.0969 10.0814 12.0914C10.0814 12.086 10.0785 12.0815 10.0749 12.0815C10.0714 12.0815 10.0685 12.0762 10.0685 12.0697C10.0685 12.0633 10.0626 12.0537 10.0554 12.0485C10.0483 12.0432 10.0425 12.0337 10.0425 12.0272C10.0425 12.0207 10.0396 12.0154 10.036 12.0154C10.0324 12.0154 10.0295 12.0108 10.0295 12.0052C10.0295 11.9996 10.0229 11.9881 10.0149 11.9797C10.0068 11.9712 9.99597 11.958 9.99075 11.9502L9.98117 11.9361H9.36267H8.74414V13.3175ZM11.4057 11.9479C11.4057 11.9543 11.3999 11.9639 11.3928 11.9691C11.3856 11.9744 11.3798 11.9833 11.3798 11.989C11.3798 11.9946 11.3739 12.0036 11.3668 12.0088C11.3597 12.014 11.3538 12.023 11.3538 12.0286C11.3538 12.0343 11.348 12.0432 11.3408 12.0485C11.3337 12.0537 11.3278 12.0633 11.3278 12.0697C11.3278 12.0762 11.3249 12.0815 11.3213 12.0815C11.3178 12.0815 11.3149 12.086 11.3149 12.0914C11.3149 12.0969 11.312 12.1014 11.3084 12.1014C11.3048 12.1014 11.3019 12.1052 11.3019 12.11C11.3019 12.1148 11.296 12.1251 11.2889 12.1329C11.2818 12.1407 11.2759 12.1503 11.2759 12.1542C11.2759 12.1581 11.2729 12.165 11.2693 12.1694C11.2442 12.1996 11.237 12.2098 11.237 12.2144C11.237 12.2173 11.2297 12.2271 11.2207 12.2362C11.2118 12.2453 11.2045 12.2567 11.2045 12.2615C11.2045 12.2663 11.1986 12.2746 11.1915 12.2798C11.1844 12.285 11.1785 12.2946 11.1785 12.3011C11.1785 12.3076 11.1756 12.3128 11.172 12.3128C11.1685 12.3128 11.1655 12.3173 11.1655 12.3228C11.1655 12.3282 11.1626 12.3327 11.1591 12.3327C11.1555 12.3327 11.1526 12.3379 11.1526 12.3444C11.1526 12.3509 11.1467 12.3605 11.1396 12.3657C11.1324 12.3709 11.1266 12.3799 11.1266 12.3855C11.1266 12.3912 11.1207 12.4001 11.1136 12.4054C11.1065 12.4106 11.1006 12.4202 11.1006 12.4267C11.1006 12.4331 11.0977 12.4384 11.0941 12.4384C11.0906 12.4384 11.0876 12.443 11.0876 12.4486C11.0876 12.4543 11.0806 12.466 11.0719 12.4749C11.0633 12.4837 11.0543 12.4969 11.052 12.5043C11.0497 12.5117 11.0458 12.5177 11.0432 12.5177C11.0407 12.5177 11.0331 12.5281 11.0264 12.5409C11.0197 12.5536 11.0117 12.564 11.0087 12.564C11.0057 12.564 11.0033 12.5693 11.0033 12.5758C11.0033 12.5822 10.9974 12.5918 10.9903 12.5971C10.9831 12.6023 10.9773 12.6112 10.9773 12.6169C10.9773 12.6226 10.9714 12.6315 10.9643 12.6367C10.9572 12.642 10.9513 12.6515 10.9513 12.658C10.9513 12.6645 10.9484 12.6698 10.9448 12.6698C10.9413 12.6698 10.9383 12.675 10.9383 12.6815C10.9383 12.688 10.9325 12.6976 10.9254 12.7028C10.9182 12.708 10.9124 12.7169 10.9124 12.7226C10.9124 12.7283 10.9065 12.7372 10.8994 12.7424C10.8923 12.7477 10.8864 12.7573 10.8864 12.7637C10.8864 12.7702 10.8835 12.7755 10.8799 12.7755C10.8763 12.7755 10.8734 12.78 10.8734 12.7854C10.8734 12.7909 10.8705 12.7953 10.8669 12.7953C10.8634 12.7953 10.8604 12.8006 10.8604 12.8071C10.8604 12.8135 10.8546 12.8231 10.8475 12.8284C10.8346 12.8378 10.8345 12.8455 10.8345 13.7684V14.6989H11.2142H11.594V14.1139V13.529H11.7394C11.8659 13.529 11.8853 13.5303 11.8887 13.5394C11.8908 13.5452 11.8926 13.8084 11.8926 14.1244V14.6989H12.2724H12.6522V13.3175V11.9361H12.029C11.4359 11.9361 11.4057 11.9367 11.4057 11.9479ZM13.4441 11.9956C13.4138 12.0278 13.3866 12.0544 13.3837 12.0546C13.3774 12.0552 13.3598 12.0722 13.3598 12.0778C13.3598 12.0799 13.3174 12.1247 13.2657 12.1774C13.2139 12.2301 13.1699 12.2732 13.1679 12.2732C13.1658 12.2732 13.1599 12.2774 13.1548 12.2826C13.1497 12.2878 13.1455 12.2938 13.1455 12.2959C13.1455 12.298 13.1032 12.3428 13.0514 12.3955C12.9997 12.4482 12.9557 12.4913 12.9536 12.4913C12.9472 12.4913 12.9313 12.5098 12.9313 12.5173C12.9313 12.5212 12.9284 12.5243 12.9248 12.5243C12.9205 12.5243 12.9183 12.8912 12.9183 13.6116V14.6989H13.5382H14.1582L14.3986 14.4543C14.5309 14.3198 14.6426 14.2097 14.6469 14.2096C14.6513 14.2095 14.6636 14.1987 14.6744 14.1857C14.6851 14.1726 14.7033 14.1519 14.7149 14.1398L14.736 14.1177V13.0269V11.9361L14.1177 11.9365L13.4993 11.937L13.4441 11.9956ZM11.8894 12.5062C11.8914 12.5143 11.8922 12.64 11.8912 12.7854L11.8894 13.0498L11.7417 13.0516C11.6446 13.0528 11.594 13.051 11.594 13.0466C11.594 13.0429 11.5969 13.0399 11.6005 13.0399C11.6041 13.0399 11.607 13.0325 11.607 13.0234C11.607 13.0143 11.6099 13.0068 11.6135 13.0068C11.6171 13.0068 11.62 13.0009 11.62 12.9936C11.62 12.9863 11.6229 12.9804 11.6265 12.9804C11.63 12.9804 11.6329 12.9744 11.6329 12.9672C11.6329 12.9599 11.6359 12.954 11.6394 12.954C11.643 12.954 11.646 12.948 11.646 12.9407C11.646 12.9335 11.6489 12.9275 11.6524 12.9275C11.656 12.9275 11.6589 12.9216 11.6589 12.9143C11.6589 12.907 11.6618 12.9011 11.6654 12.9011C11.669 12.9011 11.6719 12.8958 11.6719 12.8893C11.6719 12.8829 11.6777 12.8733 11.6849 12.868C11.692 12.8628 11.6979 12.8532 11.6979 12.8467C11.6979 12.8403 11.7004 12.835 11.7034 12.835C11.7064 12.835 11.7143 12.8216 11.7209 12.8053C11.7276 12.7889 11.7353 12.7755 11.7382 12.7755C11.741 12.7755 11.7433 12.7696 11.7433 12.7623C11.7433 12.755 11.7463 12.7491 11.7498 12.7491C11.7534 12.7491 11.7563 12.7431 11.7563 12.7359C11.7563 12.7286 11.7592 12.7226 11.7628 12.7226C11.7664 12.7226 11.7693 12.7167 11.7693 12.7094C11.7693 12.7022 11.7722 12.6962 11.7758 12.6962C11.7794 12.6962 11.7823 12.6903 11.7823 12.683C11.7823 12.6757 11.7852 12.6698 11.7887 12.6698C11.7923 12.6698 11.7953 12.6638 11.7953 12.6565C11.7953 12.6492 11.7982 12.6433 11.8018 12.6433C11.8053 12.6433 11.8082 12.6374 11.8082 12.6301C11.8082 12.6228 11.8111 12.6169 11.8147 12.6169C11.8183 12.6169 11.8212 12.6109 11.8212 12.6036C11.8212 12.5964 11.8242 12.5904 11.8277 12.5904C11.8313 12.5904 11.8342 12.5845 11.8342 12.5772C11.8342 12.5699 11.8371 12.564 11.8407 12.564C11.8443 12.564 11.8472 12.5572 11.8472 12.5489C11.8472 12.5407 11.853 12.5296 11.8602 12.5243C11.8673 12.5191 11.8732 12.5095 11.8732 12.5031C11.8732 12.4862 11.8852 12.4885 11.8894 12.5062ZM9.80227 13.3175V14.0313H9.65297H9.50368V13.3175V12.6036H9.65297H9.80227V13.3175ZM13.9765 13.3175V14.0313H13.8304H13.6844V13.3175V12.6036H13.8304H13.9765V13.3175Z" fill="white"/>
<path d="M6.45927 7.37016L6.64379 7.64693L6.73605 7.99291L6.45927 8.03904L6.36701 7.90065L6.32088 8.1313L6.68992 8.5926L6.92057 8.96163L6.9667 9.3768L6.92057 9.69971L6.73605 10.1149L6.5054 10.3686L6.78218 10.5992L7.17428 11.0144L7.33574 11.568L7.49719 12.3752L7.58945 13.2286L7.63558 13.7822L7.58945 13.9667L7.33574 14.3358L7.52026 15.0969L7.38187 15.6043L6.92057 15.9964L6.15943 16.0887L5.85958 15.6043L5.92878 15.0969L5.67506 14.8432L4.96005 14.797L4.7986 16.8729L5.05231 17.4726L5.00618 17.7263L5.09844 18.0723L6.0441 18.3029L6.09023 17.4264L6.5054 16.9421L6.85137 17.0805L7.24348 17.4034L7.28961 17.8185L7.24348 18.2107L7.52026 18.5336L7.68171 19.1102L7.08202 19.41H6.36701L4.52182 19.4792L3.50696 19.3178L3.20712 19.1794L3.13793 18.8103L3.27632 18.3029L3.55309 18.0723L3.85294 17.98V17.6571L3.99133 17.3573L4.31424 17.0805V16.7576L4.06052 14.2435L3.64535 13.6669L3.32245 13.2978L3.16099 12.9057L3.0918 12.6059L3.32245 12.0523L3.64535 11.5218L3.78374 11.0144L4.06052 10.6915L4.4065 10.4839L4.01439 10.1841L3.73761 9.88423L3.69148 9.56132L3.73761 9.07696L3.876 8.5926L4.01439 7.99291L4.36037 7.55468L4.84473 7.16257L5.44442 7.07031L6.06717 7.16257L6.45927 7.37016Z" fill="white"/>
<path fill-rule="evenodd" clip-rule="evenodd" d="M5.02312 7.04633C4.779 7.11548 4.4143 7.33741 4.23513 7.52576C4.0621 7.70765 3.89156 8.07106 3.83555 8.37699C3.80931 8.52064 3.75441 8.71784 3.71363 8.81522C3.60564 9.07304 3.57418 9.52447 3.64633 9.78201C3.70565 9.99402 4.03705 10.4005 4.19832 10.4591C4.25838 10.4809 4.2581 10.4847 4.19615 10.4878C4.00817 10.4974 3.59863 11.1266 3.59863 11.4058C3.59863 11.4501 3.52399 11.5998 3.43275 11.7386C3.17903 12.1242 2.9989 12.5267 3.00001 12.7057C3.00134 12.9304 3.14757 13.2296 3.36766 13.458C3.63793 13.7386 3.8773 14.1248 3.94488 14.3895C3.97731 14.5163 4.01781 14.8484 4.03493 15.1275C4.06445 15.6093 4.16197 16.4956 4.22636 16.8677C4.25363 17.025 4.24403 17.0464 4.11307 17.1214C3.95037 17.2146 3.71479 17.6094 3.75667 17.7185C3.78449 17.791 3.63046 17.9645 3.53825 17.9645C3.42163 17.9645 3.18379 18.208 3.14282 18.3693C2.9578 19.0981 2.96264 19.1254 3.31087 19.3149C3.70662 19.5303 4.25183 19.5989 5.58221 19.6006C6.87094 19.6023 7.10066 19.5696 7.61192 19.3119C8.09559 19.0682 8.07668 18.816 7.54203 18.3791C7.35673 18.2277 7.14615 18.081 7.07405 18.0532C6.99189 18.0214 6.77102 18.0125 6.48174 18.0292C6.22803 18.0439 5.81286 18.0405 5.55915 18.0217L5.09785 17.9876L5.11298 17.7101C5.12562 17.4787 5.11104 17.4109 5.02519 17.3017C4.92482 17.1741 4.92297 17.1507 4.95185 16.3798C4.98677 15.4476 5.04245 15.0581 5.15219 14.9776C5.27047 14.8908 5.50873 14.9082 5.64236 15.0134C5.74791 15.0963 5.75575 15.1221 5.71299 15.2448C5.65385 15.4145 5.69131 15.5816 5.83929 15.8078C6.06067 16.1462 6.2105 17.0825 6.07608 17.2876C6.02326 17.3682 6.0132 17.4581 6.03604 17.6453L6.06657 17.8953L6.62013 17.8975C6.92459 17.8988 7.20483 17.9145 7.24288 17.9326C7.30018 17.9597 7.31452 17.9113 7.32642 17.6507L7.34077 17.336L7.10731 17.1909L6.87384 17.0457V16.56V16.0743L7.04711 15.965C7.14237 15.9048 7.29805 15.7696 7.39308 15.6644C7.55089 15.4897 7.56579 15.4501 7.56579 15.205C7.56579 15.0574 7.53355 14.8281 7.49415 14.6955C7.41518 14.4295 7.43151 14.3357 7.60136 14.079C7.70054 13.9291 7.71202 13.8731 7.68651 13.6632C7.67032 13.5299 7.63822 13.1924 7.61515 12.9133C7.51247 11.6704 7.25783 10.8828 6.85987 10.5775C6.7534 10.4958 6.6479 10.4133 6.62548 10.3941C6.60302 10.3749 6.6568 10.2749 6.74491 10.1719C6.93769 9.94674 7.01223 9.71914 7.01223 9.35559C7.01223 9.05685 6.91555 8.83054 6.59093 8.36952L6.41227 8.1158L6.54328 8.08859C6.61538 8.0736 6.69846 8.04642 6.72794 8.0282C6.82513 7.96814 6.78398 7.74312 6.63457 7.51755C6.52058 7.34548 6.42431 7.266 6.20616 7.16392C5.86512 7.00435 5.35142 6.95329 5.02312 7.04633ZM6.21585 7.30604C6.55273 7.49748 6.75778 7.90351 6.5389 7.94568C6.48022 7.95698 6.45868 7.93059 6.45868 7.84751C6.45868 7.78505 6.41559 7.68491 6.36291 7.62503C6.31023 7.56511 6.2808 7.54287 6.2975 7.57553C6.31424 7.60824 6.30202 7.73602 6.27037 7.85951L6.2128 8.08402L6.4501 8.40411C6.77407 8.84106 6.87158 9.07189 6.87283 9.40439C6.87421 9.77449 6.74279 10.0421 6.48885 10.1866C6.38344 10.2466 6.00075 10.3931 5.63844 10.5123L4.97962 10.729L4.78504 10.6327C4.67798 10.5797 4.44511 10.4381 4.26751 10.3179C3.82753 10.0201 3.72124 9.81818 3.75201 9.33824C3.76424 9.14796 3.81581 8.8781 3.86664 8.73856C3.91748 8.59901 3.97311 8.40278 3.99027 8.30249C4.05827 7.90527 4.369 7.508 4.78467 7.28685C4.98866 7.17831 5.04452 7.17028 5.51302 7.18214C5.94996 7.19321 6.04757 7.21041 6.21585 7.30604ZM4.08562 8.61271C4.01108 8.72652 3.87541 9.31135 3.87541 9.51893C3.87541 9.58965 3.92214 9.71595 3.9792 9.79963C4.09679 9.97197 4.90447 10.5376 5.03294 10.5376C5.13849 10.5376 5.92334 10.1473 6.1235 9.99527C6.3004 9.86094 6.45868 9.61963 6.45868 9.48434C6.45868 9.36546 6.2158 9.08139 6.03359 8.98715C5.9596 8.94886 5.698 8.87902 5.45231 8.83192C5.20662 8.78478 4.89142 8.69284 4.75188 8.62752C4.4262 8.47511 4.1794 8.46967 4.08562 8.61271ZM5.44382 9.38331C5.44382 9.59449 5.40401 9.71665 5.34672 9.68122C5.29985 9.65225 5.28979 9.23085 5.33491 9.18574C5.39603 9.12466 5.44382 9.21139 5.44382 9.38331ZM4.55965 9.38114C4.56809 9.43881 4.56122 9.54098 4.54434 9.60815C4.51481 9.72592 4.5114 9.72707 4.4483 9.64076C4.37993 9.5473 4.35991 9.33045 4.41457 9.27578C4.47048 9.21983 4.54383 9.27311 4.55965 9.38114ZM6.50914 10.5646C6.58549 10.6337 6.57986 10.6534 6.40752 10.9201C6.1872 11.2609 6.1604 11.3556 6.20478 11.636C6.27121 12.0557 6.22844 12.6475 6.10874 12.9656C6.04748 13.1283 5.99738 13.3007 5.99738 13.3487C5.99738 13.3968 5.97713 13.443 5.9524 13.4515C5.89622 13.4707 5.76221 13.9051 5.81244 13.9051C5.86047 13.9051 5.90332 13.7898 5.91236 13.6361C5.91638 13.5684 5.93192 13.6168 5.94696 13.7436C5.96956 13.9343 5.96034 13.9815 5.89349 14.016C5.78956 14.0696 5.13102 13.9286 5.02127 13.8292C4.83389 13.6596 4.86194 13.1421 5.06971 12.9343C5.18702 12.817 5.18974 12.8055 5.11192 12.7569C5.03834 12.711 5.02884 12.6339 5.03018 12.0941C5.03161 11.5065 5.08512 10.881 5.13844 10.8276C5.15251 10.8136 5.21862 10.796 5.28532 10.7887C5.39027 10.7772 5.40267 10.7889 5.37739 10.8756C5.26631 11.2567 5.31092 11.6447 5.46578 11.6447C5.57797 11.6447 5.60403 11.5408 5.58941 11.1514C5.57285 10.7104 5.61732 10.6434 5.98626 10.5536C6.29565 10.4782 6.41656 10.4808 6.50914 10.5646ZM4.44603 10.6875C4.4613 10.7446 4.47413 10.9298 4.47445 11.0989C4.47524 11.4665 4.5025 11.5525 4.61842 11.5525C4.69666 11.5525 4.70575 11.5149 4.70575 11.1927C4.70575 10.9774 4.68383 10.8109 4.65122 10.7783C4.60989 10.737 4.63221 10.7372 4.74348 10.7792C4.82421 10.8097 4.89026 10.8489 4.89026 10.8663C4.89026 10.8838 4.92657 10.8925 4.97099 10.8859C5.01541 10.8792 5.02865 10.8821 5.00047 10.8924C4.92315 10.9204 4.8451 11.4818 4.81683 12.2134C4.80073 12.6292 4.76525 12.9408 4.7194 13.0695C4.66746 13.215 4.65431 13.3655 4.67253 13.6062C4.68895 13.823 4.67977 13.9587 4.64642 13.9921C4.55979 14.0787 4.14578 14.0533 3.97805 13.951C3.69684 13.7796 3.66515 13.4785 3.88085 13.0286C4.02418 12.7298 4.19832 12.0663 4.19832 11.8191C4.19832 11.7476 4.14642 11.5613 4.08299 11.4052C3.92758 11.0228 3.93326 10.8836 4.11095 10.7176C4.28292 10.5569 4.40802 10.5457 4.44603 10.6875ZM7.06777 11.045C7.23463 11.3845 7.36462 11.9634 7.42514 12.6365C7.4525 12.941 7.49904 13.3321 7.52856 13.5057C7.57599 13.7848 7.57276 13.8389 7.50047 13.9731C7.39442 14.17 7.2582 14.228 6.90184 14.228C6.5567 14.228 6.34824 14.1376 6.22429 13.9343C6.10339 13.7361 6.11275 13.591 6.27706 13.1124C6.40816 12.7306 6.41674 12.6667 6.39566 12.2304C6.38312 11.9717 6.35899 11.6616 6.34197 11.5414C6.31567 11.3553 6.3291 11.2918 6.43169 11.1168C6.68181 10.69 6.88215 10.6674 7.06777 11.045ZM3.87541 11.0863C3.87541 11.1344 3.91919 11.3155 3.9727 11.4887C4.05878 11.7674 4.06362 11.8322 4.01477 12.0504C3.96891 12.2554 3.95051 12.2847 3.90595 12.2238C3.85811 12.1585 3.84579 12.1611 3.79127 12.2485C3.75769 12.3023 3.75104 12.3334 3.77655 12.3177C3.80206 12.3019 3.83458 12.308 3.84889 12.3311C3.86319 12.3542 3.84386 12.385 3.80594 12.3996C3.71788 12.4334 3.71608 12.5212 3.80349 12.5212C3.93339 12.5212 3.92477 12.6177 3.76271 12.9766C3.67248 13.1765 3.59863 13.3774 3.59863 13.423C3.59863 13.4955 3.58345 13.4919 3.47883 13.3942C3.2927 13.2204 3.17078 12.9418 3.16704 12.6814C3.16349 12.4383 3.29473 12.1492 3.59965 11.7283C3.69486 11.5968 3.74233 11.465 3.76424 11.2712C3.78121 11.1215 3.81313 10.9989 3.83523 10.9989C3.85733 10.9989 3.87541 11.0383 3.87541 11.0863ZM5.20469 14.3318C5.21622 14.432 5.2003 14.4586 5.12889 14.4586C5.03917 14.4586 4.98252 14.3757 4.98252 14.2441C4.98252 14.1993 5.0186 14.1806 5.08632 14.1902C5.16063 14.2007 5.19426 14.241 5.20469 14.3318ZM5.53608 14.3809C5.53608 14.5217 5.37684 14.4539 5.35977 14.3059C5.34598 14.186 5.35165 14.1811 5.4405 14.2366C5.49309 14.2695 5.53608 14.3344 5.53608 14.3809ZM6.13577 14.2945C6.13577 14.3564 6.11501 14.4199 6.08964 14.4356C6.06274 14.4522 6.04351 14.4053 6.04351 14.323C6.04351 14.2454 6.06427 14.1819 6.08964 14.1819C6.11501 14.1819 6.13577 14.2325 6.13577 14.2945ZM4.40212 14.256C4.44225 14.2714 4.4751 14.3248 4.4751 14.3747C4.4751 14.5027 4.31784 14.464 4.29888 14.3313C4.28297 14.2197 4.29145 14.2135 4.40212 14.256ZM4.84413 14.396C4.84413 14.5242 4.76562 14.5247 4.68596 14.3969C4.64864 14.337 4.65293 14.3074 4.70353 14.2759C4.79639 14.218 4.84413 14.2588 4.84413 14.396ZM5.85069 14.3553C5.86688 14.4689 5.81572 14.4892 5.72983 14.4033C5.64721 14.3207 5.66266 14.219 5.7552 14.2366C5.79962 14.2451 5.84257 14.2985 5.85069 14.3553ZM7.37929 14.8178C7.44447 15.0525 7.43953 15.3603 7.36974 15.4157C7.33805 15.4409 7.23218 15.4873 7.13452 15.5187C7.01509 15.5572 6.92676 15.6272 6.86457 15.7326C6.75815 15.9129 6.57732 15.981 6.47542 15.8791C6.4227 15.8263 6.41877 15.7867 6.45757 15.7001C6.49609 15.6141 6.4888 15.5322 6.42537 15.3395C6.32315 15.0288 6.22821 14.958 6.08161 15.0833C6.02349 15.133 5.99862 15.1425 6.02639 15.1045C6.05421 15.0664 6.08932 14.9831 6.10445 14.9195C6.15118 14.7228 6.34261 14.6489 6.79667 14.6523C7.01851 14.6539 7.21258 14.6428 7.22789 14.6274C7.27813 14.5772 7.3309 14.6436 7.37929 14.8178ZM6.72032 15.1506C6.73518 15.2901 6.76544 15.4241 6.78754 15.4481C6.85751 15.5244 6.83154 15.0811 6.7605 14.9864C6.6997 14.9055 6.69588 14.9212 6.72032 15.1506ZM6.27236 15.3769C6.30285 15.4506 6.32098 15.5594 6.31254 15.6186C6.29524 15.7401 6.15385 15.7892 6.07322 15.7017C6.03253 15.6576 6.03788 15.6505 6.09665 15.6711C6.19777 15.7065 6.23993 15.6588 6.17586 15.5815C6.09854 15.4884 5.99738 15.5071 5.99738 15.6146C5.99738 15.7533 5.92186 15.684 5.88791 15.5142C5.83436 15.2466 6.16889 15.1271 6.27236 15.3769ZM7.15062 15.6493C7.15062 15.6887 6.97685 15.8887 6.94267 15.8887C6.91347 15.8887 6.97685 15.736 7.03299 15.6713C7.08909 15.6065 7.15062 15.5951 7.15062 15.6493ZM6.94742 17.2774C7.02335 17.3613 7.02114 17.3649 6.89253 17.3658C6.81881 17.3663 6.63005 17.3937 6.47307 17.4266L6.18757 17.4864L6.27969 17.357C6.43326 17.1414 6.78624 17.0993 6.94742 17.2774ZM4.62368 17.2984C4.73979 17.3379 4.87324 17.4141 4.9202 17.4676C5.00379 17.5629 5.00361 17.5641 4.91333 17.5226C4.86259 17.4992 4.62017 17.4801 4.37458 17.4801C3.94174 17.4801 3.93049 17.4775 4.00554 17.394C4.16275 17.2191 4.31964 17.1948 4.62368 17.2984ZM7.18218 17.6025C7.30516 17.7046 7.23536 17.7339 6.93151 17.7076C6.71433 17.6889 6.55103 17.7022 6.39165 17.7518C6.26595 17.7908 6.15293 17.8126 6.14047 17.8001C6.0954 17.755 6.31281 17.5852 6.46463 17.5469C6.65445 17.499 7.099 17.5335 7.18218 17.6025ZM4.81909 17.6384C4.86692 17.7158 4.74519 17.7471 4.30709 17.77C3.99567 17.7863 3.87541 17.7775 3.87541 17.7387C3.87541 17.709 3.92214 17.666 3.9792 17.643C4.11727 17.5875 4.78537 17.5838 4.81909 17.6384ZM4.84413 18.0106C4.95231 18.1188 4.96555 18.3442 4.86849 18.4247C4.81106 18.4724 4.79588 18.4518 4.77033 18.292C4.74085 18.1078 4.73536 18.1029 4.55882 18.1029C4.32195 18.1029 3.96186 18.0113 3.99401 17.9592C4.00789 17.9367 4.18406 17.9184 4.38556 17.9184C4.69038 17.9184 4.76737 17.9339 4.84413 18.0106ZM4.12456 18.1211C4.38888 18.2315 4.50674 18.5172 4.38321 18.7481C4.31858 18.8688 4.04355 18.9484 3.67585 18.9526C3.31627 18.9568 3.22959 18.8926 3.22959 18.6223C3.22959 18.1849 3.67724 17.9342 4.12456 18.1211ZM7.17858 18.2633C7.41093 18.4156 7.56002 18.9785 7.40817 19.1304C7.23264 19.3059 6.68107 19.3565 6.41531 19.2215C6.24413 19.1345 6.14522 18.9816 6.30248 19.047C6.50919 19.133 6.77605 19.1561 7.05836 19.1126C7.5663 19.0344 7.51117 18.9672 6.9661 19.0002C6.33426 19.0384 6.20953 19.0038 6.19089 18.7848C6.17014 18.5402 6.28873 18.2972 6.4685 18.2158C6.6497 18.1339 7.01865 18.1585 7.17858 18.2633ZM5.02865 18.5855C5.02865 18.747 4.63641 18.9863 4.07921 19.1647C3.70962 19.283 3.47044 19.2663 3.31544 19.1113C3.18655 18.9825 3.23241 18.9602 3.43132 19.0551C3.58922 19.1303 3.61658 19.1304 3.93293 19.0558C4.15648 19.0031 4.38999 18.9017 4.63655 18.7504C5.07017 18.4843 5.02865 18.5018 5.02865 18.5855Z" fill="#4E27AF"/>
</svg>