<svg width="24" height="24" viewBox="0 0 24 24" fill="none" xmlns="http://www.w3.org/2000/svg">
<path d="M11.9964 23.9927C18.6218 23.9927 23.9927 18.6218 23.9927 11.9964C23.9927 5.37097 18.6218 0 11.9964 0C5.37097 0 0 5.37097 0 11.9964C0 18.6218 5.37097 23.9927 11.9964 23.9927Z" fill="url(#paint0_linear_4386_196151)"/>
<path fill-rule="evenodd" clip-rule="evenodd" d="M17.4125 15.1338C17.4125 18.6891 14.5444 19.7945 12.3934 19.7945C11.7312 19.7945 11.0531 19.6754 10.396 19.5601C9.7783 19.4516 9.17911 19.3464 8.62899 19.3464C7.70285 19.3464 7.16507 19.5256 6.74682 19.7646V13.7894H6.77669C7.70283 15.9704 9.37589 19.4957 12.6025 19.4957C14.2457 19.4957 15.381 18.5995 15.381 16.8368C15.381 15.7058 14.456 15.0007 12.9561 14.3404V10.4961C15.6616 11.4667 17.4125 12.6649 17.4125 15.1338ZM11.4566 9.92956C9.44022 9.13005 8.44975 8.51669 8.44975 7.18683C8.44975 5.42413 9.79416 4.52786 11.3178 4.52786C13.3793 4.52786 14.9926 6.29056 16.6656 9.51715H16.6955L16.4266 4.40836C16.1577 4.46812 15.7992 4.52786 15.4706 4.52786C14.9016 4.52786 14.4185 4.46027 13.8906 4.38639C13.2543 4.29738 12.5528 4.19922 11.5568 4.19922C9.31615 4.19922 6.44804 5.4839 6.44804 8.85989C6.44804 10.9213 7.34434 12.3554 10.7502 13.4907C10.9926 13.5776 11.2283 13.6627 11.4566 13.7467V9.92956Z" fill="black"/>
<path d="M12.8961 2.09961H11.3966V4.49889H12.8961V2.09961Z" fill="black"/>
<path d="M12.8961 19.4941H11.3966V21.8934H12.8961V19.4941Z" fill="black"/>
<defs>
<linearGradient id="paint0_linear_4386_196151" x1="5" y1="2" x2="17.5" y2="23.5" gradientUnits="userSpaceOnUse">
<stop stop-color="#E2FE72"/>
<stop offset="0.396934" stop-color="#FEBFFF"/>
<stop offset="1" stop-color="#36FFFF"/>
</linearGradient>
</defs>
</svg>