<svg width="24" height="24" viewBox="0 0 24 24" fill="none" xmlns="http://www.w3.org/2000/svg">
<g clip-path="url(#clip0)">
<path d="M15.9023 13.4839L21.9244 7.48051C22.1482 7.25761 22.3256 6.99261 22.4464 6.7008C22.5672 6.40899 22.629 6.09614 22.6283 5.78031L22.6385 0.927944C22.638 0.679014 22.5418 0.439814 22.3699 0.259766L10.8171 11.7871C10.5925 12.0097 10.4143 12.2745 10.2927 12.5663C10.171 12.8581 10.1084 13.1712 10.1084 13.4873C10.1084 13.8035 10.171 14.1165 10.2927 14.4083C10.4143 14.7001 10.5925 14.9649 10.8171 15.1875L18.9627 23.3077C19.186 23.5298 19.4508 23.7058 19.7421 23.8256C20.0334 23.9454 20.3454 24.0067 20.6604 24.0059C20.9754 24.0051 21.2871 23.9423 21.5778 23.821C21.8685 23.6998 22.1324 23.5224 22.3546 23.2992C22.5767 23.0759 22.7528 22.811 22.8726 22.5197C22.9924 22.2285 23.0536 21.9164 23.0528 21.6014C23.052 21.2865 22.9892 20.9748 22.868 20.6841C22.7467 20.3934 22.5694 20.1294 22.3461 19.9073L15.9023 13.4839Z" fill="#008C62"/>
<path d="M21.6967 0.000229155H3.55049C2.08322 0.000229155 1.0002 1.10876 1.0002 2.62193V21.5536C0.996081 21.8753 1.05643 22.1946 1.17769 22.4925C1.29895 22.7905 1.47867 23.0612 1.70623 23.2886C1.93379 23.516 2.20459 23.6955 2.50265 23.8166C2.80071 23.9376 3.12 23.9978 3.44168 23.9934C3.7636 23.9989 4.08334 23.9396 4.38184 23.819C4.68035 23.6983 4.95151 23.5188 5.17917 23.2911C5.40684 23.0635 5.58635 22.7923 5.707 22.4938C5.82766 22.1953 5.88699 21.8756 5.88147 21.5536V4.67067H17.9529L22.3734 0.272261C22.2849 0.183503 22.1792 0.11363 22.0629 0.0668713C21.9466 0.0201129 21.822 -0.00255851 21.6967 0.000229155Z" fill="#00E6A0"/>
</g>
<defs>
<clipPath id="clip0">
<rect width="24" height="24" fill="white"/>
</clipPath>
</defs>
</svg>