<svg width="24" height="24" viewBox="0 0 24 24" fill="none" xmlns="http://www.w3.org/2000/svg">
<g clip-path="url(#clip0_934_958)">
<path d="M11.9219 24C10.3058 24 8.74136 23.6905 7.24566 23.0544C5.81872 22.4527 4.52933 21.5931 3.42904 20.4928C2.32875 19.3925 1.46915 18.1032 0.867434 16.6762C0.248523 15.1977 -0.078125 13.6332 -0.078125 12C-0.078125 10.3668 0.231331 8.81948 0.867434 7.32378C1.46915 5.89685 2.32875 4.60745 3.42904 3.50716C4.52933 2.40688 5.81872 1.54728 7.24566 0.945559C8.72417 0.326648 10.2886 0 11.9219 0C13.5551 0 15.1024 0.309456 16.5981 0.945559C18.025 1.54728 19.3144 2.40688 20.4147 3.50716C21.515 4.60745 22.3746 5.89685 22.9763 7.32378C23.5952 8.80229 23.9219 10.3668 23.9219 12C23.9219 13.6332 23.6124 15.1805 22.9763 16.6762C22.3746 18.1032 21.515 19.3925 20.4147 20.4928C19.3144 21.5931 18.025 22.4527 16.5981 23.0544C15.1024 23.6734 13.5379 24 11.9219 24ZM11.9219 3.55874C9.66973 3.55874 7.55511 4.43553 5.95626 6.03438C4.3574 7.63324 3.48061 9.74785 3.48061 12C3.48061 14.2521 4.3574 16.3668 5.95626 17.9656C7.55511 19.5645 9.66973 20.4413 11.9219 20.4413C14.174 20.4413 16.2886 19.5645 17.8875 17.9656C19.4863 16.3668 20.3631 14.2521 20.3631 12C20.3631 9.74785 19.4863 7.63324 17.8875 6.03438C16.2886 4.43553 14.174 3.55874 11.9219 3.55874Z" fill="url(#paint0_linear_934_958)"/>
<path d="M9.65254 17.3635C8.81014 17.3635 8.13965 16.6758 8.13965 15.8334C8.13965 15.077 8.70698 14.4409 9.46343 14.3377C9.51501 14.3377 9.58377 14.3205 9.63535 14.3205C9.92761 14.3205 10.2027 14.4065 10.4434 14.5612C10.5293 14.6128 10.6325 14.6472 10.7356 14.6472C10.8388 14.6472 10.9419 14.6128 11.0451 14.5612C11.2342 14.4581 11.3374 14.2518 11.3202 14.0283C11.2686 13.2202 11.8531 12.4982 12.6611 12.4122C12.7127 12.4122 12.7643 12.395 12.8331 12.395C13.1253 12.395 13.4004 12.481 13.6411 12.6357C13.727 12.6873 13.8302 12.7217 13.9333 12.7217C14.0365 12.7217 14.1396 12.6873 14.2428 12.6357C14.4319 12.5326 14.5351 12.3263 14.5179 12.12C14.4663 11.2947 15.068 10.5727 15.8932 10.5039C15.9448 10.5039 15.9964 10.5039 16.048 10.5039C16.8904 10.5039 17.5609 11.1916 17.5609 12.034C17.5609 12.7904 16.9935 13.4265 16.2371 13.5297C16.1855 13.5297 16.1167 13.5469 16.0651 13.5469C15.7729 13.5469 15.4978 13.4609 15.2571 13.3062C15.1712 13.2546 15.068 13.2202 14.9649 13.2202C14.8617 13.2202 14.7586 13.2546 14.6554 13.3062C14.4663 13.4093 14.3631 13.6157 14.3803 13.8391C14.3803 13.9251 14.3803 13.9939 14.3803 14.0798C14.3116 14.8019 13.7442 15.3864 13.0394 15.4552C12.9878 15.4552 12.919 15.4724 12.8674 15.4724C12.5752 15.4724 12.3001 15.3864 12.0594 15.2317C11.9735 15.1801 11.8703 15.1457 11.7672 15.1457C11.664 15.1457 11.5609 15.1801 11.4577 15.2317C11.2686 15.3349 11.1654 15.5412 11.1826 15.7646C11.1826 15.8506 11.1826 15.9194 11.1826 16.0053C11.1139 16.7274 10.5465 17.3119 9.82446 17.3807C9.75569 17.3635 9.70412 17.3635 9.65254 17.3635Z" fill="url(#paint1_linear_934_958)"/>
<path d="M9.65325 13.5118C8.81085 13.4946 8.14036 12.807 8.15755 11.9646C8.17474 11.2081 8.72489 10.572 9.48133 10.486C9.53291 10.486 9.60168 10.4689 9.65325 10.4689C9.94552 10.4689 10.2206 10.5548 10.4613 10.7095C10.5472 10.7611 10.6504 10.7955 10.7535 10.7955C10.8567 10.7955 10.9598 10.7611 11.063 10.7095C11.2521 10.6064 11.3553 10.4001 11.3381 10.1766C11.2865 9.35138 11.8882 8.62931 12.7134 8.56055C12.765 8.56055 12.8166 8.56055 12.8682 8.56055C13.7106 8.56055 14.381 9.24823 14.381 10.0906C14.381 10.8471 13.8137 11.4832 13.0573 11.5863C13.0057 11.5863 12.9369 11.6035 12.8853 11.6035C12.5931 11.6035 12.318 11.5176 12.0773 11.3628C11.9914 11.3113 11.8882 11.2769 11.7851 11.2769C11.6819 11.2769 11.5788 11.3113 11.4756 11.3628C11.2865 11.466 11.1833 11.6723 11.2005 11.8958C11.2005 11.9817 11.2005 12.0505 11.2005 12.1365C11.1318 12.8585 10.5644 13.4431 9.84236 13.5118C9.7564 13.5118 9.70483 13.529 9.65325 13.5118Z" fill="url(#paint2_linear_934_958)"/>
<path d="M9.65254 9.66251C10.4881 9.66251 11.1654 8.98516 11.1654 8.14961C11.1654 7.31406 10.4881 6.63672 9.65254 6.63672C8.81699 6.63672 8.13965 7.31406 8.13965 8.14961C8.13965 8.98516 8.81699 9.66251 9.65254 9.66251Z" fill="url(#paint3_linear_934_958)"/>
</g>
<defs>
<linearGradient id="paint0_linear_934_958" x1="3.44247" y1="20.4794" x2="20.4013" y2="3.52059" gradientUnits="userSpaceOnUse">
<stop stop-color="#F3C400"/>
<stop offset="1" stop-color="#FFE807"/>
</linearGradient>
<linearGradient id="paint1_linear_934_958" x1="8.93701" y1="17.8493" x2="13.3417" y2="13.4447" gradientUnits="userSpaceOnUse">
<stop stop-color="#F3C400"/>
<stop offset="1" stop-color="#FFE807"/>
</linearGradient>
<linearGradient id="paint2_linear_934_958" x1="6.69683" y1="15.6078" x2="11.1015" y2="11.2031" gradientUnits="userSpaceOnUse">
<stop stop-color="#F3C400"/>
<stop offset="1" stop-color="#FFE807"/>
</linearGradient>
<linearGradient id="paint3_linear_934_958" x1="4.44932" y1="13.3626" x2="8.85398" y2="8.958" gradientUnits="userSpaceOnUse">
<stop stop-color="#F3C400"/>
<stop offset="1" stop-color="#FFE807"/>
</linearGradient>
<clipPath id="clip0_934_958">
<rect width="24" height="24" fill="white"/>
</clipPath>
</defs>
</svg>