<svg width="24" height="24" viewBox="0 0 24 24" fill="none" xmlns="http://www.w3.org/2000/svg">
<circle cx="12" cy="12" r="12" fill="white"/>
<path d="M3.76085 6.59447C4.04068 6.28947 4.31002 5.99149 4.58285 5.69701C5.16 5.06949 5.74065 4.44548 6.31781 3.81796C6.38427 3.74434 6.44023 3.71279 6.53817 3.76888C7.75194 4.45249 9.06715 4.79955 10.4418 4.94329C11.9424 5.10104 13.4325 5.04846 14.9086 4.72593C15.7971 4.53312 16.6436 4.22812 17.4376 3.78991C17.5321 3.73733 17.5985 3.70928 17.6895 3.81094C18.508 4.7084 19.33 5.59885 20.152 6.4893C20.18 6.51734 20.2044 6.54889 20.187 6.54188C20.0331 6.72418 19.8791 6.90297 19.7287 7.08527C19.1236 7.80043 19.0152 8.62427 19.2006 9.5077C19.4034 10.4648 19.8582 11.3131 20.3863 12.123C20.8341 12.8101 21.2013 13.5357 21.3308 14.3491C21.6316 16.2246 21.2013 17.8898 19.8092 19.236C19.1551 19.8705 18.3366 20.2176 17.4516 20.3859C16.857 20.5016 16.2518 20.5471 15.6502 20.6243C14.3245 20.7925 13.1527 21.3009 12.1418 22.1808C12.1103 22.2088 12.0788 22.2334 12.0474 22.2579C12.0334 22.2684 12.0159 22.2755 12.0019 22.2825C11.7535 22.0932 11.5087 21.8898 11.2533 21.7145C10.1725 20.9678 8.95872 20.6348 7.6575 20.5506C6.69558 20.4875 5.76864 20.2667 4.92565 19.7759C3.77134 19.1028 3.10324 18.0686 2.76395 16.7996C2.3372 15.1974 2.62403 13.704 3.509 12.3123C3.96372 11.5971 4.39746 10.8714 4.65981 10.0581C4.84869 9.47615 4.95013 8.88018 4.8417 8.26669C4.72627 7.61813 4.37997 7.11682 3.88677 6.70315C3.84829 6.67159 3.80982 6.63654 3.76085 6.59447ZM4.24356 6.5524C4.26105 6.57694 4.26804 6.59447 4.28203 6.60499C4.31002 6.63303 4.3415 6.66108 4.36948 6.68912C4.71227 7.01866 4.96412 7.40428 5.10754 7.86003C5.34889 8.64881 5.22646 9.42006 4.97112 10.1808C4.69478 11.0011 4.26454 11.7408 3.79583 12.463C3.73286 12.5612 3.6769 12.6628 3.61743 12.761C3.62793 12.768 3.63842 12.775 3.65241 12.782C7.70997 10.1422 11.764 7.50244 15.8216 4.86265C15.7866 4.83811 15.7656 4.84162 15.7446 4.84863C15.2549 4.96081 14.7722 5.09403 14.279 5.17466C13.1632 5.35696 12.0404 5.38851 10.914 5.30788C9.42394 5.20271 7.9898 4.88369 6.65011 4.19657C6.50669 4.12295 6.44023 4.1545 6.34929 4.25967C5.93654 4.71892 5.51329 5.17116 5.09354 5.6269C4.80672 5.9354 4.52689 6.2439 4.24356 6.5524ZM18.1267 8.28421C17.5495 8.65932 17.0004 9.00989 16.4582 9.37098C16.4092 9.40253 16.3812 9.49719 16.3812 9.56379C16.3778 13.0625 16.3778 16.5612 16.3778 20.0599C16.3778 20.1159 16.3882 20.1685 16.3917 20.2316C16.9584 20.1826 17.4936 20.0704 18.0148 19.9021C18.1372 19.8635 18.1337 19.7829 18.1337 19.6882C18.1337 15.9512 18.1337 12.2141 18.1337 8.47352C18.1372 8.42094 18.1337 8.36835 18.1267 8.28421ZM14.6253 10.5629C14.0761 10.9205 13.5549 11.2606 13.0268 11.5936C12.9148 11.6637 12.8764 11.7443 12.8764 11.8776C12.8799 14.9275 12.8799 17.974 12.8799 21.0239C12.8799 21.087 12.8869 21.1466 12.8904 21.2308C12.9498 21.1992 12.9883 21.1782 13.0303 21.1606C13.499 20.9573 13.9642 20.7435 14.4434 20.5612C14.5973 20.5016 14.6428 20.4385 14.6428 20.2807C14.6393 17.1081 14.6393 13.9389 14.6393 10.7662C14.6358 10.7067 14.6323 10.6506 14.6253 10.5629ZM11.1309 12.8381C10.5468 13.2167 9.99409 13.5743 9.44842 13.9389C9.40995 13.967 9.38546 14.0476 9.38546 14.1037C9.38196 16.1896 9.38546 18.2719 9.38196 20.3578C9.38196 20.4665 9.42044 20.5086 9.51838 20.5401C9.73525 20.6067 9.95212 20.6734 10.162 20.7645C10.4838 20.9047 10.7986 21.0625 11.1309 21.2167C11.1309 18.4297 11.1309 15.6567 11.1309 12.8381ZM7.62602 20.2597C7.62602 18.5173 7.62602 16.8311 7.62602 15.1238C7.55956 15.1624 7.51059 15.1904 7.46162 15.222C6.98241 15.534 6.50669 15.8495 6.02398 16.1545C5.91555 16.2246 5.88057 16.2982 5.88057 16.4209C5.88407 17.4236 5.88407 18.4297 5.88407 19.4323C5.88407 19.867 5.88057 19.8846 6.29682 19.9862C6.72706 20.0949 7.1678 20.1685 7.62602 20.2597ZM15.8076 6.7382C16.0804 6.55591 16.3463 6.38413 16.6016 6.20534C16.6366 6.1808 16.6646 6.1212 16.6681 6.07563C16.6751 5.86528 16.6751 5.65494 16.6681 5.4446C16.6646 5.29385 16.5771 5.23075 16.4337 5.27633C16.3673 5.29736 16.3078 5.33943 16.2518 5.37799C15.5627 5.83373 14.8737 6.29298 14.1846 6.75222C13.9677 6.89596 13.8628 7.09228 13.8628 7.3552C13.8663 8.14399 13.8628 8.93277 13.8663 9.72155C13.8663 9.8127 13.8803 9.90735 13.9082 9.995C13.9537 10.1422 14.0656 10.1948 14.2126 10.1492C14.272 10.1317 14.3315 10.0967 14.384 10.0651C15.0031 9.67247 15.6257 9.27983 16.2413 8.88018C16.5282 8.69438 16.6646 8.42094 16.6716 8.08439C16.6786 7.77939 16.6751 7.4779 16.6716 7.17291C16.6716 7.13084 16.6611 7.08527 16.6541 7.01866C16.3603 7.19745 16.0944 7.36923 15.8146 7.52348C15.6817 7.5971 15.6432 7.68825 15.6467 7.83198C15.6572 8.40341 15.6537 8.40341 15.171 8.7049C14.9891 8.82059 14.9366 8.79605 14.9331 8.57869C14.9191 8.151 14.9156 7.72681 14.9051 7.29911C14.9016 7.16239 14.9541 7.06423 15.0625 6.98711C15.2234 6.87492 15.3843 6.75222 15.5418 6.63654C15.7271 6.49981 15.7376 6.49981 15.8076 6.7382ZM5.40835 14.5454C5.06556 14.7592 4.76474 14.945 4.46742 15.1343C4.43244 15.1554 4.40796 15.2185 4.40796 15.2641C4.40096 15.4989 4.39746 15.7303 4.40796 15.9652C4.42195 16.2562 4.56886 16.3333 4.8277 16.1931C4.85219 16.179 4.87667 16.1615 4.90116 16.1475C5.56926 15.7128 6.23736 15.2746 6.91245 14.8434C7.10833 14.7172 7.20277 14.5454 7.20627 14.321C7.20977 13.995 7.20627 13.669 7.20277 13.3394C7.20277 13.059 7.00339 12.8942 6.72356 12.9608C6.60813 12.9889 6.4927 13.045 6.38776 13.1045C6.13242 13.2553 5.88057 13.4166 5.62872 13.5708C5.4923 13.6549 5.43284 13.6129 5.41185 13.4586C5.37338 13.1606 5.45033 12.9328 5.74415 12.8066C5.81411 12.7785 5.87008 12.7189 5.93654 12.6874C6.02049 12.6453 6.11493 12.6138 6.20238 12.5752C6.22336 12.6593 6.24435 12.747 6.26884 12.8311C6.27233 12.8416 6.28283 12.8451 6.30032 12.8627C6.45422 12.768 6.61163 12.6698 6.76904 12.5717C7.22376 12.2912 7.22376 12.2912 7.20977 11.7584C7.20977 11.7514 7.20977 11.7478 7.20977 11.7408C7.19928 11.534 7.08734 11.4428 6.88796 11.4884C6.81101 11.506 6.73755 11.548 6.6676 11.5901C6.36328 11.7759 6.06596 11.9652 5.76164 12.1545C5.41185 12.3719 5.05857 12.5892 4.70878 12.8101C4.5024 12.9398 4.37997 13.1045 4.40096 13.371C4.42195 13.6725 4.40796 13.9775 4.41145 14.2825C4.41845 14.6576 4.57236 14.7452 4.89766 14.5489C5.22646 14.3491 5.54477 14.1317 5.87008 13.9319C5.94703 13.8863 6.04147 13.8583 6.12892 13.8513C6.1674 13.8478 6.24435 13.9179 6.24435 13.9564C6.25484 14.1528 6.25135 14.3526 6.24785 14.5524C6.24785 14.584 6.23036 14.626 6.20587 14.64C5.97501 14.7978 5.74065 14.9521 5.5063 15.1028C5.48881 15.1168 5.45383 15.1028 5.40835 15.1028C5.40835 14.9275 5.40835 14.7592 5.40835 14.5454ZM12.1733 8.03882C12.1243 8.05634 12.1068 8.05985 12.0928 8.06686C11.1519 8.68036 10.2075 9.29386 9.26653 9.91086C9.23505 9.93189 9.19657 9.97046 9.19657 9.9985C9.18958 10.1878 9.19308 10.3736 9.19308 10.598C9.34698 10.5103 9.46591 10.4437 9.60933 10.3596C9.60933 10.4577 9.60933 10.5244 9.60933 10.5945C9.60933 11.1203 9.59533 11.6462 9.61632 12.172C9.62681 12.4104 9.56036 12.5717 9.34698 12.6733C9.29452 12.6979 9.22806 12.754 9.22456 12.8031C9.21057 12.9783 9.21756 13.1571 9.21756 13.3464C9.26653 13.3324 9.28402 13.3324 9.29452 13.3219C9.89615 12.9398 10.4943 12.5612 11.0924 12.1755C11.1239 12.1545 11.1729 12.123 11.1764 12.0914C11.1834 11.9056 11.1799 11.7163 11.1799 11.506C10.991 11.6216 10.8371 11.7163 10.6622 11.8215C10.6622 11.5655 10.6587 11.3482 10.6657 11.1343C10.6657 11.0923 10.6797 11.0327 10.7077 11.0081C10.8511 10.9065 10.998 10.8118 11.1764 10.6961C11.1764 10.8574 11.1764 10.9696 11.1764 11.1273C11.3338 11.0222 11.4597 10.931 11.5926 10.8539C11.6871 10.8013 11.7151 10.7312 11.7116 10.626C11.7081 10.286 11.7116 9.94942 11.7081 9.60937C11.7081 9.56029 11.7011 9.51121 11.6941 9.42006C11.5087 9.6304 11.1729 9.64092 11.2044 9.99149C11.2044 10.009 11.1799 10.0336 11.1624 10.0441C11.005 10.1387 10.8441 10.2299 10.6797 10.3245C10.6097 9.92488 10.6027 9.57431 11.04 9.39903C11.1239 9.36397 11.1939 9.29386 11.2743 9.24828C11.3128 9.22725 11.3758 9.20271 11.4002 9.21673C11.5332 9.3219 11.6241 9.22725 11.7256 9.16415C11.848 9.08351 11.9739 9.00989 12.0893 8.92225C12.1278 8.89421 12.1698 8.84513 12.1698 8.80306C12.1768 8.56117 12.1733 8.30875 12.1733 8.03882ZM19.8896 18.6926C21.3867 16.9398 21.6456 14.2053 19.8896 11.9932C19.8896 14.2194 19.8896 16.4385 19.8896 18.6926ZM18.0952 6.83636C17.8049 7.01866 17.5565 7.17641 17.3082 7.33768C17.2767 7.35871 17.2417 7.40779 17.2417 7.44635C17.2347 7.69526 17.2382 7.94066 17.2382 8.22812C17.5286 8.03531 17.7909 7.86704 18.0462 7.69175C18.0742 7.67422 18.0917 7.62164 18.0917 7.58658C18.0987 7.34819 18.0952 7.11331 18.0952 6.83636ZM8.60193 12.9503C8.3151 13.1291 8.06326 13.2868 7.81491 13.4481C7.78692 13.4656 7.75544 13.5007 7.75544 13.5287C7.75194 13.7847 7.75194 14.0441 7.75194 14.335C8.04227 14.1422 8.29412 13.9775 8.54247 13.8057C8.57395 13.7847 8.59494 13.7286 8.59843 13.69C8.60543 13.4551 8.60193 13.2202 8.60193 12.9503ZM13.2576 9.93189C12.9603 10.1177 12.705 10.279 12.4531 10.4437C12.4321 10.4577 12.4111 10.4893 12.4111 10.5138C12.4076 10.7662 12.4076 11.0187 12.4076 11.3166C12.7015 11.1238 12.9568 10.9556 13.2087 10.7838C13.2366 10.7662 13.2541 10.7137 13.2541 10.6786C13.2611 10.4402 13.2576 10.2088 13.2576 9.93189ZM4.07915 18.6786C4.09315 18.6681 4.10714 18.6611 4.12113 18.6506C4.12113 18.2439 4.12113 17.8372 4.12113 17.399C3.89726 17.5463 3.70138 17.6725 3.48101 17.8162C3.69089 18.1177 3.88327 18.3982 4.07915 18.6786Z" fill="black"/>
<path d="M16.6781 1.71484C16.7376 1.88312 16.7831 2.00932 16.8215 2.13553C16.86 2.26173 16.93 2.32834 17.0734 2.31782C17.2098 2.30731 17.3462 2.31432 17.5246 2.31432C17.3847 2.41598 17.2798 2.50363 17.1678 2.57023C17.0419 2.64736 17.0104 2.73851 17.0699 2.87523C17.1154 2.9804 17.1469 3.08908 17.1818 3.19775C17.1678 3.20827 17.1573 3.22229 17.1434 3.23281C17.0419 3.1662 16.93 3.11362 16.839 3.03299C16.7271 2.93833 16.6397 2.95236 16.5347 3.04C16.4508 3.11011 16.3563 3.1627 16.2654 3.2258C16.2479 3.21879 16.2339 3.21178 16.2164 3.20477C16.2339 3.13465 16.2444 3.05753 16.2689 2.99092C16.3703 2.71397 16.3668 2.70345 16.1255 2.53518C16.0415 2.47558 15.9541 2.41598 15.8701 2.35989C15.8736 2.34587 15.8736 2.32834 15.8771 2.31432C16.031 2.31432 16.1814 2.31081 16.3353 2.31432C16.4333 2.31782 16.4822 2.28277 16.5102 2.18811C16.5592 2.04438 16.6117 1.90415 16.6781 1.71484Z" fill="black"/>
<path d="M6.60831 2.31432C6.75172 2.31432 6.89514 2.32484 7.03505 2.30731C7.09452 2.3003 7.16797 2.24771 7.19246 2.19512C7.25542 2.0549 7.2974 1.90065 7.36036 1.71484C7.42682 1.90065 7.46879 2.0549 7.53875 2.20214C7.56324 2.25472 7.64019 2.3038 7.69616 2.31081C7.84307 2.32484 7.99348 2.31432 8.19286 2.31432C8.07393 2.40547 8.00047 2.47207 7.92352 2.52466C7.68566 2.68943 7.68566 2.68592 7.7871 2.95937C7.82208 3.05051 7.84657 3.14517 7.89204 3.2854C7.72764 3.17321 7.60871 3.07856 7.47929 3.01195C7.42332 2.9804 7.32188 2.97689 7.26941 3.00845C7.13999 3.07856 7.02456 3.17672 6.85666 3.29591C6.91263 3.10661 6.9511 2.96988 7.00007 2.83316C7.04205 2.72448 7.00707 2.65788 6.91612 2.59828C6.80419 2.52466 6.69926 2.44753 6.59082 2.37041C6.59782 2.35639 6.60481 2.33535 6.60831 2.31432Z" fill="black"/>
<path d="M7.69931 9.29463C6.57649 9.29814 5.67403 8.39367 5.66703 7.25432C5.66004 6.11497 6.56599 5.19297 7.69581 5.18946C8.83962 5.18596 9.74558 6.09744 9.74558 7.25081C9.74908 8.38315 8.84312 9.29113 7.69931 9.29463ZM8.24848 7.41207C8.24498 6.73898 8.00363 6.16054 7.57688 5.65222C7.34602 5.37527 7.34252 5.37527 7.00673 5.519C6.48204 5.74336 6.43657 5.82399 6.49254 6.3814C6.49254 6.39192 6.49254 6.40594 6.49603 6.41646C6.57648 7.17719 7.02072 7.71356 7.73079 7.89937C8.00363 7.97299 8.23798 7.7942 8.24498 7.51725C8.24848 7.48219 8.24848 7.44713 8.24848 7.41207ZM6.27217 6.09043C5.92238 6.52513 5.83843 6.97737 5.87341 7.46466C5.8839 7.63644 5.95036 7.76264 6.11126 7.83626C6.27916 7.91339 6.44356 8.00804 6.61496 8.07115C6.96825 8.20086 7.33203 8.2289 7.70631 8.11672C6.69192 7.84678 6.33163 7.10357 6.27217 6.09043ZM8.64024 7.86782C9.18242 7.79069 9.62665 7.06151 9.43776 6.57421C9.29785 6.20962 9.05299 5.92566 8.73469 5.7048C8.7067 5.68377 8.67172 5.67675 8.60876 5.64871C8.96205 6.40243 9.07398 7.13162 8.64024 7.86782ZM7.66083 5.36475C7.65034 5.38228 7.64334 5.3998 7.63285 5.42084C8.23099 6.0764 8.52131 6.84415 8.45835 7.74161C8.62625 7.49972 8.7067 7.2438 8.72069 6.96685C8.74868 6.45502 8.58428 5.99227 8.33942 5.55055C8.31844 5.51549 8.27646 5.47342 8.23798 5.46641C8.0456 5.42434 7.85322 5.3963 7.66083 5.36475ZM6.80735 8.8424C7.09068 9.0282 7.39499 9.10533 7.7203 9.10182C8.05609 9.09831 8.30444 8.68815 8.15753 8.3481C7.79025 8.73723 7.32154 8.8459 6.80735 8.8424ZM6.07978 8.03959C6.06929 8.05011 6.06229 8.06413 6.0518 8.07465C6.11826 8.17632 6.17773 8.28149 6.25468 8.37264C6.32114 8.44976 6.39809 8.55143 6.48554 8.56895C6.85282 8.64257 7.2236 8.6566 7.58038 8.50585C7.67832 8.46378 7.76577 8.40068 7.86021 8.34459C7.85322 8.33057 7.84972 8.31304 7.84272 8.29902C7.2166 8.47079 6.63245 8.3516 6.07978 8.03959ZM8.59127 8.09218C8.7067 8.24643 9.00053 8.37965 9.14744 8.3516C9.16842 8.3481 9.19291 8.34108 9.2104 8.32706C9.36781 8.21137 9.56369 7.63644 9.51472 7.40506C9.30484 7.78017 9.01802 8.02908 8.59127 8.09218ZM8.42337 8.28499C8.3849 8.52689 8.34642 8.76177 8.30444 9.04222C8.5528 8.88447 8.78366 8.73723 9.02851 8.58298C8.79765 8.47079 8.60876 8.37614 8.42337 8.28499ZM8.09807 8.26396C8.2135 8.20436 8.32893 8.15528 8.43387 8.08517C8.46535 8.06413 8.49683 7.9835 8.48284 7.95546C8.46535 7.9204 8.39189 7.88534 8.35342 7.89586C8.23799 7.92391 8.12255 7.96597 8.01762 8.02207C7.97914 8.0431 7.94066 8.12373 7.95116 8.16229C7.95815 8.20086 8.03161 8.22189 8.09807 8.26396Z" fill="black"/>
</svg>