<svg width="24" height="24" viewBox="0 0 24 24" fill="none" xmlns="http://www.w3.org/2000/svg">
<g clip-path="url(#clip0)">
<circle cx="12" cy="11.9998" r="11.0769" fill="white"/>
<path d="M5.99992 2.76901L7.84608 5.0767L4.15377 9.23054L2.76916 5.99977L2.30762 2.30747L3.23069 0.922852L5.99992 2.76901Z" fill="#EF8A14"/>
<path d="M17.5384 2.76901L15.6923 5.0767L19.3846 9.23054L20.7692 5.99977L21.2307 2.30747L20.3076 0.922852L17.5384 2.76901Z" fill="#EF8A14"/>
<path d="M2.45631 5.61648C2.42917 5.46873 2.40244 5.32099 2.37449 5.17344C2.3425 5.00331 2.30422 4.8342 2.2781 4.66326C2.25117 4.48722 2.23456 4.30936 2.21532 4.13231C2.20358 4.02405 2.19406 3.91558 2.18596 3.80711C2.17887 3.7135 2.17644 3.61968 2.16915 3.52607C2.15538 3.35085 2.13331 3.17624 2.12622 3.00082C2.12095 2.87119 2.13513 2.74094 2.13837 2.61111C2.14141 2.48921 2.14222 2.36711 2.14222 2.245C2.14222 2.08281 2.12926 1.9198 2.14181 1.75862C2.15862 1.5427 2.19284 1.32801 2.22282 1.1131C2.2623 0.830232 2.36477 0.564454 2.50876 0.324725C2.60069 0.171689 2.71005 -0.0149254 2.93726 0.000947987C3.08711 0.0115303 3.24223 0.0284212 3.38277 0.077466C3.64502 0.169043 3.89836 0.287077 4.15594 0.392492C4.39531 0.490582 4.59457 0.655218 4.80842 0.794619C4.95625 0.891081 5.08849 1.01217 5.22538 1.12491C5.4046 1.27265 5.58787 1.41653 5.75798 1.57445C5.96008 1.76208 6.15023 1.96294 6.34565 2.1579C6.47505 2.2914 6.60688 2.42266 6.73345 2.5586C7.17572 3.03359 7.6178 3.50897 8.05622 3.98741C8.12427 4.06169 8.18097 4.0855 8.28141 4.04623C8.49485 3.96279 8.71336 3.89095 8.93247 3.82359C9.84962 3.54194 10.7925 3.43693 11.7473 3.42228C12.0371 3.4178 12.3273 3.42533 12.6167 3.43999C12.9059 3.45464 13.1958 3.47417 13.483 3.5106C14.255 3.60889 15.0101 3.78411 15.7432 4.04867C15.8412 4.08408 15.8971 4.0619 15.9562 3.98294C16.3784 3.41943 16.8264 2.8777 17.3177 2.3728C17.397 2.2912 17.4702 2.20308 17.5463 2.11801C17.5888 2.07365 17.6295 2.02705 17.6745 1.98513C17.7531 1.91186 17.8343 1.84165 17.914 1.76982C18.0372 1.6587 18.1573 1.54372 18.284 1.43668C18.4159 1.32556 18.5487 1.21404 18.6911 1.11717C18.9323 0.952946 19.1799 0.797875 19.4274 0.643414C19.7561 0.438078 20.1185 0.310683 20.4818 0.183492C20.7358 0.0945605 20.999 0.0715644 21.2625 0.0536559C21.3635 0.0467367 21.3986 0.158054 21.4423 0.229078C21.5118 0.342023 21.5687 0.463719 21.6219 0.585415C21.6622 0.677603 21.692 0.775082 21.7204 0.871951C21.7449 0.955592 21.7655 1.04106 21.7797 1.12715C21.7963 1.22768 21.8038 1.32984 21.8162 1.43118C21.8277 1.52541 21.8421 1.61922 21.8518 1.71365C21.8676 1.86953 21.8931 2.02603 21.8917 2.18192C21.8899 2.38359 21.8623 2.58506 21.852 2.78694C21.8467 2.8893 21.8595 2.99248 21.8552 3.09504C21.8512 3.19069 21.8362 3.28614 21.8245 3.38138C21.8127 3.47865 21.8006 3.57593 21.786 3.6728C21.7669 3.79978 21.743 3.92616 21.7254 4.05335C21.7072 4.18441 21.6977 4.31669 21.6768 4.44734C21.658 4.56537 21.6268 4.68116 21.6047 4.79879C21.5588 5.043 21.5152 5.28741 21.4707 5.53182C21.4472 5.56967 21.4126 5.60447 21.402 5.64558C21.32 5.96386 21.2528 6.28621 21.1619 6.60165C20.9423 7.36337 20.7115 8.12163 20.4893 8.88253C20.4752 8.93137 20.4798 8.99996 20.5039 9.04371C20.9407 9.83453 21.3097 10.6536 21.5557 11.5265C21.7716 12.2925 21.9044 13.0721 21.9607 13.8656C21.98 14.1356 22.0029 14.4057 22.0152 14.6759C22.0211 14.8031 22.0063 14.9313 22.001 15.0589C22.001 14.9981 21.9966 14.9366 22.0023 14.8762C22.0095 14.7982 21.9755 14.7681 21.902 14.7563C21.2556 14.6537 20.6068 14.6236 19.9561 14.7026C18.6439 14.8615 17.5204 15.4195 16.5664 16.3325C16.4819 16.4132 16.3961 16.4922 16.3019 16.5805C16.2284 16.3799 16.1628 16.192 16.0909 16.0064C15.8554 15.3978 15.5435 14.8326 15.1029 14.3491C14.1978 13.356 13.0525 12.9506 11.7366 13.0235C10.5434 13.0896 9.57806 13.6303 8.80773 14.5388C8.31422 15.1206 7.95902 15.784 7.66093 16.4818C7.64817 16.5115 7.63359 16.5406 7.61982 16.5699C7.60686 16.5781 7.5941 16.586 7.58114 16.5942C7.55543 16.5545 7.53497 16.5099 7.50298 16.4761C6.91611 15.8579 6.2446 15.3591 5.45422 15.0341C4.33233 14.5727 3.17298 14.5296 1.99257 14.7317C1.92635 14.7431 1.91096 14.7779 1.91116 14.8359C1.91177 14.9645 1.91035 15.0933 1.90974 15.2219C1.90326 15.1755 1.88929 15.1287 1.89131 15.0825C1.90164 14.8357 1.91521 14.5888 1.92898 14.3422C1.96381 13.718 2.05453 13.1014 2.18616 12.4911C2.44193 11.3049 2.85281 10.1734 3.3931 9.08889C3.42571 9.02336 3.44758 8.96617 3.41497 8.88864C2.9731 7.83489 2.7066 6.72802 2.45631 5.61648ZM2.92369 2.38115C2.91033 2.50223 2.88906 2.62311 2.88501 2.74461C2.8678 3.27047 2.884 3.79551 2.97594 4.31465C3.0373 4.66061 3.10858 5.00535 3.18776 5.34785C3.2639 5.67753 3.35098 6.00476 3.4417 6.33058C3.52331 6.62403 3.61323 6.91545 3.70597 7.20565C3.75275 7.35217 3.8133 7.49422 3.87649 7.6613C3.91273 7.61205 3.9346 7.58437 3.95445 7.55548C4.09337 7.35177 4.22318 7.14114 4.37242 6.94537C4.56298 6.69566 4.7667 6.45573 4.96901 6.21539C5.27641 5.8499 5.61663 5.51737 5.98154 5.21008C6.00949 5.19217 6.03926 5.17629 6.06518 5.15574C6.22313 5.02957 6.37704 4.8981 6.53864 4.7764C6.69477 4.65878 6.85738 4.5499 7.01898 4.4396C7.09168 4.38995 7.10141 4.34701 7.03316 4.28067C6.77172 4.02608 6.52163 3.75929 6.25391 3.51162C5.65814 2.96012 5.03948 2.43385 4.33618 2.02522C4.00852 1.83494 3.6511 1.69655 3.30764 1.53375C3.23859 1.50099 3.19606 1.53273 3.16791 1.58992C3.04479 1.84043 2.95184 2.10092 2.92369 2.38115ZM20.8253 2.3608C20.8099 2.08484 20.7084 1.83453 20.5965 1.58768C20.5701 1.52968 20.5296 1.49875 20.4585 1.5309C20.1831 1.65585 19.8946 1.75659 19.6331 1.90555C19.3034 2.09359 18.9877 2.30951 18.6801 2.53296C18.4163 2.72466 18.1625 2.93305 17.9219 3.15365C17.5094 3.53197 17.1105 3.92514 16.7065 4.31282C16.6909 4.32768 16.6822 4.34986 16.6694 4.3696C16.6842 4.38364 16.6927 4.39422 16.7035 4.40175C16.908 4.55011 17.1137 4.69704 17.3175 4.84661C17.442 4.93819 17.5635 5.03404 17.6862 5.12806C18.5451 5.84969 19.2599 6.69912 19.8826 7.66761C19.9152 7.5862 19.9379 7.53838 19.9539 7.48852C20.0586 7.16332 20.1718 6.84056 20.2637 6.5117C20.4093 5.99011 20.5537 5.46751 20.673 4.93941C20.7526 4.58715 20.802 4.22613 20.838 3.86633C20.8721 3.52688 20.879 3.18398 20.8814 2.84229C20.8826 2.68213 20.8453 2.52136 20.8253 2.3608ZM5.76932 11.3429C5.77316 11.4139 5.78147 11.4852 5.78005 11.556C5.77742 11.6913 5.82521 11.8016 5.93355 11.881C6.11013 12.0102 6.28024 12.1521 6.46918 12.2603C7.00096 12.5652 7.57952 12.7485 8.17489 12.8802C8.59692 12.9734 9.02157 13.0526 9.45696 13.0222C9.53614 13.0167 9.61593 12.9942 9.69147 12.9681C9.76315 12.9435 9.80366 12.8865 9.77328 12.8079C9.7261 12.6858 9.686 12.5572 9.61735 12.4477C9.47337 12.2182 9.26985 12.0418 9.0477 11.892C8.78748 11.7165 8.52158 11.5487 8.25245 11.3875C7.78608 11.1083 7.31606 10.8342 6.80818 10.6355C6.56294 10.5397 6.31548 10.4507 6.04533 10.4542C5.95927 10.4552 5.90925 10.4849 5.87462 10.5643C5.76587 10.8144 5.76729 11.0784 5.76932 11.3429ZM18.3187 11.139C18.3012 11.0195 18.2873 10.836 18.2456 10.6591C18.1897 10.4216 18.1348 10.3789 17.8964 10.4304C17.6508 10.4835 17.4051 10.5549 17.1739 10.6528C16.5216 10.929 15.9289 11.3154 15.3333 11.695C15.0731 11.8608 14.8171 12.0361 14.6278 12.2829C14.5227 12.4199 14.4394 12.5792 14.3738 12.7398C14.3139 12.8865 14.358 12.9592 14.5152 12.985C14.68 13.0121 14.8515 13.0288 15.0174 13.0151C15.7594 12.9535 16.4734 12.7695 17.1583 12.4773C17.5293 12.3189 17.8819 12.1274 18.1716 11.8368C18.2385 11.7699 18.2865 11.6976 18.2903 11.5987C18.2954 11.4664 18.3061 11.3346 18.3187 11.139ZM7.16601 9.87381C7.63683 9.86546 8.00256 9.84898 8.36039 9.74397C8.56431 9.68414 8.67711 9.55044 8.70344 9.34978C8.71862 9.2346 8.72227 9.107 8.68845 8.99833C8.53576 8.51032 8.1836 8.20751 7.72351 8.02863C7.60929 7.98426 7.46936 7.97978 7.34522 7.99342C6.89627 8.04226 6.55383 8.27507 6.3258 8.66254C6.12998 8.99528 6.13504 9.33228 6.36185 9.65646C6.42949 9.75333 6.51312 9.81927 6.63341 9.82944C6.84463 9.84756 7.05625 9.86485 7.16601 9.87381ZM16.5307 9.89518C16.5319 9.88927 16.533 9.88337 16.5342 9.87768C16.7158 9.8675 16.8987 9.86608 17.0789 9.84349C17.1822 9.83046 17.3045 9.80991 17.3776 9.74601C17.5394 9.60457 17.6243 9.41226 17.6322 9.18942C17.6431 8.87724 17.519 8.62042 17.3075 8.40694C17.0103 8.10657 16.6559 7.94112 16.2227 7.99851C15.9362 8.03656 15.7243 8.21259 15.52 8.39636C15.3414 8.55692 15.1891 8.74476 15.1407 8.9849C15.0492 9.43912 15.16 9.70836 15.6095 9.78142C15.9145 9.83067 16.2233 9.85793 16.5307 9.89518Z" fill="#F3A228"/>
<path d="M2.45645 5.61627C2.70655 6.72782 2.97305 7.83469 3.41512 8.88946C3.44772 8.96719 3.42585 9.02438 3.39325 9.0897C2.85296 10.1744 2.44208 11.3057 2.18631 12.4919C2.05468 13.1022 1.96396 13.7188 1.92913 14.343C1.91536 14.5896 1.90179 14.8365 1.89146 15.0833C1.88943 15.1295 1.90341 15.1763 1.90989 15.2227C1.94472 15.3953 1.96963 15.5707 2.01641 15.7401C2.19907 16.4008 2.54353 16.9774 2.95543 17.516C3.53905 18.2794 4.2373 18.9255 4.99062 19.5149C5.85897 20.1942 6.79374 20.7648 7.7838 21.2457C7.81215 21.2632 7.83888 21.2848 7.86905 21.298C8.21818 21.4508 8.56102 21.621 8.91885 21.7496C9.39089 21.9191 9.87448 22.0552 10.3532 22.2058C10.7904 22.2732 11.2266 22.3491 11.6654 22.4036C11.8568 22.4274 12.0537 22.4075 12.2481 22.4075C12.2817 22.4081 12.3153 22.4104 12.3489 22.4087C12.8831 22.3817 13.4092 22.2954 13.9268 22.1641C15.6795 21.7197 17.2755 20.9406 18.7313 19.8678C19.2025 19.5204 19.6493 19.1435 20.0545 18.7188C20.241 18.5142 20.4374 18.3177 20.6116 18.103C20.777 17.899 20.9192 17.676 21.0717 17.4615C21.5832 16.7397 21.9058 15.944 22.001 15.0593C22.0065 14.9315 22.021 14.8035 22.0152 14.6763C22.0026 14.4059 21.9797 14.136 21.9607 13.866C21.9044 13.0725 21.7715 12.2929 21.5557 11.5269C21.3096 10.6538 20.9407 9.83494 20.5039 9.04412C20.4798 9.00037 20.4751 8.93178 20.4893 8.88294C20.7114 8.12204 20.9423 7.36378 21.1618 6.60205C21.2527 6.28662 21.32 5.96406 21.402 5.64599C21.4125 5.60488 21.4471 5.56988 21.4706 5.53223C21.4961 5.59694 21.5127 5.66715 21.5488 5.72535C21.7065 5.97994 21.8821 6.22414 22.0285 6.48484C22.2108 6.80963 22.3724 7.14623 22.5403 7.47896C22.7557 7.90591 22.9204 8.35342 23.0639 8.80907C23.1174 8.97859 23.183 9.14546 23.2221 9.31844C23.3039 9.6815 23.3726 10.0474 23.4453 10.4125C23.4758 10.5663 23.5109 10.72 23.5299 10.8755C23.5508 11.0476 23.554 11.2218 23.568 11.3948C23.5783 11.5216 23.5965 11.6478 23.6054 11.7746C23.6097 11.8334 23.6004 11.893 23.5973 11.9522C23.5959 11.9819 23.5897 12.0127 23.5945 12.0413C23.631 12.2532 23.6413 12.4642 23.589 12.6755C23.5824 12.7025 23.5943 12.7343 23.5986 12.7638C23.6036 12.7998 23.6158 12.8362 23.6138 12.8719C23.6026 13.0627 23.5927 13.254 23.573 13.4443C23.5552 13.6163 23.5248 13.787 23.5014 13.9586C23.4789 14.1214 23.4582 14.2844 23.4368 14.4474C23.4187 14.4722 23.3892 14.495 23.3849 14.5221C23.3649 14.6462 23.3519 14.7714 23.3365 14.8961C23.3163 14.9639 23.296 15.0319 23.276 15.0996C23.2231 15.2759 23.1674 15.4513 23.1192 15.6287C23.1014 15.6943 23.101 15.7645 23.0927 15.8324C23.0356 16.002 22.9813 16.1725 22.9206 16.3406C22.8716 16.4761 22.8215 16.6121 22.76 16.7421C22.5536 17.1778 22.3491 17.6145 22.1294 18.0435C21.999 18.2983 21.8517 18.546 21.693 18.7841C21.5196 19.044 21.3256 19.29 21.1381 19.5401C21.0377 19.6742 20.9376 19.8094 20.8267 19.9347C20.6831 20.0969 20.5288 20.2497 20.3791 20.4066C20.2536 20.5383 20.1316 20.6734 20.0016 20.8004C19.8595 20.9392 19.7145 21.0758 19.5624 21.2034C19.3534 21.3786 19.1394 21.5479 18.9221 21.7127C18.7637 21.8328 18.6017 21.949 18.4328 22.0532C18.0859 22.2669 17.7378 22.4789 17.3822 22.6778C16.9468 22.9212 16.49 23.122 16.0187 23.2836C15.602 23.4265 15.1828 23.5677 14.7555 23.6725C14.3446 23.7734 13.9242 23.8447 13.504 23.8957C13.0642 23.9493 12.6199 23.9725 12.1768 23.9918C11.5869 24.0174 10.998 23.9798 10.4138 23.8959C10.0709 23.8467 9.72847 23.7826 9.39251 23.6979C8.93302 23.5821 8.4786 23.445 8.02478 23.3076C7.8644 23.259 7.70928 23.1896 7.55699 23.1183C7.14671 22.9264 6.73441 22.7376 6.33243 22.529C6.09975 22.4083 5.88186 22.2571 5.66416 22.1098C5.41325 21.9401 5.16478 21.7656 4.9242 21.5815C4.69496 21.4061 4.47059 21.2229 4.25633 21.0296C4.05747 20.8501 3.8738 20.6537 3.68547 20.4626C3.52083 20.2953 3.35174 20.1317 3.19864 19.954C3.03927 19.7691 2.8965 19.5692 2.74685 19.3757C2.68508 19.2959 2.61947 19.2188 2.56358 19.1351C2.39347 18.8808 2.22722 18.6239 2.05954 18.3679C2.01701 18.303 1.9753 18.2377 1.93318 18.1726C1.92427 18.0409 1.85379 17.9408 1.76915 17.8478C1.72176 17.7529 1.67437 17.6583 1.62719 17.5635C1.62294 17.5439 1.62152 17.523 1.61382 17.5049C1.46822 17.1617 1.32343 16.8182 1.17479 16.4765C1.14482 16.4076 1.10047 16.3451 1.0626 16.2795C0.938463 15.8536 0.804201 15.4301 0.693633 15.0005C0.61992 14.7142 0.572129 14.4203 0.526565 14.1277C0.488493 13.8871 0.471078 13.6433 0.445157 13.4008C0.427741 13.2388 0.404656 13.077 0.39534 12.9144C0.382582 12.6895 0.371039 12.464 0.376305 12.2392C0.38076 12.0491 0.411541 11.8598 0.427134 11.6697C0.431994 11.6097 0.418831 11.5483 0.425109 11.4886C0.45265 11.2265 0.479178 10.964 0.515832 10.7031C0.553903 10.4328 0.591164 10.1616 0.650904 9.89579C0.727249 9.55593 0.811492 9.21628 0.918213 8.88498C1.04154 8.50178 1.1916 8.12733 1.33254 7.74983C1.37304 7.64115 1.42164 7.53533 1.4666 7.42829C1.52027 7.33305 1.57373 7.2376 1.62739 7.14236C1.68349 7.02494 1.73107 6.90243 1.79709 6.79091C1.98482 6.47405 2.18266 6.16309 2.37059 5.84624C2.4117 5.77725 2.42851 5.6934 2.45645 5.61627Z" fill="#EB3F28"/>
<path d="M17.5463 2.11831C17.4704 2.20337 17.3973 2.29129 17.3177 2.3731C16.8264 2.87779 16.3785 3.41972 15.9563 3.98323C15.8969 4.0624 15.8412 4.08437 15.7432 4.04896C15.0101 3.78461 14.255 3.60919 13.483 3.5109C13.1959 3.47426 12.9061 3.45493 12.6167 3.44028C12.3273 3.42563 12.0369 3.4181 11.7474 3.42257C10.7927 3.43723 9.84967 3.54224 8.93252 3.82389C8.71321 3.89125 8.49491 3.96308 8.28146 4.04652C8.18102 4.0858 8.12432 4.06199 8.05628 3.98771C7.61785 3.50906 7.17598 3.03388 6.7335 2.5589C6.60673 2.42296 6.4751 2.29169 6.3457 2.15819C6.61119 2.02673 6.87425 1.89038 7.14277 1.76563C7.35641 1.66632 7.57391 1.57413 7.79444 1.49212C8.11278 1.37368 8.43213 1.25524 8.75756 1.15919C9.0603 1.06985 9.37075 1.00493 9.67977 0.938587C9.93351 0.884048 10.1891 0.835613 10.4459 0.798372C10.6656 0.766625 10.8875 0.743222 11.1093 0.736099C11.5777 0.72104 12.0469 0.703538 12.5149 0.716359C12.8911 0.726534 13.2682 0.765811 13.6412 0.817908C14.0112 0.869599 14.3806 0.937569 14.743 1.02772C15.1215 1.12174 15.498 1.23245 15.8633 1.36839C16.3127 1.53547 16.7511 1.73328 17.1913 1.92416C17.3147 1.97728 17.4283 2.05278 17.5463 2.11831Z" fill="#EB3F28"/>
<path d="M23.092 15.8334C23.1003 15.7654 23.1007 15.695 23.1186 15.6297C23.167 15.4522 23.2227 15.2768 23.2753 15.1006C23.2599 15.1938 23.2512 15.289 23.2273 15.38C23.1874 15.5324 23.1376 15.6824 23.092 15.8334Z" fill="#1F1F1F"/>
<path d="M23.3362 14.897C23.3516 14.7722 23.3645 14.6469 23.3846 14.5229C23.3888 14.4959 23.4186 14.4731 23.4364 14.4482C23.415 14.5712 23.3949 14.6943 23.3712 14.8168C23.3657 14.8447 23.3481 14.8701 23.3362 14.897Z" fill="#1F1F1F"/>
<path d="M1.62759 7.14258C1.57392 7.23782 1.52046 7.33326 1.4668 7.4285C1.52026 7.33326 1.57392 7.23782 1.62759 7.14258Z" fill="#1E1E1E"/>
<path d="M5.76956 11.3429C5.76754 11.0786 5.76612 10.8144 5.87507 10.5643C5.90949 10.4849 5.95971 10.4554 6.04578 10.4542C6.31592 10.4507 6.56339 10.5395 6.80862 10.6355C7.31651 10.8341 7.78653 11.1083 8.2529 11.3875C8.52223 11.5487 8.78792 11.7163 9.04814 11.892C9.27029 12.0417 9.47381 12.2182 9.61779 12.4477C9.68644 12.5572 9.72654 12.6858 9.77372 12.8079C9.8041 12.8865 9.7634 12.9435 9.69191 12.9681C9.61617 12.9941 9.53659 13.0167 9.45741 13.0222C9.02202 13.0526 8.59736 12.9736 8.17534 12.8802C7.58017 12.7487 7.00141 12.5652 6.46963 12.2603C6.28069 12.152 6.11058 12.0102 5.934 11.881C5.82545 11.8016 5.77766 11.6913 5.7805 11.556C5.78171 11.485 5.77341 11.4139 5.76956 11.3429Z" fill="#010206"/>
<path d="M18.319 11.1395C18.3067 11.3351 18.2957 11.467 18.2907 11.5989C18.2868 11.698 18.2388 11.77 18.172 11.837C17.8822 12.1276 17.5297 12.3193 17.1587 12.4774C16.4738 12.7696 15.7597 12.9536 15.0178 13.0152C14.8521 13.0291 14.6806 13.0122 14.5155 12.9851C14.3582 12.9593 14.314 12.8866 14.3742 12.7399C14.4398 12.5793 14.523 12.42 14.6281 12.283C14.8175 12.0362 15.0734 11.861 15.3337 11.6951C15.9292 11.3156 16.522 10.9291 17.1743 10.653C17.4055 10.5551 17.6512 10.4834 17.8968 10.4305C18.1351 10.379 18.19 10.4218 18.2459 10.6593C18.2874 10.8365 18.3016 11.0199 18.319 11.1395Z" fill="#010206"/>
<path d="M12.1353 22.4032C12.3242 22.3859 12.5133 22.3688 12.7023 22.3515C12.7025 22.348 12.7027 22.3443 12.7029 22.3409C12.5245 22.3409 12.3463 22.3409 12.1679 22.3409C12.1675 22.3374 12.167 22.3342 12.1666 22.3307C12.2695 22.322 12.3728 22.3167 12.4751 22.3041C12.7519 22.2697 13.0287 22.2338 13.3051 22.1954C13.4315 22.1777 13.5591 22.1606 13.6824 22.1286C13.9981 22.047 14.315 21.9675 14.6253 21.8679C14.9839 21.753 15.3424 21.6321 15.6897 21.4866C16.0592 21.3319 16.4191 21.1526 16.7767 20.9711C17.074 20.8203 17.3678 20.6603 17.6521 20.4865C17.9504 20.304 18.239 20.1048 18.526 19.9041C18.7412 19.7537 18.9547 19.5989 19.1549 19.4291C19.4401 19.1878 19.7122 18.9311 19.9901 18.6812C20.0051 18.6678 20.0211 18.6554 20.0367 18.6426C20.0425 18.6684 20.0484 18.6941 20.0543 18.7199C19.6491 19.1446 19.2025 19.5215 18.7311 19.8689C17.2753 20.9418 15.6793 21.7206 13.9266 22.1653C13.4092 22.2965 12.8831 22.3828 12.3487 22.4099C12.3153 22.4115 12.2815 22.4091 12.2478 22.4087C12.2106 22.4066 12.1729 22.4048 12.1353 22.4032Z" fill="#EEEEEE"/>
<path d="M12.1353 22.4031C12.173 22.4047 12.2105 22.4065 12.2481 22.4082C12.0537 22.4082 11.8569 22.4281 11.6655 22.4043C11.2267 22.3498 10.7905 22.2736 10.3533 22.2065C10.3334 22.1851 10.3138 22.1639 10.2939 22.1426C10.463 22.1705 10.6317 22.2016 10.8014 22.2254C11.0945 22.2665 11.3879 22.3029 11.6886 22.3422C11.5807 22.3422 11.4776 22.3422 11.3745 22.3422C11.3745 22.3493 11.3745 22.3565 11.3743 22.3636C11.6281 22.3768 11.8818 22.3898 12.1353 22.4031Z" fill="#EAEAEA"/>
<path d="M10.294 22.1423C10.3139 22.1637 10.3335 22.1849 10.3533 22.2062C9.87461 22.0556 9.39103 21.9193 8.91899 21.75C8.56116 21.6216 8.21831 21.4512 7.86919 21.2984C7.83902 21.2852 7.81229 21.2638 7.78394 21.2461C7.95728 21.3196 8.13083 21.3924 8.30377 21.4669C8.94916 21.7455 9.60852 21.9826 10.294 22.1423Z" fill="#B2B2B2"/>
<path d="M20.0545 18.7192C20.0486 18.6933 20.0427 18.6677 20.0369 18.6418C20.2862 18.3649 20.5369 18.0891 20.7841 17.8101C20.884 17.6976 20.9761 17.5781 21.0717 17.4619C20.9192 17.6764 20.777 17.8995 20.6116 18.1034C20.4372 18.3181 20.241 18.5146 20.0545 18.7192Z" fill="#D3D3D3"/>
<path d="M14.8952 18.0649C14.827 18.3296 14.7588 18.5942 14.6921 18.8524C14.678 18.8573 14.6745 18.86 14.6717 18.8594C14.4829 18.8182 14.4183 18.9314 14.3659 19.0871C14.2936 19.3012 14.2015 19.5085 14.1099 19.7385C14.0305 19.607 13.9433 19.5077 13.9501 19.3518C13.9623 19.0675 13.9556 18.7824 13.9562 18.4975C13.9562 18.4914 13.952 18.4851 13.9445 18.4654C12.8441 18.654 11.7384 18.664 10.6321 18.4727C10.6321 18.6618 10.6313 18.8374 10.6323 19.013C10.6331 19.1351 10.6284 19.258 10.6414 19.3789C10.656 19.5157 10.6045 19.6211 10.4992 19.7442C10.4263 19.591 10.351 19.454 10.2953 19.3095C10.2386 19.162 10.2013 19.0067 10.1533 18.8469C10.1339 18.8469 10.111 18.8457 10.0881 18.8471C9.93544 18.8563 9.93524 18.8565 9.90142 18.7C9.89494 18.6703 9.88502 18.6402 9.88522 18.6103C9.88603 18.4257 9.82022 18.2788 9.66287 18.1742C9.63472 18.1554 9.62682 18.106 9.59888 18.049C9.86315 18.049 10.0985 18.0451 10.3336 18.0512C10.4134 18.0533 10.5237 18.0036 10.5555 18.1408C10.5575 18.1491 10.5914 18.1536 10.6106 18.154C10.9749 18.1615 11.3392 18.1695 11.7035 18.1725C11.7357 18.1727 11.777 18.1459 11.7989 18.119C11.8412 18.0669 11.8728 18.0059 11.9085 17.9483C11.9599 17.8654 12.0004 17.7665 12.1407 17.8168C12.1407 17.5604 12.1432 17.3207 12.1373 17.0809C12.1367 17.0551 12.0913 17.0209 12.0597 17.0071C11.7432 16.8683 11.4382 16.711 11.1754 16.481C10.8905 16.2317 10.7208 15.9317 10.7459 15.539C10.754 15.4106 10.7469 15.2813 10.7471 15.1525C10.7477 14.7994 10.9707 14.5676 11.319 14.5662C11.9162 14.5638 12.5136 14.564 13.1108 14.5662C13.4287 14.5674 13.7199 14.8656 13.7148 15.1845C13.711 15.4181 13.7162 15.6539 13.6861 15.8847C13.6399 16.2358 13.4429 16.5095 13.163 16.712C12.998 16.8314 12.8064 16.914 12.6278 17.0152C12.6019 17.0298 12.5626 17.0551 12.5622 17.0762C12.5575 17.3194 12.5591 17.5628 12.5591 17.8209C12.7385 17.7741 12.7829 17.9137 12.8366 18.0187C12.9014 18.1455 12.9878 18.1815 13.1255 18.1752C13.3746 18.1638 13.6247 18.1713 13.8744 18.176C13.9447 18.1774 13.9967 18.1672 14.0313 18.0972C14.0431 18.0736 14.0828 18.0508 14.1099 18.0504C14.3596 18.0474 14.6093 18.0494 14.8588 18.0504C14.8679 18.0506 14.8768 18.0573 14.8952 18.0649Z" fill="#010206"/>
</g>
<defs>
<clipPath id="clip0">
<rect width="24" height="24" fill="white"/>
</clipPath>
</defs>
</svg>