<svg width="24" height="24" viewBox="0 0 24 24" fill="none" xmlns="http://www.w3.org/2000/svg">
<g clip-path="url(#clip0_860_377)">
<path d="M6.30273 23.9965C4.26217 23.9965 2.22161 23.9974 0.181049 23.9992C0.0464286 23.9992 -0.00378437 23.9734 0.000220355 23.8262C0.0100781 23.3128 0.0100781 22.8004 0.000220355 22.2887C-0.0028602 22.1347 0.0467384 22.1055 0.1906 22.1055C4.10291 22.1095 8.01521 22.1209 11.9275 22.1055C14.9283 22.0931 17.4657 20.9801 19.4955 18.7673C20.8559 17.2837 21.6769 15.5276 21.9908 13.5365C22.0636 13.0763 22.1021 12.6113 22.106 12.1454C22.106 12.0175 22.151 11.9972 22.2643 11.9981C22.788 12.0037 23.3102 12.0055 23.8329 11.9981C23.9688 11.996 24.0039 12.0317 24.0021 12.1675C23.9762 13.9184 23.5961 15.5883 22.8336 17.1642C21.6402 19.6321 19.8128 21.488 17.3709 22.7313C16.1405 23.3562 14.8082 23.7559 13.437 23.9115C12.8975 23.9724 12.3549 24.0017 11.812 23.9992C9.97537 23.9955 8.13895 23.9946 6.30273 23.9965Z" fill="#33CB98"/>
<path d="M17.6938 0.00369938C19.7343 0.00369938 21.7749 0.00246385 23.8155 0C23.9649 0 24.0025 0.0378816 24.0003 0.184788C23.9909 0.692341 23.9909 1.19979 24.0003 1.70714C24.0031 1.85527 23.9633 1.8947 23.8155 1.89439C20.9701 1.88967 18.1247 1.88854 15.2792 1.891C14.2011 1.891 13.1256 1.88084 12.0493 1.89285C9.06114 1.92642 6.53263 3.02684 4.51086 5.23013C3.14617 6.71706 2.32366 8.47841 2.01283 10.4754C1.94206 10.9359 1.90376 11.4009 1.89823 11.8668C1.89823 11.974 1.86743 12.0036 1.76023 12.0023C1.22729 11.9968 0.693736 11.9949 0.1608 12.0023C0.0264877 12.0045 0.00215237 11.9595 0.0040007 11.8369C0.0283371 10.0858 0.407861 8.41589 1.16999 6.83964C2.36586 4.36717 4.19089 2.50902 6.64506 1.26519C7.87134 0.643817 9.19854 0.245842 10.5645 0.089928C11.1193 0.0274876 11.6773 -0.00192089 12.2357 0.00184969C14.0546 0.0049295 15.874 0.00554726 17.6938 0.00369938Z" fill="#33CB98"/>
<path d="M17.6859 5.13638H12.0254C10.5489 5.13278 9.11043 5.60443 7.92284 6.48157C6.73525 7.35871 5.86161 8.59474 5.43118 10.0068C5.2476 10.6098 5.14636 11.2348 5.13021 11.8648C5.12682 11.9689 5.10526 12.0047 4.99497 12.0034C4.45649 11.9976 3.91678 11.9967 3.37984 12.0034C3.25846 12.005 3.23752 11.964 3.23937 11.8547C3.27017 9.95535 3.85548 8.24268 5.00237 6.73203C6.35103 4.95344 8.13406 3.84779 10.3203 3.39783C10.8475 3.29057 11.3842 3.23712 11.9222 3.2383C15.8805 3.2383 19.8386 3.2383 23.7965 3.2383C23.9949 3.2383 23.9949 3.2383 23.9949 3.43633C23.9949 3.93865 23.9891 4.44096 23.9986 4.94328C24.0014 5.09388 23.9678 5.14101 23.807 5.14039C21.7671 5.13423 19.7265 5.13638 17.6859 5.13638Z" fill="#33CB98"/>
<path d="M6.31498 18.8652C8.23273 18.8652 10.1504 18.8652 12.0679 18.8652C15.2467 18.8652 18.103 16.519 18.725 13.4026C18.8121 12.9814 18.8605 12.5532 18.8698 12.1232C18.8698 12.0161 18.9095 12 19.0035 12C19.542 12.0037 20.0817 12.0059 20.6186 12C20.7381 11.9985 20.7619 12.0361 20.7606 12.1476C20.7462 13.4269 20.4704 14.6487 19.9002 15.7919C18.6592 18.2804 16.6857 19.8628 13.9797 20.5391C13.342 20.6939 12.6878 20.7698 12.0316 20.7652H0.202231C0.00415145 20.7652 0.00415355 20.7652 0.00415355 20.5668C0.00415355 20.0593 0.00846709 19.5505 0.00107375 19.0445C-0.00108264 18.9074 0.0318781 18.8634 0.176972 18.8637C2.22267 18.8678 4.26867 18.8683 6.31498 18.8652Z" fill="#33CB98"/>
<path d="M17.8387 8.30866H12.0851C10.2275 8.30866 8.7467 9.5144 8.37179 11.3339C8.33424 11.5042 8.31657 11.6783 8.31912 11.8526C8.32189 11.9576 8.29139 12.0047 8.17032 12.0032C7.62691 11.9961 7.0832 11.9973 6.53979 12.0032C6.43567 12.0032 6.41071 11.9724 6.41441 11.8729C6.46431 10.471 6.95258 9.24553 7.90509 8.21442C8.79506 7.25106 9.89821 6.67698 11.1936 6.47464C11.4472 6.43729 11.7034 6.41958 11.9597 6.42167C15.9084 6.42167 19.8569 6.42043 23.8054 6.41797C23.9616 6.41797 24.0032 6.45678 24.0001 6.61292C23.9896 7.1254 23.9918 7.63818 24.0001 8.15066C24.0019 8.27817 23.9693 8.31266 23.8393 8.31235C21.8388 8.30784 19.8386 8.30661 17.8387 8.30866Z" fill="#33CB98"/>
<path d="M6.29067 17.5791H0.215196C-0.0213909 17.5791 0.0054116 17.6028 0.00510354 17.362C0.00510354 16.8597 0.0103403 16.3571 0.00109867 15.8547C-0.00167383 15.7143 0.0423771 15.6884 0.173301 15.6884C4.09588 15.6921 8.01845 15.693 11.941 15.6912C13.6212 15.6912 15.0493 14.6441 15.532 13.0579C15.622 12.7629 15.6821 12.4617 15.6796 12.1522C15.6796 12.0345 15.7175 11.9954 15.8404 11.9982C16.3733 12.0053 16.9069 12.0043 17.4401 11.9982C17.551 11.9982 17.5911 12.0191 17.5865 12.1395C17.5301 13.5523 17.0341 14.7839 16.0659 15.8172C15.1802 16.7621 14.0888 17.3263 12.8107 17.5262C12.5468 17.5648 12.2804 17.5828 12.0137 17.5801L6.29067 17.5791Z" fill="#33CB98"/>
<path d="M13.5883 11.9803C13.5883 12.7921 12.9499 13.4278 12.135 13.4278C11.313 13.4278 10.6791 12.7909 10.6807 11.967C10.6807 11.1478 11.3216 10.518 12.1488 10.5195C12.9563 10.5211 13.5892 11.1635 13.5883 11.9803Z" fill="#33CB98"/>
</g>
<defs>
<clipPath id="clip0_860_377">
<rect width="24" height="24" fill="white"/>
</clipPath>
</defs>
</svg>