<svg width="24" height="24" viewBox="0 0 24 24" fill="none" xmlns="http://www.w3.org/2000/svg">
<path d="M12 24C18.6274 24 24 18.6274 24 12C24 5.37258 18.6274 0 12 0C5.37258 0 0 5.37258 0 12C0 18.6274 5.37258 24 12 24Z" fill="#5B6DEE"/>
<path d="M9.97524 11.2661C9.55683 11.2637 9.13909 11.2997 8.72724 11.3735C9.06624 8.2381 11.6792 5.86402 14.7901 5.86426C16.6949 5.86426 18 6.7969 18 8.72794C18 10.659 16.4335 11.5916 14.148 11.5916C12.461 11.5915 11.6624 11.2661 9.97524 11.2661ZM9.852 12.4097C7.5666 12.4097 6 13.3423 6 15.2733C6 17.2044 7.30512 18.137 9.20988 18.137C12.3211 18.137 14.9339 15.7632 15.2728 12.6278C14.8609 12.7016 14.4432 12.7376 14.0248 12.7352C12.3376 12.7351 11.539 12.4097 9.852 12.4097Z" fill="white"/>
</svg>