<svg width="24" height="24" viewBox="0 0 24 24" fill="none" xmlns="http://www.w3.org/2000/svg">
<g clip-path="url(#clip0_4386_196382)">
<path d="M12.0003 24.0006C18.6279 24.0006 24.0006 18.6279 24.0006 12.0003C24.0006 5.37273 18.6279 0 12.0003 0C5.37273 0 0 5.37273 0 12.0003C0 18.6279 5.37273 24.0006 12.0003 24.0006Z" fill="#3847AC"/>
<path d="M9.29693 10.8551C9.50363 10.4308 9.69517 10.0544 9.8667 9.6707C9.96429 9.4531 10.1025 9.40037 10.3389 9.40219C12.4102 9.41673 14.4814 9.41875 16.5524 9.40825C16.6186 9.4018 16.6827 9.38165 16.7408 9.3491C16.7988 9.31654 16.8494 9.27228 16.8894 9.21913C17.3852 8.49177 17.8653 7.75834 18.3441 7.02007C18.4047 6.92793 18.4738 6.7564 18.4332 6.70427C18.3726 6.62305 18.2156 6.57759 18.0999 6.57698C14.6649 6.57152 11.2299 6.57698 7.79553 6.57031C7.56399 6.57031 7.42761 6.64972 7.31062 6.85035C6.7554 7.82441 6.20139 8.79908 5.61344 9.75556C5.40554 10.0962 5.44433 10.3617 5.65163 10.6708C6.20503 11.4909 6.75358 12.3147 7.2882 13.1493C7.43185 13.3742 7.59126 13.4524 7.85493 13.4524C9.98671 13.4439 12.1185 13.4524 14.2503 13.4524C14.3648 13.4524 14.4794 13.4645 14.6467 13.4736C14.4539 13.87 14.2618 14.201 14.1278 14.558C14.0109 14.8659 13.8248 14.9453 13.512 14.9435C11.4408 14.9332 9.36967 14.9435 7.2979 14.9435C7.08999 14.9435 6.93906 14.9841 6.82814 15.1859C6.49355 15.7969 6.13775 16.3982 5.79346 17.0044C5.61708 17.3141 5.6783 17.4287 6.03107 17.4287C9.39553 17.4335 12.76 17.4335 16.1245 17.4287C16.1996 17.4216 16.2723 17.3988 16.338 17.3617C16.4037 17.3246 16.4609 17.2741 16.5057 17.2135C17.1361 16.2382 17.7301 15.2393 18.3732 14.2731C18.5848 13.9561 18.5551 13.7142 18.3817 13.4245C17.9386 12.6771 17.4949 11.9304 17.0737 11.1715C16.9476 10.9442 16.8033 10.8721 16.5494 10.8733C14.2763 10.8836 12.0033 10.8812 9.72971 10.8818C9.60364 10.8745 9.47696 10.8648 9.29693 10.8551Z" fill="black"/>
<path d="M9.29694 10.8554C9.47878 10.8639 9.60364 10.8748 9.73033 10.8748C12.0033 10.8748 14.2764 10.8748 16.55 10.8663C16.8039 10.8663 16.9482 10.9373 17.0743 11.1646C17.4986 11.9235 17.9392 12.6702 18.3823 13.4176C18.5551 13.7091 18.5854 13.951 18.3738 14.2662C17.7307 15.2324 17.1367 16.2313 16.5063 17.2066C16.4615 17.2672 16.4043 17.3177 16.3386 17.3548C16.273 17.3919 16.2002 17.4147 16.1251 17.4217C12.761 17.4306 9.39655 17.4306 6.03168 17.4217C5.6789 17.4217 5.61768 17.3047 5.79407 16.9974C6.13835 16.3913 6.49416 15.793 6.82875 15.1821C6.93967 14.979 7.0906 14.9396 7.2985 14.9396C9.37028 14.9396 11.4414 14.9305 13.5126 14.9396C13.8272 14.9396 14.0115 14.862 14.1285 14.5541C14.2624 14.1989 14.4546 13.8661 14.6473 13.4697C14.48 13.4606 14.3655 13.4491 14.2509 13.4485C12.1191 13.4485 9.98732 13.4412 7.85554 13.4485C7.59308 13.4485 7.43125 13.3733 7.2888 13.1454C6.75662 12.3108 6.20806 11.487 5.65223 10.6669C5.44493 10.3602 5.40614 10.0923 5.61405 9.75166C6.19897 8.79518 6.75298 7.82051 7.31123 6.84644C7.42518 6.64581 7.56157 6.56641 7.79614 6.56641C11.2317 6.57186 14.6667 6.56641 18.1005 6.57307C18.2162 6.57307 18.3702 6.61914 18.4338 6.70036C18.4745 6.75249 18.4048 6.92403 18.3447 7.01616C17.8677 7.75444 17.3877 8.49029 16.89 9.21523C16.85 9.26838 16.7994 9.31264 16.7414 9.3452C16.6834 9.37775 16.6192 9.39789 16.553 9.40434C14.4816 9.41364 12.4105 9.41162 10.3395 9.39828C10.1031 9.39828 9.9649 9.4492 9.86731 9.6668C9.69517 10.0547 9.50363 10.4293 9.29694 10.8554Z" fill="url(#paint0_linear_4386_196382)"/>
</g>
<defs>
<linearGradient id="paint0_linear_4386_196382" x1="6.5" y1="18" x2="18.5" y2="6.5" gradientUnits="userSpaceOnUse">
<stop stop-color="#B145F0"/>
<stop stop-color="#B046ED"/>
<stop offset="1" stop-color="#00F1A4"/>
</linearGradient>
<clipPath id="clip0_4386_196382">
<rect width="24" height="24" fill="white"/>
</clipPath>
</defs>
</svg>