<svg width="24" height="24" viewBox="0 0 24 24" fill="none" xmlns="http://www.w3.org/2000/svg">
<g clip-path="url(#clip0)">
<path d="M12.0005 24L0 11.9995L12.0005 0L24 11.9995L12.0005 24ZM0.405938 11.9995L12.0005 23.595L23.595 11.9995L12.0005 0.404982L0.405938 11.9995Z" fill="#F05B25"/>
<path d="M18.3924 19.2467C19.191 19.2467 19.8385 18.5992 19.8385 17.8006C19.8385 17.0019 19.191 16.3545 18.3924 16.3545C17.5937 16.3545 16.9463 17.0019 16.9463 17.8006C16.9463 18.5992 17.5937 19.2467 18.3924 19.2467Z" fill="#1B1F51"/>
<path d="M5.60771 19.2467C6.40637 19.2467 7.05381 18.5992 7.05381 17.8006C7.05381 17.0019 6.40637 16.3545 5.60771 16.3545C4.80906 16.3545 4.16162 17.0019 4.16162 17.8006C4.16162 18.5992 4.80906 19.2467 5.60771 19.2467Z" fill="#1B1F51"/>
<path d="M18.3924 7.6461C19.191 7.6461 19.8385 6.99866 19.8385 6.2C19.8385 5.40135 19.191 4.75391 18.3924 4.75391C17.5937 4.75391 16.9463 5.40135 16.9463 6.2C16.9463 6.99866 17.5937 7.6461 18.3924 7.6461Z" fill="#1B1F51"/>
<path d="M5.60771 7.6461C6.40637 7.6461 7.05381 6.99866 7.05381 6.2C7.05381 5.40135 6.40637 4.75391 5.60771 4.75391C4.80906 4.75391 4.16162 5.40135 4.16162 6.2C4.16162 6.99866 4.80906 7.6461 5.60771 7.6461Z" fill="#1B1F51"/>
<path d="M20.6976 11.9991L11.9993 3.30078L3.3009 11.9991L11.9993 20.6975L20.6976 11.9991Z" fill="#1B1F51"/>
<path d="M9.26877 13.8248C10.0114 14.1876 10.8245 14.3833 11.6509 14.3979C12.4236 14.3979 12.8162 14.1524 12.8162 13.735C12.8162 13.3797 12.4341 13.1457 11.4293 12.8639C10.0176 12.4713 8.85041 11.7464 8.85041 10.3108C8.85041 8.81312 10.2 7.70801 12.3482 7.70801C13.4772 7.70801 14.2384 7.90477 14.8764 8.17508L14.3492 9.98986C13.7055 9.71132 13.0123 9.56514 12.3109 9.56004C11.6242 9.56004 11.2316 9.78068 11.2316 10.1331C11.2316 10.5754 11.7588 10.7225 12.8391 11.0663C14.4476 11.5811 15.2079 12.3548 15.2079 13.607C15.2079 14.9939 14.1161 16.27 11.4771 16.27C10.3844 16.27 9.31653 15.9758 8.78833 15.7055L9.26877 13.8248Z" fill="white"/>
</g>
<defs>
<clipPath id="clip0">
<rect width="24" height="24" fill="white"/>
</clipPath>
</defs>
</svg>