<svg width="24" height="24" viewBox="0 0 24 24" fill="none" xmlns="http://www.w3.org/2000/svg">
<g clip-path="url(#clip0_4353:196317)">
<path d="M11.797 19.7732C8.20867 19.7732 5.29471 16.8144 5.29471 13.1708C5.29471 9.62873 11.1809 3.37301 11.4307 3.11094L11.7387 2.78125L12.0551 3.10249C12.3132 3.36455 18.2993 9.62029 18.2993 13.1624C18.2993 16.8144 15.3854 19.7732 11.797 19.7732ZM11.7471 4.05774C11.2309 4.62414 10.1486 5.84993 9.07456 7.28705C7.16798 9.84007 6.1606 11.8689 6.1606 13.1624C6.1606 16.3156 8.69158 18.8855 11.797 18.8855C14.9025 18.8855 17.4334 16.3156 17.4334 13.1624C17.4334 11.8689 16.4094 9.84007 14.4695 7.28705C13.3789 5.8584 12.2716 4.62414 11.7471 4.05774Z" fill="url(#paint0_linear_4353:196317)"/>
<path d="M11.7971 21.8864C7.05984 21.8864 3.21341 17.9724 3.21341 13.1707C3.21341 8.47045 9.67406 1.91038 9.94882 1.63986C10.1153 1.47079 10.3984 1.47079 10.5649 1.63986C10.7314 1.80894 10.7314 2.09636 10.5649 2.26543C10.4983 2.33306 4.08759 8.84241 4.08759 13.1707C4.08759 17.4905 7.55104 21.0073 11.8054 21.0073C16.0598 21.0073 19.5233 17.4905 19.5233 13.1707C19.5233 11.3954 18.391 8.94383 16.243 6.06114C14.5945 3.85474 12.9377 2.1809 12.921 2.16399C12.7462 1.99492 12.7462 1.71595 12.921 1.53842C13.0876 1.36089 13.3623 1.36089 13.5372 1.53842C13.8202 1.81739 20.3974 8.46198 20.3974 13.1707C20.3808 17.9724 16.5344 21.8864 11.7971 21.8864Z" fill="url(#paint1_linear_4353:196317)"/>
<path d="M11.797 23.9999C6.03566 23.9999 1.34836 19.2405 1.34836 13.3906C1.34836 10.9728 2.54724 7.99711 4.90337 4.55646C6.64345 2.02037 8.35017 0.211281 8.42512 0.135198C8.59163 -0.0423292 8.86636 -0.0423292 9.04119 0.126744C9.21603 0.295818 9.21603 0.574791 9.04952 0.752318C9.03287 0.769224 7.30948 2.59522 5.61105 5.07217C3.38813 8.30991 2.21422 11.1842 2.21422 13.3906C2.21422 18.7502 6.51021 23.1207 11.797 23.1207C17.0837 23.1207 21.3797 18.7586 21.3797 13.3906C21.3797 11.1842 20.1975 8.30991 17.9579 5.07217C16.2429 2.59522 14.5028 0.769224 14.4861 0.752318C14.3196 0.574791 14.3196 0.295818 14.4945 0.126744C14.6693 -0.0423292 14.9441 -0.0423292 15.1106 0.135198C15.402 0.439529 22.2456 7.65897 22.2456 13.3906C22.2456 19.2405 17.5583 23.9999 11.797 23.9999Z" fill="url(#paint2_linear_4353:196317)"/>
</g>
<defs>
<linearGradient id="paint0_linear_4353:196317" x1="11.797" y1="19.7721" x2="11.797" y2="2.78021" gradientUnits="userSpaceOnUse">
<stop stop-color="#05AAC5"/>
<stop offset="1" stop-color="#71E0EC"/>
</linearGradient>
<linearGradient id="paint1_linear_4353:196317" x1="11.8054" y1="21.8854" x2="11.8054" y2="1.40424" gradientUnits="userSpaceOnUse">
<stop stop-color="#05AAC5"/>
<stop offset="1" stop-color="#71E0EC"/>
</linearGradient>
<linearGradient id="paint2_linear_4353:196317" x1="11.797" y1="23.9989" x2="11.797" y2="-6.05132e-05" gradientUnits="userSpaceOnUse">
<stop stop-color="#05AAC5"/>
<stop offset="1" stop-color="#71E0EC"/>
</linearGradient>
<clipPath id="clip0_4353:196317">
<rect width="24" height="24" fill="white"/>
</clipPath>
</defs>
</svg>