<svg width="24" height="24" viewBox="0 0 24 24" fill="none" xmlns="http://www.w3.org/2000/svg">
<path fill-rule="evenodd" clip-rule="evenodd" d="M7.44694 13.9488C7.36193 14.0076 7.30426 14.054 7.24073 14.0904C6.37865 14.5854 5.51345 15.0753 4.65459 15.576C4.47799 15.6791 4.33088 15.6962 4.14903 15.5892C3.79918 15.3834 3.42187 15.3401 3.02223 15.431C2.21244 15.6151 1.65805 16.5194 1.86867 17.3295C2.09853 18.2127 2.98999 18.7338 3.82641 18.473C4.54497 18.2489 4.9107 17.7446 4.9593 17.0082C4.97411 16.7844 5.05984 16.65 5.2553 16.5393C6.21411 15.9966 7.16706 15.4436 8.11811 14.8871C8.29936 14.7812 8.45673 14.7659 8.65303 14.8576C9.09841 15.066 9.58414 15.159 10.0586 15.0514C10.4865 14.9544 10.8442 15.0176 11.2221 15.2132C11.4262 15.3186 11.4933 15.4316 11.4921 15.6503C11.4841 17.1265 11.4801 18.6029 11.4933 20.079C11.4957 20.3568 11.4197 20.5235 11.1782 20.6794C10.461 21.1425 10.2843 22.1155 10.7572 22.8281C11.2362 23.5505 12.2073 23.7526 12.926 23.2798C13.9026 22.6372 13.8767 21.232 12.874 20.6199C12.7416 20.5389 12.6358 20.4683 12.6367 20.2819C12.6435 18.7643 12.6426 17.2466 12.6379 15.729C12.6373 15.563 12.7027 15.4889 12.8582 15.4609C13.1187 15.4141 13.381 15.3713 13.6358 15.302C13.8684 15.2387 14.0812 15.2328 14.3125 15.3239C14.9102 15.559 15.5002 15.515 16.0573 15.194C16.2388 15.0895 16.3792 15.0989 16.5577 15.2045C17.3136 15.6517 18.0749 16.09 18.8417 16.518C19.069 16.6449 19.1711 16.7973 19.1751 17.0677C19.1849 17.7735 19.7914 18.4244 20.4849 18.5137C21.2016 18.6059 21.8558 18.2538 22.1592 17.6126C22.4446 17.0091 22.3017 16.2861 21.8032 15.8107C21.312 15.342 20.5918 15.251 19.9636 15.5985C19.787 15.6963 19.6514 15.6894 19.4825 15.5897C18.762 15.1645 18.0388 14.7431 17.308 14.3359C17.1089 14.225 17.0391 14.1181 17.1015 13.8835C17.2852 13.1937 17.1546 12.5608 16.7228 11.9815C16.4264 11.5842 16.1646 11.1612 15.8835 10.7524C15.7628 10.5768 15.7938 10.4589 15.9817 10.3514C17.1609 9.6767 18.3373 8.99706 19.5121 8.31467C19.6632 8.22703 19.7881 8.21735 19.9451 8.31312C20.3413 8.55491 20.7675 8.5918 21.2121 8.45521C21.9187 8.23813 22.4007 7.47849 22.2875 6.75121C22.1657 5.96804 21.4806 5.36327 20.7291 5.37532C19.8627 5.38918 19.1924 6.05067 19.1693 6.92637C19.1646 7.10906 19.1155 7.23479 18.9474 7.33079C17.7392 8.02237 16.5343 8.71992 15.3317 9.42094C15.1874 9.50512 15.0886 9.49915 14.9628 9.38153C14.3881 8.84422 13.7045 8.5315 12.9216 8.44876C12.7031 8.42571 12.6375 8.32888 12.6387 8.11073C12.6469 6.6761 12.6461 5.24124 12.6364 3.80673C12.6348 3.55479 12.7177 3.39013 12.9305 3.25341C13.5316 2.86727 13.7784 2.16888 13.5717 1.49724C13.3693 0.839325 12.7697 0.394549 12.0816 0.391908C11.3647 0.389056 10.7724 0.816758 10.5632 1.48816C10.3423 2.19718 10.6022 2.88876 11.2471 3.29473C11.3765 3.37628 11.4912 3.4453 11.4906 3.6318C11.4856 5.20744 11.4915 6.78321 11.481 8.35897C11.4804 8.45783 11.3932 8.59156 11.3064 8.64816C10.9266 8.89652 10.533 9.1241 10.1425 9.35586C9.75787 9.58416 9.31894 9.68553 8.93208 9.47527C7.67285 8.79121 6.43906 8.05998 5.1962 7.34559C5.04217 7.25712 4.97029 7.13377 4.96563 6.94118C4.93829 5.82094 3.90891 5.23467 3.12193 5.41735C2.46784 5.56912 2.02808 5.9364 1.86951 6.58273C1.71142 7.22738 1.90653 7.79121 2.43357 8.19753C2.95966 8.60303 3.54748 8.64792 4.13697 8.33449C4.33112 8.23144 4.47727 8.23288 4.6627 8.34321C5.28181 8.71192 5.91035 9.06464 6.53423 9.42524C6.96933 9.6767 7.40265 9.93091 7.8719 10.2045C6.77602 11.3563 6.66318 12.6089 7.44694 13.9488ZM22.6569 6.95097C22.6567 7.64207 22.3751 8.18774 21.7945 8.56315C21.6124 8.68088 21.546 8.81413 21.547 9.03049C21.5549 10.9794 21.5554 12.9283 21.5475 14.8772C21.5465 15.1018 21.6133 15.236 21.8054 15.3612C22.6622 15.9197 22.9273 17.0694 22.4146 17.9265C21.875 18.8286 20.7632 19.16 19.8474 18.6757C19.6607 18.577 19.5168 18.5827 19.3416 18.6841C17.6284 19.6772 15.9132 20.667 14.1954 21.6521C14.0196 21.7529 14.0055 21.9009 13.9943 22.0712C13.9361 22.9586 13.3103 23.686 12.4607 23.8614C11.3365 24.0933 10.2558 23.3116 10.1542 22.1709C10.1269 21.8674 10.0124 21.6896 9.74378 21.5374C8.09327 20.6022 6.45208 19.6503 4.81267 18.6956C4.62008 18.5834 4.47106 18.5735 4.26653 18.678C3.33542 19.1541 2.23763 18.8254 1.72109 17.9354C1.20348 17.0434 1.45948 15.9308 2.33041 15.3534C2.52718 15.2228 2.60038 15.0759 2.59942 14.8427C2.59166 12.9187 2.59142 10.9948 2.59894 9.07073C2.5999 8.83694 2.52814 8.68912 2.32862 8.56135C1.64193 8.12147 1.34473 7.38165 1.50008 6.5567C1.64157 5.80601 2.22545 5.23658 2.99465 5.07037C3.46282 4.96912 3.90091 5.02715 4.31333 5.25938C4.46856 5.34667 4.59405 5.34738 4.74999 5.25712C6.44181 4.2773 8.13494 3.2995 9.83429 2.3327C10.0635 2.20231 10.1304 2.02488 10.1433 1.78906C10.2004 0.742608 11.1778 -0.0813915 12.2997 0.031922C13.153 0.11825 13.9226 0.883982 13.9846 1.76028C14.0067 2.07491 14.1489 2.24613 14.411 2.39538C16.0523 3.32971 17.6875 4.27467 19.3199 5.22464C19.5155 5.33855 19.6699 5.33795 19.8723 5.23729C21.1716 4.59121 22.6489 5.50512 22.6569 6.95097Z" fill="#2683FF"/>
<path fill-rule="evenodd" clip-rule="evenodd" d="M7.918 12.2483C7.92328 11.1585 8.79432 10.2434 9.89056 10.2206C10.2312 10.2134 10.483 10.1115 10.7313 9.88746C11.9846 8.75445 13.7208 9.18669 14.5819 10.1678C14.8957 10.5254 15.0785 10.9516 15.1703 11.4106C15.2174 11.6448 15.3371 11.7922 15.5271 11.9166C16.0005 12.2263 16.2637 12.6782 16.2132 13.2364C16.1547 13.8804 15.8336 14.3829 15.1807 14.593C14.7989 14.7159 14.4095 14.7153 14.0486 14.5153C13.8712 14.4171 13.7107 14.4158 13.5285 14.4881C12.6908 14.8202 11.8761 14.7751 11.1 14.3056C10.9124 14.1921 10.7365 14.1843 10.5332 14.2426C9.20447 14.6227 7.91122 13.6341 7.918 12.2483Z" fill="#2683FF"/>
<path fill-rule="evenodd" clip-rule="evenodd" d="M20.7408 16.5158C20.9966 16.5221 21.2086 16.7349 21.1992 16.9755C21.1899 17.2106 20.9572 17.4215 20.7135 17.4154C20.4649 17.409 20.2773 17.2141 20.2793 16.9639C20.2813 16.6982 20.476 16.5093 20.7408 16.5158Z" fill="#2683FF"/>
<path fill-rule="evenodd" clip-rule="evenodd" d="M11.6077 1.92457C11.6279 1.67191 11.8458 1.4903 12.1037 1.51144C12.3639 1.53257 12.5409 1.74547 12.5142 2.00493C12.4892 2.24541 12.2698 2.4343 12.0374 2.4152C11.792 2.39514 11.5887 2.1629 11.6077 1.92457Z" fill="#2683FF"/>
<path fill-rule="evenodd" clip-rule="evenodd" d="M20.7245 7.40299C20.473 7.40228 20.287 7.21804 20.2833 6.96598C20.2793 6.69875 20.4644 6.51284 20.7334 6.51367C20.9857 6.51451 21.2012 6.72239 21.1998 6.96347C21.1985 7.2086 20.9874 7.40371 20.7245 7.40299Z" fill="#2683FF"/>
<path fill-rule="evenodd" clip-rule="evenodd" d="M3.84313 6.96176C3.83943 7.22146 3.66223 7.40175 3.4091 7.40331C3.13149 7.4051 2.92838 7.20629 2.93782 6.94205C2.94689 6.68987 3.15167 6.50671 3.41698 6.51387C3.67011 6.52068 3.84683 6.70635 3.84313 6.96176Z" fill="#2683FF"/>
<path fill-rule="evenodd" clip-rule="evenodd" d="M12.0543 21.5157C12.3066 21.5123 12.5223 21.7177 12.5199 21.9592C12.5174 22.2179 12.3244 22.4038 12.0599 22.4026C11.7958 22.4013 11.6084 22.2137 11.6094 21.9516C11.6103 21.712 11.8074 21.5189 12.0543 21.5157Z" fill="#2683FF"/>
<path fill-rule="evenodd" clip-rule="evenodd" d="M3.40284 16.5176C3.65156 16.5169 3.83818 16.7021 3.84248 16.9535C3.8469 17.216 3.65215 17.4182 3.39735 17.4158C3.14254 17.4137 2.93753 17.2101 2.93848 16.9607C2.93956 16.7059 3.13621 16.5183 3.40284 16.5176Z" fill="#2683FF"/>
</svg>