<svg width="24" height="24" viewBox="0 0 24 24" fill="none" xmlns="http://www.w3.org/2000/svg">
<path d="M12 8.24107C13.8774 8.82366 15.1514 9.53571 16.2912 10.3125C17.8334 8.56473 17.9005 6.36384 17.7664 4.875C16.4924 6.36384 14.5479 7.52902 12 8.24107Z" fill="#7012FE"/>
<path d="M3.53804 23.8125C4.8116 22.0888 6.40355 21.7058 9.33273 21.0035C10.4153 20.7482 11.6888 20.429 13.2171 19.9821C16.783 18.9606 17.6745 16.9177 17.8656 15.8324C18.184 14.3641 17.6745 12.8319 16.5283 11.9382C14.1086 9.95912 11.7525 9.19303 8.25021 8.42694L7.48607 8.29926L8.25021 8.23542C12.5166 7.7247 15.5095 6.32021 17.1014 4.08579C18.3113 2.42594 18.375 0.766086 18.375 0C17.4198 1.46833 15.5732 1.91521 12.5803 2.61746C11.3704 2.93666 9.96951 3.25586 8.37756 3.70275C4.8116 4.7242 3.92011 6.76709 3.72907 7.85238C3.41068 9.32071 3.92011 10.8529 5.06631 11.7466C7.48607 13.7257 9.84215 14.4918 13.3444 15.2579L14.1086 15.4494L13.3444 15.5132C11.1794 15.7686 9.07802 16.2793 7.48607 16.8539C5.44838 17.5561 4.17482 18.4499 3.66539 19.4713C2.83758 20.812 3.28333 23.0464 3.53804 23.8125Z" fill="#7012FE"/>
</svg>