<svg width="24" height="24" viewBox="0 0 24 24" fill="none" xmlns="http://www.w3.org/2000/svg">
<circle cx="12" cy="12" r="12" fill="white"/>
<path fill-rule="evenodd" clip-rule="evenodd" d="M12 22.5C17.799 22.5 22.5 17.799 22.5 12C22.5 6.20101 17.799 1.5 12 1.5C6.20101 1.5 1.5 6.20101 1.5 12C1.5 17.799 6.20101 22.5 12 22.5ZM12 24C18.6274 24 24 18.6274 24 12C24 5.37258 18.6274 0 12 0C5.37258 0 0 5.37258 0 12C0 18.6274 5.37258 24 12 24Z" fill="#31D8A4"/>
<path d="M11.6695 8.48318C10.8542 8.58252 10.2509 9.03951 10.2509 9.8409C10.2509 10.384 10.5824 10.8145 11.3248 11.0926C11.4309 11.1324 11.5436 11.1721 11.6695 11.2052V8.48318Z" fill="#0E052F"/>
<path d="M12.5644 15.5499C13.5057 15.4705 14.1553 14.9605 14.1553 14.0929C14.1553 13.4306 13.8172 12.9868 12.7633 12.6689C12.7301 12.6623 12.697 12.654 12.6638 12.6457C12.6307 12.6375 12.5975 12.6292 12.5644 12.6226V15.5499Z" fill="#0E052F"/>
<path fill-rule="evenodd" clip-rule="evenodd" d="M12 21.375C17.1777 21.375 21.375 17.1777 21.375 12C21.375 6.82233 17.1777 2.625 12 2.625C6.82233 2.625 2.625 6.82233 2.625 12C2.625 17.1777 6.82233 21.375 12 21.375ZM12.5644 16.5898V17.4375H11.6562V16.603C9.71402 16.4573 8.82576 15.2983 8.8125 14.0664H10.0322C10.0852 14.8347 10.6354 15.4109 11.6695 15.5433V12.4173L11.1525 12.2848C10.072 12.0199 9.03125 11.3443 9.03125 9.93362C9.03125 8.39708 10.1847 7.57582 11.6562 7.43012V6.5625H12.571V7.43012C14.0492 7.5692 15.1761 8.46993 15.2225 9.89388H14.0227C13.9962 9.18522 13.4593 8.60239 12.5644 8.48318V11.4238L13.0947 11.5563C14.4735 11.9007 15.375 12.5563 15.375 14.0002C15.375 15.5963 14.1818 16.4573 12.5644 16.5898Z" fill="#0E052F"/>
</svg>