<svg width="25" height="24" viewBox="0 0 25 24" fill="none" xmlns="http://www.w3.org/2000/svg">
<path d="M5 2.5L23.4049 15.0133L18.8619 21.6543L0.492676 9.15365L5 2.5Z" fill="url(#paint0_linear)"/>
<path d="M23.6043 15.038C22.0342 17.33 16.7351 16.4331 11.7303 12.8456C6.62741 9.35764 3.87969 4.67386 5.35168 2.38179C6.9218 0.0897317 12.221 0.986626 17.2257 4.5742C22.3286 7.96247 25.0763 12.7459 23.6043 15.038Z" fill="url(#paint1_linear)"/>
<path d="M18.8415 21.5931C17.2663 23.8702 11.9502 22.9791 6.9294 19.415C1.9086 15.8508 -0.946367 11.2966 0.628787 8.92045C2.20394 6.64334 7.52008 7.53438 12.5409 11.0986C17.5617 14.6627 20.3182 19.316 18.8415 21.5931Z" fill="url(#paint2_linear)"/>
<path d="M23.7064 14.8443L19.0775 21.945C17.4674 24.3467 12.0334 23.3025 6.90135 19.6477C5.89506 18.9168 4.9894 18.1858 4.08374 17.3505C4.78814 17.246 5.6938 16.8284 6.59946 15.7841C8.20953 14.009 9.01456 13.5913 9.71896 13.6957C10.4234 13.6957 11.2284 14.4266 12.5366 16.2018C13.8447 17.977 15.6561 18.4991 16.763 17.5593C16.8636 17.4549 16.9642 17.4549 17.0649 17.3505C17.9705 16.6195 18.2724 16.3062 19.9831 12.9647C20.3856 12.1294 21.7944 10.7719 23.7064 11.3984C24.2095 12.7559 24.2095 13.9045 23.7064 14.8443Z" fill="#0E0F23"/>
<path fill-rule="evenodd" clip-rule="evenodd" d="M22.4968 14.6873C21.1221 16.6632 16.3107 15.6752 11.6957 12.4151C6.98249 9.15494 4.23313 5.00566 5.60781 3.02981C6.98249 1.05396 11.7939 2.04188 16.4089 5.30203C21.0239 8.56218 23.7733 12.7115 22.4968 14.6873ZM18.1764 11.724C17.4891 12.7119 15.1325 12.2179 12.7759 10.6372C10.5175 9.05656 9.1428 6.98192 9.83014 5.994C10.5175 5.00607 12.8741 5.50003 15.2307 7.08071C17.4891 8.66139 18.8638 10.736 18.1764 11.724Z" fill="white"/>
<path d="M4.62523 4.51209C4.62523 4.42966 4.53596 4.34722 4.4467 4.42966C4.35743 4.51209 4.26816 4.51209 4.26816 4.59453C4.35743 4.84185 4.4467 5.00673 4.4467 5.17161C4.4467 5.25404 4.53596 5.33648 4.62523 5.25404C4.7145 5.25404 4.80377 5.17161 4.7145 5.08917C4.7145 4.92429 4.7145 4.75941 4.62523 4.51209Z" fill="white"/>
<path d="M5.24724 6.02335C5.24724 5.92397 5.15018 5.8246 5.05312 5.92397C4.95605 6.02335 4.95605 6.02335 4.95605 6.12272C6.02375 8.60708 8.25619 11.2902 11.1681 13.2777C11.2651 13.3771 11.3622 13.2777 11.4593 13.2777C11.5563 13.1783 11.4593 13.0789 11.4593 12.9796C8.45032 10.9921 6.31493 8.40833 5.24724 6.02335Z" fill="white"/>
<path d="M17.0415 15.8807C16.95 15.8807 16.8584 15.8807 16.8584 15.97C16.8584 16.0592 16.8584 16.1485 16.95 16.1485C17.2246 16.2378 17.5909 16.327 17.8655 16.4163C17.9571 16.4163 18.0486 16.4163 18.0486 16.327C18.0486 16.2378 18.0486 16.1485 17.9571 16.1485C17.6824 16.0592 17.3162 15.97 17.0415 15.8807Z" fill="white"/>
<path d="M18.8351 16.2047C18.7394 16.2047 18.6438 16.294 18.6438 16.3832C18.6438 16.4725 18.7394 16.5618 18.8351 16.5618C19.6002 16.651 20.461 16.7403 21.1306 16.651C21.2262 16.651 21.3218 16.5618 21.3218 16.4725C21.3218 16.3832 21.2262 16.294 21.1306 16.294C20.3654 16.3832 19.6002 16.294 18.8351 16.2047Z" fill="white"/>
<defs>
<linearGradient id="paint0_linear" x1="1.19331" y1="2.36079" x2="3.7547" y2="14.9508" gradientUnits="userSpaceOnUse">
<stop stop-color="#03B8FF"/>
<stop offset="1" stop-color="#FA52A0"/>
</linearGradient>
<linearGradient id="paint1_linear" x1="3.98865" y1="1.14295" x2="6.32968" y2="13.9984" gradientUnits="userSpaceOnUse">
<stop stop-color="#03B8FF"/>
<stop offset="1" stop-color="#FA52A0"/>
</linearGradient>
<linearGradient id="paint2_linear" x1="-2.20305" y1="2.91832" x2="0.146293" y2="15.6943" gradientUnits="userSpaceOnUse">
<stop stop-color="#03B8FF"/>
<stop offset="1" stop-color="#FA52A0"/>
</linearGradient>
</defs>
</svg>