<svg width="24" height="24" viewBox="0 0 24 24" fill="none" xmlns="http://www.w3.org/2000/svg">
<path d="M11.9998 23.9996C18.6271 23.9996 23.9996 18.6271 23.9996 11.9998C23.9996 5.37249 18.6271 0 11.9998 0C5.37249 0 0 5.37249 0 11.9998C0 18.6271 5.37249 23.9996 11.9998 23.9996Z" fill="url(#paint0_linear)"/>
<path fill-rule="evenodd" clip-rule="evenodd" d="M11.5653 4.32877C10.8685 4.40907 10.2207 4.72697 9.73091 5.22896C9.36315 5.59308 9.01481 5.96691 8.64219 6.33467C8.45568 6.52604 8.26715 6.71214 8.07862 6.90108C7.89008 7.09002 7.68213 7.29069 7.48631 7.48894C7.2905 7.68718 7.12786 7.86115 6.94661 8.04523C6.6634 8.32844 6.3802 8.61164 6.09699 8.89768C5.87973 9.12222 5.66733 9.35405 5.4525 9.57818C5.32586 9.7121 5.18952 9.8363 5.07017 9.9771C4.57762 10.578 4.30842 11.331 4.30835 12.108C4.30835 12.1537 4.30835 12.2007 4.31118 12.246C4.32125 12.6921 4.43836 13.1293 4.65265 13.5208C4.77463 13.7574 4.9159 13.9835 5.07503 14.1969C5.18022 14.3449 5.25668 14.3425 5.39505 14.228C5.42148 14.206 5.44623 14.1821 5.46908 14.1564C5.60543 14.0128 5.73894 13.8696 5.87771 13.7263C6.07353 13.5208 6.2742 13.3157 6.47001 13.1077C6.66583 12.8998 6.87823 12.6708 7.08376 12.456C7.18167 12.3508 7.28605 12.2537 7.38476 12.1501C7.59474 11.928 7.80027 11.699 8.01024 11.4793C8.22022 11.2596 8.43303 11.0541 8.63855 10.8393C8.84408 10.6244 9.09694 10.3614 9.32836 10.1227C9.55978 9.88405 9.756 9.68337 9.97083 9.46369C10.2504 9.17441 10.5227 8.87826 10.7994 8.58939C10.9714 8.41259 11.1482 8.24307 11.3201 8.0687C11.5588 7.83 11.7809 7.59129 12.0152 7.35259C12.2494 7.11389 12.4234 6.95368 12.6241 6.74815C13.0726 6.29502 13.5205 5.8392 13.9677 5.38067C13.9965 5.35221 14.0236 5.32194 14.0486 5.29005C14.1586 5.15128 14.1679 5.12053 14.032 5.02262C13.8244 4.85909 13.6022 4.71512 13.3681 4.59255C12.9543 4.39905 12.5031 4.29878 12.0463 4.29883H12.0237C11.8711 4.29886 11.7187 4.30845 11.5673 4.32755L11.5649 4.32513L11.5653 4.32877ZM15.5176 7.26844H15.4889C15.2929 7.26851 15.0993 7.31129 14.9215 7.39381C14.7438 7.47633 14.5862 7.5966 14.4596 7.74625C14.437 7.77132 14.4131 7.79522 14.388 7.81786L13.6573 8.53437C13.4186 8.77347 13.1605 9.03362 12.9097 9.28446C12.7021 9.49201 12.4942 9.69511 12.2891 9.90306C12.0839 10.111 11.8639 10.3424 11.6417 10.5597C11.4196 10.777 11.1834 11.0047 10.954 11.2285L10.1395 12.0498L8.62561 13.5641C7.9567 14.2357 7.28874 14.906 6.62173 15.5749C6.49307 15.7015 6.49065 15.7181 6.62173 15.854C6.94175 16.1777 7.26663 16.4989 7.57694 16.825C7.76893 17.0285 8.02231 17.1635 8.2983 17.2094C8.55869 17.2617 8.82769 17.2527 9.08399 17.1831C9.27601 17.1356 9.45325 17.0412 9.59983 16.9083L10.3928 16.1425C10.5789 15.9637 10.7678 15.7869 10.9515 15.6052C11.3193 15.2411 11.6822 14.8745 12.05 14.5128C12.3485 14.2191 12.6544 13.9278 12.9574 13.6341L14.2007 12.4224C14.5875 12.0425 14.9767 11.6606 15.3683 11.2807C15.3944 11.2418 15.4306 11.2109 15.4731 11.1913C15.5155 11.1717 15.5625 11.164 15.609 11.1692C15.6555 11.1745 15.6996 11.1923 15.7366 11.2209C15.7737 11.2494 15.8022 11.2876 15.819 11.3312C16.0181 11.6219 16.1246 11.9661 16.1245 12.3184C16.1244 12.3787 16.1213 12.4389 16.1152 12.4988C16.0831 12.854 15.9365 13.1892 15.6976 13.4541C15.4108 13.7623 15.1053 14.0536 14.8076 14.3498C14.5952 14.5598 14.3779 14.7653 14.1651 14.9777C13.8904 15.25 13.6205 15.5271 13.3458 15.7994C13.3054 15.8447 13.2673 15.8925 13.2244 15.9353L12.9546 16.2149C12.7523 16.4172 12.5464 16.6138 12.3477 16.8165C12.1491 17.0192 11.9209 17.2563 11.7085 17.4776C11.6895 17.499 11.668 17.5132 11.649 17.5322C11.4099 17.7543 11.1902 17.9772 10.9633 18.201C10.856 18.3062 10.7533 18.4134 10.6481 18.5186C10.4668 18.7027 10.2803 18.8827 10.106 19.0704C9.99874 19.1825 9.99875 19.2517 10.1254 19.3403C10.3333 19.4999 10.5546 19.6412 10.7869 19.7627C11.3646 20.0239 12.0049 20.115 12.6326 20.0252C13.2556 19.9513 13.84 19.685 14.3047 19.2634C14.6579 18.9531 14.9734 18.6043 15.3028 18.2702C15.5415 18.0311 15.7806 17.7758 16.0359 17.5298L16.7261 16.8347C16.9365 16.6223 17.144 16.4095 17.3568 16.1995C17.5696 15.9896 17.8342 15.7387 18.0729 15.502C18.3116 15.2654 18.5507 15.0246 18.7894 14.7714C18.9798 14.5776 19.1556 14.37 19.3154 14.1503C19.6133 13.7001 19.7994 13.1852 19.8579 12.6485C19.8903 12.382 19.8903 12.1124 19.8579 11.8458C19.7869 11.3715 19.615 10.9179 19.3538 10.5156C19.166 10.2309 18.9412 9.97246 18.6854 9.74689C18.024 9.09026 17.3645 8.42877 16.7176 7.75758C16.5766 7.60056 16.4041 7.47496 16.2114 7.38895C16.0186 7.30294 15.81 7.25843 15.5989 7.25833H15.59L15.5184 7.26803L15.5176 7.26844Z" fill="white"/>
<defs>
<linearGradient id="paint0_linear" x1="1.63512" y1="5.03499" x2="20.8941" y2="18.2122" gradientUnits="userSpaceOnUse">
<stop stop-color="#FF3B3B"/>
<stop offset="1" stop-color="#FF9914"/>
</linearGradient>
</defs>
</svg>