<svg width="24" height="24" viewBox="0 0 24 24" fill="none" xmlns="http://www.w3.org/2000/svg">
<g clip-path="url(#clip0_936_644)">
<path d="M12.0421 3.63467e-05C5.41808 -0.0160893 0.0133704 5.33561 -0.00175752 11.925C-0.0153128 14.2981 0.67595 16.6219 1.98455 18.6023C3.29315 20.5827 5.16025 22.1306 7.34953 23.0501C9.53882 23.9695 11.9519 24.2193 14.2833 23.7677C16.6146 23.3161 18.7596 22.1835 20.4465 20.5132C22.1335 18.8429 23.2867 16.71 23.7601 14.3844C24.2336 12.0589 24.006 9.64526 23.1062 7.44903C22.2064 5.2528 20.6748 3.37271 18.7053 2.04672C16.7358 0.72073 14.4169 0.00845095 12.0421 3.63467e-05ZM10.1259 18.7249C10.1138 19.3387 9.94839 19.501 9.33419 19.509C8.4961 19.5201 7.656 19.5292 6.81993 19.4859C5.98386 19.4425 5.71055 19.1664 5.60969 18.3571C5.35551 16.2752 5.36568 14.1696 5.63996 12.0902C5.71761 11.4785 5.9778 11.2567 6.58494 11.3071C7.31814 11.3666 8.05337 11.4291 8.76438 11.6518C9.5591 11.8998 10.0331 12.4369 10.0825 13.2462C10.141 14.1977 10.0966 15.1551 10.0966 16.1096C10.1148 16.1096 10.1491 17.8531 10.132 18.7249H10.1259ZM11.3079 8.61718C9.81628 8.59601 8.32264 8.56578 6.83808 8.38941C5.9304 8.28157 5.65406 7.9661 5.62784 7.04493C5.61675 6.60954 5.61776 6.17314 5.62784 5.73472C5.65003 4.7571 5.96773 4.42451 6.9571 4.33985C8.62925 4.20077 10.3034 4.11309 11.9816 4.12417C13.6608 4.11409 15.335 4.19976 17.0071 4.33784C18.0156 4.42149 18.3 4.7178 18.3595 5.7065C18.3921 6.22521 18.3874 6.7456 18.3454 7.26363C18.2879 7.96913 17.9955 8.29366 17.2834 8.37227C15.3005 8.57642 13.3069 8.65821 11.3139 8.61718H11.3079ZM18.4342 16.938C18.4089 17.707 18.2678 18.4599 18.2072 19.2238C18.182 19.5322 18.0056 19.6622 17.6687 19.6552C16.4786 19.633 15.2882 19.633 14.0975 19.6552C13.7122 19.6622 13.567 19.5665 13.5781 19.1513C13.6073 18.0789 13.5882 17.0065 13.5882 15.9332C13.5882 14.8598 13.5953 13.7885 13.5882 12.7161C13.5882 12.4138 13.6739 12.2213 13.9402 12.059C14.6664 11.6106 15.4909 11.3453 16.3425 11.286C16.8245 11.2527 17.2996 11.1519 17.7887 11.1751C18.064 11.1892 18.2022 11.3071 18.2204 11.5551C18.2768 12.3523 18.4221 13.1384 18.4422 13.9427C18.4644 14.9435 18.4725 15.9392 18.4402 16.938H18.4342Z" fill="#178DD0"/>
</g>
<defs>
<clipPath id="clip0_936_644">
<rect width="24" height="24" fill="white"/>
</clipPath>
</defs>
</svg>