<svg width="24" height="24" viewBox="0 0 24 24" fill="none" xmlns="http://www.w3.org/2000/svg">
<g clip-path="url(#clip0)">
<path d="M12.0006 24.0012C18.6283 24.0012 24.0012 18.6283 24.0012 12.0006C24.0012 5.37285 18.6283 0 12.0006 0C5.37285 0 0 5.37285 0 12.0006C0 18.6283 5.37285 24.0012 12.0006 24.0012Z" fill="#1B5AFF"/>
<path d="M13.9979 18.7379C13.9979 18.4609 13.9979 18.2281 13.9979 17.9965L14.0302 11.3103C14.0302 10.5306 14.0361 10.5294 14.8301 10.533L18.0539 10.5485L18.0741 6.48902C16.608 6.48186 15.1812 6.46993 13.7556 6.47113C13.4793 6.46295 13.2032 6.49063 12.9341 6.5535C11.0464 7.07288 9.87515 8.60711 9.85844 10.5867C9.83695 13.094 9.83098 15.6014 9.82143 18.1028C9.82143 18.295 9.84172 18.4872 9.85486 18.7105L13.9979 18.7379ZM5.95654 10.4446C8.08539 10.8243 10.422 8.27043 9.92172 6.4938L5.97565 6.47591L5.95654 10.4446Z" fill="black"/>
<path d="M13.9982 18.7386L9.85867 18.7183C9.84554 18.495 9.82405 18.3028 9.82524 18.1106C9.83479 15.6033 9.84076 13.0959 9.86226 10.5945C9.87897 8.61492 11.0503 7.08069 12.9379 6.56132C13.207 6.49845 13.4831 6.47076 13.7594 6.47894C15.185 6.47894 16.6118 6.48967 18.078 6.49684L18.0577 10.5563L14.834 10.5408C14.04 10.5408 14.0388 10.5408 14.034 11.3181L14.0018 18.0043C14.0006 18.2288 13.9994 18.4616 13.9982 18.7386Z" fill="white"/>
<path d="M5.95654 10.4443L5.97565 6.47559L9.92172 6.49348C10.422 8.27489 8.08539 10.824 5.95654 10.4443Z" fill="white"/>
</g>
<defs>
<clipPath id="clip0">
<rect width="24" height="24" fill="white"/>
</clipPath>
</defs>
</svg>