<svg width="24" height="24" viewBox="0 0 24 24" fill="none" xmlns="http://www.w3.org/2000/svg">
<g clip-path="url(#clip0)">
<path d="M15.3788 15.0042H14.3624C14.1741 15.0042 14.0141 14.8536 14.0141 14.6559V11.983L12.2353 13.0936C12.0847 13.1877 11.8965 13.1877 11.7459 13.0936L9.97648 11.983V14.6559C9.97648 14.8442 9.82589 15.0042 9.62824 15.0042H8.62118C8.43295 15.0042 8.27295 14.8536 8.27295 14.6559V9.49829C8.27295 9.24417 8.48001 9.03711 8.73413 9.03711C8.82824 9.03711 8.91295 9.06534 8.98824 9.12182L11.7929 11.0512C11.9059 11.1359 12.0659 11.1359 12.1788 11.0512L14.9835 9.12182C15.1906 8.98064 15.4824 9.03711 15.6235 9.24417C15.68 9.31946 15.6988 9.41358 15.7082 9.49829V14.6559C15.7177 14.8442 15.5671 15.0042 15.3788 15.0042Z" fill="#FF4A4A"/>
<path d="M6.75778 14.9953H0.451899C0.197781 14.9953 -0.00927734 14.7882 -0.00927734 14.5341V9.34824C0.000134422 9.15059 0.150723 9 0.34837 9H1.36484C1.55308 9 1.71308 9.15059 1.71308 9.34824V13.2918H5.53425V9.34824C5.53425 9.16 5.68484 9 5.88249 9H6.87072C7.05896 9 7.21896 9.15059 7.21896 9.34824V14.5341C7.21896 14.7882 7.0119 14.9953 6.75778 14.9953Z" fill="#FF4A4A"/>
<path d="M17.2424 9H23.5483C23.8024 9 24.0095 9.20706 24.0095 9.46118V14.6471C24.0095 14.8353 23.8589 14.9953 23.6707 14.9953H22.6542C22.466 14.9953 22.306 14.8447 22.306 14.6471V10.9294C22.306 10.8071 22.2024 10.7035 22.0801 10.7035H18.7201C18.5977 10.7035 18.4942 10.8071 18.4942 10.9294V14.6471C18.4942 14.8353 18.3436 14.9953 18.146 14.9953H17.1295C16.9412 14.9953 16.7812 14.8447 16.7812 14.6471V9.46118C16.7812 9.20706 16.9883 9 17.2424 9Z" fill="#FF4A4A"/>
<path d="M19.8873 11.7959H20.8944C21.0826 11.7959 21.2426 11.9465 21.2426 12.1441V13.17C21.2426 13.3583 21.092 13.5183 20.8944 13.5183H19.8873C19.6991 13.5183 19.5391 13.3677 19.5391 13.17V12.1347C19.5391 11.9465 19.6991 11.7959 19.8873 11.7959Z" fill="#FF4A4A"/>
</g>
<defs>
<clipPath id="clip0">
<rect width="24" height="24" fill="white"/>
</clipPath>
</defs>
</svg>