<svg width="24" height="24" viewBox="0 0 24 24" fill="none" xmlns="http://www.w3.org/2000/svg">
<circle cx="12" cy="12" r="12" fill="#38F997"/>
<path fill-rule="evenodd" clip-rule="evenodd" d="M7.61883 7.70312H13.4827L17.1016 11.322V16.8936L13.3366 20.6586H8.00847L4 16.6501V11.322L7.61883 7.70312ZM8.46614 9.74872L6.0456 12.1693V15.8028L8.85578 18.613H12.4893L15.056 16.0463V12.1693L12.6354 9.74872H8.46614Z" fill="black"/>
<path fill-rule="evenodd" clip-rule="evenodd" d="M11.613 4H17.4769L21.0957 7.61883V13.1905L17.3308 16.9554H12.0026L7.99414 12.947V7.61883L11.613 4ZM12.4603 6.0456L10.0397 8.46614V12.0997L12.8499 14.9098H16.4834L19.0501 12.3432V8.46614L16.6296 6.0456H12.4603Z" fill="white"/>
</svg>