<svg width="24" height="24" viewBox="0 0 24 24" fill="none" xmlns="http://www.w3.org/2000/svg">
<path d="M7.84328 1.74878C7.53051 1.70057 7.51732 1.69491 7.6645 1.67243C7.94656 1.62932 8.61259 1.68808 9.07155 1.79653C10.143 2.04967 11.118 2.69814 12.1587 3.84982L12.4352 4.15579L12.8307 4.09258C14.497 3.82644 16.1922 4.03796 17.61 4.68894C18 4.86803 18.615 5.22454 18.6919 5.31615C18.7163 5.34534 18.7612 5.53328 18.7917 5.73383C18.897 6.42765 18.8442 6.95948 18.6308 7.3567C18.5146 7.57285 18.5081 7.64136 18.5863 7.82634C18.6486 7.97396 18.8225 8.08322 18.9946 8.08299C19.3469 8.0825 19.7261 7.51642 19.9019 6.72874L19.9717 6.41588L20.1099 6.57154C20.8684 7.42559 21.4641 8.59031 21.5664 9.41937L21.593 9.63554L21.4656 9.43903C21.2462 9.10088 21.0257 8.8707 20.7434 8.68503C20.2345 8.35038 19.6965 8.2365 18.2716 8.16186C16.9846 8.09446 16.2562 7.98521 15.534 7.75113C14.3052 7.35292 13.6857 6.8226 12.226 4.91916C11.5777 4.07372 11.1769 3.60596 10.7783 3.22927C9.87256 2.37332 8.98255 1.92442 7.84328 1.74878Z" fill="#FF005C"/>
<path d="M18.9823 3.63644C19.0148 3.06992 19.0919 2.69625 19.2475 2.355C19.309 2.21993 19.3665 2.10938 19.3755 2.10938C19.3843 2.10938 19.3576 2.20907 19.316 2.33091C19.2031 2.66209 19.1844 3.11508 19.2623 3.64212C19.3611 4.31082 19.4173 4.4073 20.1285 5.12965C20.4619 5.46848 20.85 5.89579 20.9905 6.07925L21.2463 6.41284L20.9905 6.17444C20.6778 5.8829 19.9586 5.31433 19.7998 5.23305C19.6932 5.17855 19.6774 5.1795 19.6117 5.24449C19.5512 5.30439 19.5384 5.39438 19.53 5.81986C19.5169 6.483 19.4259 6.90863 19.2065 7.33421C19.0878 7.56439 19.069 7.51526 19.1764 7.25545C19.2566 7.06146 19.2648 6.97619 19.2643 6.33424C19.2629 5.04441 19.1089 4.73432 18.2055 4.20313C17.9766 4.06856 17.5994 3.8745 17.3674 3.77185C17.1353 3.66919 16.951 3.57978 16.9577 3.57309C16.9833 3.54779 17.8643 3.8034 18.2191 3.939C18.7467 4.14068 18.8337 4.16682 18.8977 4.14249C18.9408 4.12617 18.9616 4.00187 18.9823 3.63644Z" fill="#FF005C"/>
<path d="M8.45086 5.84279C7.81592 4.97397 7.42305 3.64186 7.50811 2.64605L7.5344 2.33789L7.67893 2.3641C7.95035 2.4133 8.41833 2.58642 8.63745 2.71871C9.2388 3.08169 9.49914 3.5596 9.76399 4.78677C9.84158 5.14622 9.94337 5.55299 9.9902 5.69071C10.0656 5.91236 10.3505 6.43011 10.5822 6.76636C10.749 7.00854 10.6382 7.1233 10.2694 7.09021C9.70608 7.03968 8.94308 6.5163 8.45086 5.84279Z" fill="#FF005C"/>
<path d="M18.212 12.3093C15.2448 11.1219 14.1997 10.0912 14.1997 8.35205C14.1997 8.09612 14.2086 7.88672 14.2194 7.88672C14.2302 7.88672 14.345 7.97118 14.4745 8.07443C15.0762 8.5541 15.75 8.75897 17.6153 9.02944C18.713 9.18861 19.3307 9.31717 19.9005 9.50498C21.7116 10.102 22.8321 11.3135 23.0993 12.9636C23.177 13.4431 23.1314 14.3422 23.0055 14.8161C22.9063 15.1904 22.6029 15.8651 22.5224 15.8911C22.5001 15.8982 22.4783 15.8132 22.4725 15.6976C22.4421 15.078 22.127 14.4748 21.598 14.0229C20.9964 13.5091 20.1882 13.1001 18.212 12.3093Z" fill="#FF005C"/>
<path d="M16.1289 12.8023C16.0917 12.5824 16.0272 12.3016 15.9856 12.1783L15.9099 11.9541L16.0505 12.111C16.2451 12.3281 16.3989 12.6059 16.5293 12.9759C16.6287 13.2583 16.6399 13.3423 16.6392 13.8012C16.6384 14.2518 16.626 14.3462 16.5341 14.6004C16.3893 15.0013 16.2095 15.2855 15.9079 15.5906C15.3658 16.1389 14.669 16.4424 13.6633 16.5684C13.4885 16.5901 12.979 16.6271 12.5311 16.6502C11.4023 16.7086 10.6594 16.8291 9.99181 17.0622C9.89585 17.0956 9.81014 17.116 9.80144 17.1074C9.77443 17.0806 10.229 16.8113 10.6044 16.6316C11.1337 16.3781 11.6607 16.2399 12.8413 16.0444C13.4245 15.9478 14.0268 15.8307 14.1798 15.7841C15.6241 15.344 16.3665 14.2082 16.1289 12.8023Z" fill="#FF005C"/>
<path d="M17.4895 15.2041C17.0953 14.3617 17.0047 13.5484 17.2207 12.79C17.2438 12.7089 17.281 12.6426 17.3033 12.6426C17.3257 12.6426 17.4187 12.6926 17.51 12.7536C17.6918 12.8752 18.0562 13.0799 19.0268 13.606C20.2381 14.2624 20.9289 14.7706 21.3985 15.3514C21.8099 15.8599 22.0643 16.4392 22.1869 17.1455C22.2563 17.5455 22.2155 18.5082 22.1122 18.911C21.7866 20.1814 21.0296 21.1791 19.9501 21.7614C19.7919 21.8467 19.6499 21.9168 19.6345 21.9171C19.6191 21.9174 19.6768 21.7717 19.7626 21.5934C20.1257 20.8388 20.1671 20.1049 19.8925 19.2879C19.7244 18.7876 19.3816 18.1772 18.6895 17.1455C17.8847 15.9462 17.6874 15.627 17.4895 15.2041Z" fill="#FF005C"/>
<path d="M6.34395 19.7481C7.44509 18.8241 8.81518 18.1676 10.0632 17.966C10.6011 17.8792 11.4971 17.9136 11.9951 18.0404C12.7935 18.2434 13.5076 18.6983 13.879 19.2402C14.242 19.7698 14.3978 20.2313 14.5599 21.2582C14.6238 21.6633 14.6934 22.07 14.7145 22.1621C14.8362 22.6943 15.0732 23.1196 15.3668 23.3333C15.8331 23.6726 16.6362 23.6936 17.4261 23.3874C17.5602 23.3353 17.6766 23.2994 17.6847 23.3076C17.7135 23.3358 17.3156 23.6004 17.035 23.7398C16.6574 23.9273 16.3572 23.9998 15.9582 23.9998C15.2347 23.9998 14.634 23.634 14.1328 22.8881C14.0341 22.7412 13.8125 22.3016 13.6401 21.911C13.1109 20.7113 12.8496 20.3459 12.2352 19.9459C11.7004 19.5979 11.0108 19.5356 10.492 19.7884C9.81054 20.1205 9.6204 20.9861 10.1085 21.5346C10.3025 21.7526 10.6642 21.9406 10.96 21.9772C11.5134 22.0457 11.989 21.6272 11.989 21.0719C11.989 20.7113 11.8496 20.5056 11.4985 20.3481C11.0191 20.133 10.5038 20.3845 10.5062 20.832C10.5073 21.023 10.5909 21.1427 10.7834 21.2294C10.907 21.2849 10.9098 21.2893 10.8091 21.2685C10.3692 21.1778 10.2662 20.6508 10.6199 20.3008C11.0445 19.8809 11.9226 20.0661 12.2241 20.6396C12.3508 20.8804 12.3655 21.3601 12.255 21.6497C12.0079 22.298 11.2871 22.6388 10.556 22.4533C10.0582 22.3269 9.85555 22.1902 9.2554 21.5758C8.21254 20.5081 7.80768 20.3012 6.30421 20.068L6.01611 20.0232L6.34395 19.7481Z" fill="#FF005C"/>
<path fill-rule="evenodd" clip-rule="evenodd" d="M1.4504 0.638643C4.93309 4.83985 7.33179 6.57319 7.59836 6.93939C7.81845 7.24178 7.73562 7.51363 7.35857 7.72669C7.14889 7.84514 6.71781 7.96516 6.50197 7.96516C6.25787 7.96516 6.17404 7.87157 6.17404 7.87157C6.0325 7.73813 5.95278 7.76146 5.2259 6.47908C4.21677 4.92276 3.37224 3.63172 3.34921 3.6101C3.29594 3.56012 3.29685 3.5618 5.12301 6.80936C5.41807 7.48624 5.18169 7.7347 5.18169 7.8311C5.18169 8.02721 5.12787 8.1303 4.88446 8.40015C4.47869 8.85006 4.2973 9.35559 4.16636 10.4018C4.01958 11.5747 3.60681 12.4031 2.46292 13.821C1.79332 14.651 1.68376 14.8032 1.5148 15.1377C1.30198 15.559 1.24346 15.7949 1.21975 16.3268C1.19468 16.8893 1.2435 17.2527 1.41639 17.7904C1.56775 18.2613 1.72574 18.5721 2.12965 19.1938C2.47821 19.7304 2.67891 20.1292 2.67891 20.2852C2.67891 20.4093 2.70276 20.4095 3.24288 20.2882C4.53547 19.9982 5.58505 19.4879 6.17534 18.8625C6.54068 18.4755 6.62645 18.2618 6.62923 17.7316C6.63105 17.3846 6.61878 17.3119 6.52443 17.1124C6.37085 16.7875 6.09125 16.5174 5.475 16.0988C4.66756 15.5502 4.32268 15.1085 4.22743 14.5011C4.14928 14.0027 4.23994 13.6511 4.68662 12.7206C5.14896 11.7574 5.26354 11.347 5.34104 10.3762C5.3911 9.74899 5.46043 9.50164 5.64173 9.30309C5.83084 9.09605 6.00107 9.02593 6.46904 8.96238C7.232 8.85879 7.71782 8.6626 8.11716 8.29687C8.46357 7.97958 8.60853 7.67386 8.63077 7.21364L8.64767 6.86482L8.45407 6.64048C7.75302 5.82804 0.98091 0 0.937767 0C0.92855 0 1.15925 0.287408 1.4504 0.638643ZM3.07245 16.9633C3.23096 16.6842 3.14673 16.3257 2.8816 16.1504C2.63109 15.9849 2.24192 16.0629 2.24192 16.2786C2.24192 16.3444 2.27854 16.3923 2.3611 16.4346C2.5001 16.5056 2.51019 16.5856 2.40082 16.7489C2.29007 16.9144 2.299 17.06 2.42605 17.1588C2.63081 17.3181 2.92065 17.2304 3.07245 16.9633Z" fill="#FF005C"/>
<path fill-rule="evenodd" clip-rule="evenodd" d="M9.12932 9.14556C8.77115 9.2549 8.42297 9.6322 8.3152 10.0278C8.24945 10.2692 8.28676 10.6925 8.38524 10.8233C8.54434 11.0344 8.6982 11.0901 9.11482 11.0872C9.93048 11.0815 10.6396 10.7338 10.722 10.2991C10.7896 9.94284 10.4782 9.44905 10.0492 9.23227C9.82783 9.12045 9.35708 9.07609 9.12932 9.14556ZM10.0828 9.88664C10.2086 9.70899 10.1536 9.51701 9.93966 9.38716C9.53226 9.13991 8.91618 9.34452 8.91618 9.72704C8.91618 9.91744 9.23746 10.1252 9.53195 10.1252C9.72795 10.1252 9.9962 10.009 10.0828 9.88664Z" fill="#FF005C"/>
</svg>