<svg width="24" height="24" viewBox="0 0 24 24" fill="none" xmlns="http://www.w3.org/2000/svg">
<path d="M12 24C18.6274 24 24 18.6274 24 12C24 5.37258 18.6274 0 12 0C5.37258 0 0 5.37258 0 12C0 18.6274 5.37258 24 12 24Z" fill="#15BDFF"/>
<path d="M11.0536 18.5505L5.2801 6.7845C5.23731 6.69639 5.24276 6.59249 5.29454 6.50935C5.34631 6.4262 5.43715 6.37547 5.5351 6.375H7.5361C7.64335 6.375 7.74385 6.435 7.7911 6.5295L12.0076 15.0652C12.3826 15.8302 13.4708 15.8302 13.8466 15.0652L18.0496 6.53625C18.099 6.44109 18.1974 6.38148 18.3046 6.38175H18.5536C18.7014 6.38175 18.7951 6.53625 18.7284 6.66375L12.8934 18.5512C12.5176 19.3162 11.4301 19.3162 11.0536 18.5512V18.5505Z" fill="white"/>
</svg>