<svg width="24" height="24" viewBox="0 0 24 24" fill="none" xmlns="http://www.w3.org/2000/svg">
<g clip-path="url(#clip0)">
<path d="M2.8125 12.0514C2.8125 8.64144 2.8125 5.23616 2.8125 1.82622C2.8125 1.35572 2.91033 0.917834 3.25505 0.563797C3.7861 0.018766 4.46157 -0.139619 5.12306 0.125909C5.74262 0.377462 6.15722 1.011 6.15722 1.73305C6.15722 5.23616 6.15722 8.7346 6.15722 12.2377C6.15722 14.4039 6.15722 16.57 6.15722 18.7362C6.15722 18.8153 6.15256 18.8899 6.15722 18.9691C6.17585 19.2439 6.32492 19.3324 6.5625 19.1973C7.02368 18.9365 7.47554 18.6709 7.93672 18.4054C8.43517 18.1166 8.9243 17.8231 9.43207 17.5483C9.70225 17.4039 9.80939 17.2175 9.80939 16.9008C9.80008 13.2113 9.80474 9.52653 9.80474 5.83709C9.80474 5.32933 9.92585 4.8728 10.3032 4.50479C10.8529 3.96908 11.6122 3.83864 12.2923 4.21597C13.1495 4.69113 13.988 5.18957 14.8358 5.6787C16.9274 6.88523 19.019 8.08709 21.106 9.29827C21.8234 9.71286 22.5408 10.1368 23.2582 10.5514C24.1572 11.0685 24.3436 12.3402 23.6215 13.0809C23.3513 13.3557 22.988 13.5467 22.6479 13.7424C20.5563 14.9582 18.4554 16.1694 16.3591 17.3806C14.2162 18.6197 12.0687 19.8542 9.92585 21.0886C8.49573 21.9132 7.06095 22.7377 5.63082 23.5669C5.55163 23.6135 5.47244 23.6647 5.39325 23.716C4.82958 24.07 4.24728 24.098 3.66964 23.7719C3.11064 23.4551 2.81716 22.952 2.8125 22.2998C2.8125 18.8852 2.8125 15.4706 2.8125 12.0514ZM13.1448 11.9815C13.1448 12.9365 13.1448 13.8914 13.1448 14.8417C13.1448 15.2284 13.2845 15.3122 13.6153 15.1213C15.283 14.1616 16.946 13.202 18.6091 12.2377C18.9305 12.0514 18.9305 11.8883 18.6137 11.7067C16.9507 10.7424 15.283 9.78274 13.62 8.81845C13.2939 8.63212 13.1448 8.71597 13.1448 9.0933C13.1448 10.0576 13.1448 11.0219 13.1448 11.9815Z" fill="#00C3D1"/>
</g>
<defs>
<clipPath id="clip0">
<rect width="24" height="24" fill="white"/>
</clipPath>
</defs>
</svg>