<svg width="24" height="24" viewBox="0 0 24 24" fill="none" xmlns="http://www.w3.org/2000/svg">
<path d="M12.1001 22.5996C17.8991 22.5996 22.6001 17.8986 22.6001 12.0996C22.6001 6.30061 17.8991 1.59961 12.1001 1.59961C6.3011 1.59961 1.6001 6.30061 1.6001 12.0996C1.6001 17.8986 6.3011 22.5996 12.1001 22.5996Z" fill="white"/>
<path fill-rule="evenodd" clip-rule="evenodd" d="M0 12C0 5.37225 5.37225 0 12 0C18.6278 0 24 5.37225 24 12C24 18.6278 18.6278 24 12 24C5.37225 24 0 18.6278 0 12Z" fill="#252C35"/>
<path fill-rule="evenodd" clip-rule="evenodd" d="M6.60573 13.5625C7.42954 13.5625 8.08874 12.9025 8.08874 12.0767C8.09038 11.8775 8.05215 11.68 7.97635 11.4958C7.90055 11.3116 7.78869 11.1445 7.64735 11.0044C7.50608 10.8643 7.33818 10.754 7.15359 10.6801C6.96908 10.606 6.77154 10.5699 6.57281 10.5737C5.69962 10.5902 5.04117 11.251 5.05763 12.0767C5.05763 12.9355 5.73254 13.5625 6.60648 13.5625H6.60573ZM12.0095 8.04741C12.4042 8.04269 12.7812 7.88234 13.0588 7.60101C13.3363 7.31968 13.4921 6.94009 13.4925 6.54439C13.4925 5.71937 12.7667 5.02486 11.9437 5.04136C11.0869 5.07436 10.4113 5.75163 10.4442 6.57739C10.4607 7.41965 11.1528 8.06391 12.0095 8.04741ZM15.9465 11.9107C15.9301 12.7695 16.5563 13.4295 17.4295 13.446C17.6244 13.4555 17.8192 13.4262 18.0028 13.3598C18.1863 13.2935 18.355 13.1914 18.4989 13.0594C18.6429 12.9275 18.7594 12.7682 18.8417 12.5909C18.924 12.4136 18.9704 12.2217 18.9784 12.0262C19.0106 11.184 18.3521 10.4737 17.5283 10.4572C16.6551 10.4407 15.963 11.0685 15.9465 11.9107ZM12.0916 18.9784C12.9154 18.9784 13.5746 18.3184 13.591 17.5084C13.6075 16.6999 12.9318 16.0061 12.1245 15.9896C11.2513 15.9731 10.5427 16.6496 10.5427 17.4926C10.5427 18.3011 11.2513 18.9626 12.0916 18.9784ZM17.4955 14.4863C16.7704 14.4698 16.1442 14.2553 15.6174 13.7108C15.0076 13.0996 14.2668 13.0171 13.7229 13.4956C13.1467 13.9906 13.1131 14.7511 13.69 15.4441C14.3162 16.2039 14.7936 16.9966 14.5467 18.0369C14.3162 19.0119 13.5418 19.7874 12.5863 19.9524C11.5313 20.1504 10.477 19.7214 9.93381 18.8297C9.35767 17.9049 9.38985 16.9636 9.96674 16.0389C10.049 15.9054 10.1501 15.7839 10.2503 15.6639C10.3109 15.5919 10.3723 15.5191 10.4276 15.4441C10.9552 14.7841 10.9387 14.0408 10.3453 13.5451C9.78566 13.0666 9.04342 13.1326 8.48374 13.7101C7.79237 14.4533 6.93489 14.7346 5.94722 14.5028C4.90942 14.2553 4.16794 13.4303 4.01979 12.3728C3.88735 11.3828 4.43132 10.3253 5.30448 9.84677C5.76375 9.59574 6.28796 9.48984 6.80829 9.54279C7.32868 9.59582 7.82095 9.80529 8.22036 10.1438C8.26974 10.185 8.31912 10.2338 8.36851 10.284C8.41789 10.3335 8.46727 10.383 8.51666 10.4243C9.07709 10.9365 9.85151 10.9365 10.3618 10.4408C10.8556 9.96227 10.8893 9.21826 10.4276 8.64075L10.2945 8.48175C9.94354 8.06324 9.60609 7.66049 9.48861 7.08898C9.2417 5.91596 9.78566 4.74369 10.8564 4.24869C11.96 3.73644 13.2612 4.03344 13.9698 4.97469C14.3242 5.43032 14.5111 5.99441 14.4992 6.57199C14.4872 7.14958 14.2769 7.70534 13.9039 8.14574C13.8381 8.21999 13.7723 8.298 13.7064 8.37675C13.6406 8.45475 13.5747 8.53425 13.5089 8.60775C13.0637 9.20251 13.1131 9.92927 13.6241 10.4078C14.1509 10.887 14.926 10.887 15.4528 10.3253C16.0125 9.74777 16.6552 9.40051 17.479 9.40051C17.8117 9.39961 18.1411 9.46486 18.4484 9.59252C18.7557 9.72017 19.0347 9.90767 19.2691 10.1442C19.5036 10.3806 19.6889 10.6614 19.8143 10.9702C19.9397 11.279 20.0028 11.6097 19.9998 11.9431C20.0163 13.3471 18.879 14.4706 17.4955 14.4863ZM12.0917 18.4832C11.5484 18.4832 11.0374 17.9882 11.0374 17.4594C11.0374 16.9472 11.5312 16.4679 12.0752 16.4679C12.21 16.4658 12.3438 16.4909 12.4688 16.5416C12.5936 16.5923 12.7072 16.6677 12.8024 16.7633C12.8977 16.8589 12.9729 16.9727 13.0234 17.0979C13.0739 17.2232 13.0988 17.3574 13.0965 17.4924C13.0965 18.0699 12.6685 18.4825 12.0917 18.4825V18.4832ZM16.4413 11.9432C16.4413 12.5057 16.9022 12.9347 17.4791 12.9512C17.6091 12.9565 17.7389 12.9359 17.8609 12.8904C17.9829 12.845 18.0947 12.7757 18.1897 12.6866C18.2848 12.5975 18.3612 12.4903 18.4145 12.3713C18.4679 12.2523 18.497 12.1239 18.5004 11.9934C18.5169 11.4317 18.0552 10.9359 17.4955 10.9359C16.9351 10.9359 16.4405 11.4159 16.4405 11.9439L16.4413 11.9432ZM12.9979 6.56003C12.9979 7.12179 12.5534 7.5673 12.0095 7.5838C11.4819 7.6003 10.9387 7.08879 10.9387 6.56003C10.9387 6.01477 11.4161 5.55276 11.993 5.55276C12.5534 5.55276 12.9979 5.99827 12.9979 6.56003ZM7.59396 12.0922C7.60099 11.9565 7.58004 11.8209 7.53246 11.6937C7.48487 11.5665 7.41169 11.4505 7.31741 11.3528C7.22314 11.2552 7.10978 11.1781 6.98452 11.1264C6.85919 11.0746 6.72459 11.0493 6.58908 11.0519C6.0294 11.0519 5.53482 11.5304 5.53482 12.0592C5.53482 12.5707 6.09525 13.0829 6.65493 13.0829C7.16597 13.0829 7.59396 12.6367 7.59396 12.0922Z" fill="white"/>
</svg>