<svg width="24" height="24" viewBox="0 0 24 24" fill="none" xmlns="http://www.w3.org/2000/svg">
<path d="M11.9999 23.9998C18.6273 23.9998 23.9998 18.6273 23.9998 11.9999C23.9998 5.37254 18.6273 0 11.9999 0C5.37254 0 0 5.37254 0 11.9999C0 18.6273 5.37254 23.9998 11.9999 23.9998Z" fill="#218CFF"/>
<path d="M19.7842 7.68787C18.2686 6.38423 16.1132 6.17187 14.3899 7.16413C13.2647 7.81216 12.4184 8.74713 11.7285 9.8283C11.5515 10.1055 11.4272 10.1475 11.1548 9.93869C10.4583 9.40485 9.69169 8.98498 8.87323 8.66286C5.20437 7.21912 2.2697 10.068 2.34112 12.9347C2.3546 16.5001 6.13533 18.722 9.25665 16.9949C10.3286 16.4019 11.1495 15.5337 11.8062 14.5198C12.0805 14.0963 12.2444 13.9823 12.7115 14.328C13.8721 15.1874 15.1576 15.8129 16.638 15.8723C18.554 15.9492 20.3408 14.7353 21.061 12.9052C21.7817 11.0744 21.2645 8.96117 19.7839 7.68787H19.7842ZM10.1906 12.5371C9.61037 13.4664 9.00026 14.3746 7.99325 14.8977C6.81812 15.5082 5.40535 14.9858 4.90879 13.782C4.41456 12.5843 5.02045 11.2428 6.24951 10.8368C6.46651 10.7649 6.70077 10.7449 6.88659 10.7089C8.18306 10.8284 9.16943 11.4956 10.1295 12.2213C10.2525 12.3142 10.2725 12.4063 10.1908 12.5373L10.1906 12.5371ZM18.3809 12.626C17.8102 13.312 17.0749 13.5774 16.1836 13.3457C15.1963 13.0891 14.369 12.5432 13.5697 11.9403C13.4324 11.8366 13.4014 11.745 13.4996 11.5868C14.0475 10.703 14.6421 9.86348 15.5562 9.31257C15.8991 9.1059 16.2714 8.99804 16.6765 9.00457C17.5906 9.03701 18.2844 9.4394 18.6756 10.2762C19.0649 11.1092 18.9693 11.9188 18.3809 12.626Z" fill="#FEFEFE"/>
</svg>