<svg width="24" height="24" viewBox="0 0 24 24" fill="none" xmlns="http://www.w3.org/2000/svg">
<path d="M11.9984 24C18.6206 24 23.9969 18.6238 23.9969 12.0016C23.9969 5.37936 18.6238 0 11.9984 0C5.37309 0 0 5.37623 0 11.9984C0 18.6206 5.37623 24 11.9984 24Z" fill="#005AE0"/>
<path d="M13.7625 20.8365C12.5008 20.8365 11.5812 20.5415 11.0038 19.9326C10.4263 19.3238 10.1469 18.6867 10.1469 17.9836C10.1469 17.7357 10.194 17.516 10.3039 17.3434C10.398 17.1708 10.5361 17.0327 10.7087 16.9385C10.8814 16.8444 11.0979 16.7816 11.349 16.7816C11.6001 16.7816 11.8166 16.8287 11.9892 16.9385C12.1619 17.0327 12.3 17.1708 12.3941 17.3434C12.4883 17.516 12.551 17.7326 12.551 17.9836C12.551 18.2943 12.4726 18.5454 12.3313 18.7306C12.1901 18.9189 12.0049 19.057 11.8009 19.1198C11.9736 19.352 12.2529 19.5246 12.6264 19.6345C12.9998 19.7443 13.3733 19.7914 13.75 19.7914C14.2804 19.7914 14.748 19.6502 15.1686 19.3708C15.5891 19.0915 15.8998 18.671 16.1038 18.1249C16.3078 17.5788 16.3989 16.9574 16.3989 16.2543C16.3989 15.4917 16.289 14.8514 16.0725 14.321C15.8528 13.7749 15.542 13.3701 15.1215 13.1221C14.7009 12.8585 14.249 12.733 13.75 12.733C13.4235 12.733 13.0344 12.8742 12.551 13.1378L11.6723 13.5584V13.1221L15.6456 7.82438H10.1469V13.3261C10.1469 13.7781 10.2411 14.1516 10.442 14.4497C10.646 14.7447 10.9567 14.886 11.3615 14.886C11.688 14.886 11.9861 14.7761 12.2811 14.5596C12.5761 14.3399 12.8272 14.0762 13.0438 13.7812C13.0752 13.7184 13.1066 13.6714 13.1379 13.6557C13.185 13.6243 13.2164 13.6086 13.2635 13.6086C13.3419 13.6086 13.4204 13.64 13.5271 13.7184C13.6213 13.8283 13.6684 13.9507 13.6684 14.0919C13.6684 14.1547 13.637 14.2488 13.6213 14.3712C13.4016 14.886 13.0909 15.2751 12.686 15.5388C12.2811 15.8024 11.8449 15.9436 11.3615 15.9436C10.1626 15.9436 9.34976 15.7114 8.88212 15.2437C8.43017 14.7761 8.19792 14.1359 8.19792 13.3418V7.82438H5.39209V6.79495H8.21362V4.45679L7.57336 3.81654V3.28613H9.44391L10.1438 3.64392V6.77926L17.422 6.76357L18.1376 7.47914L13.684 11.9546C13.9477 11.8448 14.2301 11.782 14.5252 11.7506C15.0085 11.7506 15.5546 11.9075 16.1446 12.2182C16.7535 12.5133 17.2212 12.9338 17.5476 13.4642C17.874 13.9946 18.0937 14.4936 18.1878 14.977C18.282 15.4603 18.3447 15.8809 18.3447 16.27C18.3447 17.1268 18.1564 17.9209 17.7986 18.6553C17.4408 19.3865 16.8947 19.9483 16.1478 20.3061C15.4134 20.6639 14.6193 20.8365 13.7625 20.8365Z" fill="white"/>
</svg>