<svg width="24" height="24" viewBox="0 0 24 24" fill="none" xmlns="http://www.w3.org/2000/svg">
<g clip-path="url(#clip0_941_633)">
<path fill-rule="evenodd" clip-rule="evenodd" d="M-5.24537e-07 12C-8.14186e-07 5.3736 5.3736 -2.34888e-07 12 -5.24537e-07C18.6264 -8.14186e-07 24 5.3736 24 12C24 18.6264 18.6264 24 12 24C5.3736 24 -2.34888e-07 18.6264 -5.24537e-07 12Z" fill="#E3006D"/>
<path d="M17.0592 12.4941L7.0752 12.4941L7.0752 11.4069L17.0592 11.4069L17.0592 12.4941Z" fill="white"/>
<path d="M10.4013 6.9605L11.2917 10.3181L7.80693 11.0669L7.58133 10.0685L9.23253 9.6749C9.23253 9.6749 7.74453 8.7677 6.20373 9.9773C5.41173 10.6901 5.37813 11.0285 5.25333 11.8277C5.15253 12.5309 5.39013 14.1653 7.29813 14.6525C8.52693 14.8589 9.43653 14.6261 10.6269 13.0421L11.9517 13.1309C11.9517 13.1309 10.7061 14.8997 9.83253 15.3557C9.14133 15.7085 7.77573 16.3133 5.87493 15.2213C4.92453 14.6333 4.01253 13.4741 4.10853 11.4317C4.15173 10.4045 5.40693 7.8965 8.33973 8.2853C8.88933 8.3525 9.62133 8.6381 9.62133 8.6381L9.31413 7.2605L10.4013 6.9605Z" fill="white"/>
<path d="M18.213 8.87723C19.1466 9.49163 20.0274 10.6748 19.8786 12.7124C19.809 13.7396 18.4866 16.2116 15.5658 15.746C15.0186 15.6644 14.2962 15.3596 14.2962 15.3596L14.565 16.7444L13.473 17.0156L12.6715 13.634L16.1754 12.9764L16.3746 13.982L14.7114 14.3324C14.7114 14.3324 16.173 15.278 17.7474 14.1116C18.5586 13.4204 18.5994 13.0844 18.7458 12.2852C18.8658 11.5868 18.669 9.94523 16.7754 9.40763C15.5538 9.17003 14.637 9.37883 13.4034 10.9292L12.0811 10.8044C12.0811 10.8044 13.3722 9.06923 14.2578 8.63723C14.961 8.30603 16.3434 7.73723 18.213 8.87723Z" fill="white"/>
</g>
<defs>
<clipPath id="clip0_941_633">
<rect width="24" height="24" fill="white" transform="translate(0 24) rotate(-90)"/>
</clipPath>
</defs>
</svg>