<svg width="24" height="24" viewBox="0 0 24 24" fill="none" xmlns="http://www.w3.org/2000/svg">
<g clip-path="url(#clip0_4090:126821)">
<path d="M11.4966 1.13307H11.4994H11.5021C12.2285 1.51681 13.6451 2.25061 15.2961 3.03052C17.0482 3.85855 19.0555 4.82612 19.9888 5.27602C20.0572 6.9826 20.1131 12.1184 18.5407 15.4786C17.6319 17.421 16.4563 19.1544 15.1376 20.4909C13.9578 21.6898 12.7028 22.5359 11.4994 22.9473C10.2963 22.5395 9.04211 21.6918 7.86108 20.4945C6.54357 19.1568 5.36686 17.4234 4.45798 15.4822C2.88877 12.1288 2.94266 6.98701 3.01069 5.27963C3.94396 4.82853 5.9505 3.86136 7.70259 3.03413C9.35438 2.25422 10.7702 1.52042 11.4966 1.13668V1.13307ZM11.4994 0.00390625L11.4294 0.0415987C10.9519 0.297826 9.30129 1.17397 7.28924 2.1247C4.89296 3.25708 2.05855 4.63084 2.05855 4.63084C2.05855 4.63084 1.53509 11.5678 3.56955 15.9149C5.55367 20.1545 8.56939 23.1017 11.3908 23.9698C11.3908 23.9698 11.4624 24.0123 11.4982 24.0023C11.534 24.0123 11.6055 23.9698 11.6055 23.9698C14.427 23.1017 17.4431 20.1545 19.4268 15.9149C21.4613 11.567 20.9378 4.63084 20.9378 4.63084C20.9378 4.63084 18.1062 3.25708 15.7071 2.1247C13.6974 1.17036 12.0468 0.294217 11.5686 0.0379897L11.4994 0.00390625Z" fill="url(#paint0_linear_4090:126821)"/>
<path d="M19.1335 5.83541C19.1335 5.83541 16.8422 4.69141 14.9045 3.7503C13.2775 2.95876 11.9426 2.22938 11.5564 2.01565L11.4998 1.98438L11.4432 2.01565C11.0574 2.22938 9.72255 2.95876 8.09513 3.7503C6.15742 4.69301 3.86614 5.83541 3.86614 5.83541C3.86614 5.83541 3.44257 11.6096 5.08807 15.2316C6.69229 18.7619 9.13065 21.2163 11.4117 21.938C11.4117 21.938 11.4695 21.9733 11.4986 21.9649C11.5277 21.9733 11.5855 21.938 11.5855 21.938C13.8666 21.2163 16.305 18.7611 17.9107 15.2308C19.557 11.6112 19.1335 5.83541 19.1335 5.83541ZM17.0196 14.8102C16.7773 15.3434 16.5078 15.8632 16.2121 16.3676C15.9349 16.3676 15.4169 16.3869 15.4169 16.3869L14.0255 18.6965L14.2445 18.994C13.3482 19.9163 12.4048 20.5771 11.4998 20.9111C10.5866 20.5743 9.63445 19.9087 8.73107 18.9696L8.93204 18.6965L7.54021 16.3869C7.54021 16.3869 7.0722 16.3712 6.78785 16.368C6.49207 15.8635 6.22243 15.3435 5.98005 14.8102C4.75103 12.1052 4.76715 7.97344 4.81946 6.47618C5.60839 6.08402 7.15833 5.31333 8.5187 4.65371C9.29701 4.27478 10.0112 3.90909 10.5882 3.60635L11.4998 4.91636L12.4114 3.60635C12.9888 3.90909 13.7026 4.27478 14.4813 4.65371C15.8413 5.31533 17.3916 6.08442 18.1805 6.47658C18.2336 7.97264 18.2517 12.0987 17.0196 14.8102Z" fill="url(#paint1_linear_4090:126821)"/>
<path d="M6.23372 6.15896L9.43191 5.50977L10.4678 6.15896L12.5259 10.5818L14.1384 7.62294C14.1384 7.62294 14.1828 6.71752 13.961 6.47573C13.7392 6.23394 13.5905 6.15896 13.5905 6.15896L15.767 5.50977L16.8037 6.15896L13.4277 12.9356L13.4871 17.1928L14.2422 18.5513L9.32612 18.6267L8.28981 17.9775L10.3774 17.4189V12.8313L7.37189 7.51748C7.37189 7.51748 7.03327 6.52104 6.23372 6.15896Z" fill="#DDDDDD"/>
<path d="M5.1978 5.50977H9.4323L11.4904 9.9326L13.1028 6.97415C13.1028 6.97415 13.1473 6.06833 12.9251 5.82694C12.7029 5.58555 12.555 5.50977 12.555 5.50977H15.7677L12.3922 12.2864L12.4516 16.5436L13.2067 17.9021L8.2906 17.9775L9.34185 16.7702V12.1821L6.33833 6.8683C6.33833 6.8683 5.99656 5.87185 5.1978 5.50977Z" fill="white"/>
</g>
<defs>
<linearGradient id="paint0_linear_4090:126821" x1="2.58947" y1="0.76217" x2="19.6019" y2="21.733" gradientUnits="userSpaceOnUse">
<stop stop-color="#3563C3"/>
<stop offset="1" stop-color="#CC321E"/>
</linearGradient>
<linearGradient id="paint1_linear_4090:126821" x1="3.35683" y1="3.1881" x2="19.5129" y2="20.0576" gradientUnits="userSpaceOnUse">
<stop stop-color="#3563C3"/>
<stop offset="1" stop-color="#CC321E"/>
</linearGradient>
<clipPath id="clip0_4090:126821">
<rect width="19" height="24" fill="white" transform="translate(2)"/>
</clipPath>
</defs>
</svg>