<svg width="24" height="24" viewBox="0 0 24 24" fill="none" xmlns="http://www.w3.org/2000/svg">
<g clip-path="url(#clip0)">
<path d="M21.7829 5.17383L19.8373 8.1949C20.6624 9.82509 20.9516 11.6742 20.6637 13.4785C20.3757 15.2828 19.5253 16.9501 18.2337 18.2424C16.9422 19.5348 15.2755 20.3863 13.4713 20.6754C11.6672 20.9645 9.81792 20.6764 8.18721 19.8523L5.16797 21.8016C7.46251 23.4513 10.2689 24.2311 13.0856 24.0019C15.9023 23.7726 18.5457 22.549 20.5432 20.55C22.5407 18.5509 23.7622 15.9066 23.9893 13.0898C24.2164 10.2729 23.4344 7.46709 21.7829 5.17383Z" fill="url(#paint0_radial)"/>
<path d="M15.059 11.7806C16.0818 11.7786 17.1017 11.8892 18.1003 12.1104C18.1007 11.2893 17.9324 10.4769 17.6058 9.72364C17.2792 8.97035 16.8012 8.29223 16.2015 7.7314C15.6019 7.17056 14.8933 6.73898 14.1199 6.46344C13.3464 6.1879 12.5246 6.07429 11.7054 6.12966C10.8862 6.18502 10.0872 6.40819 9.35784 6.7853C8.62851 7.16241 7.98448 7.68541 7.46573 8.32184C6.94699 8.95826 6.5646 9.69453 6.34231 10.4849C6.12002 11.2753 6.06257 12.103 6.17354 12.9165C5.34951 13.5297 4.594 14.2299 3.9201 15.005C3.59592 14.0806 3.42873 13.1084 3.42544 12.1287C3.42472 10.9905 3.64837 9.86334 4.08361 8.81165C4.51884 7.75996 5.15712 6.80438 5.96194 5.99955C6.76677 5.19473 7.72235 4.55645 8.77404 4.12122C9.82573 3.68598 10.9529 3.46233 12.0911 3.46306C13.448 3.45708 14.7864 3.77754 15.9934 4.39741L19.0163 2.4371C17.0151 0.964868 14.5938 0.174869 12.1094 0.183666C9.90318 0.183065 7.74005 0.794614 5.86071 1.95027C3.98137 3.10592 2.45953 4.76035 1.46453 6.72946C0.469531 8.69858 0.0403907 10.9052 0.224863 13.1037C0.409335 15.3022 1.20019 17.4064 2.50941 19.1821C3.06913 18.1675 3.75217 17.226 4.543 16.3791C4.543 16.3791 5.71552 15.1516 6.61323 14.5287C9.06355 12.7357 12.0228 11.7729 15.059 11.7806Z" fill="#0D0D0D"/>
<path d="M12.0987 18.0787C13.4958 18.0789 14.849 17.5903 15.9238 16.6976C16.9985 15.8049 17.7271 14.5643 17.9833 13.1908C16.117 12.7875 14.1871 12.7789 12.3173 13.1658C10.4476 13.5526 8.67946 14.3262 7.12646 15.4369C7.67462 16.2517 8.41499 16.9189 9.28218 17.3797C10.1494 17.8404 11.1167 18.0805 12.0987 18.0787Z" fill="url(#paint1_radial)"/>
</g>
<defs>
<radialGradient id="paint0_radial" cx="0" cy="0" r="1" gradientUnits="userSpaceOnUse" gradientTransform="translate(21.7884 5.161) scale(20.0519)">
<stop offset="0.1" stop-color="#08DC8A"/>
<stop offset="0.26" stop-color="#07D397"/>
<stop offset="0.54" stop-color="#04BCB8"/>
<stop offset="0.89" stop-color="#009BE7"/>
</radialGradient>
<radialGradient id="paint1_radial" cx="0" cy="0" r="1" gradientUnits="userSpaceOnUse" gradientTransform="translate(21.7884 5.16089) scale(20.0519)">
<stop offset="0.1" stop-color="#08DC8A"/>
<stop offset="0.26" stop-color="#07D397"/>
<stop offset="0.54" stop-color="#04BCB8"/>
<stop offset="0.89" stop-color="#009BE7"/>
</radialGradient>
<clipPath id="clip0">
<rect width="24" height="24" fill="white"/>
</clipPath>
</defs>
</svg>