<svg width="24" height="24" viewBox="0 0 24 24" fill="none" xmlns="http://www.w3.org/2000/svg">
<path fill-rule="evenodd" clip-rule="evenodd" d="M7.88183 18.4843C6.69223 19.3913 5.50302 20.2978 4.31384 21.2044C1.6776 19.0066 0 15.6976 0 11.997C0 9.81819 0.581375 7.77531 1.59787 6.01465L7.05545 13.1539L5.03072 15.2613C5.26586 15.7385 5.61956 16.3385 6.1464 16.9554C6.7604 17.6744 7.39467 18.1649 7.88183 18.4843Z" fill="#004466"/>
<path fill-rule="evenodd" clip-rule="evenodd" d="M18.4701 16.0977C19.3771 17.2873 20.2836 18.4765 21.1902 19.6657C18.9924 22.3019 15.6835 23.9795 11.9828 23.9795C9.80399 23.9795 7.76112 23.3981 6.00049 22.3817L13.1398 16.9241L15.2471 18.9488C15.7244 18.7137 16.3244 18.36 16.9412 17.8331C17.6602 17.2191 18.1507 16.5848 18.4701 16.0977Z" fill="#004466"/>
<path fill-rule="evenodd" clip-rule="evenodd" d="M16.084 5.50914C17.2736 4.60218 18.4628 3.69562 19.652 2.78906C22.2882 4.98686 23.9658 8.29578 23.9658 11.9964C23.9658 14.1753 23.3845 16.2181 22.368 17.9788L16.9104 10.8395L18.9351 8.73213C18.7 8.2549 18.3463 7.65494 17.8194 7.03802C17.2054 6.31905 16.5712 5.82857 16.084 5.50914Z" fill="#004466"/>
<path fill-rule="evenodd" clip-rule="evenodd" d="M5.49551 7.89553C4.58854 6.70591 3.68195 5.51672 2.77539 4.32751C4.97322 1.69128 8.28214 0.0136719 11.9828 0.0136719C14.1616 0.0136719 16.2045 0.595047 17.9651 1.61154L10.8258 7.06912L8.71849 5.04443C8.24123 5.27953 7.64126 5.63323 7.02435 6.16007C6.30538 6.77411 5.81493 7.40838 5.49551 7.89553Z" fill="#004466"/>
</svg>